<svg width="24" height="24" viewBox="0 0 24 24" fill="none" xmlns="http://www.w3.org/2000/svg">
<g id="Instagram_logo" clip-path="url(#clip0_1_25668)">
<g id="Group">
<path id="Vector" d="M12.0039 0C6.99403 0 5.52882 0.00517032 5.24402 0.0287999C4.21591 0.114284 3.57615 0.276208 2.87917 0.623305C2.34205 0.890106 1.91843 1.19936 1.50035 1.63287C0.73896 2.42346 0.277507 3.3961 0.110458 4.55226C0.0292467 5.11354 0.00561688 5.228 0.000818394 8.09496C-0.00102299 9.05061 0.000818394 10.3083 0.000818394 11.9953C0.000818394 17.0025 0.00635159 18.4666 0.0303531 18.7509C0.113415 19.7516 0.270305 20.3812 0.602552 21.0699C1.23751 22.3882 2.4502 23.3778 3.87886 23.7471C4.37354 23.8745 4.9199 23.9446 5.6213 23.9778C5.91848 23.9908 8.94744 24 11.9783 24C15.0091 24 18.0399 23.9963 18.3297 23.9815C19.1418 23.9433 19.6134 23.88 20.1349 23.7452C21.5728 23.3741 22.7633 22.3992 23.4112 21.0625C23.737 20.3905 23.9022 19.7369 23.9769 18.7884C23.9932 18.5816 24 15.2847 24 11.9922C24 8.69907 23.9926 5.40821 23.9764 5.20142C23.9007 4.23765 23.7355 3.5896 23.3992 2.90461C23.1232 2.34388 22.8168 1.92514 22.372 1.49699C21.5781 0.738523 20.6072 0.276943 19.4503 0.110039C18.8897 0.0289815 18.778 0.00497991 15.9096 0H12.0039Z" fill="url(#paint0_radial_1_25668)"/>
<path id="Vector_2" d="M12.0039 0C6.99403 0 5.52882 0.00517032 5.24402 0.0287999C4.21591 0.114284 3.57615 0.276208 2.87917 0.623305C2.34205 0.890106 1.91843 1.19936 1.50035 1.63287C0.73896 2.42346 0.277507 3.3961 0.110458 4.55226C0.0292467 5.11354 0.00561688 5.228 0.000818394 8.09496C-0.00102299 9.05061 0.000818394 10.3083 0.000818394 11.9953C0.000818394 17.0025 0.00635159 18.4666 0.0303531 18.7509C0.113415 19.7516 0.270305 20.3812 0.602552 21.0699C1.23751 22.3882 2.4502 23.3778 3.87886 23.7471C4.37354 23.8745 4.9199 23.9446 5.6213 23.9778C5.91848 23.9908 8.94744 24 11.9783 24C15.0091 24 18.0399 23.9963 18.3297 23.9815C19.1418 23.9433 19.6134 23.88 20.1349 23.7452C21.5728 23.3741 22.7633 22.3992 23.4112 21.0625C23.737 20.3905 23.9022 19.7369 23.9769 18.7884C23.9932 18.5816 24 15.2847 24 11.9922C24 8.69907 23.9926 5.40821 23.9764 5.20142C23.9007 4.23765 23.7355 3.5896 23.3992 2.90461C23.1232 2.34388 22.8168 1.92514 22.372 1.49699C21.5781 0.738523 20.6072 0.276943 19.4503 0.110039C18.8897 0.0289815 18.778 0.00497991 15.9096 0H12.0039Z" fill="url(#paint1_radial_1_25668)"/>
<path id="Vector_3" d="M12.0039 0C6.99403 0 5.52882 0.00517032 5.24402 0.0287999C4.21591 0.114284 3.57615 0.276208 2.87917 0.623305C2.34205 0.890106 1.91843 1.19936 1.50035 1.63287C0.73896 2.42346 0.277507 3.3961 0.110458 4.55226C0.0292467 5.11354 0.00561688 5.228 0.000818394 8.09496C-0.00102299 9.05061 0.000818394 10.3083 0.000818394 11.9953C0.000818394 17.0025 0.00635159 18.4666 0.0303531 18.7509C0.113415 19.7516 0.270305 20.3812 0.602552 21.0699C1.23751 22.3882 2.4502 23.3778 3.87886 23.7471C4.37354 23.8745 4.9199 23.9446 5.6213 23.9778C5.91848 23.9908 8.94744 24 11.9783 24C15.0091 24 18.0399 23.9963 18.3297 23.9815C19.1418 23.9433 19.6134 23.88 20.1349 23.7452C21.5728 23.3741 22.7633 22.3992 23.4112 21.0625C23.737 20.3905 23.9022 19.7369 23.9769 18.7884C23.9932 18.5816 24 15.2847 24 11.9922C24 8.69907 23.9926 5.40821 23.9764 5.20142C23.9007 4.23765 23.7355 3.5896 23.3992 2.90461C23.1232 2.34388 22.8168 1.92514 22.372 1.49699C21.5781 0.738523 20.6072 0.276943 19.4503 0.110039C18.8897 0.0289815 18.778 0.00497991 15.9096 0H12.0039Z" fill="url(#paint2_radial_1_25668)"/>
<path id="Vector_4" d="M12.0039 0C6.99403 0 5.52882 0.00517032 5.24402 0.0287999C4.21591 0.114284 3.57615 0.276208 2.87917 0.623305C2.34205 0.890106 1.91843 1.19936 1.50035 1.63287C0.73896 2.42346 0.277507 3.3961 0.110458 4.55226C0.0292467 5.11354 0.00561688 5.228 0.000818394 8.09496C-0.00102299 9.05061 0.000818394 10.3083 0.000818394 11.9953C0.000818394 17.0025 0.00635159 18.4666 0.0303531 18.7509C0.113415 19.7516 0.270305 20.3812 0.602552 21.0699C1.23751 22.3882 2.4502 23.3778 3.87886 23.7471C4.37354 23.8745 4.9199 23.9446 5.6213 23.9778C5.91848 23.9908 8.94744 24 11.9783 24C15.0091 24 18.0399 23.9963 18.3297 23.9815C19.1418 23.9433 19.6134 23.88 20.1349 23.7452C21.5728 23.3741 22.7633 22.3992 23.4112 21.0625C23.737 20.3905 23.9022 19.7369 23.9769 18.7884C23.9932 18.5816 24 15.2847 24 11.9922C24 8.69907 23.9926 5.40821 23.9764 5.20142C23.9007 4.23765 23.7355 3.5896 23.3992 2.90461C23.1232 2.34388 22.8168 1.92514 22.372 1.49699C21.5781 0.738523 20.6072 0.276943 19.4503 0.110039C18.8897 0.0289815 18.778 0.00497991 15.9096 0H12.0039Z" fill="url(#paint3_radial_1_25668)"/>
<path id="Vector_5" d="M12.0007 5C10.0996 5 9.86097 5.00831 9.11429 5.04229C8.36908 5.07642 7.86041 5.1944 7.41531 5.36751C6.95492 5.54629 6.56437 5.78546 6.17528 6.17469C5.78591 6.56378 5.54673 6.95431 5.36736 7.41456C5.19381 7.8598 5.07568 8.3686 5.04215 9.11352C5.00875 9.86019 5 10.0989 5 12C5 13.9011 5.00846 14.1389 5.04229 14.8856C5.07657 15.6308 5.19455 16.1395 5.3675 16.5846C5.54644 17.045 5.78561 17.4355 6.17484 17.8246C6.56379 18.214 6.95433 18.4537 7.41444 18.6325C7.85982 18.8056 8.36864 18.9236 9.11371 18.9577C9.86039 18.9917 10.0988 19 11.9998 19C13.901 19 14.1389 18.9917 14.8856 18.9577C15.6308 18.9236 16.14 18.8056 16.5854 18.6325C17.0457 18.4537 17.4356 18.214 17.8246 17.8246C18.2139 17.4355 18.4531 17.045 18.6325 16.5847C18.8046 16.1395 18.9227 15.6307 18.9577 14.8858C18.9912 14.1391 19 13.9011 19 12C19 10.0989 18.9912 9.86034 18.9577 9.11367C18.9227 8.36845 18.8046 7.8598 18.6325 7.41471C18.4531 6.95431 18.2139 6.56377 17.8246 6.17469C17.4352 5.78531 17.0458 5.54614 16.585 5.3675C16.1387 5.1944 15.6298 5.07642 14.8845 5.04229C14.1379 5.00831 13.9002 5 11.9985 5H12.0007ZM11.3727 6.26146C11.5591 6.26117 11.767 6.26146 12.0007 6.26146C13.8697 6.26146 14.0912 6.26817 14.8293 6.30171C15.5118 6.33292 15.8822 6.44696 16.1289 6.54277C16.4556 6.66964 16.6885 6.82131 16.9334 7.06631C17.1784 7.31132 17.33 7.54465 17.4572 7.87131C17.553 8.11777 17.6672 8.48819 17.6983 9.17069C17.7318 9.9086 17.7391 10.1303 17.7391 11.9984C17.7391 13.8665 17.7318 14.0882 17.6983 14.8261C17.6671 15.5086 17.553 15.879 17.4572 16.1255C17.3303 16.4521 17.1784 16.6848 16.9334 16.9296C16.6884 17.1746 16.4558 17.3263 16.1289 17.4531C15.8825 17.5494 15.5118 17.6631 14.8293 17.6944C14.0913 17.7279 13.8697 17.7352 12.0007 17.7352C10.1315 17.7352 9.90997 17.7279 9.17204 17.6944C8.48954 17.6629 8.11912 17.5488 7.87222 17.453C7.54555 17.3261 7.31221 17.1745 7.06721 16.9295C6.82221 16.6845 6.67054 16.4517 6.54337 16.1249C6.44755 15.8784 6.33337 15.508 6.30231 14.8255C6.26876 14.0876 6.26205 13.8659 6.26205 11.9966C6.26205 10.1274 6.26876 9.90685 6.30231 9.16894C6.33352 8.48644 6.44755 8.11602 6.54337 7.86927C6.67024 7.5426 6.82221 7.30927 7.06721 7.06427C7.31221 6.81927 7.54555 6.66761 7.87222 6.54044C8.11897 6.44419 8.48954 6.33044 9.17204 6.29908C9.8178 6.26991 10.0681 6.26117 11.3727 6.2597L11.3727 6.26146ZM15.7372 7.42375C15.2735 7.42375 14.8972 7.79957 14.8972 8.26346C14.8972 8.72721 15.2735 9.10346 15.7372 9.10346C16.201 9.10346 16.5773 8.72721 16.5773 8.26346C16.5773 7.79971 16.201 7.42346 15.7372 7.42346L15.7372 7.42375ZM12.0007 8.40521C10.0154 8.40521 8.40583 10.0148 8.40583 12C8.40583 13.9852 10.0154 15.5941 12.0007 15.5941C13.9859 15.5941 15.5949 13.9852 15.5949 12C15.5949 10.0148 13.9858 8.40521 12.0005 8.40521H12.0007ZM12.0007 9.66667C13.2893 9.66667 14.334 10.7113 14.334 12C14.334 13.2886 13.2893 14.3333 12.0007 14.3333C10.7119 14.3333 9.6673 13.2886 9.6673 12C9.6673 10.7113 10.7119 9.66667 12.0007 9.66667Z" fill="white"/>
</g>
</g>
<defs>
<radialGradient id="paint0_radial_1_25668" cx="0" cy="0" r="1" gradientUnits="userSpaceOnUse" gradientTransform="translate(23.225 11.2491) rotate(164.25) scale(15.3346 11.0479)">
<stop stop-color="#FF005F"/>
<stop offset="1" stop-color="#FC01D8"/>
</radialGradient>
<radialGradient id="paint1_radial_1_25668" cx="0" cy="0" r="1" gradientUnits="userSpaceOnUse" gradientTransform="translate(6.37482 25.8485) rotate(-90) scale(19.1573 20.3254)">
<stop stop-color="#FFCC00"/>
<stop offset="0.1242" stop-color="#FFCC00"/>
<stop offset="0.5672" stop-color="#FE4A05"/>
<stop offset="0.6942" stop-color="#FF0F3F"/>
<stop offset="1" stop-color="#FE0657" stop-opacity="0"/>
</radialGradient>
<radialGradient id="paint2_radial_1_25668" cx="0" cy="0" r="1" gradientUnits="userSpaceOnUse" gradientTransform="translate(12.6065 23.6615) rotate(-59.8703) scale(7.92169 10.3132)">
<stop stop-color="#FFCC00"/>
<stop offset="1" stop-color="#FFCC00" stop-opacity="0"/>
</radialGradient>
<radialGradient id="paint3_radial_1_25668" cx="0" cy="0" r="1" gradientUnits="userSpaceOnUse" gradientTransform="translate(3.25629 0.977273) rotate(164.274) scale(15.1645 5.16655)">
<stop stop-color="#780CFF"/>
<stop offset="1" stop-color="#820BFF" stop-opacity="0"/>
</radialGradient>
<clipPath id="clip0_1_25668">
<rect width="24" height="24" fill="white"/>
</clipPath>
</defs>
</svg>
