<svg width="12" height="13" viewBox="0 0 12 13" fill="none" xmlns="http://www.w3.org/2000/svg">
<g id="Telegram">
<path id="Vector" fill-rule="evenodd" clip-rule="evenodd" d="M1.01869 6.14666C4.11944 4.79572 6.18708 3.90509 7.22164 3.47479C10.1755 2.24618 10.7893 2.03276 11.1893 2.02571C11.2773 2.02416 11.4741 2.04597 11.6015 2.14937C11.7091 2.23669 11.7387 2.35464 11.7529 2.43742C11.767 2.5202 11.7847 2.70879 11.7707 2.85614C11.6106 4.53801 10.918 8.61947 10.5656 10.5032C10.4165 11.3003 10.1229 11.5675 9.8387 11.5937C9.22102 11.6505 8.75199 11.1855 8.15373 10.7933C7.21759 10.1797 6.68872 9.79766 5.78003 9.19885C4.72988 8.50682 5.41065 8.12646 6.00913 7.50486C6.16575 7.34218 8.88726 4.86677 8.93993 4.64221C8.94652 4.61412 8.95264 4.50943 8.89044 4.45416C8.82825 4.39888 8.73646 4.41778 8.67022 4.43281C8.57633 4.45412 7.08082 5.4426 4.1837 7.39823C3.75921 7.68972 3.37471 7.83174 3.03022 7.8243C2.65044 7.8161 1.91991 7.60957 1.37683 7.43304C0.710718 7.21651 0.181308 7.10203 0.227408 6.73431C0.251419 6.54277 0.515181 6.34689 1.01869 6.14666Z" fill="white"/>
</g>
</svg>
