<svg width="12" height="13" viewBox="0 0 12 13" fill="none" xmlns="http://www.w3.org/2000/svg">
<g id="WhatsApp" clip-path="url(#clip0_1_25676)">
<g id="Group">
<path id="Vector" d="M0 12.5L0.848137 9.42015C0.323782 8.51616 0.0487106 7.4924 0.0515759 6.44582C0.0515759 3.16635 2.73352 0.5 6.02578 0.5C7.62464 0.5 9.12607 1.11882 10.2521 2.2424C11.3811 3.36597 12.0029 4.86027 12 6.44867C12 9.72814 9.31804 12.3945 6.02292 12.3945H6.02005C5.02005 12.3945 4.03725 12.1435 3.16332 11.6702L0 12.5ZM3.31518 10.5951L3.4957 10.7034C4.25788 11.154 5.1318 11.3907 6.02292 11.3935H6.02578C8.76217 11.3935 10.9914 9.17776 10.9914 6.45152C10.9914 5.13118 10.4756 3.89068 9.53867 2.95532C8.60171 2.01996 7.35243 1.50665 6.02578 1.50665C3.2894 1.5038 1.06017 3.71958 1.06017 6.44582C1.06017 7.37833 1.32092 8.28802 1.81948 9.0751L1.93696 9.26331L1.43553 11.0856L3.31518 10.5951Z" fill="white"/>
<path id="Vector_2" d="M0.208984 12.2917L1.02847 9.31733C0.521305 8.44755 0.25483 7.45801 0.25483 6.4485C0.257695 3.2831 2.84509 0.708008 6.0256 0.708008C7.57001 0.708008 9.017 1.30687 10.1058 2.39052C11.1946 3.47417 11.7935 4.91713 11.7935 6.45135C11.7935 9.61675 9.20325 12.1919 6.0256 12.1919H6.02273C5.05712 12.1919 4.10869 11.9495 3.26629 11.4932L0.208984 12.2917Z" fill="url(#paint0_linear_1_25676)"/>
<path id="Vector_3" d="M0 12.5L0.848137 9.42015C0.323782 8.51616 0.0487106 7.4924 0.0515759 6.44582C0.0515759 3.16635 2.73352 0.5 6.02578 0.5C7.62464 0.5 9.12607 1.11882 10.2521 2.2424C11.3811 3.36597 12.0029 4.86027 12 6.44867C12 9.72814 9.31804 12.3945 6.02292 12.3945H6.02005C5.02005 12.3945 4.03725 12.1435 3.16332 11.6702L0 12.5ZM3.31518 10.5951L3.4957 10.7034C4.25788 11.154 5.1318 11.3907 6.02292 11.3935H6.02578C8.76217 11.3935 10.9914 9.17776 10.9914 6.45152C10.9914 5.13118 10.4756 3.89068 9.53867 2.95532C8.60171 2.01996 7.35243 1.50665 6.02578 1.50665C3.2894 1.5038 1.06017 3.71958 1.06017 6.44582C1.06017 7.37833 1.32092 8.28802 1.81948 9.0751L1.93696 9.26331L1.43553 11.0856L3.31518 10.5951Z" fill="white"/>
<path id="Vector_4" fill-rule="evenodd" clip-rule="evenodd" d="M4.53276 3.95897C4.42101 3.71087 4.30353 3.70517 4.19751 3.70231C4.11155 3.69946 4.01127 3.69946 3.91098 3.69946C3.81069 3.69946 3.65024 3.73654 3.5127 3.88482C3.37516 4.03311 2.99121 4.39243 2.99121 5.12532C2.99121 5.85536 3.52703 6.56258 3.60153 6.66239C3.67602 6.7622 4.63591 8.31068 6.15167 8.90669C7.41241 9.40289 7.67029 9.30308 7.9425 9.27741C8.2147 9.25174 8.82502 8.91809 8.95109 8.57019C9.0743 8.22228 9.0743 7.9257 9.03705 7.86296C8.9998 7.80022 8.89952 7.76315 8.75052 7.68901C8.60152 7.61486 7.868 7.25555 7.73046 7.20422C7.59293 7.15574 7.49264 7.13007 7.39522 7.27836C7.29493 7.42665 7.0084 7.7603 6.92244 7.86011C6.83648 7.95992 6.74765 7.97133 6.59866 7.89718C6.44966 7.82304 5.96829 7.66619 5.39809 7.15859C4.95396 6.76505 4.6531 6.27741 4.56714 6.12912C4.48118 5.98083 4.55854 5.90098 4.63304 5.82684C4.69895 5.76125 4.78204 5.65289 4.85654 5.56733C4.93104 5.48178 4.95683 5.41904 5.00554 5.31924C5.05425 5.21943 5.03132 5.13387 4.99407 5.05973C4.95683 4.98844 4.66456 4.2527 4.53276 3.95897Z" fill="white"/>
</g>
</g>
<defs>
<linearGradient id="paint0_linear_1_25676" x1="6.00094" y1="12.2911" x2="6.00094" y2="0.707603" gradientUnits="userSpaceOnUse">
<stop stop-color="#20B038"/>
<stop offset="1" stop-color="#60D66A"/>
</linearGradient>
<clipPath id="clip0_1_25676">
<rect width="12" height="12" fill="white" transform="translate(0 0.5)"/>
</clipPath>
</defs>
</svg>
