<?xml version="1.0" encoding="utf-8"?><svg viewBox="0 0 36 36" xmlns="http://www.w3.org/2000/svg" xmlns:xlink="http://www.w3.org/1999/xlink"><style>:root>svg{display:none}:root>svg:target{display:block}</style><svg fill="none" viewBox="0 0 12 12" id="Facebook" xmlns="http://www.w3.org/2000/svg"><path d="m8.607 6.664.31-2.047H6.974V3.288c0-.56.27-1.106 1.142-1.106H9V.438S8.197.3 7.43.3c-1.603 0-2.65.981-2.65 2.756v1.56H3v2.048h1.78v4.95a6.99 6.99 0 0 0 2.193 0v-4.95h1.634Z" fill="#fff"/></svg><svg fill="none" viewBox="0 0 24 24" id="Instagram_logo" xmlns="http://www.w3.org/2000/svg"><g clip-path="url(#axa)"><path d="M12.004 0c-5.01 0-6.475.005-6.76.029-1.028.085-1.668.247-2.365.594A4.79 4.79 0 0 0 1.5 1.633C.74 2.423.278 3.396.11 4.553c-.08.56-.104.675-.11 3.542v3.9c0 5.008.006 6.472.03 6.756.083 1 .24 1.63.573 2.319a5.056 5.056 0 0 0 3.276 2.677c.495.128 1.04.198 1.742.23.297.014 3.326.023 6.357.023s6.062-.004 6.352-.018c.812-.039 1.283-.102 1.805-.237a5.025 5.025 0 0 0 3.276-2.683c.326-.672.491-1.325.566-2.274.016-.206.023-3.503.023-6.796s-.007-6.584-.024-6.79c-.075-.964-.24-1.612-.577-2.297a4.759 4.759 0 0 0-1.027-1.408C21.578.739 20.607.277 19.45.11c-.56-.081-.672-.105-3.54-.11h-3.906Z" fill="url(#axb)"/><path d="M12.004 0c-5.01 0-6.475.005-6.76.029-1.028.085-1.668.247-2.365.594A4.79 4.79 0 0 0 1.5 1.633C.74 2.423.278 3.396.11 4.553c-.08.56-.104.675-.11 3.542v3.9c0 5.008.006 6.472.03 6.756.083 1 .24 1.63.573 2.319a5.056 5.056 0 0 0 3.276 2.677c.495.128 1.04.198 1.742.23.297.014 3.326.023 6.357.023s6.062-.004 6.352-.018c.812-.039 1.283-.102 1.805-.237a5.025 5.025 0 0 0 3.276-2.683c.326-.672.491-1.325.566-2.274.016-.206.023-3.503.023-6.796s-.007-6.584-.024-6.79c-.075-.964-.24-1.612-.577-2.297a4.759 4.759 0 0 0-1.027-1.408C21.578.739 20.607.277 19.45.11c-.56-.081-.672-.105-3.54-.11h-3.906Z" fill="url(#axc)"/><path d="M12.004 0c-5.01 0-6.475.005-6.76.029-1.028.085-1.668.247-2.365.594A4.79 4.79 0 0 0 1.5 1.633C.74 2.423.278 3.396.11 4.553c-.08.56-.104.675-.11 3.542v3.9c0 5.008.006 6.472.03 6.756.083 1 .24 1.63.573 2.319a5.056 5.056 0 0 0 3.276 2.677c.495.128 1.04.198 1.742.23.297.014 3.326.023 6.357.023s6.062-.004 6.352-.018c.812-.039 1.283-.102 1.805-.237a5.025 5.025 0 0 0 3.276-2.683c.326-.672.491-1.325.566-2.274.016-.206.023-3.503.023-6.796s-.007-6.584-.024-6.79c-.075-.964-.24-1.612-.577-2.297a4.759 4.759 0 0 0-1.027-1.408C21.578.739 20.607.277 19.45.11c-.56-.081-.672-.105-3.54-.11h-3.906Z" fill="url(#axd)"/><path d="M12.004 0c-5.01 0-6.475.005-6.76.029-1.028.085-1.668.247-2.365.594A4.79 4.79 0 0 0 1.5 1.633C.74 2.423.278 3.396.11 4.553c-.08.56-.104.675-.11 3.542v3.9c0 5.008.006 6.472.03 6.756.083 1 .24 1.63.573 2.319a5.056 5.056 0 0 0 3.276 2.677c.495.128 1.04.198 1.742.23.297.014 3.326.023 6.357.023s6.062-.004 6.352-.018c.812-.039 1.283-.102 1.805-.237a5.025 5.025 0 0 0 3.276-2.683c.326-.672.491-1.325.566-2.274.016-.206.023-3.503.023-6.796s-.007-6.584-.024-6.79c-.075-.964-.24-1.612-.577-2.297a4.759 4.759 0 0 0-1.027-1.408C21.578.739 20.607.277 19.45.11c-.56-.081-.672-.105-3.54-.11h-3.906Z" fill="url(#axe)"/><path d="M12 5c-1.9 0-2.139.008-2.886.042-.745.034-1.254.152-1.699.326-.46.178-.85.417-1.24.807-.39.389-.628.78-.808 1.24-.173.445-.291.954-.325 1.699C5.01 9.86 5 10.099 5 12c0 1.901.008 2.139.042 2.886.035.745.153 1.254.325 1.699.18.46.419.85.808 1.24.389.389.78.629 1.24.808.445.173.954.29 1.699.325.746.034.985.042 2.886.042 1.901 0 2.139-.008 2.886-.042.745-.034 1.254-.152 1.7-.325.46-.18.85-.419 1.239-.808.389-.39.628-.78.808-1.24.172-.445.29-.954.325-1.7.033-.746.042-.984.042-2.885 0-1.901-.009-2.14-.042-2.886-.035-.746-.153-1.254-.325-1.7-.18-.46-.42-.85-.808-1.24a3.422 3.422 0 0 0-1.24-.807c-.446-.173-.955-.29-1.7-.325C14.137 5.008 13.9 5 11.998 5H12Zm-.627 1.261H12c1.869 0 2.09.007 2.828.04.683.032 1.053.146 1.3.242.327.127.56.278.804.523.245.245.397.479.524.805.096.247.21.617.241 1.3.034.738.041.96.041 2.827 0 1.869-.007 2.09-.04 2.828-.032.683-.146 1.053-.242 1.3-.127.326-.279.559-.524.804a2.163 2.163 0 0 1-.804.523c-.247.096-.617.21-1.3.241-.738.034-.96.041-2.828.041-1.87 0-2.091-.007-2.829-.04-.682-.032-1.053-.146-1.3-.242a2.168 2.168 0 0 1-.805-.523 2.17 2.17 0 0 1-.524-.805c-.095-.247-.21-.617-.24-1.3-.034-.737-.04-.96-.04-2.828 0-1.87.006-2.09.04-2.828.03-.683.145-1.053.24-1.3.127-.326.28-.56.524-.805.245-.245.479-.396.805-.524.247-.096.618-.21 1.3-.24.646-.03.896-.039 2.2-.04v.001Zm4.364 1.163a.84.84 0 1 0 0 1.68.84.84 0 0 0 0-1.68Zm-3.736.981a3.595 3.595 0 1 0 0 7.19 3.595 3.595 0 0 0 0-7.19Zm0 1.262a2.333 2.333 0 1 1 0 4.666 2.333 2.333 0 0 1 0-4.666Z" fill="#fff"/></g><defs><radialGradient id="axb" cx="0" cy="0" r="1" gradientUnits="userSpaceOnUse" gradientTransform="matrix(-14.75887 4.16243 -2.99885 -10.6331 23.225 11.25)"><stop stop-color="#FF005F"/><stop offset="1" stop-color="#FC01D8"/></radialGradient><radialGradient id="axc" cx="0" cy="0" r="1" gradientUnits="userSpaceOnUse" gradientTransform="matrix(0 -19.1573 20.3254 0 6.375 25.849)"><stop stop-color="#FC0"/><stop offset=".124" stop-color="#FC0"/><stop offset=".567" stop-color="#FE4A05"/><stop offset=".694" stop-color="#FF0F3F"/><stop offset="1" stop-color="#FE0657" stop-opacity="0"/></radialGradient><radialGradient id="axd" cx="0" cy="0" r="1" gradientUnits="userSpaceOnUse" gradientTransform="rotate(-59.87 26.848 .885) scale(7.92169 10.3132)"><stop stop-color="#FC0"/><stop offset="1" stop-color="#FC0" stop-opacity="0"/></radialGradient><radialGradient id="axe" cx="0" cy="0" r="1" gradientUnits="userSpaceOnUse" gradientTransform="matrix(-14.59688 4.11014 -1.40033 -4.97316 3.256 .977)"><stop stop-color="#780CFF"/><stop offset="1" stop-color="#820BFF" stop-opacity="0"/></radialGradient><clipPath id="axa"><path fill="#fff" d="M0 0h24v24H0z"/></clipPath></defs></svg><svg fill="none" viewBox="0 0 12 13" id="Telegram" xmlns="http://www.w3.org/2000/svg"><path fill-rule="evenodd" clip-rule="evenodd" d="M1.019 6.147c3.1-1.351 5.168-2.242 6.203-2.672 2.953-1.229 3.567-1.442 3.967-1.45.088 0 .285.021.412.124a.448.448 0 0 1 .152.288c.014.083.032.272.018.42-.16 1.681-.853 5.762-1.205 7.646-.15.797-.443 1.065-.727 1.09-.618.057-1.087-.408-1.685-.8-.936-.613-1.465-.995-2.374-1.594-1.05-.692-.37-1.073.23-1.694.156-.163 2.877-2.638 2.93-2.863.007-.028.013-.133-.05-.188-.062-.055-.154-.036-.22-.021-.094.021-1.59 1.01-4.486 2.965-.425.292-.81.434-1.154.426-.38-.008-1.11-.214-1.653-.391C.71 7.217.18 7.102.227 6.734c.024-.191.288-.387.792-.587Z" fill="#fff"/></svg><svg fill="none" viewBox="0 0 12 13" id="WhatsApp" xmlns="http://www.w3.org/2000/svg"><g clip-path="url(#bqa)"><path d="m0 12.5.848-3.08a5.889 5.889 0 0 1-.796-2.974C.052 3.166 2.734.5 6.026.5c1.599 0 3.1.619 4.226 1.742A5.881 5.881 0 0 1 12 6.45c0 3.28-2.682 5.946-5.977 5.946H6.02c-1 0-1.983-.252-2.857-.725L0 12.5Zm3.315-1.905.18.108c.763.451 1.637.688 2.528.69h.003c2.736 0 4.965-2.215 4.965-4.941 0-1.32-.515-2.561-1.452-3.497a4.94 4.94 0 0 0-3.513-1.448C3.289 1.504 1.06 3.72 1.06 6.446c0 .932.26 1.842.76 2.63l.117.187-.501 1.823 1.88-.49Z" fill="#fff"/><path d="m.209 12.292.82-2.975a5.693 5.693 0 0 1-.774-2.869c.003-3.165 2.59-5.74 5.77-5.74 1.545 0 2.992.599 4.08 1.683a5.692 5.692 0 0 1 1.688 4.06c0 3.166-2.59 5.74-5.767 5.74h-.003a5.792 5.792 0 0 1-2.757-.698l-3.057.799Z" fill="url(#bqb)"/><path d="m0 12.5.848-3.08a5.889 5.889 0 0 1-.796-2.974C.052 3.166 2.734.5 6.026.5c1.599 0 3.1.619 4.226 1.742A5.881 5.881 0 0 1 12 6.45c0 3.28-2.682 5.946-5.977 5.946H6.02c-1 0-1.983-.252-2.857-.725L0 12.5Zm3.315-1.905.18.108c.763.451 1.637.688 2.528.69h.003c2.736 0 4.965-2.215 4.965-4.941 0-1.32-.515-2.561-1.452-3.497a4.94 4.94 0 0 0-3.513-1.448C3.289 1.504 1.06 3.72 1.06 6.446c0 .932.26 1.842.76 2.63l.117.187-.501 1.823 1.88-.49Z" fill="#fff"/><path fill-rule="evenodd" clip-rule="evenodd" d="M4.533 3.959c-.112-.248-.23-.254-.335-.257C4.112 3.7 4.01 3.7 3.91 3.7a.55.55 0 0 0-.398.186c-.138.148-.522.507-.522 1.24 0 .73.536 1.438.61 1.537.075.1 1.035 1.649 2.55 2.245 1.261.496 1.52.396 1.792.37.272-.025.882-.359 1.008-.707.123-.348.123-.644.086-.707-.037-.063-.137-.1-.286-.174a27.094 27.094 0 0 0-1.02-.485c-.138-.048-.238-.074-.336.074-.1.149-.387.482-.473.582-.086.1-.174.111-.323.037-.15-.074-.63-.23-1.2-.738a4.446 4.446 0 0 1-.832-1.03c-.086-.148-.008-.228.066-.302.066-.066.149-.174.224-.26.074-.085.1-.148.149-.248.048-.1.025-.185-.012-.26-.037-.07-.33-.806-.461-1.1Z" fill="#fff"/></g><defs><linearGradient id="bqb" x1="6.001" y1="12.291" x2="6.001" y2=".708" gradientUnits="userSpaceOnUse"><stop stop-color="#20B038"/><stop offset="1" stop-color="#60D66A"/></linearGradient><clipPath id="bqa"><path fill="#fff" transform="translate(0 .5)" d="M0 0h12v12H0z"/></clipPath></defs></svg><svg fill="none" viewBox="0 0 24 24" id="arrow-left-normal" xmlns="http://www.w3.org/2000/svg"><path fill-rule="evenodd" clip-rule="evenodd" d="M11.707 7.293a1 1 0 0 1 0 1.414L9.414 11H17a1 1 0 1 1 0 2H9.414l2.293 2.293a1 1 0 0 1-1.414 1.414l-4-4a1 1 0 0 1 0-1.414l4-4a1 1 0 0 1 1.414 0Z" fill="#000"/></svg><svg fill="none" viewBox="0 0 24 24" id="arrow-right-circle" xmlns="http://www.w3.org/2000/svg"><g stroke="#000" stroke-linecap="round" stroke-linejoin="round"><path d="M12 22c5.523 0 10-4.477 10-10S17.523 2 12 2 2 6.477 2 12s4.477 10 10 10Z" stroke-width="2"/><path d="m12 16 4-4-4-4M8 12h8" stroke-width="1.5"/></g></svg><svg fill="none" viewBox="0 0 24 24" id="arrow-right-normal" xmlns="http://www.w3.org/2000/svg"><path fill-rule="evenodd" clip-rule="evenodd" d="M12.293 7.293a1 1 0 0 1 1.414 0l4 4a1 1 0 0 1 0 1.414l-4 4a1 1 0 0 1-1.414-1.414L14.586 13H7a1 1 0 1 1 0-2h7.586l-2.293-2.293a1 1 0 0 1 0-1.414Z" fill="#000"/></svg><svg fill="none" viewBox="0 0 24 24" id="book" xmlns="http://www.w3.org/2000/svg"><path fill-rule="evenodd" clip-rule="evenodd" d="M4 5a3 3 0 0 1 3-3h10a3 3 0 0 1 3 3v14a3 3 0 0 1-3 3H7a3 3 0 0 1-3-3V5Zm2 14a1 1 0 0 0 1 1h10a1 1 0 0 0 1-1v-1.17c-.313.11-.65.17-1 .17H7a1 1 0 0 0-1 1Zm12-4a1 1 0 0 1-1 1H7c-.35 0-.687.06-1 .17V5a1 1 0 0 1 1-1h10a1 1 0 0 1 1 1v10ZM8 7a1 1 0 0 1 1-1h6a1 1 0 1 1 0 2H9a1 1 0 0 1-1-1Zm1 3a1 1 0 0 1 1-1h4a1 1 0 1 1 0 2h-4a1 1 0 0 1-1-1Z" fill="#000"/></svg><svg fill="none" viewBox="0 0 24 24" id="bulb" xmlns="http://www.w3.org/2000/svg"><path fill-rule="evenodd" clip-rule="evenodd" d="M12 4a5 5 0 0 0-3.85 8.19c.46.554.85 1.303.85 2.176V16a1 1 0 0 0 1 1h4a1 1 0 0 0 1-1v-1.634c0-.873.39-1.622.85-2.176A5 5 0 0 0 12 4ZM5 9a7 7 0 1 1 12.39 4.467c-.268.323-.39.635-.39.9V16a3 3 0 0 1-3 3h-4a3 3 0 0 1-3-3v-1.634c0-.264-.122-.576-.39-.899A6.976 6.976 0 0 1 5 9Zm3 12a1 1 0 0 1 1-1h6a1 1 0 1 1 0 2H9a1 1 0 0 1-1-1Z" fill="#000"/></svg><svg fill="none" viewBox="0 0 24 24" id="calendar-1" xmlns="http://www.w3.org/2000/svg"><path fill-rule="evenodd" clip-rule="evenodd" d="M7.5 1a1 1 0 0 1 1 1v1h7V2a1 1 0 1 1 2 0v1.025A5 5 0 0 1 22 8v9a5 5 0 0 1-5 5H7a5 5 0 0 1-5-5V8a5 5 0 0 1 4.5-4.975V2a1 1 0 0 1 1-1ZM4.17 7h15.66A3.001 3.001 0 0 0 17 5H7a3.001 3.001 0 0 0-2.83 2ZM20 9H4v8a3 3 0 0 0 3 3h10a3 3 0 0 0 3-3V9ZM6 12a1 1 0 0 1 1-1h4a1 1 0 0 1 1 1v4a1 1 0 0 1-1 1H7a1 1 0 0 1-1-1v-4Zm4 1H8v2h2v-2Z" fill="#000"/></svg><svg fill="none" viewBox="0 0 24 24" id="calendar-2" xmlns="http://www.w3.org/2000/svg"><path fill-rule="evenodd" clip-rule="evenodd" d="M7.5 1a1 1 0 0 1 1 1v1h7V2a1 1 0 1 1 2 0v1.025A5 5 0 0 1 22 8v9a5 5 0 0 1-5 5H7a5 5 0 0 1-5-5V8a5 5 0 0 1 4.5-4.975V2a1 1 0 0 1 1-1ZM4.17 7h15.66A3.001 3.001 0 0 0 17 5H7a3.001 3.001 0 0 0-2.83 2ZM20 9H4v8a3 3 0 0 0 3 3h10a3 3 0 0 0 3-3V9Zm-8 1.5a1 1 0 0 1 1 1v2h2a1 1 0 1 1 0 2h-2v2a1 1 0 1 1-2 0v-2H9a1 1 0 1 1 0-2h2v-2a1 1 0 0 1 1-1Z" fill="#000"/></svg><svg fill="none" viewBox="0 0 24 24" id="call-phone" xmlns="http://www.w3.org/2000/svg"><path fill-rule="evenodd" clip-rule="evenodd" d="M8.908 4.553a1.889 1.889 0 0 0-2.086-.397c-2.52 1.09-3.54 3.674-2.262 5.708.98 1.56 2.358 3.392 4.271 5.305 1.913 1.913 3.745 3.29 5.305 4.27 2.034 1.279 4.618.26 5.709-2.26a1.889 1.889 0 0 0-.398-2.086l-.345-.345a2.606 2.606 0 0 0-3.025-.48l-1.28.653a2.965 2.965 0 0 1-3.442-.545l-1.73-1.73a2.965 2.965 0 0 1-.546-3.443l.652-1.28a2.606 2.606 0 0 0-.479-3.025l.707-.707-.707.707-.344-.345Zm1.414-1.414-.69.689.69-.689.344.345a4.606 4.606 0 0 1 .848 5.347l-.653 1.28a.965.965 0 0 0 .178 1.12l1.73 1.73a.965.965 0 0 0 1.12.178l1.28-.652a4.606 4.606 0 0 1 5.348.847l.344.344a3.888 3.888 0 0 1 .82 4.295c-1.437 3.318-5.256 5.267-8.609 3.16-1.679-1.054-3.63-2.524-5.655-4.55-2.026-2.025-3.496-3.976-4.55-5.655C.76 7.575 2.709 3.756 6.027 2.32a3.889 3.889 0 0 1 4.295.819Z" fill="#000"/></svg><svg fill="none" viewBox="0 0 24 24" id="cart" xmlns="http://www.w3.org/2000/svg"><path fill-rule="evenodd" clip-rule="evenodd" d="M1 4a1 1 0 0 1 1-1h1.377a3 3 0 0 1 2.936 2.383l.13.617h12.196a3 3 0 0 1 2.96 3.493l-.376 2.25a3 3 0 0 1-2.492 2.47L8.603 15.808l.063.21a2.993 2.993 0 0 1 2.57.982h4.528A3 3 0 1 1 15 19h-3a3 3 0 1 1-5.153-2.09l-.491-1.621a1.013 1.013 0 0 1-.022-.084L4.355 5.794A1 1 0 0 0 3.377 5H2a1 1 0 0 1-1-1Zm7.096 9.864L6.863 8h11.776a1 1 0 0 1 .986 1.164l-.374 2.25a1 1 0 0 1-.831.823L8.096 13.864ZM9 18a1 1 0 1 0-.002 1.998A1 1 0 0 0 9 18Zm9 0a1 1 0 1 0-.002 1.998A1 1 0 0 0 18 18Z" fill="#000"/></svg><svg fill="none" viewBox="0 0 24 24" id="check-single" xmlns="http://www.w3.org/2000/svg"><path fill-rule="evenodd" clip-rule="evenodd" d="M18.01 7.758a1 1 0 0 1 0 1.414l-7.07 7.07a1 1 0 0 1-1.415 0L5.99 12.707a1 1 0 1 1 1.414-1.414l2.828 2.828 6.363-6.363a1 1 0 0 1 1.414 0Z" fill="#000"/></svg><svg fill="none" viewBox="0 0 24 24" id="chevron-bottom-normal" xmlns="http://www.w3.org/2000/svg"><path fill-rule="evenodd" clip-rule="evenodd" d="M7.293 9.293a1 1 0 0 1 1.414 0L12 12.586l3.293-3.293a1 1 0 1 1 1.414 1.414l-4 4a1 1 0 0 1-1.414 0l-4-4a1 1 0 0 1 0-1.414Z" fill="#000"/></svg><svg fill="none" viewBox="0 0 24 24" id="chevron-left-normal" xmlns="http://www.w3.org/2000/svg"><path fill-rule="evenodd" clip-rule="evenodd" d="M14.707 7.293a1 1 0 0 1 0 1.414L11.414 12l3.293 3.293a1 1 0 0 1-1.414 1.414l-4-4a1 1 0 0 1 0-1.414l4-4a1 1 0 0 1 1.414 0Z" fill="#000"/></svg><svg fill="none" viewBox="0 0 24 24" id="chevron-right-normal" xmlns="http://www.w3.org/2000/svg"><path fill-rule="evenodd" clip-rule="evenodd" d="M9.293 7.293a1 1 0 0 1 1.414 0l4 4a1 1 0 0 1 0 1.414l-4 4a1 1 0 0 1-1.414-1.414L12.586 12 9.293 8.707a1 1 0 0 1 0-1.414Z" fill="#000"/></svg><svg fill="none" viewBox="0 0 24 24" id="chevron-top-normal" xmlns="http://www.w3.org/2000/svg"><path fill-rule="evenodd" clip-rule="evenodd" d="M11.293 9.293a1 1 0 0 1 1.414 0l4 4a1 1 0 0 1-1.414 1.414L12 11.414l-3.293 3.293a1 1 0 0 1-1.414-1.414l4-4Z" fill="#000"/></svg><svg fill="none" viewBox="0 0 24 24" id="circle" xmlns="http://www.w3.org/2000/svg"><path d="M12 22c5.523 0 10-4.477 10-10S17.523 2 12 2 2 6.477 2 12s4.477 10 10 10Z" stroke="#000" stroke-width="2" stroke-linecap="round" stroke-linejoin="round"/></svg><svg fill="none" viewBox="0 0 24 24" id="file-filled" xmlns="http://www.w3.org/2000/svg"><path fill-rule="evenodd" clip-rule="evenodd" d="M9 4a3 3 0 0 0-3 3v10a3 3 0 0 0 3 3h6a3 3 0 0 0 3-3v-7h-3a3 3 0 0 1-3-3V4H9Zm5 1.414L16.586 8H15a1 1 0 0 1-1-1V5.414ZM4 7a5 5 0 0 1 5-5h4a1 1 0 0 1 .707.293l6 6A1 1 0 0 1 20 9v8a5 5 0 0 1-5 5H9a5 5 0 0 1-5-5V7Zm4 7a1 1 0 0 1 1-1h6a1 1 0 1 1 0 2H9a1 1 0 0 1-1-1Zm0 3a1 1 0 0 1 1-1h6a1 1 0 1 1 0 2H9a1 1 0 0 1-1-1Z" fill="#000"/></svg><svg fill="none" viewBox="0 0 36 36" id="help-circle" xmlns="http://www.w3.org/2000/svg"><g stroke-width="3" stroke-linecap="round" stroke-linejoin="round"><path d="M13.635 13.5A4.5 4.5 0 0 1 22.38 15c0 3-4.5 4.5-4.5 4.5" stroke="url(#ara)"/><path d="M18 25.5h.015" stroke="url(#arb)"/></g><defs><linearGradient id="ara" x1="13.635" y1="10.493" x2="23.794" y2="12.565" gradientUnits="userSpaceOnUse"><stop stop-color="#1D1E20"/><stop offset="1" stop-color="#1A1E26"/></linearGradient><linearGradient id="arb" x1="18" y1="25.5" x2="18.018" y2="25.5" gradientUnits="userSpaceOnUse"><stop stop-color="#1D1E20"/><stop offset="1" stop-color="#1A1E26"/></linearGradient></defs></svg><svg fill="none" viewBox="0 0 24 24" id="home" xmlns="http://www.w3.org/2000/svg"><g stroke="#000" stroke-width="2" stroke-linecap="round" stroke-linejoin="round"><path d="M4 9.3 12 3l8 6.3v9.9c0 .477-.187.935-.52 1.273a1.767 1.767 0 0 1-1.258.527H5.778c-.472 0-.924-.19-1.257-.527A1.812 1.812 0 0 1 4 19.2V9.3Z"/><path d="M9 21v-7h6v7"/></g></svg><svg fill="none" viewBox="0 0 24 24" id="home(1)" xmlns="http://www.w3.org/2000/svg"><path fill-rule="evenodd" clip-rule="evenodd" d="M11.293 2.293a1 1 0 0 1 1.414 0l9 9a1 1 0 0 1-1.414 1.414L20 12.414V19a3 3 0 0 1-3 3H7a3 3 0 0 1-3-3v-6.586l-.293.293a1 1 0 0 1-1.414-1.414l2-2 7-7ZM6 10.414V19a1 1 0 0 0 1 1h10a1 1 0 0 0 1-1v-8.586l-6-6-6 6Z" fill="#000"/></svg><svg fill="none" viewBox="0 0 18 18" id="icon-code-250" xmlns="http://www.w3.org/2000/svg"><path d="M15.188 2.813H2.812C.95 2.813 0 4.197 0 5.905V9h18V5.906c0-1.708-.949-3.093-2.813-3.093Z" fill="#27AAE1"/><path d="M0 12.094c0 1.708.949 3.094 2.813 3.094h12.374c1.864 0 2.813-1.386 2.813-3.094v-.281H0v.28Z" fill="#128807"/><g fill-rule="evenodd" clip-rule="evenodd"><path d="M13.998 4.916 13.7 3.468l-.006-.038c.004-.004.008-.004.01.001l.47 1.42a.03.03 0 0 1 .01-.001l.088-1.473c.003-.008.006-.008.009 0l.043.686.045.772.014.004c.15-.455.303-.909.453-1.364.02 0 .014.011.01.022l-.148.727c-.044.217-.091.434-.136.65-.01.016.006.039-.013.052-.023.014-.045.007-.067 0a.72.72 0 0 0-.414 0c-.018.005-.038.012-.058.003a.03.03 0 0 1-.013-.012m-.323 1.128-1.236.622a.695.695 0 0 1-.045.02c-.012.006-.013 0-.01-.01l1.191-.785c0-.02-.011-.014-.022-.01-.327.067-.653.135-.98.2-.155.033-.309.063-.463.095-.002-.003-.003-.006-.001-.007l.002-.003 1.392-.46.037-.01c.017-.008.026.005.038.015.019.025.022.056.03.085.018.059.043.113.076.165.011.018.023.037.022.06-.003.017-.017.021-.031.023Zm1.313-.735c.243-.051.486-.103.73-.153l.604-.125.053-.007c.012-.006.014 0 .012.01l-1.308.436-.037.012c-.006.012.004.015.011.019l1.389.08c.022.016.056-.016.074.017l-1.372.08h-.054c-.03.008-.06.002-.09.004-.022-.013-.024-.035-.024-.056a.799.799 0 0 0-.033-.255.061.061 0 0 1 .002-.047c.009-.019.029-.009.043-.015Zm-2.582-.807.72.359.517.26c.013.005.025.015.04.01.016-.007.03-.013.04.007-.03.072-.058.146-.122.197-.017.002-.031-.003-.04-.02-.003-.01.01-.018.003-.029l-1.113-.734-.058-.04c-.001-.01 0-.017.013-.01Zm1.789 1.906-.014-.085-.463 1.394c-.01.001-.016 0-.01-.013l.147-.725c.045-.218.09-.434.133-.652.004-.018.02-.037.003-.055a.013.013 0 0 1-.001-.01c0-.002.003-.005.005-.007.064-.02.116.024.176.03.02.002.035.016.041.037.008.032.017.063-.017.086Zm.542-.21.408.817.223.45c.006.013 0 .014-.01.013l-.78-1.183-.003-.01c-.011-.005-.018-.012-.018-.025a.31.31 0 0 1 .178-.11c.02.015.014.03.002.048Z" fill="#E4BD01"/><path d="m14.999 5.678.09.002c-.023.004-.046.006-.078.013l1.397.464c.003.01 0 .016-.011.01l-.931-.19-.467-.094c-.02-.008-.034.017-.053.007a.028.028 0 0 1-.01-.012c.007-.072.01-.144.063-.2Zm-.262-.68c.129-.101.245-.214.368-.321l.697-.618c.011-.003.014.001.013.012l-.934 1.052c.01.017.007.032-.006.045-.007.004-.015.006-.02.002-.057-.048-.118-.093-.154-.16.008-.02.02-.025.036-.012Zm-1.02.136c-.011 0-.022.01-.033-.001l-.796-.899-.172-.195c.005-.006.01-.006.016-.002.308.274.617.546.924.82.053.047.106.09.159.137.019-.006.026.005.03.02-.027.057-.063.105-.129.12Zm.847 1.129.011.023c-.022.01-.009.028-.006.041.09.442.182.882.274 1.324l.005.043c.006.011 0 .014-.01.013l-.436-1.31-.013-.036c-.006-.018-.028-.023-.034-.041a.023.023 0 0 1 .003-.016c.054-.035.118-.039.178-.054.01-.003.022.003.028.013Z" fill="#E4BD01"/><path d="m13.838 5.016-.022-.022c.005-.022-.01-.038-.018-.056l-.606-1.207-.018-.04c-.006-.01 0-.01.01-.01.257.39.512.78.769 1.168l.045.067.013.001c0 .002.002.004.001.005-.02.041-.128.097-.175.094Zm.152 1.245v.012c-.016.024-.03.05-.045.073l-.76 1.154c-.01.003-.016.002-.01-.01l.637-1.27c0-.004.002-.007.003-.01.008-.014-.006-.03.005-.042a.024.024 0 0 1 .013-.01c.064.017.123.04.157.103Zm.748-1.263a.392.392 0 0 1-.032.006c-.057.006-.136-.04-.15-.087 0-.015-.002-.03.01-.043l.002.032.802-1.215c.01-.002.015 0 .01.01l-.614 1.228c-.012.022-.028.043-.028.07Zm.13.17a1 1 0 0 1 .011-.045c.026.006.046-.007.067-.018l1.185-.594c.013-.007.027-.011.04-.017.01-.007.01 0 .01.007l-1.011.668-.186.122c-.014.009-.02.016.004.019-.01.008-.021.009-.033.01-.046-.017-.091-.095-.087-.152Zm-.13 1.03c-.008-.013-.002-.028 0-.043.003-.05.069-.117.126-.13.016.006.026.015.015.033l.447.508c.166.188.333.376.498.565.006.006.004.01-.002.015l-.773-.684-.266-.237c-.013-.012-.023-.03-.045-.025" fill="#E4BD01"/><path d="M13.826 6.163a.071.071 0 0 0 0 .011c-.002.013-.012.018-.023.024l-1.007.895-.058.049c-.01.003-.013 0-.01-.01.308-.346.615-.692.921-1.04.01-.011.042-.018.025-.047l.02-.02c.051.01.124.085.132.138Zm-.261-.443-.024-.022c-.032-.022-.07-.015-.104-.018-.452-.028-.905-.054-1.356-.08.008-.033.037-.005.053-.019.456-.025.911-.052 1.367-.08.045-.024.067-.002.078.042.003.043-.003.088.005.132a.041.041 0 0 1-.02.045Zm1.314.338c-.001-.013-.008-.02-.022-.023-.01-.049.041-.134.088-.15.005-.002.008-.002.013-.002.016-.009.022 0 .03.011l1.18.778.046.032c-.025.008-.04-.008-.056-.017l-1.224-.612c-.016-.01-.032-.024-.055-.017Z" fill="#E4BD01"/><path d="m13.565 5.31.034.023c.027.06-.005.11-.03.163-.022.008-.04 0-.06-.013l-1.303-.434a.745.745 0 0 1-.041-.015c-.001-.01.002-.015.013-.01l.472.094.89.181c.008.005.02 0 .025.011Zm.79 1.006.01.002c.014.008.01.02.005.034l-.08 1.373c0 .027-.005.053-.007.08-.004.008-.007.007-.01-.001l-.08-1.357v-.038l.003-.093a.15.15 0 0 1 .159 0Z" fill="#E4BD01"/><path d="m16.516 5.6-.075-.019a.293.293 0 0 1 .136.018h-.06Z" fill="#6BAE75"/><path d="m12.133 5.581-.054.018h-.054c-.008-.002-.009-.005-.002-.009a.378.378 0 0 1 .11-.009Z" fill="#B1B632"/><path d="M13.511 5.483c.018-.004.033.02.053.007.02.022.024.042-.007.057.01-.05-.027-.043-.056-.045l.01-.019Z" fill="#3CA8A4"/><path d="m15.815 4.07-.012-.01a.102.102 0 0 1 .052-.044.091.091 0 0 1-.04.055Z" fill="#A8B63B"/><path d="m15.358 7.479.01-.013c.018.023.032.046.026.077a8.624 8.624 0 0 0-.036-.064Z" fill="#B9B82B"/><path d="M16.388 5.036a.162.162 0 0 0-.013-.012.068.068 0 0 1 .066-.004l-.053.016Z" fill="#BAB829"/><path d="M12.406 4.503a.394.394 0 0 1-.013.01 2.413 2.413 0 0 1-.07-.04c.039-.005.06.014.083.03Z" fill="#BCB828"/><path d="m12.384 6.677.01.01a.1.1 0 0 1-.074.026c.022-.012.043-.023.064-.036Z" fill="#ADB636"/><path d="M14.837 7.707a.244.244 0 0 1 .01-.013c.014.02.015.04.003.064l-.013-.051Z" fill="#B6B82D"/><path d="m12.732 4.037-.016.002a.137.137 0 0 1-.041-.044c.004-.005.007-.006.012 0a.68.68 0 0 0 .045.042Z" fill="#ABB639"/><path d="M12.11 6.167v.01c-.015.014-.03.014-.052.004l.053-.014Z" fill="#6DAE74"/><path d="M15.379 3.7c-.004-.002-.007-.006-.01-.01.003-.01.006-.023.022-.026.008.017-.003.027-.012.037Z" fill="#AAB639"/><path d="m16.397 6.167.011-.01.043.01c.002.011.001.015-.01.011-.016 0-.031 0-.044-.01Z" fill="#A9B63A"/><path d="M15.91 7.225c-.023-.011-.036-.018-.038-.036.021-.002.026.014.038.036Z" fill="#55AB8A"/><path d="m13.706 7.705.01.013-.011.043c-.004.004-.007.005-.01 0 0-.019-.002-.038.011-.056Z" fill="#ACB637"/><path d="m14.847 3.497-.01-.022a.34.34 0 0 0 .01-.034c.005-.004.01-.004.014 0-.003.02 0 .04-.014.056Z" fill="#A8B63B"/><path d="m13.183 3.682-.01.01a.06.06 0 0 1-.02-.043c.02.006.024.02.03.033Z" fill="#A0B543"/><path d="M15.053 5.502c-.013.001-.03.009-.036-.006-.002-.008.014-.014.025-.013l.01.019Z" fill="#44A99B"/><path d="M12.023 5.59a.027.027 0 0 1 .002.01h-.053c.02-.014.035-.012.051-.01Z" fill="#6FAF71"/><path d="m12.133 5.025-.042-.011c-.004-.002-.006-.004-.005-.007l.002-.003c.017 0 .033-.004.045.01.008.003.008.007 0 .01Z" fill="#9DB445"/><path d="M16.459 5.011c.006-.017.02-.018.037-.017-.01.016-.02.02-.037.017Z" fill="#5BAC85"/><path d="M14.282 3.375h-.009a.105.105 0 0 1 .004-.058c.008.019.01.039.005.058Z" fill="#A1B541"/><path d="m16.18 4.5-.01-.007a.059.059 0 0 1 .042-.02c-.005.018-.02.021-.032.027Z" fill="#DCBC09"/><path d="M12.73 7.13a.056.056 0 0 1 .01.012c-.007.012-.016.023-.036.024.001-.019.013-.027.025-.035Z" fill="#A3B540"/><path d="m15.823 7.145.002-.015c.013.01.03.018.03.04-.017-.003-.025-.013-.032-.025Z" fill="#C2B922"/><path d="m13.175 7.49.01.01c-.004.012-.007.024-.022.027-.008-.017.002-.027.012-.037Z" fill="#A2B541"/><path d="M13.706 3.431h-.01c-.013-.01-.012-.024-.01-.041a.053.053 0 0 1 .02.041Z" fill="#79B068"/><path d="M12.687 3.994h-.012c-.014-.003-.018-.013-.025-.027a.048.048 0 0 1 .037.027Z" fill="#68AE79"/><path d="m16.442 6.178.01-.01.045.014c-.026.01-.04.006-.055-.004Z" fill="#66AD7A"/><path d="M12.09 5.003v.01L12.054 5c.016-.01.027-.008.036.003Z" fill="#53AB8C"/><path d="m13.565 5.31-.025-.01.024-.012c.009.003.02.005.02.018l-.02.004Z" fill="#27A5B7"/><path d="M14.861 3.441h-.014l.012-.042c.002-.006.006-.006.01-.002 0 .016.002.031-.008.044Z" fill="#96B34C"/><path d="M12.133 5.025v-.012c.016.002.032 0 .046.011a.192.192 0 0 0-.014.01l-.032-.01Z" fill="#D2BB13"/><path d="M14.868 3.398c-.003 0-.006 0-.01.002l.013-.037c.013.017.009.026-.003.035Z" fill="#4CAA93"/><path d="m14.372 6.352-.006-.035c.017.01.024.026.024.044l-.018-.01Z" fill="#3CA8A4"/><path d="m14.988 5.894-.03-.011c.014-.019.028-.01.042 0a.095.095 0 0 1-.012.01Z" fill="#44A99B"/><path d="M13.553 5.882c.013-.008.028-.016.04-.005.005.005-.01.012-.018.015l-.022-.01Z" fill="#5AAC87"/><path d="M13.804 6.199c.007-.008.014-.017.022-.024.008.015 0 .026-.012.035l-.01-.011Z" fill="#5BAC85"/><path d="M13.556 5.547c.012-.017.012-.036.008-.056 0-.055.025-.105.036-.159.032-.069.07-.136.116-.198l.12-.118.174-.099a.817.817 0 0 1 .544 0l.15.087c.06.05.115.105.165.164l.086.151a.968.968 0 0 1 .045.359c-.013.07-.031.138-.055.206l-.088.15-.12.12-.173.109-.209.053h-.158a1.722 1.722 0 0 1-.207-.056 26.422 26.422 0 0 1-.162-.098l-.132-.137a.843.843 0 0 1-.132-.305c-.006-.057-.013-.115-.008-.173Z" fill="#00A0DD"/><path d="M14.28 4.94a.652.652 0 0 1 .46 1.117.657.657 0 0 1-.463.192.66.66 0 0 1-.655-.657.656.656 0 0 1 .658-.653Z" fill="#E4BD01"/></g><path d="M0 8.438h18v3.374H0V8.438Z" fill="#F9CB38"/></svg><svg fill="none" viewBox="0 0 18 18" id="icon-code-40" xmlns="http://www.w3.org/2000/svg"><path d="M6.188 2.813h5.625v12.374H6.186V2.813Z" fill="#F9CB38"/><path d="M2.813 2.813C.948 2.813 0 4.197 0 5.905v6.188c0 1.708.949 3.094 2.813 3.094h3.374V2.812H2.813Z" fill="#2B3990"/><path d="M15.188 2.813h-3.376v12.374h3.376c1.863 0 2.812-1.385 2.812-3.093V5.906c0-1.708-.949-3.093-2.813-3.093Z" fill="#EC1C24"/></svg><svg fill="none" viewBox="0 0 18 18" id="icon-code-7" xmlns="http://www.w3.org/2000/svg"><g clip-path="url(#awa)"><path d="M18 13.5a2 2 0 0 1-2 2H2a2 2 0 0 1-2-2v-2h18v2Z" fill="#CE2028"/><path d="M0 6.5h18v5H0v-5Z" fill="#22408C"/><path d="M16 2.5H2a2 2 0 0 0-2 2v2h18v-2a2 2 0 0 0-2-2Z" fill="#EEE"/></g><defs><clipPath id="awa"><path fill="#fff" d="M0 0h18v18H0z"/></clipPath></defs></svg><svg fill="none" viewBox="0 0 24 24" id="log-in" xmlns="http://www.w3.org/2000/svg"><g stroke="#000" stroke-width="2" stroke-linecap="round" stroke-linejoin="round"><path d="M15 3h4a2 2 0 0 1 2 2v14a2 2 0 0 1-2 2h-4M10 17l5-5-5-5M15 12H3"/></g></svg><svg fill="none" viewBox="0 0 24 24" id="mail" xmlns="http://www.w3.org/2000/svg"><path fill-rule="evenodd" clip-rule="evenodd" d="M3.25 5.692A4.99 4.99 0 0 1 7 4h10c1.267 0 2.427.473 3.308 1.25A4.99 4.99 0 0 1 22 9v6a5 5 0 0 1-5 5H7a5 5 0 0 1-5-5V9c0-1.267.473-2.427 1.25-3.308Zm2.323.668 6.395 5.313 6.017-5.508A2.997 2.997 0 0 0 17 6H7c-.517 0-1.003.13-1.427.36ZM19.56 7.434l-6.885 6.304a1 1 0 0 1-1.314.031L4.23 7.845A2.99 2.99 0 0 0 4 9v6a3 3 0 0 0 3 3h10a3 3 0 0 0 3-3V9c0-.574-.16-1.11-.44-1.566Z" fill="#000"/></svg><svg fill="none" viewBox="0 0 24 24" id="material-symbols_arrow-drop-down" xmlns="http://www.w3.org/2000/svg"><path d="m12 15-5-5h10l-5 5Z" fill="#000"/></svg><svg fill="none" viewBox="0 0 24 24" id="material-symbols_location-on-rounded" xmlns="http://www.w3.org/2000/svg"><path d="M12 12c.55 0 1.021-.196 1.413-.588.392-.392.588-.863.587-1.412 0-.55-.196-1.021-.588-1.413A1.922 1.922 0 0 0 12 8c-.55 0-1.021.196-1.413.588A1.922 1.922 0 0 0 10 10c0 .55.196 1.021.588 1.413.392.392.863.588 1.412.587Zm0 9.625c-.133 0-.267-.025-.4-.075a1.2 1.2 0 0 1-.35-.2C8.817 19.2 7 17.204 5.8 15.362 4.6 13.52 4 11.799 4 10.2c0-2.5.804-4.492 2.413-5.975C8.022 2.742 9.884 2 12 2c2.117 0 3.98.742 5.588 2.225C19.197 5.708 20.001 7.7 20 10.2c0 1.6-.6 3.321-1.8 5.163-1.2 1.842-3.017 3.838-5.45 5.987a1.2 1.2 0 0 1-.35.2c-.133.05-.267.075-.4.075Z" fill="#000"/></svg><svg fill="none" viewBox="0 0 24 24" id="maximize" xmlns="http://www.w3.org/2000/svg"><path d="M9.333 6h-2A1.333 1.333 0 0 0 6 7.333v2m12 0v-2A1.334 1.334 0 0 0 16.667 6h-2m0 12h2A1.334 1.334 0 0 0 18 16.667v-2m-12 0v2A1.333 1.333 0 0 0 7.333 18h2" stroke="#000" stroke-width="2" stroke-linecap="round" stroke-linejoin="round"/></svg><svg fill="none" viewBox="0 0 24 24" id="maximize(1)" xmlns="http://www.w3.org/2000/svg"><path fill-rule="evenodd" clip-rule="evenodd" d="M6.643 9.929a7.429 7.429 0 1 1 2.93 5.912l-5.366 5.366a1 1 0 0 1-1.414-1.414l5.366-5.366a7.4 7.4 0 0 1-1.516-4.498ZM14.07 4.5a5.429 5.429 0 1 0 0 10.857 5.429 5.429 0 0 0 0-10.857ZM14 6.5a1 1 0 0 1 1 1V9h1.5a1 1 0 1 1 0 2H15v1.5a1 1 0 1 1-2 0V11h-1.5a1 1 0 1 1 0-2H13V7.5a1 1 0 0 1 1-1Z" fill="#000"/></svg><svg fill="none" viewBox="0 0 24 24" id="menu" xmlns="http://www.w3.org/2000/svg"><g stroke="#000" stroke-width="2" stroke-linecap="round" stroke-linejoin="round"><path d="M3 12h18M3 6h18M3 18h18"/></g></svg><svg fill="none" viewBox="0 0 24 24" id="mic-on" xmlns="http://www.w3.org/2000/svg"><path fill-rule="evenodd" clip-rule="evenodd" d="M8 6a4 4 0 1 1 8 0v5a4 4 0 0 1-8 0V6Zm4-2a2 2 0 0 0-2 2v5a2 2 0 1 0 4 0V6a2 2 0 0 0-2-2ZM6 9a1 1 0 0 1 1 1v1a5 5 0 0 0 10 0v-1a1 1 0 1 1 2 0v1a7.001 7.001 0 0 1-6 6.93V20h3a1 1 0 1 1 0 2H8a1 1 0 1 1 0-2h3v-2.07A7.001 7.001 0 0 1 5 11v-1a1 1 0 0 1 1-1Z" fill="#000"/></svg><svg fill="none" viewBox="0 0 24 24" id="mobile" xmlns="http://www.w3.org/2000/svg"><path fill-rule="evenodd" clip-rule="evenodd" d="M4 7a5 5 0 0 1 5-5h6a5 5 0 0 1 5 5v10a5 5 0 0 1-5 5H9a5 5 0 0 1-5-5V7Zm5-3a3 3 0 0 0-3 3v10a3 3 0 0 0 3 3h6a3 3 0 0 0 3-3V7a3 3 0 0 0-3-3H9ZM8 17a1 1 0 0 1 1-1h6a1 1 0 1 1 0 2H9a1 1 0 0 1-1-1Z" fill="#000"/></svg><svg fill="none" viewBox="0 0 24 24" id="more-horizontal" xmlns="http://www.w3.org/2000/svg"><g fill="#202020"><path d="M17 17a1 1 0 1 0 0-2 1 1 0 0 0 0 2ZM12 17a1 1 0 1 0 0-2 1 1 0 0 0 0 2ZM7 17a1 1 0 1 0 0-2 1 1 0 0 0 0 2Z"/></g></svg><svg fill="none" viewBox="0 0 24 24" id="pause" xmlns="http://www.w3.org/2000/svg"><path fill-rule="evenodd" clip-rule="evenodd" d="M15 6a1 1 0 0 1 1 1v10a1 1 0 1 1-2 0V7a1 1 0 0 1 1-1ZM9 6a1 1 0 0 1 1 1v10a1 1 0 1 1-2 0V7a1 1 0 0 1 1-1Z" fill="#000"/></svg><svg fill="none" viewBox="0 0 24 24" id="pencil" xmlns="http://www.w3.org/2000/svg"><path fill-rule="evenodd" clip-rule="evenodd" d="M13.879 3.707a3 3 0 0 1 4.242 0l2.172 2.172a3 3 0 0 1 0 4.242L9.707 20.707A1 1 0 0 1 9 21H4a1 1 0 0 1-1-1v-5a1 1 0 0 1 .293-.707L13.879 3.707Zm2.828 1.414a1 1 0 0 0-1.414 0L14.414 6 18 9.586l.879-.879a1 1 0 0 0 0-1.414L16.707 5.12ZM16.586 11 13 7.414l-8 8V19h3.586l8-8Z" fill="#000"/></svg><svg fill="none" viewBox="0 0 24 24" id="play" xmlns="http://www.w3.org/2000/svg"><path fill-rule="evenodd" clip-rule="evenodd" d="M7.507 5.13a1 1 0 0 1 1.008.013l10 6a1 1 0 0 1 0 1.714l-10 6A1 1 0 0 1 7 18V6a1 1 0 0 1 .507-.87ZM9 7.766v8.468L16.056 12 9 7.766Z" fill="#000"/></svg><svg fill="none" viewBox="0 0 24 24" id="speaker-off" xmlns="http://www.w3.org/2000/svg"><path fill-rule="evenodd" clip-rule="evenodd" d="M10.114 5.816A2 2 0 0 1 13 7.609v8.782a2 2 0 0 1-2.886 1.793l-3.747-1.85H4a2 2 0 0 1-2-2V9.667a2 2 0 0 1 2-2h2.367l3.747-1.851ZM11 7.609 7.252 9.46a2 2 0 0 1-.885.207H4v4.667h2.367a2 2 0 0 1 .885.206L11 16.391V7.609Zm5.025 1.416a1 1 0 0 1 1.414 0l1.061 1.06 1.06-1.06a1 1 0 1 1 1.415 1.415l-1.06 1.06 1.06 1.06a1 1 0 1 1-1.414 1.415l-1.061-1.06-1.06 1.06a1 1 0 0 1-1.415-1.414l1.06-1.06-1.06-1.061a1 1 0 0 1 0-1.415Z" fill="#000"/></svg><svg fill="none" viewBox="0 0 24 24" id="speaker-on" xmlns="http://www.w3.org/2000/svg"><path fill-rule="evenodd" clip-rule="evenodd" d="M17.95 5.293a1 1 0 0 1 1.414 0 9 9 0 0 1 0 12.728 1 1 0 0 1-1.414-1.414 6.999 6.999 0 0 0 0-9.9 1 1 0 0 1 0-1.414Zm-7.836.523A2 2 0 0 1 13 7.609v8.782a2 2 0 0 1-2.886 1.793l-3.747-1.85H4a2 2 0 0 1-2-2V9.666a2 2 0 0 1 2-2h2.367l3.747-1.851ZM11 7.609 7.252 9.46a2 2 0 0 1-.885.208H4v4.666h2.367a2 2 0 0 1 .885.207L11 16.39V7.61Zm4.121.512a1 1 0 0 1 1.414 0 5 5 0 0 1 0 7.071 1 1 0 0 1-1.414-1.414 2.999 2.999 0 0 0 0-4.242 1 1 0 0 1 0-1.415Z" fill="#000"/></svg><svg fill="none" viewBox="0 0 24 24" id="star-outline" xmlns="http://www.w3.org/2000/svg"><path fill-rule="evenodd" clip-rule="evenodd" d="M10.203 4.09c.758-1.453 2.837-1.453 3.594 0l2.018 3.868a.027.027 0 0 0 .02.014l4.413.607c1.697.233 2.358 2.336 1.098 3.497l-3.12 2.878a.027.027 0 0 0-.007.024l.746 4.118c.297 1.64-1.404 2.919-2.897 2.176l-4.056-2.018a.027.027 0 0 0-.024 0l-4.056 2.018c-1.493.743-3.194-.535-2.897-2.176l.747-4.118a.027.027 0 0 0-.009-.024l-3.12-2.878c-1.258-1.161-.598-3.264 1.099-3.497l4.414-.607a.027.027 0 0 0 .02-.014l2.017-3.868Zm1.78.913-.007.011L9.96 8.882c-.304.583-.87.982-1.52 1.071l-4.415.607-.01.002-.003.001a.041.041 0 0 0-.008.016.041.041 0 0 0-.003.017l.002.002a.075.075 0 0 0 .008.008l3.12 2.878c.51.47.743 1.169.62 1.851l-.747 4.117a.074.074 0 0 0 0 .011v.003h-.001s.003.006.012.013c.008.006.014.007.015.007h.002a.073.073 0 0 0 .01-.005l4.056-2.018a2.027 2.027 0 0 1 1.806 0l4.056 2.018a.074.074 0 0 0 .01.004l.002.001s.007 0 .016-.007c.008-.007.011-.012.011-.013v-.003l-.001-.01-.746-4.118c-.124-.682.11-1.38.62-1.851l3.12-2.878a.081.081 0 0 0 .007-.008l.002-.002a.04.04 0 0 0-.002-.017.04.04 0 0 0-.008-.016h-.003l-.011-.003-4.414-.607a2.027 2.027 0 0 1-1.52-1.07l-2.018-3.869c-.004-.008-.007-.01-.007-.01 0-.001 0 0 0 0C12.016 5.002 12.01 5 12 5a.036.036 0 0 0-.016.003Z" fill="#000"/></svg><svg fill="none" viewBox="0 0 24 24" id="vk_logo" xmlns="http://www.w3.org/2000/svg"><rect width="24" height="24" rx="5" fill="#07F"/><path d="M12.572 16c-4.38 0-6.879-3.003-6.983-8h2.195c.072 3.668 1.69 5.221 2.97 5.541V8h2.067v3.163c1.265-.136 2.594-1.577 3.043-3.163h2.066c-.345 1.954-1.786 3.395-2.811 3.988 1.025.48 2.666 1.738 3.291 4.012h-2.274c-.489-1.521-1.706-2.699-3.315-2.859V16h-.249Z" fill="#fff"/></svg><svg fill="none" viewBox="0 0 24 24" id="x" xmlns="http://www.w3.org/2000/svg"><g stroke="#000" stroke-width="2" stroke-linecap="round" stroke-linejoin="round"><path d="M18 6 6 18M6 6l12 12"/></g></svg></svg>