<svg width="74" height="66" viewBox="0 0 74 66" fill="none" xmlns="http://www.w3.org/2000/svg">
<g clip-path="url(#clip0_1_10378)">
<path fill-rule="evenodd" clip-rule="evenodd" d="M24.9635 32.0191C23.9279 31.7921 22.6648 31.4641 21.6292 30.5055C19.2547 28.3863 18.5221 24.9049 16.8802 25.8131C15.1877 26.7213 15.2382 32.3723 20.5177 34.0878C22.3365 34.6933 23.9784 34.6933 25.3172 34.6428C25.6708 34.6428 28.6516 34.3401 29.6873 32.8769C30.723 31.4137 29.9904 31.0352 29.6368 30.8586C29.2326 30.6568 26.4287 32.2966 24.9635 32.0191Z" fill="#FFAB19"/>
<path d="M24.4089 34.9204C23.2216 34.9204 21.8828 34.8195 20.443 34.3402C19.6599 34.0879 18.9779 33.7347 18.3716 33.3059C17.8159 32.9022 17.3359 32.4481 16.9318 31.8931C16.2245 30.9597 15.795 29.8244 15.694 28.6892C15.6435 27.9828 15.694 27.3269 15.8961 26.7718C16.0982 26.1916 16.4013 25.7627 16.8055 25.5609C17.0833 25.4095 17.3865 25.3591 17.6643 25.4095C17.9169 25.46 18.1443 25.5861 18.3969 25.8132C18.8263 26.1916 19.2052 26.7971 19.6599 27.5035C20.2409 28.4369 20.9229 29.4712 21.8576 30.3037C22.8175 31.1867 24.03 31.5399 25.0657 31.7417C25.874 31.8931 27.2128 31.3633 28.198 30.9849C29.1326 30.6065 29.5368 30.4803 29.7894 30.6065C29.9662 30.7074 30.3704 30.884 30.4714 31.3381C30.5725 31.767 30.3956 32.322 29.9157 33.0031C29.4357 33.659 28.5769 34.1888 27.3391 34.542C26.4045 34.7943 25.5709 34.8952 25.3435 34.8952C25.0151 34.9204 24.712 34.9204 24.4089 34.9204ZM17.4117 25.9393C17.2854 25.9393 17.1591 25.9898 17.0328 26.0655C16.7549 26.2168 16.5276 26.5448 16.376 26.9989C16.1992 27.4782 16.1487 28.0837 16.1992 28.6892C16.3003 29.7235 16.7044 30.7578 17.3359 31.6156C18.119 32.6499 19.2305 33.4068 20.6198 33.8609C22.388 34.4411 23.9795 34.4411 25.3183 34.4159C25.4193 34.4159 26.2277 34.3654 27.1623 34.0879C27.9454 33.8609 28.9558 33.4572 29.461 32.7508C29.941 32.0697 29.9915 31.6913 29.941 31.5147C29.8904 31.3129 29.7136 31.2119 29.5368 31.111C29.5115 31.111 29.4105 31.111 29.1579 31.2119C28.9305 31.2876 28.6527 31.3885 28.3495 31.5147C27.2633 31.9436 25.874 32.4733 24.9394 32.2967C23.8279 32.0697 22.5649 31.6913 21.5039 30.7326C20.5188 29.8496 19.8367 28.7648 19.2052 27.8314C18.7758 27.1503 18.3969 26.5953 18.0432 26.2421C17.7906 26.015 17.5885 25.9393 17.4117 25.9393Z" fill="#001026"/>
<path fill-rule="evenodd" clip-rule="evenodd" d="M17.1328 25.9143C16.2739 26.1666 15.8445 27.983 16.2739 29.4967C16.7034 31.0103 17.3854 31.7924 17.9664 32.3474C17.8906 32.0447 17.7138 31.086 18.4463 30.531C19.3557 29.7994 20.9471 30.1778 20.9471 30.1778C20.9471 30.1778 19.6083 28.538 18.9263 27.3775C18.219 26.3684 18.0169 25.7377 17.1328 25.9143Z" fill="white"/>
<path fill-rule="evenodd" clip-rule="evenodd" d="M31.7844 35.3496C31.0013 35.8793 28.3237 37.7714 24.9135 38.831L24.7367 38.8815C24.5599 38.9319 24.4841 39.1337 24.5599 39.3103C25.2924 40.3447 26.6312 42.4133 24.2567 43.145C21.958 43.8766 17.689 37.7967 19.5078 36.2073C20.3161 35.6018 21.0739 35.9046 21.4528 36.0812C21.6802 36.1568 21.8822 36.1568 22.1096 36.1316C22.6401 35.955 23.5747 35.6018 24.3073 35.2234C26.1513 34.2648 26.606 33.8863 27.4648 33.2304C28.3237 32.5745 30.3193 30.9851 31.9107 32.3727C33.3 33.5332 32.5169 34.8198 31.7844 35.3496ZM38.6553 26.3685C38.8826 26.5451 41.5097 29.6481 42.3686 28.866C43.4042 27.9578 44.8188 26.1919 46.385 27.6046C47.9511 29.0174 44.9956 31.4392 43.7579 32.0952C40.7771 33.4322 38.3521 30.8842 37.8469 30.2031C37.3417 29.5219 36.4323 28.3615 36.4323 27.2262C36.4576 26.0405 37.9227 25.7378 38.6553 26.3685Z" fill="#FFAB19"/>
<path d="M23.8535 43.4731C23.2473 43.4731 22.5652 43.1703 21.8327 42.5649C21.0243 41.909 20.2413 40.9503 19.6603 39.9412C19.2056 39.1591 18.9277 38.4023 18.8519 37.7464C18.7509 36.9643 18.9277 36.3588 19.3571 35.9804C19.3571 35.9804 19.3571 35.9804 19.3824 35.9552C20.3423 35.2488 21.2012 35.6272 21.5801 35.8038C21.7316 35.8543 21.8832 35.8795 22.06 35.829C22.3884 35.7281 23.4241 35.3497 24.2072 34.9461C25.8238 34.1136 26.3291 33.7351 27.0363 33.2054C27.1374 33.1297 27.2132 33.054 27.3142 32.9783C27.3395 32.9531 27.39 32.9279 27.4153 32.9026C27.8952 32.5494 28.6025 32.0196 29.4108 31.7169C30.4465 31.3637 31.3306 31.4899 32.0632 32.1206C32.7958 32.7513 32.9221 33.382 32.9221 33.8108C32.8968 34.5677 32.3916 35.1984 31.9116 35.5011C31.8611 35.5263 31.7853 35.5768 31.7348 35.6272C30.7749 36.2831 28.1983 37.9986 24.9902 39.033C24.9902 39.033 24.9902 39.033 24.965 39.033L24.7882 39.0834C24.7882 39.0834 24.7629 39.1087 24.7882 39.1339C25.4197 40.0421 26.1017 41.2026 25.7733 42.1612C25.5965 42.7162 25.0913 43.1199 24.3335 43.3469C24.1819 43.4479 24.0303 43.4731 23.8535 43.4731ZM19.6855 36.4093C19.3824 36.6616 19.2814 37.1157 19.3824 37.6959C19.4582 38.2762 19.736 38.9825 20.1402 39.6889C20.6959 40.6476 21.4285 41.5558 22.1863 42.1612C22.9694 42.7919 23.702 43.0694 24.2072 42.8928C24.8134 42.7162 25.1923 42.4135 25.3186 42.0351C25.5965 41.1773 24.7124 39.916 24.384 39.4619L24.3587 39.4366C24.2829 39.2853 24.2829 39.0834 24.3587 38.9321C24.4345 38.7807 24.5608 38.6798 24.7124 38.6293L24.8892 38.5789C28.0215 37.595 30.5476 35.8795 31.4822 35.2488C31.558 35.1984 31.6085 35.1479 31.659 35.1227C32.0127 34.8704 32.4168 34.3911 32.4421 33.8361C32.4674 33.382 32.24 32.9531 31.7601 32.5747C31.1538 32.0701 30.4718 31.9692 29.6129 32.2719C28.8804 32.5242 28.1983 33.054 27.7436 33.382C27.7184 33.4072 27.6679 33.4324 27.6426 33.4576C27.5416 33.5333 27.4405 33.609 27.3647 33.6847C26.6827 34.2145 26.127 34.6181 24.4598 35.4759C23.6514 35.9047 22.6158 36.2579 22.2116 36.4093H22.1863C21.8832 36.4597 21.6306 36.4597 21.4032 36.3588C21.0243 36.157 20.3928 35.8795 19.6855 36.4093ZM42.0159 32.7513C41.8895 32.7513 41.738 32.7513 41.6117 32.726C40.9802 32.6756 40.3487 32.4737 39.7424 32.1458C38.4794 31.4646 37.6963 30.4808 37.6205 30.3546L37.57 30.2789C37.0395 29.5725 36.1554 28.3868 36.1554 27.2264C36.1807 26.6209 36.5091 26.1416 37.0395 25.9145C37.3174 25.7884 37.6458 25.7379 37.9742 25.7884C38.3026 25.8388 38.6057 25.965 38.833 26.1668C38.8835 26.2173 38.9593 26.2677 39.1109 26.4443C39.4645 26.8227 40.1466 27.5291 40.8033 28.0841C41.4854 28.6391 42.0159 28.8409 42.1927 28.6643C42.319 28.5382 42.4705 28.4121 42.6221 28.2859C43.1273 27.8066 43.7083 27.2768 44.3651 26.9993C45.1482 26.6714 45.906 26.8227 46.5627 27.4282C46.9669 27.8066 47.1437 28.2607 47.068 28.7905C47.0174 29.2446 46.7396 29.9762 45.7544 30.9349C45.0724 31.616 44.3146 32.1206 43.8599 32.3476C43.8599 32.3476 43.8599 32.3476 43.8346 32.3476C43.2536 32.6251 42.6221 32.7513 42.0159 32.7513ZM36.6606 27.2516C36.6606 28.2355 37.4942 29.3455 37.9742 30.0014L38.0247 30.0771C38.1005 30.178 38.8078 31.0862 39.9697 31.7169C41.2075 32.3728 42.42 32.4233 43.6073 31.8935C44.0114 31.6917 44.7187 31.2124 45.3502 30.5817C46.0323 29.9257 46.4364 29.2698 46.5122 28.74C46.5627 28.3868 46.4364 28.0841 46.1586 27.8066C45.6281 27.3273 45.0976 27.2264 44.4914 27.4786C43.9357 27.7057 43.3799 28.2102 42.9 28.6643C42.7484 28.8157 42.5968 28.9419 42.4705 29.068C42.2937 29.2194 41.9906 29.3707 41.4601 29.1437C41.157 29.0175 40.8033 28.8157 40.3992 28.4878C39.6919 27.9327 39.0098 27.2011 38.6562 26.7975C38.5552 26.6966 38.4541 26.5704 38.4289 26.5452C38.1005 26.2677 37.5953 26.192 37.1911 26.3686C37.0395 26.4948 36.6859 26.7218 36.6606 27.2516Z" fill="#001026"/>
<path fill-rule="evenodd" clip-rule="evenodd" d="M35.4488 33.2806C35.9792 32.9022 36.4844 32.2462 37.1665 31.2624C37.7222 30.4551 38.3285 28.8405 38.3285 28.8405C38.7074 27.7557 38.9852 25.687 37.5454 25.7375C36.5855 25.7879 35.7266 25.6618 34.2615 25.4347C31.6597 24.905 31.205 24.577 30.1188 26.3429C28.9568 28.4116 25.976 29.9253 29.6388 33.5076C29.6388 33.5076 31.7607 35.1474 34.312 37.645C36.0297 39.3353 38.7579 41.7319 39.7178 42.5644C39.9451 42.741 40.1977 42.8167 40.4503 42.8672C44.6436 43.2456 47.7506 42.8167 47.7506 40.9751C47.7506 37.8721 41.5871 38.9569 41.5871 38.9569C41.5871 38.9569 39.5915 37.2666 38.6821 36.4593L35.4488 33.2806Z" fill="#FFAB19"/>
<path d="M43.0269 43.2458C42.2438 43.2458 41.385 43.1953 40.4251 43.1196C40.4251 43.1196 40.4251 43.1196 40.3998 43.1196C40.0462 43.0692 39.7683 42.943 39.541 42.7665C38.48 41.8583 35.8024 39.4616 34.1352 37.847C31.6344 35.3747 29.5125 33.7349 29.4873 33.7349C29.4873 33.7349 29.462 33.7349 29.462 33.7097C28.7547 33.0033 28.2495 32.3726 27.9464 31.7419C27.6685 31.1617 27.5675 30.6319 27.618 30.0769C27.719 29.0677 28.3758 28.2605 28.9821 27.4784C29.3104 27.0748 29.6388 26.6711 29.8662 26.2422C30.3209 25.4854 30.725 25.0061 31.3565 24.8547C31.887 24.7286 32.5185 24.8547 33.529 25.0565C33.7563 25.107 34.0089 25.1574 34.2868 25.2079H34.3373C35.7519 25.4097 36.5855 25.5359 37.5201 25.5106C37.9495 25.4854 38.3285 25.662 38.5558 25.99C38.8084 26.3179 38.9094 26.8225 38.8589 27.4784C38.8337 27.9577 38.7074 28.5127 38.5558 28.9668C38.5305 29.0425 37.9243 30.6066 37.3686 31.4392C36.8128 32.2465 36.3076 32.9024 35.8277 33.3313L38.8589 36.2829C39.642 36.9893 41.2587 38.3516 41.6628 38.7048C41.966 38.6543 42.7996 38.5534 43.7595 38.5282C45.4014 38.5282 46.5887 38.8057 47.296 39.4112C47.7759 39.8148 48.0285 40.3446 48.0285 41.0005C48.0285 41.5051 47.8264 41.9339 47.4728 42.2619C46.9423 42.7412 46.0077 43.0692 44.7446 43.1953C44.2142 43.2206 43.6584 43.2458 43.0269 43.2458ZM40.5009 42.5899C42.1428 42.7412 43.5574 42.7665 44.6689 42.6403C45.8308 42.5142 46.6644 42.2367 47.1191 41.833C47.397 41.5807 47.5233 41.3032 47.5233 40.9501C47.5233 40.4455 47.3465 40.0671 46.9928 39.7643C46.3866 39.2598 45.3004 39.0075 43.81 39.0075C42.648 39.0075 41.6881 39.1841 41.6628 39.1841C41.5871 39.2093 41.5113 39.1841 41.4608 39.1336C41.4355 39.1084 39.4652 37.4434 38.5558 36.6361L35.3225 33.4826C35.2719 33.4322 35.2467 33.3565 35.2467 33.2808C35.2467 33.2051 35.2972 33.1294 35.3477 33.079C35.8782 32.7006 36.3834 32.0194 37.0149 31.1112C37.5454 30.3291 38.1264 28.8155 38.1516 28.765C38.4548 27.9325 38.5811 26.772 38.2274 26.2675C38.1011 26.0909 37.899 26.0152 37.6212 26.0152C36.6613 26.0656 35.8024 25.9395 34.3626 25.7124H34.312C34.312 25.7124 34.312 25.7124 34.2868 25.7124C34.0089 25.662 33.731 25.6115 33.5037 25.5611C32.5691 25.3593 31.9881 25.2331 31.5839 25.3593C31.1797 25.4602 30.8766 25.7629 30.4219 26.5197C30.1693 26.9738 29.8157 27.4027 29.4873 27.8316C28.881 28.5884 28.3 29.2948 28.2242 30.1525C28.1737 30.6066 28.2748 31.0607 28.5021 31.5401C28.78 32.0951 29.2347 32.7006 29.8914 33.3565C30.0683 33.4826 32.1396 35.1224 34.5646 37.5191C36.2066 39.1336 38.8842 41.5051 39.9451 42.4133C40.0462 42.4637 40.2483 42.5394 40.5009 42.5899Z" fill="#001026"/>
<path fill-rule="evenodd" clip-rule="evenodd" d="M37.3404 30.3796C37.3404 30.3796 38.1487 29.2948 36.3047 28.1344C34.3597 26.873 33.6271 28.2605 32.844 29.2948C31.9852 30.6319 32.844 31.2878 33.7029 32.0447C34.3849 32.7006 35.0417 33.2051 35.0417 33.2051C35.0417 33.2051 36.4058 32.3222 37.3404 30.3796Z" fill="white"/>
<path fill-rule="evenodd" clip-rule="evenodd" d="M28.5526 29.6982C29.5125 30.9091 30.9776 32.4228 29.1084 33.6589C26.557 35.0717 24.4352 30.7577 24.0057 29.2693C23.6268 27.9322 24.7383 27.0745 25.6982 26.3429C27.5422 25.0058 29.1084 23.7948 30.8261 24.4508C32.9732 25.2328 31.4323 26.9483 30.3461 27.7304C29.6893 28.2097 29.0578 28.7143 28.5779 29.017C28.4516 29.2188 28.4263 29.4711 28.5526 29.6982Z" fill="#FFAB19"/>
<path d="M28.073 34.2141C27.7699 34.2141 27.4667 34.1637 27.1889 34.0375C26.6331 33.8105 25.7995 33.2555 24.9154 31.8427C24.3092 30.8841 23.9302 29.9002 23.7534 29.3452C23.5513 28.664 23.6776 28.0333 24.1323 27.4279C24.5112 26.9233 25.0417 26.5196 25.5217 26.1412C25.5974 26.0908 25.6732 26.0151 25.749 25.9646C26.6331 25.3339 27.4667 24.7285 28.2751 24.3753C29.235 23.9464 30.0686 23.896 30.8769 24.2239C31.6347 24.5014 32.0389 24.9051 32.1147 25.4349C32.2662 26.5701 30.7759 27.7306 30.4727 27.9576C30.2454 28.109 30.0433 28.2856 29.8412 28.437C29.4371 28.7397 29.0581 29.0172 28.755 29.219C28.7045 29.3199 28.654 29.4461 28.7298 29.5722C28.8055 29.6731 28.8813 29.7488 28.9571 29.8497C29.6139 30.657 30.3464 31.5904 30.2201 32.5239C30.1443 33.0284 29.816 33.4825 29.235 33.8862C29.235 33.8862 29.235 33.8862 29.2097 33.8862C28.8561 34.1132 28.4771 34.2141 28.073 34.2141ZM25.8501 26.5449C25.3701 26.9233 24.8902 27.3017 24.5618 27.7306C24.2081 28.2099 24.1071 28.664 24.2586 29.1938C24.4102 29.7236 24.7891 30.6318 25.3448 31.54C25.7995 32.2464 26.5068 33.1798 27.3657 33.533C27.8962 33.76 28.4266 33.7348 28.9571 33.4321C29.4118 33.1293 29.6644 32.8014 29.7149 32.423C29.816 31.6914 29.1592 30.8588 28.5782 30.1272C28.5024 30.0263 28.4266 29.9254 28.3256 29.8245L28.3003 29.7993C28.1235 29.5218 28.1488 29.1686 28.3508 28.8406C28.3761 28.8154 28.4014 28.7649 28.4266 28.7649C28.7298 28.5631 29.1339 28.2856 29.5381 27.9576C29.7402 27.8063 29.9675 27.6297 30.1949 27.4783C30.599 27.2008 30.9779 26.8476 31.2305 26.4944C31.5337 26.0908 31.6852 25.7376 31.6347 25.4601C31.5842 25.1321 31.2811 24.8546 30.7253 24.6528C30.0433 24.4005 29.336 24.451 28.5024 24.8042C27.7193 25.1321 26.911 25.7376 26.0521 26.3431C26.0016 26.4187 25.9258 26.4944 25.8501 26.5449Z" fill="#001026"/>
<path fill-rule="evenodd" clip-rule="evenodd" d="M38.4276 4.09211C37.4424 3.91552 36.4067 3.83984 35.1942 3.91552C33.1734 3.9912 31.2283 4.72281 31.2283 4.72281L25.9994 1.31705C25.8226 1.24137 25.6205 1.36751 25.6458 1.54411L26.5551 9.26382C26.8077 8.91063 21.983 14.7887 25.0395 19.7081C28.096 24.6276 34.6132 26.8224 42.7471 25.233C50.8558 23.6437 52.7756 18.9765 52.2451 16.5294C51.7146 14.0823 48.6581 13.1741 48.6581 13.1741C48.6581 13.1741 48.6076 11.2316 47.2435 8.86017C46.4099 7.39696 43.6565 5.37873 43.6565 5.37873L42.5451 0.762043C42.4945 0.585448 42.2925 0.534993 42.1662 0.635904L38.4276 4.09211Z" fill="#FFAB19"/>
<path d="M37.7212 25.99C37.4686 25.99 37.2412 25.99 36.9886 25.99C35.1699 25.9395 33.4774 25.662 31.9365 25.1574C30.3956 24.6781 29.0063 23.9717 27.819 23.0888C26.6065 22.1806 25.6214 21.0958 24.8383 19.8596C24.131 18.7244 23.7773 17.463 23.7773 16.0754C23.7773 14.9906 24.0047 13.8302 24.4341 12.6192C24.8383 11.5597 25.3182 10.6515 25.6719 10.0964C25.9245 9.69279 26.1518 9.36483 26.2781 9.18824L25.394 1.59466C25.3688 1.4433 25.4193 1.2667 25.5456 1.16579C25.6971 1.03965 25.9245 1.01442 26.1013 1.11533H26.1266L31.2545 4.44541C31.7092 4.26881 33.4016 3.73903 35.1699 3.66334C36.2308 3.58766 37.2412 3.63812 38.3527 3.81471L41.9902 0.434184H42.0155C42.167 0.333272 42.3438 0.333272 42.4954 0.383728C42.647 0.434184 42.748 0.560323 42.7985 0.71169L43.91 5.22747C44.3647 5.58066 46.7139 7.37183 47.497 8.70891C48.2296 9.9703 48.5832 11.1056 48.76 11.8119C48.8863 12.3417 48.9368 12.7201 48.9621 12.9472C49.24 13.0481 49.821 13.2751 50.4525 13.6788C50.9577 14.0068 51.3871 14.3599 51.7155 14.7636C52.1449 15.2681 52.4228 15.8484 52.5491 16.4286C52.6754 17.0089 52.6502 17.69 52.5238 18.3712C52.3723 19.128 52.0439 19.8596 51.5639 20.566C50.8314 21.6508 49.7957 22.6094 48.4822 23.4167C46.9413 24.3249 45.072 25.0313 42.8491 25.4602C41.0556 25.8134 39.3378 25.99 37.7212 25.99ZM26.556 9.69279C26.2024 10.1973 25.4445 11.3831 24.8888 12.8715C24.4846 14.0068 24.2826 15.0915 24.2826 16.1007C24.2826 17.3621 24.6109 18.5225 25.2677 19.5569C27.6675 23.3915 32.1386 25.4602 37.7212 25.4602C39.3126 25.4602 40.9798 25.2836 42.6975 24.9556C44.8446 24.5268 46.6634 23.8708 48.1538 22.9879C49.4168 22.231 50.402 21.3228 51.084 20.2885C51.5134 19.6326 51.8166 18.9514 51.9681 18.2703C52.0944 17.6648 52.1197 17.0845 51.9934 16.5548C51.5134 14.2843 48.6085 13.4013 48.5832 13.3761L48.4064 13.3256V13.149C48.4064 13.149 48.3811 12.6697 48.2043 11.9128C48.0527 11.2317 47.6991 10.1469 47.017 8.96119C46.234 7.59888 43.5311 5.60589 43.5058 5.58066L43.43 5.5302L42.2933 0.863056L38.5042 4.36972L38.3779 4.3445C37.2665 4.14267 36.2561 4.09222 35.1951 4.1679C33.2248 4.24358 31.3302 4.97519 31.305 4.97519L31.1787 5.02565L31.0776 4.94996L25.9245 1.56944L26.8086 9.13778C26.8339 9.21347 26.8591 9.31438 26.7581 9.41529L26.556 9.69279Z" fill="#001026"/>
<path fill-rule="evenodd" clip-rule="evenodd" d="M48.5318 13.3005C48.5318 13.3005 51.5126 14.0825 52.0178 16.5296C52.523 18.9767 50.4516 23.4168 42.444 24.9809C31.9861 27.1253 27.0351 20.9193 29.9148 16.353C32.8197 11.7616 37.7961 15.6719 41.4083 15.4196C44.5154 15.2178 44.869 12.4932 48.5318 13.3005Z" fill="white"/>
<path fill-rule="evenodd" clip-rule="evenodd" d="M34.9435 17.9173C34.9435 17.7407 35.1204 17.6146 35.2972 17.665C36.1055 17.9678 38.4547 18.6489 41.0313 18.8255C43.3553 18.9516 44.7446 18.8255 45.4014 18.6994C45.6287 18.6489 45.7803 18.876 45.7045 19.0778C45.3256 20.2383 43.6837 23.4674 39.1368 23.2151C35.1961 22.8115 34.8172 20.0364 34.9435 17.9173Z" fill="white"/>
<path d="M39.6162 23.4926C39.4394 23.4926 39.2625 23.4926 39.0857 23.4674C39.0857 23.4674 39.0857 23.4674 39.0604 23.4674C37.2164 23.2656 35.9534 22.5339 35.2461 21.323C34.7409 20.44 34.5641 19.33 34.6399 17.892C34.6399 17.7407 34.7156 17.5893 34.8419 17.4884C34.9682 17.3875 35.1451 17.337 35.2966 17.3875H35.3219C36.2818 17.7407 38.53 18.3714 40.9802 18.5479C43.5821 18.6993 44.8451 18.4975 45.2745 18.4218C45.4766 18.3714 45.6534 18.447 45.7798 18.5984C45.9061 18.7498 45.9313 18.9516 45.8555 19.1534C45.704 19.6327 45.1988 20.8185 44.062 21.8528C43.4558 22.3826 42.7737 22.7862 42.0159 23.0637C41.3339 23.3665 40.5256 23.4926 39.6162 23.4926ZM39.1362 22.9628C43.7842 23.2151 45.1988 19.7084 45.4261 19.0021C45.4261 19.0021 45.4261 19.0021 45.4261 18.9768C45.4261 18.9516 45.4261 18.9516 45.4261 18.9516C44.9714 19.0525 43.6579 19.2291 41.0055 19.0777C38.5047 18.9011 36.206 18.2704 35.2208 17.9173H35.1956C35.1956 17.9173 35.1956 17.9173 35.1956 17.9425C35.1198 19.2796 35.2966 20.2887 35.7261 21.0707C36.0039 21.5753 36.4081 21.9789 36.9133 22.2817C37.5196 22.6349 38.2521 22.8871 39.1362 22.9628Z" fill="#001026"/>
<path d="M54.9994 18.901C52.8017 18.901 51.4629 18.2703 51.3871 18.245C51.2608 18.1946 51.2103 18.018 51.2608 17.8918C51.3113 17.7657 51.4882 17.7153 51.6145 17.7657C51.6145 17.7657 52.0439 17.9675 52.7512 18.1441C53.4332 18.2955 54.5194 18.4721 55.8835 18.346C56.0351 18.346 56.1614 18.4469 56.1614 18.573C56.1614 18.7244 56.0603 18.8505 55.934 18.8505C55.6056 18.901 55.3025 18.901 54.9994 18.901ZM51.3366 15.7223C51.185 15.7223 51.084 15.6213 51.084 15.47C51.084 15.3186 51.185 15.2177 51.3366 15.2177C51.3619 15.2177 52.1197 15.1925 53.1048 14.9906C54.0142 14.7888 55.3025 14.4104 56.3129 13.5779C56.414 13.477 56.5908 13.5022 56.6666 13.6283C56.7676 13.7293 56.7423 13.9059 56.616 13.9815C56.0098 14.4609 54.9236 15.1168 53.1806 15.4952C52.1702 15.7223 51.3871 15.7223 51.3366 15.7223Z" fill="#001026"/>
<path fill-rule="evenodd" clip-rule="evenodd" d="M41.2323 14.3096C42.1417 14.3096 43.0763 14.3853 43.1269 14.688C43.1774 15.2935 42.5206 16.5044 41.8386 16.5296C41.0555 16.6053 39.2367 15.5457 39.2367 14.8394C39.2115 14.36 40.3735 14.3096 41.2323 14.3096Z" fill="#001026"/>
<path d="M41.7632 16.807C41.1317 16.807 40.1212 16.3024 39.5655 15.7978C39.2118 15.4699 39.0098 15.1672 39.0098 14.8896C39.0098 14.7383 39.0603 14.5869 39.1613 14.4608C39.4645 14.1076 40.2223 14.0571 41.258 14.0571C41.6369 14.0571 42.1673 14.0824 42.5715 14.1328C42.8999 14.1833 43.3546 14.3094 43.4051 14.6626C43.4051 14.6626 43.4051 14.6626 43.4051 14.6878C43.4304 15.1419 43.1525 15.8483 42.7483 16.3024C42.4705 16.6051 42.1673 16.7817 41.8642 16.807C41.8389 16.807 41.7884 16.807 41.7632 16.807ZM41.2327 14.5617C40.9043 14.5617 40.5001 14.5617 40.1465 14.6121C39.6918 14.6626 39.5402 14.7635 39.515 14.814C39.4897 14.8392 39.4897 14.8392 39.4897 14.8392V14.8644C39.4897 14.9653 39.5908 15.1419 39.8686 15.3942C40.4244 15.8988 41.359 16.3276 41.7884 16.2772C41.94 16.2772 42.1421 16.151 42.3189 15.9492C42.6473 15.5708 42.8494 15.041 42.8494 14.7635C42.7988 14.7383 42.6725 14.6626 42.3189 14.6374C42.0663 14.5869 41.6621 14.5617 41.2327 14.5617Z" fill="#001026"/>
<path d="M24.3343 18.371C23.147 18.371 22.1366 18.2197 22.0608 18.2197C21.9093 18.1944 21.8335 18.0683 21.8335 17.9169C21.8587 17.7656 21.9851 17.6899 22.1366 17.6899C22.1619 17.6899 25.2942 18.144 27.0624 17.4376C27.1887 17.3872 27.3403 17.4376 27.3908 17.589C27.4413 17.7151 27.3908 17.8665 27.2392 17.9169C26.4056 18.2954 25.3194 18.371 24.3343 18.371ZM27.0372 16.4537C26.9866 16.4537 26.9109 16.4285 26.8603 16.378C25.3952 15.0914 21.7577 13.9057 21.7324 13.8805C21.6061 13.83 21.5304 13.6787 21.5556 13.5525C21.6061 13.4264 21.7577 13.3507 21.884 13.3759C22.0356 13.4264 25.6731 14.6121 27.1887 15.9744C27.2898 16.0753 27.315 16.2267 27.214 16.3276C27.1887 16.4285 27.1129 16.4537 27.0372 16.4537Z" fill="#001026"/>
<path fill-rule="evenodd" clip-rule="evenodd" d="M46.3364 9.26396C47.5994 11.2065 47.6247 13.4013 46.4122 14.1834C45.1997 14.9654 43.2294 14.0572 41.9158 12.1147C40.6528 10.1722 40.6275 7.97734 41.84 7.19528C43.0525 6.36276 45.0734 7.32141 46.3364 9.26396Z" fill="white"/>
<path d="M45.4273 14.7133C44.1895 14.7133 42.7497 13.8051 41.714 12.2409C40.8804 10.9543 40.5267 9.51632 40.7793 8.38107C40.9056 7.75038 41.234 7.24582 41.6887 6.96831C42.1434 6.66558 42.7497 6.56467 43.3812 6.69081C43.9369 6.79172 44.5179 7.09445 45.0736 7.4981C45.6294 7.92697 46.1346 8.48198 46.5387 9.11268C47.3723 10.3993 47.726 11.8373 47.4734 12.9725C47.3471 13.6032 47.0187 14.1078 46.5387 14.3853C46.2356 14.6123 45.8314 14.7133 45.4273 14.7133ZM42.1434 11.9634C42.7497 12.8716 43.5075 13.5528 44.3158 13.9312C45.0736 14.2844 45.7809 14.2844 46.2861 13.9564C46.6398 13.7294 46.8671 13.351 46.9934 12.8464C47.0945 12.3671 47.0692 11.8121 46.9429 11.2318C46.7913 10.6263 46.5135 9.97042 46.1346 9.39018C45.402 8.2297 44.3158 7.39719 43.3054 7.19536C42.8002 7.09445 42.3455 7.17014 41.9918 7.39719C41.6382 7.62424 41.4109 8.00265 41.2846 8.50721C41.1835 8.98654 41.2088 9.54155 41.3351 10.1218C41.4866 10.7525 41.7645 11.3832 42.1434 11.9634Z" fill="#001026"/>
<path fill-rule="evenodd" clip-rule="evenodd" d="M46.1599 11.7113C46.1599 12.1906 45.8063 12.569 45.3768 12.569C44.9474 12.569 44.5938 12.1906 44.5938 11.7113C44.5938 11.2319 44.9474 10.8535 45.3768 10.8535C45.8063 10.8535 46.1599 11.2319 46.1599 11.7113Z" fill="#001026"/>
<path fill-rule="evenodd" clip-rule="evenodd" d="M35.6247 10.4751C36.913 12.3671 36.8372 14.7133 35.6752 15.5206C34.2354 16.3279 32.3409 15.7225 31.0526 13.8304C29.7138 11.9383 29.638 9.46595 30.9768 8.53252C32.2903 7.52341 34.3364 8.55775 35.6247 10.4751Z" fill="white"/>
<path d="M34.3357 16.1261C33.9821 16.1261 33.6031 16.0504 33.2242 15.9243C32.3149 15.5963 31.4813 14.9404 30.8245 13.9565C30.1424 12.9979 29.7635 11.8626 29.7383 10.8031C29.7383 10.2733 29.8141 9.79394 29.9909 9.36507C30.1677 8.91097 30.4456 8.55778 30.8245 8.28027C31.3297 7.90185 31.9359 7.77572 32.618 7.87663C33.7547 8.07845 34.9672 8.96142 35.8766 10.2733C36.5334 11.2067 36.8618 12.3167 36.8618 13.3511C36.8618 14.3854 36.4828 15.2432 35.8513 15.672C35.8513 15.672 35.8261 15.672 35.8261 15.6973C35.3461 16 34.8409 16.1261 34.3357 16.1261ZM32.138 8.40641C31.7591 8.40641 31.4055 8.50732 31.1024 8.73437C30.5214 9.13802 30.2182 9.86962 30.2435 10.8031C30.2688 11.7617 30.6224 12.7961 31.2539 13.679C31.8602 14.562 32.5927 15.1675 33.3758 15.445C34.1084 15.6973 34.8662 15.6468 35.4977 15.2936C35.9776 14.9404 36.2808 14.2593 36.2808 13.4015C36.2808 12.4681 35.9776 11.4842 35.3714 10.6265C34.9672 10.0462 34.4873 9.51644 33.9821 9.13802C33.4768 8.7596 32.9464 8.50732 32.4664 8.43164C32.3906 8.40641 32.2643 8.40641 32.138 8.40641Z" fill="#001026"/>
<path fill-rule="evenodd" clip-rule="evenodd" d="M35.3708 12.9725C35.3708 13.4518 35.0172 13.8302 34.5878 13.8302C34.1583 13.8302 33.8047 13.4518 33.8047 12.9725C33.8047 12.4932 34.1583 12.1147 34.5878 12.1147C35.0172 12.14 35.3708 12.4932 35.3708 12.9725Z" fill="#001026"/>
</g>
<path d="M57.0207 64.6188C55.7129 64.7192 54.9085 64.8196 54.7078 64.92L54.6058 65.0205C54.3048 65.1209 53.9017 65.3233 53.3983 65.3233C52.7962 65.3233 52.0922 65.1209 51.5888 64.6188C51.3864 64.4164 51.1857 64.2155 51.0854 64.0147H48.7708C48.3694 64.0147 47.9664 63.9143 47.6637 63.7118C47.5633 63.8139 47.3626 63.8139 47.2623 63.9143C46.4579 64.3159 45.7521 64.3159 45.2504 64.3159H44.747C43.2368 64.3159 42.0294 63.8139 41.2249 62.9069C40.7216 63.4106 40.0175 63.7118 39.3134 63.7118L35.5906 63.8139C34.2828 63.8139 33.0754 62.8065 32.8747 61.5983C32.3713 61.8995 31.8679 62.102 31.2641 62.102C30.6604 62.102 30.0583 61.8995 29.5533 61.5983C29.4546 61.4979 29.3526 61.3975 29.2522 61.3975C28.9512 61.5983 28.5482 61.5983 28.1451 61.5983H27.8441C27.441 62.8065 26.737 63.6114 25.6298 64.1151C25.1281 64.3159 24.5244 64.5184 24.021 64.5184C23.5176 64.5184 22.9139 64.4164 22.4105 64.2155C21.9087 64.0147 21.5057 63.7118 21.203 63.4106C21.0023 63.511 20.8016 63.511 20.5993 63.6114L17.6826 64.0147H17.2796C16.9785 64.0147 16.7762 64.0147 16.4751 63.9143C16.0721 64.3159 15.5687 64.5184 15.1673 64.7192C14.3629 65.1209 13.6571 65.1209 13.1554 65.1209H12.652C10.8408 65.1209 9.43265 64.3159 8.62657 63.2082C7.82214 63.7118 6.81701 64.0147 5.91059 64.0147H5.30685C5.30685 64.1151 5.20651 64.1151 5.20651 64.2155C4.70312 64.7192 3.99904 65.1209 3.29495 65.1209H3.09261C1.68445 65.1209 0.476979 64.0147 0.376631 62.5036V62.4032C0.376631 61.8995 0.276282 60.9942 0.376631 59.9868C0.376631 59.2823 0.476979 58.1762 0.476979 58.1762C0.476979 57.47 0.779669 56.8659 1.18106 56.3639C0.779669 55.559 0.679321 54.652 0.880017 53.6446V53.4438C0.980365 52.8397 1.08071 51.9344 1.48375 51.0274C2.18783 49.7188 3.49565 49.0143 5.00416 49.0143H5.70989C6.21328 48.611 6.81701 48.3098 7.5211 48.3098C9.02961 48.3098 10.2371 49.6184 10.2371 51.1278V52.2356C10.7405 52.0348 11.3442 51.9344 11.9479 51.9344C12.249 51.9344 12.4513 51.9344 12.7524 52.0348C13.1554 51.5311 13.7591 51.2299 14.3629 51.1278C14.4616 50.927 14.5636 50.8266 14.6639 50.6258C15.067 50.0217 15.771 49.6184 16.4751 49.518C17.0789 49.4176 18.2863 49.3172 19.6945 49.3172C21.3034 49.3172 22.6128 49.518 23.6179 50.0217C23.9206 48.9139 24.7251 48.1073 25.9325 47.9065L28.5482 47.5049H28.9512C29.7556 47.5049 30.4597 47.8061 30.9631 48.4102C31.1638 48.611 31.4665 49.0143 31.5668 49.3172L31.6672 49.6184C32.1706 49.3172 32.674 49.1147 33.2777 49.1147L37.2011 49.0143C39.1127 49.0143 40.8236 48.9139 40.8236 48.8135H41.0242C41.7283 48.8135 42.5328 49.1147 43.0361 49.6184C43.4392 50.0217 43.7402 50.5237 43.8406 51.1278H44.0429C44.344 51.1278 44.5463 51.1278 44.8474 51.2299C45.2504 50.7262 45.8525 50.4233 46.4579 50.3229C46.9596 49.6184 47.866 49.0143 48.8712 49.0143H51.4868C51.9902 48.4102 52.6943 48.0069 53.6007 48.0069H56.82C58.3286 48.0069 59.536 49.2151 59.638 50.7262C59.638 51.8323 59.0326 52.8397 58.1279 53.243V59.3827C58.9323 59.786 59.536 60.693 59.638 61.6987C59.7367 63.2082 58.5309 64.5184 57.0207 64.6188Z" fill="#F9A83A"/>
<path d="M57.4236 61.8997C57.4236 61.5985 57.1209 61.2956 56.8199 61.2956C56.6192 61.2956 56.3165 61.2956 56.0138 61.3977C56.0138 60.3903 56.0138 58.2751 55.9151 51.4309H56.8199C57.1209 51.4309 57.4236 51.128 57.4236 50.8268C57.4236 50.5239 57.1209 50.2227 56.8199 50.2227L53.6005 50.3231C53.2978 50.3231 52.9968 50.6259 52.9968 50.9272C52.9968 51.2284 53.2978 51.5313 53.6005 51.5313H54.6056V55.76L50.9849 56.3624V52.537H51.99C52.2927 52.537 52.5937 52.2358 52.5937 51.9345C52.5937 51.6317 52.2927 51.3304 51.99 51.3304H48.7706C48.4696 51.3304 48.1669 51.6317 48.1669 51.9345C48.1669 52.2358 48.4696 52.537 48.7706 52.537H49.7774V60.6915H48.7706C48.4696 60.6915 48.1669 60.9944 48.1669 61.2956C48.1669 61.5985 48.4696 61.8997 48.7706 61.8997L52.092 62.0001C52.393 62.0001 52.6941 61.6989 52.6941 61.3977C52.6941 61.0948 52.393 60.7936 52.092 60.7936H51.0852V57.6727L54.7076 57.0686V61.6989C53.9015 61.8997 53.2978 61.8997 52.9968 62.303C52.7961 62.5038 52.7961 62.9071 53.0971 63.1079C53.2978 63.3104 53.6005 63.2083 54.0035 63.1079C54.3046 62.9071 55.512 62.8067 56.9202 62.7063C57.2212 62.5038 57.4236 62.2026 57.4236 61.8997ZM47.4628 57.8735C47.1618 57.8735 46.8591 58.1763 46.8591 58.4776V59.2825C46.8591 59.5854 46.7587 59.987 46.6584 60.0891C46.5564 60.2899 46.4577 60.3903 46.2553 60.5911C46.155 60.6915 45.9543 60.7936 45.7519 60.894C45.5512 60.9944 45.4509 60.9944 45.0479 60.9944H44.6448C43.036 61.0948 42.8353 59.7862 42.8353 59.485V56.8661C42.9356 55.8604 43.1363 55.1559 43.5393 54.853C43.8404 54.6522 44.2434 54.7526 44.9475 54.9534C45.7519 55.2563 46.2553 56.1616 46.3557 56.1616C46.4577 56.3624 46.7587 56.4645 47.0614 56.4645C47.3624 56.3624 47.4628 56.1616 47.4628 55.8604V53.1411C47.4628 52.8399 47.1618 52.537 46.8591 52.537C46.5564 52.537 46.2553 52.8399 46.2553 53.1411V54.2489C46.0546 54.0481 45.7519 53.9477 45.4509 53.7452C45.1482 53.5444 43.9407 53.0407 43.036 53.6448C42.3319 54.1485 41.8285 55.0538 41.7281 56.5649V59.3829C41.8285 60.2899 42.5326 62.1022 44.7468 62.1022H45.0479C45.4509 62.1022 45.8523 62.1022 46.2553 61.8997C46.5564 61.7993 46.8591 61.5985 47.1618 61.2956C47.3624 61.0948 47.4628 60.894 47.6635 60.5911C47.8658 60.1895 47.9662 59.485 48.0665 59.2825V58.2751C48.0665 58.0743 47.7638 57.8735 47.4628 57.8735ZM25.5293 59.7862C25.2283 59.6858 24.8252 59.8866 24.7249 60.1895C24.5242 60.894 24.3218 60.894 24.2215 60.9944C24.1211 61.0948 23.9204 60.9944 23.6178 60.894C23.6178 60.894 23.5174 60.6915 23.4171 60.5911C23.3167 60.3903 23.2147 59.5854 23.2147 59.0817C23.2147 57.2694 22.8133 56.2636 22.3099 55.76C22.6126 55.5575 22.9137 55.2563 22.9137 55.2563C23.6178 54.2489 23.8201 53.444 23.4171 52.7395C22.4103 51.0276 18.0854 51.5313 16.6756 51.7321C16.3746 51.7321 16.0719 52.1354 16.1722 52.4366C16.1722 52.7395 16.5753 53.0407 16.878 52.9403C17.179 52.9403 17.4801 52.8399 17.7828 52.8399V55.6579H17.4801C17.179 55.6579 16.878 55.9608 16.878 56.2636C16.878 56.5649 17.179 56.8661 17.4801 56.8661H17.7828V60.3903L16.9783 60.4907C16.6756 60.4907 16.3746 60.894 16.4749 61.1952C16.4749 61.4981 16.878 61.7993 17.179 61.6989L20.0957 61.2956C20.3984 61.2956 20.7011 60.894 20.5991 60.5911C20.5991 60.2899 20.1977 59.987 19.895 60.0891L18.9902 60.1895V56.6653C19.594 56.5649 20.0957 56.4645 20.5991 56.2636H20.8014C21.0021 56.2636 21.2028 56.3624 21.3032 56.5649C21.5055 56.8661 21.7062 57.4702 21.8066 58.9813C21.8066 59.2825 21.9085 60.4907 22.1092 60.9944C22.2096 61.1952 22.5123 61.6989 23.014 61.8997C23.4171 62.0001 23.9204 62.2026 24.5242 61.8997C25.0259 61.5985 25.429 61.2956 25.6297 60.3903C26.0327 60.1895 25.832 59.8866 25.5293 59.7862ZM22.0072 54.3493C21.9085 54.4497 21.8066 54.5518 21.6059 54.6522C21.5055 54.7526 21.2028 54.853 21.1025 54.853L20.8014 54.9534C20.3984 55.1559 19.7947 55.2563 19.1909 55.3567V52.537C20.8014 52.537 22.2096 52.6391 22.5123 53.1411V53.3436C22.5123 53.5444 22.3099 53.9477 22.0072 54.3493ZM5.10598 56.0612C4.40189 55.9608 3.99886 55.4571 4.19955 54.0481V53.8472C4.40189 52.6391 4.50224 52.3362 5.10598 52.3362C5.30667 52.3362 5.50901 52.4366 5.70971 52.6391C5.91041 52.8399 6.31345 53.1411 6.51414 53.7452C6.71484 54.1485 6.71484 54.4497 6.81683 54.7526V55.1559C6.81683 55.3567 7.01753 55.5575 7.31857 55.6579C7.62126 55.76 7.92231 55.4571 8.02266 55.1559C8.02266 55.1559 8.225 51.3304 8.225 51.2284C8.225 50.9272 7.92231 50.6259 7.62126 50.6259C7.31857 50.6259 7.01753 50.9272 7.01753 51.2284V52.3362C6.51414 51.8325 5.91041 51.3304 5.20632 51.3304C3.29477 51.0276 3.09243 52.7395 2.99373 53.7452V53.9477C2.79139 55.8604 3.39512 57.0686 4.90528 57.3698C6.51414 57.6727 7.62126 57.9739 7.62126 58.9813C7.62126 59.3829 7.42057 59.7862 7.01753 60.0891C6.61449 60.4907 6.01076 60.5911 5.40702 60.4907C5.20632 60.4907 5.10598 60.3903 4.90528 60.3903C4.70294 60.2899 4.0992 59.987 3.89851 59.5854C3.79816 59.1821 3.69781 58.6784 3.69781 58.3772V58.1763C3.69781 57.8735 3.39512 57.5722 3.09243 57.5722C2.79139 57.5722 2.49034 57.8735 2.49034 58.1763C2.49034 58.1763 2.49034 59.3829 2.38835 60.0891C2.288 61.2956 2.38835 62.2026 2.38835 62.303C2.38835 62.6042 2.69104 62.9071 2.99373 62.9071C3.29477 62.9071 3.59746 62.6042 3.59746 62.303V61.1952C3.99886 61.4981 4.60259 61.7993 5.30667 61.8997C6.21145 62.1022 7.11788 61.7993 7.82196 61.1952C8.42569 60.6915 8.82873 59.8866 8.82873 59.1821C8.82873 56.6653 6.31345 56.2636 5.10598 56.0612Z" fill="white"/>
<path d="M33.7792 57.1688C33.5785 57.2692 33.2775 57.3696 32.6721 57.6724L31.8677 55.7597L29.5547 50.2224C29.5547 50.122 29.4544 49.9196 29.3524 49.9196C29.2521 49.8192 29.0514 49.7188 28.8507 49.7188L26.2334 50.0216C25.9323 50.0216 25.6297 50.3228 25.73 50.7261C25.73 51.0274 26.0327 51.3302 26.4357 51.2298C26.4357 51.2298 27.4409 51.1278 28.2469 51.0274C28.0446 52.1351 27.1398 56.6651 26.8388 58.0741L25.0276 57.9737C24.7249 57.9737 24.4238 58.1761 24.4238 58.5778C24.4238 58.8806 24.6245 59.1819 25.0276 59.1819L28.0446 59.2823C28.3473 59.2823 28.6483 59.0815 28.6483 58.6782C28.6483 58.3769 28.4476 58.0741 28.0446 58.0741L28.1449 57.1688L30.9629 56.6651L31.5666 58.1761C31.0633 58.4774 30.8626 58.5778 30.5599 58.8806C30.3592 59.1819 30.4595 59.4847 30.6602 59.6856C30.9629 59.8864 31.366 59.786 31.5666 59.5851C31.8677 59.1819 32.9748 58.6782 34.0819 58.2765C34.3846 58.1761 34.5837 57.7729 34.485 57.47C34.3846 57.2692 34.0819 57.0683 33.7792 57.1688ZM28.4476 56.1614L29.1517 52.5384L30.4595 55.8601" fill="white"/>
<path d="M15.3682 58.4773C15.0672 58.4773 14.7645 58.7802 14.7645 59.0814V59.9868C14.7645 60.1892 14.6641 60.5909 14.5638 60.7933C14.4634 60.9941 14.3631 61.0946 14.1607 61.2954C14.0604 61.3974 13.8597 61.4978 13.6574 61.5982C13.4567 61.6987 13.3563 61.6987 12.9533 61.6987H12.5519C10.9414 61.6987 10.7407 60.4905 10.7407 60.1892V57.572C10.841 56.5646 11.0417 55.8601 11.4448 55.5589C11.7458 55.3564 12.1488 55.4569 12.8529 55.6593C13.6574 55.9605 14.2611 56.8675 14.2611 56.8675C14.3631 57.0683 14.6641 57.1687 14.9668 57.1687C15.2679 57.0683 15.3682 56.8675 15.3682 56.5646V53.847C15.3682 53.5441 15.0672 53.2429 14.7645 53.2429C14.4634 53.2429 14.1607 53.5441 14.1607 53.847V54.9532C13.96 54.7523 13.6574 54.5515 13.3563 54.4511C12.9533 54.2487 11.8478 53.847 10.841 54.3507C10.1369 54.8528 9.63355 55.7597 9.5332 57.2691V60.0888C9.63355 60.9941 10.3376 62.8064 12.6522 62.8064H12.9533C13.3563 62.8064 13.7593 62.8064 14.1607 62.6056C14.4634 62.5036 14.7645 62.3028 15.0672 62.0015C15.2679 61.7991 15.3682 61.5982 15.5705 61.2954C15.7712 60.8937 15.8716 60.1892 15.9719 59.9868V58.981C15.9719 58.7802 15.6709 58.4773 15.3682 58.4773ZM41.0245 51.0273C41.0245 51.0273 39.2132 51.1278 37.2013 51.2298L33.2779 51.3302C33.0756 51.3302 32.9752 51.4306 32.7745 51.531C32.6742 51.6314 32.5738 51.8323 32.6742 52.0347L33.1759 55.0552C33.1759 55.3564 33.5789 55.6593 33.8816 55.5589C34.1827 55.5589 34.3834 55.256 34.3834 54.9532C34.3834 54.9532 34.1827 53.3433 33.982 52.5368H36.5976V60.4905H35.2898C34.9871 60.4905 34.6861 60.7933 34.6861 61.0946C34.6861 61.3974 34.9871 61.6987 35.2898 61.6987L39.0126 61.5982C39.3136 61.5982 39.6163 61.2954 39.6163 60.9941C39.6163 60.6929 39.3136 60.39 39.0126 60.39H37.8051V52.438C38.8102 52.438 39.7166 52.3359 40.3204 52.3359V53.5441C40.3204 54.1482 40.4207 54.3507 40.4207 54.4511C40.6214 54.7523 40.9241 54.8528 41.2251 54.6519C41.4275 54.5515 41.5278 54.2487 41.5278 54.0478C41.5278 54.0478 41.5278 52.6388 41.6282 51.8323C41.6282 51.6314 41.6282 51.531 41.4275 51.3302C41.4275 51.1278 41.2251 51.0273 41.0245 51.0273Z" fill="white"/>
<path d="M73.6648 55.9802C73.6648 60.4509 70.0424 64.0754 65.5744 64.0754C61.1048 64.0754 57.4824 60.4509 57.4824 55.9802C57.4824 51.5079 61.1048 47.8833 65.5744 47.8833C70.0424 47.8833 73.6648 51.5079 73.6648 55.9802Z" fill="#F9A83A"/>
<path d="M62.0236 54.089C61.8739 54.01 61.7094 53.9722 61.5301 53.9722C61.3606 53.9722 61.1912 53.9985 61.0234 54.0479C60.8539 54.0989 60.6977 54.1582 60.5578 54.2273V56.0133C60.6598 56.038 60.7618 56.0544 60.8622 56.0676C60.9642 56.0791 61.0678 56.0857 61.1747 56.0857C61.2767 56.0857 61.3787 56.0775 61.4807 56.0627C61.6205 56.0396 61.7587 56.0034 61.8969 55.9573C62.0351 55.9129 62.1568 55.8339 62.2638 55.7219C62.3608 55.6166 62.4332 55.4997 62.4809 55.373C62.5302 55.2479 62.5549 55.1228 62.5549 54.996C62.5549 54.8117 62.5089 54.6388 62.4184 54.4775C62.3296 54.3146 62.1979 54.1845 62.0236 54.089ZM60.0791 53.722C60.1318 53.6759 60.1926 53.6528 60.2601 53.6528C60.2996 53.6528 60.3292 53.6578 60.3473 53.6677C60.5315 53.5854 60.7256 53.5162 60.928 53.4635C61.132 53.4109 61.3343 53.3845 61.5383 53.3845C61.6732 53.3845 61.8048 53.3977 61.9331 53.424C62.0614 53.4504 62.1864 53.4981 62.3065 53.5656C62.4381 53.6331 62.5566 53.7203 62.6635 53.8273C62.7688 53.9327 62.8576 54.0512 62.9316 54.1796C63.004 54.3063 63.06 54.4446 63.1027 54.5894C63.1439 54.7343 63.1636 54.8791 63.1636 55.0256C63.1636 55.3055 63.0896 55.5655 62.9382 55.8009C62.7787 56.0495 62.5829 56.247 62.3509 56.3935C62.119 56.5417 61.8525 56.6272 61.5531 56.6519C61.4939 56.6569 61.4346 56.6602 61.3738 56.6618C61.3129 56.6651 61.257 56.6668 61.2043 56.6668C61.0925 56.6668 60.9839 56.6618 60.877 56.6519C60.77 56.6421 60.6648 56.6305 60.5578 56.6157V57.2396C60.5578 57.4733 60.5595 57.6807 60.5661 57.8651C60.5595 57.9754 60.5282 58.0593 60.4674 58.1153C60.4065 58.1712 60.3407 58.1992 60.2683 58.1992C60.2009 58.1992 60.1367 58.1729 60.0791 58.1219C60.0215 58.0725 59.9854 57.9918 59.9705 57.8865V56.4692C59.9557 56.4692 59.9393 56.4659 59.9196 56.4561C59.8472 56.4166 59.7945 56.3705 59.76 56.3178C59.7254 56.2651 59.709 56.2108 59.709 56.1581C59.709 56.0956 59.7304 56.038 59.7748 55.9869C59.8176 55.9359 59.8801 55.9013 59.9623 55.8816V53.936C59.987 53.8388 60.0265 53.7681 60.0791 53.722Z" fill="white"/>
<path d="M65.9175 54.1616C65.8007 54.0793 65.674 54.02 65.5358 53.9871C65.3977 53.9525 65.2562 53.9344 65.1114 53.9344C64.9848 53.9344 64.8614 53.9476 64.7413 53.9723C64.6196 53.997 64.5011 54.0299 64.3843 54.0743V55.9689C64.5686 55.959 64.7528 55.9459 64.937 55.9245C65.1213 55.9064 65.3023 55.8636 65.4816 55.7944C65.5885 55.7566 65.6888 55.7006 65.7826 55.6265C65.8764 55.5558 65.9603 55.4735 66.0327 55.3796C66.105 55.2891 66.1626 55.1903 66.2037 55.0866C66.2432 54.9829 66.2646 54.8792 66.2646 54.7772C66.2646 54.6669 66.2383 54.5583 66.1856 54.4513C66.1314 54.3443 66.0425 54.2488 65.9175 54.1616ZM64.2873 58.0133C64.2264 58.0676 64.1606 58.0956 64.0866 58.0956C64.0191 58.0956 63.9566 58.0709 63.899 58.0215C63.8414 57.9705 63.8036 57.8915 63.7888 57.7845V54.3196C63.7131 54.3097 63.6506 54.2817 63.6062 54.2307C63.5585 54.1797 63.5371 54.1171 63.5371 54.0447C63.5371 54.0019 63.547 53.9558 63.5684 53.9064C63.5914 53.8587 63.6259 53.8142 63.6736 53.7764C63.8826 53.6447 64.1145 53.541 64.3712 53.4603C64.6261 53.3797 64.8861 53.3402 65.1476 53.3402C65.3598 53.3402 65.5655 53.3698 65.7612 53.4274C65.957 53.485 66.1363 53.5805 66.3008 53.7105C66.4949 53.8653 66.6347 54.0348 66.7219 54.2192C66.8091 54.4035 66.8535 54.5912 66.8535 54.7854C66.8535 54.9401 66.8272 55.0932 66.7779 55.243C66.7252 55.3928 66.6545 55.5344 66.5624 55.6677C66.4702 55.801 66.36 55.9212 66.2317 56.0298C66.1034 56.1401 65.9603 56.2306 65.8007 56.3031C65.9849 56.5121 66.1824 56.731 66.3962 56.9648C66.6084 57.1969 66.8075 57.4141 66.9917 57.6183C67.0444 57.6857 67.0707 57.7598 67.0707 57.8421C67.0707 57.9261 67.0444 57.9919 66.9917 58.0429C66.9374 58.094 66.8716 58.1187 66.7943 58.1187C66.7565 58.1187 66.7137 58.1104 66.6676 58.094C66.6216 58.0759 66.5788 58.0462 66.541 58.0034C66.5114 57.9689 66.4604 57.9113 66.388 57.8322C66.3156 57.7516 66.2334 57.6627 66.1412 57.5623C66.0491 57.4635 65.9537 57.3582 65.8517 57.2446C65.7497 57.1294 65.6543 57.024 65.5655 56.9236C65.475 56.8249 65.3944 56.736 65.322 56.6586C65.248 56.5812 65.1986 56.5253 65.169 56.4924C65.039 56.5154 64.9074 56.5319 64.7775 56.5434C64.6459 56.5533 64.5159 56.5598 64.3843 56.5648V57.7631C64.3794 57.8734 64.3465 57.9573 64.2873 58.0133Z" fill="white"/>
<path d="M70.7017 55.5355C70.6811 55.4397 70.6622 55.3433 70.639 55.245C70.6163 55.1481 70.5885 55.0514 70.5539 54.9554C70.5116 54.8377 70.4572 54.7209 70.3894 54.6053C70.3221 54.4914 70.2406 54.3913 70.1429 54.3093C69.9684 54.15 69.7611 54.055 69.5241 54.0233C69.2849 53.9905 69.057 54.0132 68.8388 54.0919C68.5804 54.1851 68.374 54.3452 68.2238 54.5691C68.1309 54.7093 68.0598 54.8662 68.0119 55.0392C67.9619 55.2111 67.9323 55.3863 67.9231 55.5646C67.9139 55.7429 67.9197 55.9192 67.9436 56.0926C67.9681 56.2675 68.0069 56.4284 68.0587 56.5725C68.1246 56.7552 68.2108 56.9218 68.3184 57.0702C68.4261 57.2186 68.5528 57.3374 68.7017 57.4254C68.849 57.514 69.0142 57.5699 69.1969 57.5916C69.3795 57.6132 69.5746 57.5866 69.785 57.5107C69.8717 57.4795 69.9539 57.4358 70.0359 57.3818C70.1157 57.3268 70.1845 57.2652 70.2427 57.1987C70.3496 57.078 70.4333 56.9463 70.4981 56.8057C70.5639 56.663 70.6129 56.5176 70.6457 56.3658C70.679 56.2156 70.6982 56.0599 70.7021 55.901C70.7067 55.7437 70.7019 55.5897 70.6894 55.4385L70.7017 55.5355ZM71.2725 55.4067C71.2882 55.5813 71.2917 55.7707 71.28 55.9761C71.2693 56.1795 71.2403 56.3806 71.1956 56.577C71.1509 56.7733 71.0842 56.9618 70.9985 57.1414C70.9118 57.3232 70.801 57.4768 70.6656 57.6009C70.6029 57.655 70.5478 57.7011 70.5014 57.7423C70.453 57.7825 70.4049 57.8191 70.3558 57.8526C70.3051 57.8866 70.2523 57.9196 70.1943 57.9528C70.1384 57.9869 70.07 58.0204 69.9953 58.0508C69.986 58.0541 69.9757 58.0596 69.9629 58.0677C69.9495 58.0743 69.9361 58.0809 69.9222 58.0859C69.8046 58.1283 69.6772 58.1532 69.5389 58.1576C69.4032 58.1645 69.2732 58.1677 69.1505 58.1717C68.9403 58.1705 68.7467 58.1283 68.5741 58.0471C68.4014 57.9659 68.2438 57.8582 68.1068 57.7256C67.9694 57.5915 67.8502 57.4403 67.7509 57.2714C67.651 57.1009 67.5688 56.9259 67.503 56.7431C67.4784 56.675 67.4554 56.6063 67.4366 56.5396C67.4173 56.4713 67.4016 56.4035 67.3865 56.3372C67.3573 56.1833 67.3406 56.0108 67.3371 55.8214C67.3326 55.634 67.3457 55.4421 67.3743 55.2498C67.4009 55.0565 67.4464 54.8721 67.5088 54.6957C67.5721 54.5171 67.6522 54.3658 67.7496 54.2379C67.8711 54.0751 68.0134 53.9363 68.1771 53.8178C68.3407 53.6993 68.5154 53.6066 68.7011 53.5396C69.0107 53.428 69.3278 53.3959 69.6542 53.4427C69.979 53.4901 70.2765 53.6365 70.5441 53.8794C70.6739 53.9971 70.7833 54.1309 70.8738 54.2802C70.9649 54.4311 71.0389 54.5881 71.098 54.7523C71.1354 54.856 71.1692 54.9645 71.1984 55.0747C71.2276 55.1849 71.2516 55.2953 71.2725 55.4067Z" fill="white"/>
<defs>
<clipPath id="clip0_1_10378">
<rect width="41.0989" height="43.1396" fill="white" transform="translate(15.6426 0.333496)"/>
</clipPath>
</defs>
</svg>
