<svg width="1695" height="474" viewBox="0 0 1695 474" fill="none" xmlns="http://www.w3.org/2000/svg">
<path d="M306.587 377.395L383.607 377.087L320.392 315.229V314.766C320.392 314.38 320.392 313.995 320.392 313.609V130.773C320.392 58.6571 261.906 0 190.039 0C131.438 0 81.7961 38.9119 65.377 92.3242C51.5343 93.8668 25.4637 101.31 2.66157 133.126C-0.760673 137.869 -0.876031 144.078 2.27705 148.937C5.43012 153.758 11.121 156.11 16.7351 154.915C28.1938 152.524 44.8051 151.136 59.6477 157.769V313.108C59.6477 385.224 118.133 443.881 190.039 443.881C194.23 443.881 198.383 443.65 202.497 443.264C204.151 443.11 205.766 442.917 207.419 442.685C209.842 442.377 212.264 441.991 214.648 441.529C215.802 441.297 216.917 441.066 218.071 440.834C221.685 439.986 225.3 439.06 228.799 437.981C228.991 437.942 229.183 437.865 229.376 437.788C241.757 433.854 253.408 428.069 263.906 420.742C264.828 420.125 265.751 419.469 266.636 418.775C268.174 417.696 269.635 416.577 271.096 415.42L283.824 446.002C286.246 451.825 290.784 456.337 296.551 458.767C299.474 459.963 302.512 460.541 305.549 460.541C308.587 460.541 311.663 459.963 314.585 458.767C326.544 453.792 332.235 439.947 327.275 427.954L306.549 377.395H306.587ZM60.0707 120.785C60.0707 120.785 60.0706 120.939 60.0322 121.055C59.9553 122.058 59.9168 123.022 59.8399 123.986V124.217C59.8399 124.217 59.8015 124.564 59.8015 124.719V124.834C59.8015 125.259 59.763 125.683 59.763 126.107C59.7246 126.531 59.7246 126.955 59.7246 127.38V127.997C59.7246 127.997 59.7246 128.421 59.6861 128.614V142.227C58.994 141.996 58.3403 141.803 57.6866 141.61C56.8022 141.34 55.9178 141.07 55.0334 140.839C54.1875 140.646 53.3415 140.414 52.4956 140.26C51.6496 140.067 50.8037 139.875 49.9577 139.72C49.5348 139.682 49.1118 139.605 48.6888 139.527C47.4583 139.335 46.1894 139.142 44.9589 138.988C43.2671 138.795 41.6521 138.679 39.9986 138.563C36.461 138.371 33.0772 138.409 29.7703 138.602C28.04 138.679 26.3097 138.833 24.6562 139.026C23.8103 139.103 22.9643 139.219 22.1953 139.335C19.7728 139.643 17.4657 140.029 15.2739 140.453C15.6584 139.913 16.0429 139.373 16.4274 138.91C17.6195 137.329 18.773 135.864 19.965 134.476C20.5034 133.82 21.0417 133.241 21.58 132.624C22.6567 131.429 23.6949 130.272 24.7331 129.192C25.2714 128.652 25.8098 128.151 26.3096 127.611C27.3863 126.57 28.4245 125.567 29.5012 124.641C30.5394 123.716 31.616 122.829 32.6158 121.98C34.1923 120.708 35.7304 119.551 37.2685 118.471C38.8066 117.391 40.3447 116.427 41.8443 115.54C42.8056 114.923 43.8054 114.383 44.7667 113.843H44.8051C46.2663 113.072 47.6891 112.378 49.0733 111.761C50.4961 111.105 51.8419 110.565 53.1877 110.064C53.6491 109.91 54.1106 109.755 54.4951 109.601C54.7258 109.524 54.9565 109.447 55.1488 109.37C55.3795 109.331 55.5717 109.216 55.8025 109.177C56.8407 108.83 57.8789 108.521 58.8402 108.29C59.8399 108.02 60.8012 107.789 61.7241 107.596C61.801 107.596 61.9164 107.519 61.9933 107.519C61.0704 111.877 60.4552 116.273 60.0707 120.785V120.785ZM210.188 231.35C209.842 231.466 209.534 231.62 209.227 231.736C208.65 232.006 208.035 232.276 207.458 232.507C207.073 232.7 206.65 232.854 206.266 233.009C205.42 233.356 204.574 233.703 203.728 233.973C203.382 234.127 203.036 234.243 202.651 234.358C201.805 234.705 200.959 235.014 200.075 235.284C199.075 235.592 198.114 235.94 197.076 236.248H197.037C194.038 237.174 191 237.945 187.886 238.562C187.732 238.6 187.578 238.639 187.463 238.639C180.349 240.182 173.005 240.914 165.468 240.914C163.007 240.914 160.585 240.837 158.162 240.683C155.432 240.529 152.702 240.22 150.049 239.835C149.087 239.719 148.126 239.565 147.165 239.372C145.704 239.14 144.358 240.22 144.358 241.724V407.591C144.358 407.591 144.319 407.592 144.319 407.553L144.396 419.971C144.396 419.971 144.012 419.817 143.819 419.739C143.781 419.701 143.743 419.662 143.704 419.662C139.397 417.773 135.206 415.613 131.207 413.183C97.0616 392.975 74.1441 355.683 74.1441 313.108V129.385C74.1441 128.652 74.1441 127.919 74.1826 127.225C74.1826 126.493 74.221 125.721 74.2595 125.027C74.2979 124.217 74.3749 123.369 74.4133 122.598C74.5287 121.325 74.6056 120.052 74.7594 118.78C74.8747 117.507 75.0285 116.273 75.2208 115C75.3746 113.882 75.5284 112.764 75.7207 111.607C75.8745 110.565 76.0667 109.563 76.259 108.521C76.4128 107.789 76.5666 107.094 76.7204 106.439C76.7204 106.285 76.7589 106.13 76.7973 105.938C76.9896 105.166 77.1434 104.356 77.3357 103.624C77.5664 102.737 77.7971 101.85 77.9894 100.963C78.1047 100.538 78.2201 100.114 78.3354 99.69C78.3739 99.6129 78.3739 99.5358 78.4123 99.4587C78.5661 98.8031 78.7968 98.1474 78.9891 97.4533C79.0276 97.4147 79.0276 97.3761 79.0276 97.3376C79.1429 96.9519 79.2583 96.5663 79.4121 96.1421C79.489 95.795 79.6043 95.4094 79.7197 95.0623C79.8351 94.7152 79.9504 94.3681 80.0658 94.021C80.2196 93.5582 80.4118 93.134 80.5656 92.6712C81.0655 91.0901 81.6423 89.5861 82.2191 88.0435C82.4114 87.6578 82.6036 87.2336 82.7574 86.8094C82.9112 86.3852 83.1035 85.961 83.2573 85.5753H83.2957C83.3727 85.3439 83.4111 85.1511 83.5265 84.9969C83.6418 84.6112 83.7956 84.2641 83.9879 83.917C84.0263 83.8785 84.0263 83.8399 84.0263 83.8014C84.2955 83.1458 84.5647 82.5287 84.9107 81.9117C85.103 81.4103 85.3337 80.9475 85.5644 80.4462C85.7182 80.1762 85.8721 79.8677 86.0259 79.5592C86.3719 78.865 86.718 78.1709 87.0641 77.4382C87.0641 77.4382 87.0769 77.4253 87.1025 77.3996C87.1025 77.3996 87.2563 77.1296 87.3332 76.9754C87.4486 76.7054 87.6024 76.4355 87.7562 76.1269C88.2176 75.2399 88.7175 74.353 89.2558 73.466C89.2558 73.4274 89.2558 73.3888 89.2943 73.3503C90.0249 72.1162 90.717 70.9207 91.4476 69.7252C91.8321 69.1082 92.1782 68.5297 92.5627 67.9512C92.9472 67.3342 93.3702 66.7557 93.7547 66.1772C94.1393 65.5988 94.5238 64.9817 94.9083 64.4418C95.5235 63.5548 96.1388 62.7064 96.754 61.858C97.3692 61.0095 98.0229 60.1997 98.6766 59.3512H98.7151C99.0996 58.8113 99.4841 58.3486 99.8686 57.8472C99.9071 57.8087 99.9455 57.7315 100.022 57.6544C100.292 57.2687 100.638 56.8831 100.984 56.4975C101.022 56.4203 101.099 56.3432 101.138 56.2661C101.522 55.8419 101.868 55.3791 102.253 54.9549C103.675 53.3351 105.06 51.754 106.559 50.2499C106.982 49.7872 107.367 49.363 107.79 48.9388L109.059 47.6661C109.866 46.8948 110.674 46.1235 111.481 45.3522C111.52 45.3137 111.597 45.2751 111.635 45.2365C111.673 45.198 111.75 45.1208 111.827 45.0823C111.866 45.0051 111.981 44.9666 112.02 44.8894C112.673 44.2724 113.327 43.7325 113.942 43.1926C114.057 43.0769 114.173 42.9998 114.25 42.8841C114.288 42.807 114.365 42.7684 114.442 42.7298C115.288 41.9585 116.211 41.2258 117.134 40.4545C117.634 40.0688 118.095 39.6832 118.595 39.2976C119.402 38.642 120.248 37.9864 121.094 37.3693C128.823 31.7003 136.975 28.1138 141.32 26.3783C142.32 25.9927 143.089 25.7227 143.627 25.5685C143.743 25.4913 143.819 25.4913 143.896 25.4528C144.012 25.4142 144.089 25.3756 144.166 25.3371C144.358 25.2985 144.473 25.26 144.473 25.26C151.625 23.0618 161.546 20.9793 173.12 20.9793C184.694 20.9793 197.306 22.9461 210.765 28.7693C212.841 29.7335 214.879 30.7362 216.879 31.816C218.417 32.6258 219.878 33.4743 221.339 34.3613C221.916 34.7083 222.454 35.0168 222.992 35.3639C223.761 35.8267 224.531 36.3281 225.3 36.8294C226.146 37.3693 226.991 37.9478 227.799 38.5648C228.76 39.2204 229.722 39.876 230.606 40.5702C231.26 41.0329 231.836 41.4957 232.452 41.9585C233.067 42.4213 233.682 42.9226 234.259 43.424C234.874 43.8868 235.451 44.3881 236.066 44.8894C237.22 45.8536 238.335 46.8562 239.488 47.8975H239.527C240.604 48.9387 241.642 49.98 242.718 51.0213C244.41 52.6795 246.025 54.415 247.563 56.1889C248.563 57.3073 249.563 58.5028 250.524 59.6983C251.985 61.4723 253.408 63.3234 254.754 65.2131C255.638 66.4472 256.484 67.7198 257.33 69.031C258.676 71.075 259.945 73.196 261.175 75.3556C261.368 75.7027 261.56 76.0884 261.752 76.4355C261.829 76.5512 261.868 76.6669 261.944 76.7826C262.752 78.2095 263.483 79.7135 264.213 81.1789C264.559 81.8731 264.905 82.6058 265.251 83.3386C266.943 87.0408 268.443 90.8587 269.75 94.7923C270.058 95.6793 270.327 96.6049 270.596 97.5304C271.442 100.23 272.134 102.93 272.75 105.706C272.98 106.632 273.134 107.519 273.326 108.483C273.557 109.563 273.749 110.681 273.942 111.799C273.942 112.146 274.018 112.455 274.095 112.802C274.211 113.612 274.326 114.383 274.403 115.193C274.557 116.003 274.634 116.813 274.711 117.623C274.788 118.124 274.826 118.664 274.864 119.204C274.941 119.705 274.98 120.207 275.018 120.746C275.057 121.325 275.134 121.903 275.134 122.52C275.249 123.947 275.326 125.451 275.364 126.917C275.364 127.919 275.403 128.922 275.403 129.925C275.403 158.424 264.675 184.456 247.102 204.124C242.295 209.561 236.874 214.536 231.106 218.932C230.798 219.125 230.568 219.28 230.337 219.472C228.837 220.591 227.299 221.671 225.723 222.673C225.3 222.982 224.838 223.29 224.415 223.56C223.992 223.869 223.531 224.139 223.108 224.409C222.531 224.756 221.954 225.064 221.377 225.45C221.377 225.45 221.301 225.527 221.224 225.527H221.185C220.762 225.836 220.301 226.067 219.916 226.337H219.839C216.686 228.188 213.456 229.846 210.149 231.35H210.188ZM310.125 447.969C307.203 449.164 303.973 449.164 301.089 447.969C298.128 446.735 295.859 444.459 294.667 441.49L271.788 386.612L266.905 374.927L257.984 383.913L219.109 423.21V232.507L305.857 317.35L319.277 330.5L355.114 365.517L301.781 365.749H289.169L293.975 377.472L316.547 432.427C319.046 438.482 316.162 445.462 310.125 447.969Z" fill="#313849"/>
<path d="M293.979 377.472L289.173 365.787H301.746L355.08 365.517L319.242 330.501L305.822 317.388L219.074 232.546V423.249L257.988 383.951L266.909 374.966L271.754 386.651L294.633 441.567C295.863 444.537 298.132 446.812 301.054 448.008C303.977 449.242 307.168 449.242 310.129 448.008C316.166 445.501 319.011 438.521 316.55 432.466L293.979 377.511V377.472ZM269.639 354.334L231.763 391.047V264.439L321.934 354.873L269.677 354.334H269.639Z" fill="white"/>
<path d="M321.928 354.835L269.633 354.334L231.758 391.048V264.439L320.775 353.717L321.928 354.835Z" fill="#31384B"/>
<path d="M74.1338 129.925C74.1338 129.925 74.1338 129.578 74.1338 129.385C74.1338 128.652 74.1338 127.919 74.1338 127.225C74.1338 128.112 74.1338 128.999 74.1338 129.925ZM61.7522 107.596C61.5599 108.56 61.4061 109.524 61.2908 110.488C61.0985 111.799 60.9447 113.033 60.7524 114.306C60.5986 115.424 60.4833 116.543 60.3679 117.7C60.2526 118.779 60.1757 119.936 60.0988 121.055C60.0988 120.978 60.0988 120.862 60.0988 120.785C60.4833 116.273 61.0985 111.876 62.0214 107.519C61.9445 107.519 61.8676 107.519 61.7906 107.557L61.7522 107.596ZM74.1338 129.925C74.1338 129.925 74.1338 129.578 74.1338 129.385C74.1338 128.652 74.1338 127.919 74.1338 127.225C74.1338 128.112 74.1338 128.999 74.1338 129.925ZM74.1338 129.925C74.1338 129.925 74.1338 129.578 74.1338 129.385C74.1338 128.652 74.1338 127.919 74.1338 127.225C74.1338 128.112 74.1338 128.999 74.1338 129.925ZM74.1338 129.925C74.1338 129.925 74.1338 129.578 74.1338 129.385C74.1338 128.652 74.1338 127.919 74.1338 127.225C74.1338 128.112 74.1338 128.999 74.1338 129.925ZM74.1338 129.925C74.1338 129.925 74.1338 129.578 74.1338 129.385C74.1338 128.652 74.1338 127.919 74.1338 127.225C74.1338 128.112 74.1338 128.999 74.1338 129.925ZM59.7142 127.379V127.996C59.7142 127.804 59.7142 127.572 59.7142 127.379C59.7142 126.955 59.7142 126.531 59.7142 126.068C59.7142 126.492 59.6758 126.917 59.6758 127.379H59.7142Z" fill="#31384B"/>
<path d="M59.7339 127.38V127.997C59.7339 127.804 59.7339 127.572 59.7339 127.38C59.7339 126.955 59.7339 126.531 59.7339 126.068C59.7339 126.493 59.6953 126.917 59.6953 127.38H59.7339Z" fill="#31384B"/>
<path d="M61.7267 107.597C61.5344 108.561 61.3806 109.525 61.2268 110.489C61.0346 111.8 60.8808 113.034 60.6885 114.307C60.5347 115.425 60.4193 116.544 60.304 117.701C60.2271 118.742 60.1502 119.745 60.0733 120.824C60.0733 120.902 60.0733 120.979 60.0733 121.094C59.9964 122.136 59.9579 123.061 59.881 124.064C59.881 124.141 59.881 124.218 59.881 124.295C59.881 124.488 59.881 124.642 59.881 124.797V124.874C59.881 125.298 59.881 125.722 59.8425 126.146C59.8425 126.571 59.8425 126.995 59.8425 127.458C59.8425 127.65 59.8425 127.882 59.8425 128.075C59.8425 128.267 59.8425 128.46 59.8425 128.692C59.8425 129.116 59.8425 129.54 59.8425 129.964V142.344C59.1504 142.112 58.4967 141.919 57.843 141.688C56.9586 141.418 56.0742 141.187 55.1898 140.955C54.3439 140.724 53.4979 140.531 52.6904 140.338C51.8445 140.145 50.9985 139.991 50.1526 139.837C49.7296 139.76 49.3066 139.683 48.8837 139.605C47.6147 139.413 46.3458 139.22 45.1154 139.066C43.4619 138.873 41.8085 138.718 40.155 138.641C36.6559 138.449 33.2336 138.487 29.9652 138.641C28.2349 138.757 26.4661 138.911 24.8511 139.066C24.0051 139.143 23.1976 139.258 22.3901 139.374C19.9677 139.683 17.6605 140.068 15.4688 140.492C15.8533 139.953 16.2378 139.413 16.6223 138.95C17.8143 137.369 18.9679 135.903 20.1599 134.515C20.6982 133.898 21.2366 133.281 21.7749 132.702C22.8516 131.507 23.8898 130.35 24.928 129.27C25.4663 128.73 26.0046 128.19 26.543 127.689C27.5812 126.648 28.6578 125.645 29.6961 124.719C30.7343 123.794 31.8109 122.907 32.8107 122.058C34.3872 120.786 35.9637 119.629 37.5018 118.549C39.0399 117.469 40.5396 116.505 42.0392 115.618C43.0389 115.001 44.0003 114.461 45 113.96C46.4612 113.189 47.8839 112.456 49.2682 111.877C50.6909 111.26 52.0368 110.682 53.3826 110.219C53.844 110.026 54.3054 109.872 54.69 109.756C54.9207 109.679 55.1514 109.602 55.3436 109.525C55.5743 109.448 55.7666 109.371 55.9973 109.332C57.0355 108.985 58.0737 108.715 59.0351 108.445C60.0348 108.175 60.9961 107.944 61.919 107.751L61.7267 107.597Z" fill="#D37518"/>
<path d="M190.351 35.4411C182.391 33.2815 174.086 32.1631 165.472 32.1631C139.594 32.1631 116.061 42.4984 98.7194 59.3127H98.6809C98.0272 60.1997 97.3735 61.0096 96.7583 61.858C96.1431 62.7064 95.5278 63.5548 94.9126 64.4418C94.5281 64.9817 94.1436 65.5988 93.759 66.1772C93.3745 66.7557 92.9515 67.3342 92.567 67.9512C92.1825 68.5297 91.8364 69.1082 91.4519 69.7252C90.7213 70.9207 90.0292 72.1162 89.2986 73.3117C89.2986 73.3117 89.2601 73.4274 89.2601 73.466C88.7218 74.353 88.2219 75.24 87.7605 76.1269C87.6067 76.4355 87.4529 76.7054 87.3375 76.9754C87.2606 77.1296 87.1837 77.2839 87.1068 77.3996C87.1068 77.3996 87.094 77.4125 87.0684 77.4382C86.7223 78.1709 86.3762 78.865 86.0302 79.5592C85.8763 79.8677 85.7225 80.1763 85.5687 80.4462C85.338 80.9476 85.1073 81.4103 84.915 81.9117C84.569 82.5287 84.2998 83.1458 84.0306 83.8014C84.0306 83.8399 84.0306 83.8785 83.9922 83.9171C83.7999 84.2641 83.6461 84.6112 83.5308 84.9969C83.4154 85.1511 83.3769 85.3439 83.3 85.5368H83.2616C83.1078 85.961 82.9155 86.3852 82.7617 86.8094C82.6079 87.2336 82.4156 87.6578 82.2234 88.0435C81.6466 89.5861 81.0698 91.0901 80.5699 92.6713C80.4161 93.134 80.2239 93.5582 80.0701 94.021C79.9547 94.3681 79.8393 94.7152 79.724 95.0623C79.6086 95.4094 79.4933 95.795 79.4164 96.1421C79.2626 96.5663 79.1472 96.9519 79.0318 97.3376C79.0318 97.3762 79.0319 97.4147 78.9934 97.4533C78.8011 98.1475 78.5704 98.8031 78.4166 99.4587C78.4166 99.5358 78.4166 99.6129 78.3397 99.6901C78.2244 100.114 78.109 100.538 77.9937 100.963C77.8014 101.85 77.5707 102.737 77.34 103.624C77.1477 104.356 76.9939 105.166 76.8016 105.938C76.7632 106.13 76.7247 106.285 76.7247 106.439C76.5709 107.094 76.4171 107.789 76.2633 108.521C76.071 109.563 75.8788 110.565 75.725 111.607C75.5327 112.764 75.3789 113.882 75.2251 115C75.0328 116.273 74.879 117.507 74.7637 118.78C74.6099 120.052 74.533 121.325 74.4176 122.598C74.3791 123.369 74.3022 124.217 74.2638 125.027C74.2253 125.721 74.1869 126.493 74.1869 127.225C74.1484 127.919 74.1484 128.652 74.1484 129.385V313.108C74.1484 355.683 97.0659 392.975 131.211 413.183L131.135 395.289V385.455L131.404 385.224C131.211 384.877 131.135 384.491 131.135 384.067V224.023H131.211C131.211 224.023 131.365 224.062 131.519 224.062C131.711 224.062 132.019 224.1 132.365 224.177C132.557 224.216 132.788 224.216 133.019 224.254C133.172 224.254 133.288 224.293 133.48 224.293C136.71 224.717 142.824 225.527 149.015 226.26C153.937 227.108 159.051 227.571 164.203 227.61C164.396 227.61 164.588 227.61 164.742 227.61H165.472C176.393 227.61 186.89 225.758 196.695 222.403C196.734 222.403 196.772 222.365 196.772 222.365C200.464 221.092 204.001 219.588 207.462 217.891C207.924 217.698 208.423 217.467 208.885 217.236C209.192 217.043 209.5 216.889 209.808 216.734C209.923 216.657 210.077 216.58 210.192 216.503H210.269C212.23 215.462 214.153 214.343 216.075 213.148C217.729 212.106 219.344 211.027 220.959 209.908C221.189 209.715 221.459 209.523 221.728 209.33C221.728 209.33 221.882 209.214 222.189 208.983C223.92 207.672 230.341 202.504 236.84 195.909L236.878 195.832C236.916 195.678 237.032 195.562 237.147 195.446C252.72 178.092 262.218 155.069 262.218 129.886C262.218 84.6498 231.648 46.5092 190.351 35.4025V35.4411ZM180.084 118.24C180.084 119.32 180.007 120.361 179.853 121.441C179.815 121.903 179.777 122.328 179.7 122.79C179.661 123.253 179.623 123.677 179.507 124.102C179.354 125.066 179.161 126.03 178.969 126.955C178.123 130.658 176.854 134.167 175.162 137.445C174.701 138.371 174.201 139.258 173.663 140.145C173.624 140.26 173.547 140.299 173.509 140.415C173.47 140.492 173.393 140.569 173.355 140.646C173.355 140.684 173.278 140.723 173.278 140.723C173.009 141.186 172.701 141.649 172.394 142.111C171.586 143.345 170.702 144.502 169.779 145.659C161.473 155.725 148.938 162.165 134.941 162.165C110.024 162.165 89.76 141.841 89.76 116.851C89.76 91.8614 110.024 71.5378 134.941 71.5378C148.938 71.5378 161.473 77.9781 169.779 88.0435C170.202 88.5448 170.586 89.0462 170.933 89.5475C171.317 90.0874 171.74 90.6273 172.125 91.1672C172.471 91.7071 172.817 92.2085 173.163 92.7484C173.509 93.2883 173.816 93.8282 174.124 94.3681C174.278 94.5995 174.432 94.8694 174.585 95.1394C174.662 95.3322 174.778 95.525 174.855 95.6793C174.97 95.8721 175.047 96.065 175.162 96.2578C177.008 99.8829 178.392 103.778 179.2 107.866C179.315 108.406 179.392 108.984 179.507 109.524C179.507 109.64 179.546 109.755 179.546 109.871C179.623 110.218 179.7 110.565 179.7 110.912C179.815 111.877 179.93 112.879 180.007 113.882V114.075C180.046 114.538 180.084 115 180.084 115.463V118.24V118.24Z" fill="white"/>
<path d="M275.442 129.925C275.442 158.424 264.714 184.456 247.18 204.124C242.335 209.561 236.952 214.536 231.145 218.933C230.876 219.125 230.645 219.28 230.376 219.473C228.877 220.591 227.339 221.671 225.762 222.673C225.339 222.982 224.878 223.252 224.416 223.56C223.993 223.869 223.532 224.139 223.109 224.409C222.532 224.756 221.955 225.103 221.417 225.45C221.378 225.45 221.302 225.527 221.263 225.566C220.84 225.836 220.379 226.106 219.956 226.337C219.956 226.337 219.917 226.337 219.879 226.337C216.726 228.15 213.496 229.808 210.189 231.312C209.843 231.466 209.535 231.62 209.228 231.736C208.651 232.006 208.074 232.238 207.459 232.507C207.074 232.7 206.651 232.855 206.267 233.009C205.421 233.356 204.575 233.703 203.729 233.973C203.344 234.127 202.998 234.243 202.652 234.397C201.806 234.706 200.96 235.014 200.076 235.323C199.076 235.631 198.115 235.978 197.077 236.287C194.077 237.212 191.04 237.984 187.925 238.601C187.771 238.639 187.617 238.678 187.502 238.678C180.388 240.182 173.044 240.953 165.546 240.953C163.085 240.953 160.624 240.876 158.202 240.722C155.471 240.568 152.78 240.259 150.127 239.873C149.165 239.758 148.166 239.603 147.204 239.411C145.743 239.141 144.397 240.259 144.397 241.763V407.63L144.474 420.048C144.474 420.048 144.128 419.894 143.936 419.817C143.897 419.778 143.859 419.74 143.782 419.74C139.475 417.85 135.323 415.69 131.285 413.299V395.405L131.208 385.571L131.516 385.34C131.323 384.993 131.208 384.607 131.208 384.183V224.1C131.208 224.1 131.208 224.1 131.285 224.1C131.362 224.1 131.439 224.1 131.593 224.1C131.823 224.1 132.093 224.1 132.439 224.177C132.631 224.177 132.9 224.255 133.131 224.255C133.285 224.255 133.4 224.255 133.554 224.332C136.784 224.756 142.936 225.566 149.088 226.26C154.01 227.108 159.124 227.571 164.239 227.648C164.431 227.648 164.662 227.648 164.815 227.648C165.084 227.648 165.315 227.648 165.546 227.648C176.466 227.648 186.964 225.797 196.769 222.442C196.769 222.442 196.808 222.442 196.846 222.442C200.537 221.131 204.075 219.665 207.536 217.969C208.036 217.737 208.497 217.506 208.997 217.274C209.304 217.082 209.612 216.927 209.92 216.773C210.035 216.696 210.189 216.619 210.304 216.542C210.304 216.542 210.343 216.542 210.381 216.542C212.342 215.5 214.303 214.382 216.187 213.225C217.841 212.184 219.494 211.104 221.071 209.947C221.34 209.754 221.571 209.6 221.84 209.407C221.84 209.407 221.994 209.291 222.301 209.06C224.032 207.71 230.453 202.581 236.952 195.948C236.952 195.948 236.952 195.909 236.952 195.871C237.028 195.717 237.105 195.601 237.221 195.485C252.794 178.131 262.292 155.108 262.292 129.925C262.292 84.6886 231.722 46.548 190.424 35.4413C182.503 33.3202 174.198 32.1633 165.584 32.1633C139.668 32.1633 116.135 42.4986 98.793 59.3129C99.1775 58.8115 99.562 58.3488 99.9465 57.8474C100.023 57.8089 100.062 57.7317 100.1 57.6546C100.37 57.269 100.716 56.8833 101.062 56.4977C101.1 56.4205 101.177 56.382 101.254 56.2663C101.6 55.8421 101.984 55.3793 102.369 54.9551C103.753 53.3354 105.176 51.7928 106.637 50.2502C107.06 49.7874 107.483 49.4018 107.906 48.939L109.175 47.6663C109.983 46.895 110.79 46.0852 111.598 45.3524C111.598 45.3524 111.674 45.2753 111.751 45.2368C111.79 45.1596 111.867 45.1211 111.944 45.0825C112.021 45.0054 112.097 44.9668 112.174 44.8511C112.828 44.2726 113.443 43.6942 114.097 43.1543C114.212 43.0386 114.328 42.9614 114.405 42.8457C114.405 42.7686 114.52 42.73 114.558 42.6915C115.443 41.9202 116.327 41.1489 117.25 40.4162C117.75 39.9919 118.211 39.6063 118.711 39.2592C119.519 38.6036 120.365 37.948 121.211 37.331C128.901 31.6619 137.091 28.0754 141.436 26.34C142.436 25.9543 143.167 25.6844 143.744 25.4916C143.859 25.453 143.936 25.4144 144.013 25.3759C144.09 25.3759 144.205 25.2987 144.243 25.2987C144.436 25.2602 144.551 25.183 144.551 25.183C151.703 23.0234 161.624 20.9023 173.198 20.9023C184.772 20.9023 197.384 22.8692 210.804 28.6925C212.881 29.6566 214.918 30.6593 216.918 31.7391C218.456 32.5489 219.917 33.3973 221.417 34.2458C221.955 34.5928 222.494 34.9014 223.032 35.287C223.801 35.7498 224.57 36.2511 225.339 36.7525C226.185 37.2924 227.031 37.9094 227.877 38.4879C228.838 39.1435 229.761 39.7991 230.684 40.4933C231.299 40.9561 231.914 41.4188 232.491 41.8816C233.106 42.3444 233.722 42.8457 234.298 43.3471C234.914 43.8098 235.49 44.3112 236.067 44.8125C237.221 45.8152 238.336 46.7794 239.489 47.8592C240.566 48.8619 241.643 49.9031 242.719 50.9443C244.373 52.6026 245.988 54.2995 247.564 56.0735C248.603 57.2304 249.564 58.3873 250.564 59.5828C252.025 61.3568 253.409 63.2079 254.755 65.0976C255.639 66.3317 256.485 67.6043 257.331 68.9156C258.677 70.9595 259.946 73.0805 261.176 75.2787C261.369 75.6258 261.561 75.9729 261.753 76.32C261.792 76.4357 261.869 76.5514 261.945 76.6671C262.753 78.1325 263.522 79.598 264.214 81.102C264.56 81.7962 264.906 82.4904 265.252 83.2231C266.944 86.9253 268.482 90.7432 269.751 94.6768C270.059 95.5638 270.366 96.4894 270.636 97.4149C271.443 100.076 272.174 102.814 272.751 105.552C272.981 106.478 273.174 107.365 273.327 108.329C273.558 109.447 273.75 110.566 273.943 111.684C274.019 111.992 274.058 112.34 274.096 112.687C274.212 113.496 274.327 114.268 274.442 115.078C274.558 115.887 274.673 116.697 274.75 117.507C274.827 118.047 274.865 118.548 274.904 119.088C274.981 119.628 275.019 120.13 275.058 120.67C275.058 121.248 275.173 121.826 275.173 122.405C275.25 123.87 275.327 125.336 275.365 126.84C275.365 127.843 275.404 128.845 275.404 129.848L275.442 129.925Z" fill="#D37518"/>
<path d="M175.153 96.2568C178.306 102.427 180.113 109.446 180.113 116.85C180.113 124.255 178.344 131.274 175.153 137.444C178.306 131.274 180.113 124.255 180.113 116.85C180.113 109.446 178.344 102.427 175.153 96.2568ZM175.153 96.2568C173.653 93.3259 171.846 90.5878 169.77 88.0811C171.846 90.5878 173.653 93.3259 175.153 96.2568ZM175.153 137.483C173.653 140.413 171.846 143.152 169.77 145.697C171.846 143.19 173.653 140.452 175.153 137.483Z" fill="#31384B"/>
<path d="M179.997 114.074V113.881C179.92 112.879 179.805 111.876 179.69 110.912C179.651 110.565 179.613 110.218 179.536 109.871C179.536 109.755 179.497 109.639 179.497 109.523C179.382 108.984 179.305 108.405 179.19 107.865C178.382 103.777 176.998 99.8822 175.152 96.2571C175.037 96.0643 174.96 95.8715 174.845 95.6787C174.614 95.2159 174.383 94.7917 174.114 94.3675C173.806 93.8276 173.499 93.2877 173.153 92.7478C172.807 92.2078 172.461 91.7065 172.115 91.1666C171.73 90.6267 171.307 90.0868 170.923 89.5469C170.576 89.0455 170.192 88.5442 169.769 88.0428C161.463 77.9774 148.928 71.5371 134.931 71.5371C110.014 71.5371 89.75 91.8608 89.75 116.851C89.75 141.841 110.014 162.164 134.931 162.164C148.928 162.164 161.463 155.724 169.769 145.659C170.692 144.502 171.576 143.345 172.384 142.111C172.691 141.648 172.999 141.185 173.268 140.722C173.268 140.722 173.307 140.684 173.345 140.645C173.46 140.491 173.537 140.337 173.653 140.144C174.191 139.257 174.691 138.37 175.152 137.444C176.844 134.166 178.113 130.657 178.959 126.955C179.151 126.029 179.344 125.065 179.497 124.101C179.574 123.677 179.651 123.253 179.69 122.79C179.767 122.327 179.805 121.903 179.843 121.44C179.92 120.823 179.959 120.206 179.997 119.627C180.036 118.702 180.074 117.776 180.074 116.851C180.074 115.925 180.074 115 179.997 114.074V114.074ZM159.694 98.6867C159.541 101.271 158.81 103.7 157.618 105.821C154.773 111.066 149.197 114.614 142.814 114.614C133.509 114.614 125.933 107.017 125.933 97.684C125.933 94.9845 126.549 92.4392 127.702 90.1639C128.356 88.8141 129.24 87.5415 130.24 86.4231C133.316 82.9523 137.854 80.7541 142.814 80.7541C152.119 80.7541 159.694 88.3514 159.694 97.684V98.6867Z" fill="#313849"/>
<path d="M159.691 97.6839V98.6866C159.537 101.27 158.806 103.7 157.614 105.821C154.769 111.066 149.193 114.614 142.81 114.614C133.505 114.614 125.93 107.017 125.93 97.6839C125.93 94.9843 126.545 92.439 127.698 90.1637C128.352 88.8139 129.237 87.5413 130.236 86.4229C133.313 82.9521 137.85 80.7539 142.81 80.7539C152.116 80.7539 159.691 88.3512 159.691 97.6839Z" fill="white"/>
<path d="M634.768 29.3867C640.651 29.3867 646.188 30.5051 651.302 32.6647C656.417 34.8629 660.915 37.9095 664.722 41.8046C668.529 45.6996 671.567 50.2503 673.835 55.3794C676.104 60.5085 677.258 65.9462 677.258 71.6923V124.873C677.258 130.581 676.104 136.018 673.835 141.186C671.567 146.315 668.529 150.866 664.722 154.761C660.915 158.656 656.455 161.703 651.302 163.901C646.188 166.099 640.651 167.179 634.768 167.179L516.181 167.449C516.758 167.449 517.027 168.027 517.027 169.184H516.758C516.374 169.184 516.181 169.107 516.181 168.914V234.976H472V29.3867H634.806H634.768ZM516.181 122.598H632.499V73.6977H516.181V122.598V122.598Z" fill="#313849"/>
<path d="M905.324 124.873C905.324 130.581 904.17 136.018 901.902 141.186C899.633 146.315 896.595 150.866 892.789 154.761C888.982 158.656 884.521 161.703 879.369 163.901C874.255 166.099 868.718 167.179 862.834 167.179H860.835C868.064 175.74 875.447 184.533 883.06 193.48C890.674 202.427 898.057 211.22 905.286 219.781V234.937H859.681L802.964 167.179L744.248 167.449C744.825 167.449 745.094 168.027 745.094 169.184H744.825C744.44 169.184 744.248 169.107 744.248 168.914V234.976H700.066V29.3867H862.834C868.718 29.3867 874.255 30.5051 879.369 32.6647C884.483 34.8629 888.982 37.9095 892.789 41.8046C896.595 45.6996 899.633 50.2503 901.902 55.3794C904.17 60.5085 905.324 65.9462 905.324 71.6923V124.873V124.873ZM744.248 122.598H860.566V73.6977H744.248V122.598V122.598Z" fill="#313849"/>
<path d="M1100.88 29.0781C1106.58 29.0781 1112 30.1965 1117.15 32.3561C1122.26 34.5543 1126.8 37.5624 1130.68 41.3803C1134.57 45.1982 1137.61 49.6717 1139.8 54.8008C1141.99 59.93 1143.07 65.4833 1143.07 71.3837V192.631C1143.07 198.532 1141.99 204.047 1139.8 209.214C1137.61 214.382 1134.57 218.856 1130.68 222.635C1126.8 226.453 1122.26 229.461 1117.15 231.659C1112.04 233.857 1106.61 234.937 1100.88 234.937H979.991C974.107 234.937 968.57 233.857 963.456 231.659C958.342 229.461 953.843 226.453 950.036 222.635C946.23 218.817 943.23 214.344 941.077 209.214C938.885 204.085 937.809 198.532 937.809 192.631V71.3837C937.809 65.4833 938.885 59.93 941.077 54.8008C943.269 49.6717 946.268 45.1597 950.036 41.3803C953.805 37.601 958.304 34.5543 963.456 32.3561C968.57 30.1579 974.107 29.0781 979.991 29.0781H1100.88ZM981.99 190.356H1098.31V73.6976H981.99V190.356Z" fill="#313849"/>
<path d="M1382.55 90.8589H1337.8V73.6976H1221.48V190.356H1337.8V159.466H1293.31V114.846H1382.55V192.631C1382.55 198.532 1381.4 204.047 1379.13 209.214C1376.86 214.344 1373.83 218.856 1370.02 222.635C1366.21 226.414 1361.75 229.461 1356.6 231.659C1351.49 233.857 1345.95 234.937 1340.06 234.937H1219.48C1213.6 234.937 1208.06 233.857 1202.94 231.659C1197.83 229.461 1193.33 226.453 1189.52 222.635C1185.72 218.817 1182.72 214.344 1180.57 209.214C1178.37 204.085 1177.3 198.532 1177.3 192.631V71.3837C1177.3 65.4833 1178.37 59.93 1180.57 54.8008C1182.76 49.6717 1185.76 45.1597 1189.52 41.3803C1193.29 37.601 1197.79 34.5543 1202.94 32.3561C1208.06 30.1579 1213.6 29.0781 1219.48 29.0781H1340.06C1345.95 29.0781 1351.49 30.1965 1356.6 32.3561C1361.71 34.5543 1366.21 37.5624 1370.02 41.3803C1373.83 45.1982 1376.86 49.6717 1379.13 54.8008C1381.4 59.93 1382.55 65.4833 1382.55 71.3837V90.8204V90.8589Z" fill="#313849"/>
<path d="M1417.03 29.0781H1461.52V234.937H1417.03V29.0781V29.0781Z" fill="#313849"/>
<path d="M1642.82 29.0781H1687.58V234.937H1641.98L1526.51 97.1064V234.937H1482.32V29.0781H1527.93L1642.82 166.33V29.0781V29.0781Z" fill="#313849"/>
<path d="M475.305 355.374V309.598H488.455V344.46H506.874V309.598H520.101V355.374H475.305V355.374ZM514.411 365.247V355.22L517.448 355.374H506.835V344.499H526.677V365.247H514.372H514.411Z" fill="#313849"/>
<path d="M558.095 356.068C552.904 356.068 548.328 355.065 544.406 353.021C540.483 350.978 537.446 348.201 535.292 344.653C533.139 341.105 532.062 337.056 532.062 332.544C532.062 328.031 533.139 323.866 535.254 320.319C537.369 316.771 540.291 313.994 543.944 311.989C547.636 309.983 551.788 308.98 556.403 308.98C561.017 308.98 564.901 309.945 568.477 311.834C572.053 313.724 574.898 316.462 577.013 320.01C579.128 323.558 580.166 327.8 580.166 332.736C580.166 333.238 580.166 333.816 580.089 334.472C580.051 335.127 579.974 335.744 579.935 336.284H542.868V328.533H572.976L567.9 330.847C567.9 328.456 567.438 326.412 566.439 324.638C565.477 322.864 564.132 321.514 562.44 320.511C560.748 319.509 558.748 319.007 556.518 319.007C554.288 319.007 552.25 319.509 550.558 320.511C548.828 321.514 547.482 322.902 546.52 324.676C545.559 326.45 545.059 328.571 545.059 331.001V333.045C545.059 335.552 545.598 337.75 546.713 339.639C547.828 341.529 549.366 342.995 551.366 343.997C553.365 345 555.749 345.501 558.441 345.501C560.863 345.501 563.016 345.116 564.862 344.383C566.708 343.65 568.4 342.532 569.899 341.066L576.936 348.741C574.86 351.132 572.207 352.944 569.053 354.217C565.9 355.49 562.247 356.145 558.095 356.145V356.068Z" fill="#313849"/>
<path d="M591.117 355.374V309.598H604.268V327.453H624.109V309.598H637.337V355.374H624.109V338.29H604.268V355.374H591.117Z" fill="#313849"/>
<path d="M660.485 355.374V317.426L663.446 320.473H645.027V309.598H689.055V320.473H670.636L673.597 317.426V355.374H660.447H660.485Z" fill="#313849"/>
<path d="M696.793 371.88V309.598H709.444V318.969L709.175 332.583L710.021 346.119V371.88H696.793ZM723.786 356.069C719.941 356.069 716.557 355.22 713.673 353.523C710.79 351.827 708.559 349.243 706.944 345.733C705.329 342.262 704.522 337.827 704.522 332.505C704.522 327.184 705.291 322.71 706.829 319.239C708.367 315.768 710.559 313.185 713.443 311.488C716.327 309.791 719.787 308.942 723.786 308.942C728.093 308.942 731.938 309.907 735.36 311.873C738.783 313.84 741.513 316.578 743.512 320.088C745.512 323.597 746.512 327.762 746.512 332.505C746.512 337.249 745.512 341.491 743.512 345.001C741.513 348.51 738.783 351.248 735.36 353.176C731.938 355.104 728.093 356.069 723.786 356.069ZM721.479 345.193C723.671 345.193 725.632 344.692 727.362 343.651C729.093 342.648 730.477 341.183 731.515 339.254C732.553 337.365 733.092 335.089 733.092 332.505C733.092 329.922 732.553 327.569 731.515 325.718C730.477 323.828 729.093 322.402 727.362 321.399C725.632 320.396 723.671 319.856 721.479 319.856C719.287 319.856 717.288 320.358 715.558 321.399C713.827 322.44 712.405 323.867 711.405 325.718C710.405 327.569 709.867 329.845 709.867 332.505C709.867 335.166 710.367 337.365 711.405 339.254C712.405 341.144 713.789 342.609 715.558 343.651C717.326 344.692 719.287 345.193 721.479 345.193Z" fill="#313849"/>
<path d="M781.304 355.374V309.598H826.678V355.374H813.45V317.503L816.411 320.473H791.455L794.416 317.503V355.374H781.266H781.304Z" fill="#313849"/>
<path d="M840.098 371.88V309.598H852.748V318.969L852.479 332.583L853.325 346.119V371.88H840.098ZM867.091 356.069C863.246 356.069 859.862 355.22 856.978 353.523C854.094 351.827 851.864 349.243 850.249 345.733C848.634 342.262 847.827 337.827 847.827 332.505C847.827 327.184 848.596 322.71 850.134 319.239C851.672 315.768 853.864 313.185 856.747 311.488C859.631 309.791 863.092 308.942 867.091 308.942C871.398 308.942 875.243 309.907 878.665 311.873C882.087 313.84 884.817 316.578 886.817 320.088C888.817 323.597 889.816 327.762 889.816 332.505C889.816 337.249 888.817 341.491 886.817 345.001C884.817 348.51 882.087 351.248 878.665 353.176C875.243 355.104 871.398 356.069 867.091 356.069ZM864.784 345.193C866.976 345.193 868.937 344.692 870.667 343.651C872.397 342.648 873.782 341.183 874.82 339.254C875.858 337.365 876.397 335.089 876.397 332.505C876.397 329.922 875.858 327.569 874.82 325.718C873.782 323.828 872.397 322.402 870.667 321.399C868.937 320.396 866.976 319.856 864.784 319.856C862.592 319.856 860.593 320.358 858.862 321.399C857.132 322.44 855.709 323.867 854.709 325.718C853.71 327.569 853.171 329.845 853.171 332.505C853.171 335.166 853.671 337.365 854.709 339.254C855.709 341.144 857.094 342.609 858.862 343.651C860.631 344.692 862.592 345.193 864.784 345.193Z" fill="#313849"/>
<path d="M921.191 356.068C916.346 356.068 912.001 355.065 908.271 353.021C904.503 350.978 901.542 348.201 899.35 344.653C897.159 341.105 896.082 337.056 896.082 332.544C896.082 328.031 897.159 323.866 899.35 320.319C901.542 316.771 904.503 313.994 908.271 311.989C912.04 309.983 916.346 308.98 921.191 308.98C926.036 308.98 930.304 309.983 934.073 311.989C937.88 313.994 940.84 316.771 942.994 320.28C945.147 323.789 946.224 327.877 946.224 332.544C946.224 337.21 945.147 341.105 942.994 344.653C940.84 348.201 937.88 350.978 934.073 353.021C930.266 355.065 925.998 356.068 921.191 356.068V356.068ZM921.191 345.193C923.383 345.193 925.383 344.691 927.113 343.65C928.882 342.648 930.266 341.182 931.266 339.254C932.265 337.364 932.804 335.089 932.804 332.505C932.804 329.921 932.304 327.569 931.266 325.718C930.228 323.828 928.843 322.401 927.113 321.398C925.344 320.396 923.383 319.856 921.191 319.856C919 319.856 917 320.357 915.27 321.398C913.501 322.401 912.117 323.866 911.078 325.718C910.04 327.607 909.502 329.844 909.502 332.505C909.502 335.166 910.04 337.364 911.078 339.254C912.117 341.143 913.539 342.609 915.27 343.65C917.038 344.691 919 345.193 921.191 345.193Z" fill="#313849"/>
<path d="M956.031 355.374V309.598H992.599V320.473H966.221L969.182 317.581V355.336H956.031V355.374Z" fill="#313849"/>
<path d="M1000.34 371.88V309.598H1012.99V318.969L1012.72 332.583L1013.57 346.119V371.88H1000.34V371.88ZM1027.33 356.069C1023.49 356.069 1020.1 355.22 1017.22 353.523C1014.34 351.827 1012.11 349.243 1010.49 345.733C1008.88 342.262 1008.07 337.827 1008.07 332.505C1008.07 327.184 1008.84 322.71 1010.38 319.239C1011.91 315.768 1014.11 313.185 1016.99 311.488C1019.87 309.791 1023.33 308.942 1027.33 308.942C1031.64 308.942 1035.49 309.907 1038.91 311.873C1042.33 313.84 1045.06 316.578 1047.06 320.088C1049.06 323.597 1050.06 327.762 1050.06 332.505C1050.06 337.249 1049.06 341.491 1047.06 345.001C1045.06 348.51 1042.33 351.248 1038.91 353.176C1035.49 355.104 1031.64 356.069 1027.33 356.069V356.069ZM1025.03 345.193C1027.22 345.193 1029.18 344.692 1030.91 343.651C1032.64 342.648 1034.02 341.183 1035.06 339.254C1036.1 337.365 1036.64 335.089 1036.64 332.505C1036.64 329.922 1036.1 327.569 1035.06 325.718C1034.02 323.828 1032.64 322.402 1030.91 321.399C1029.18 320.396 1027.22 319.856 1025.03 319.856C1022.83 319.856 1020.83 320.358 1019.1 321.399C1017.37 322.44 1015.95 323.867 1014.95 325.718C1013.95 327.569 1013.41 329.845 1013.41 332.505C1013.41 335.166 1013.91 337.365 1014.95 339.254C1015.95 341.144 1017.34 342.609 1019.1 343.651C1020.87 344.692 1022.83 345.193 1025.03 345.193Z" fill="#313849"/>
<path d="M1072.7 356.069C1069.12 356.069 1066.08 355.451 1063.55 354.256C1061.01 353.06 1059.05 351.364 1057.7 349.281C1056.36 347.199 1055.66 344.846 1055.66 342.224C1055.66 339.601 1056.32 337.133 1057.66 335.089C1058.97 333.045 1061.09 331.426 1063.97 330.269C1066.85 329.112 1070.62 328.533 1075.24 328.533H1087.39V336.285H1076.7C1073.58 336.285 1071.47 336.786 1070.28 337.827C1069.12 338.83 1068.55 340.141 1068.55 341.645C1068.55 343.342 1069.2 344.692 1070.55 345.695C1071.85 346.697 1073.7 347.199 1076.01 347.199C1078.31 347.199 1080.2 346.659 1081.93 345.617C1083.66 344.576 1084.96 343.034 1085.73 340.99L1087.77 347.122C1086.81 350.052 1085.04 352.328 1082.5 353.832C1079.97 355.374 1076.7 356.146 1072.66 356.146L1072.7 356.069ZM1086.62 355.374V346.427L1085.77 344.461V328.456C1085.77 325.602 1084.93 323.404 1083.2 321.823C1081.47 320.242 1078.81 319.432 1075.27 319.432C1072.85 319.432 1070.47 319.818 1068.12 320.589C1065.78 321.36 1063.78 322.401 1062.16 323.674L1057.39 314.419C1059.89 312.645 1062.89 311.295 1066.39 310.331C1069.89 309.367 1073.47 308.865 1077.08 308.865C1084.04 308.865 1089.43 310.524 1093.27 313.802C1097.12 317.08 1099.04 322.209 1099.04 329.189V355.297H1086.66L1086.62 355.374Z" fill="#313849"/>
<path d="M1111.31 355.374V309.598H1125.15L1142.38 340.912H1136.88L1155.3 309.598H1167.68L1167.83 355.374H1155.87V323.211L1157.91 324.561L1142.22 350.939H1136.61L1120.84 323.635L1123.31 323.018V355.336H1111.35L1111.31 355.374Z" fill="#313849"/>
<path d="M1181.18 355.374V309.598H1195.02L1212.25 340.912H1206.75L1225.16 309.598H1237.55L1237.7 355.374H1225.74V323.211L1227.78 324.561L1212.09 350.939H1206.48L1190.71 323.635L1193.17 323.018V355.336H1181.21L1181.18 355.374Z" fill="#313849"/>
<path d="M1251.08 355.374V309.598H1264.23V336.824L1286.45 309.598H1298.57V355.374H1285.42V328.147L1263.27 355.374H1251.04H1251.08Z" fill="#313849"/>
<path d="M1311.98 371.88V309.598H1324.64V318.969L1324.37 332.583L1325.21 346.119V371.88H1311.98V371.88ZM1338.98 356.069C1335.13 356.069 1331.75 355.22 1328.86 353.523C1325.98 351.827 1323.75 349.243 1322.14 345.733C1320.52 342.262 1319.71 337.827 1319.71 332.505C1319.71 327.184 1320.48 322.71 1322.02 319.239C1323.56 315.768 1325.75 313.185 1328.63 311.488C1331.52 309.791 1334.98 308.942 1338.98 308.942C1343.28 308.942 1347.13 309.907 1350.55 311.873C1353.97 313.84 1356.7 316.578 1358.7 320.088C1360.7 323.597 1361.7 327.762 1361.7 332.505C1361.7 337.249 1360.7 341.491 1358.7 345.001C1356.7 348.51 1353.97 351.248 1350.55 353.176C1347.13 355.104 1343.28 356.069 1338.98 356.069V356.069ZM1336.67 345.193C1338.86 345.193 1340.82 344.692 1342.55 343.651C1344.28 342.648 1345.67 341.183 1346.71 339.254C1347.74 337.365 1348.28 335.089 1348.28 332.505C1348.28 329.922 1347.74 327.569 1346.71 325.718C1345.67 323.828 1344.28 322.402 1342.55 321.399C1340.82 320.396 1338.86 319.856 1336.67 319.856C1334.48 319.856 1332.48 320.358 1330.75 321.399C1329.02 322.44 1327.6 323.867 1326.6 325.718C1325.6 327.569 1325.06 329.845 1325.06 332.505C1325.06 335.166 1325.56 337.365 1326.6 339.254C1327.6 341.144 1328.98 342.609 1330.75 343.651C1332.52 344.692 1334.48 345.193 1336.67 345.193Z" fill="#313849"/>
<path d="M1393.09 356.068C1388.24 356.068 1383.9 355.065 1380.17 353.021C1376.4 350.978 1373.44 348.201 1371.25 344.653C1369.06 341.105 1367.98 337.056 1367.98 332.544C1367.98 328.031 1369.06 323.866 1371.25 320.319C1373.44 316.771 1376.4 313.994 1380.17 311.989C1383.94 309.983 1388.24 308.98 1393.09 308.98C1397.93 308.98 1402.2 309.983 1405.97 311.989C1409.78 313.994 1412.74 316.771 1414.89 320.28C1417.05 323.789 1418.12 327.877 1418.12 332.544C1418.12 337.21 1417.05 341.105 1414.89 344.653C1412.74 348.201 1409.78 350.978 1405.97 353.021C1402.16 355.065 1397.9 356.068 1393.09 356.068V356.068ZM1393.09 345.193C1395.28 345.193 1397.28 344.691 1399.01 343.65C1400.78 342.648 1402.16 341.182 1403.16 339.254C1404.16 337.364 1404.7 335.089 1404.7 332.505C1404.7 329.921 1404.2 327.569 1403.16 325.718C1402.13 323.828 1400.74 322.401 1399.01 321.398C1397.24 320.396 1395.28 319.856 1393.09 319.856C1390.9 319.856 1388.9 320.357 1387.17 321.398C1385.4 322.401 1384.01 323.866 1382.98 325.718C1381.94 327.607 1381.4 329.844 1381.4 332.505C1381.4 335.166 1381.94 337.364 1382.98 339.254C1384.01 341.143 1385.44 342.609 1387.17 343.65C1388.94 344.691 1390.9 345.193 1393.09 345.193Z" fill="#313849"/>
<path d="M1427.96 355.374V309.598H1451.3C1457.03 309.598 1461.49 310.639 1464.72 312.721C1467.95 314.804 1469.57 317.696 1469.57 321.437C1469.57 325.178 1468.07 328.109 1465.03 330.23C1461.99 332.351 1457.99 333.431 1453.03 333.431L1454.38 330.384C1459.91 330.384 1464.07 331.387 1466.8 333.431C1469.53 335.475 1470.91 338.444 1470.91 342.378C1470.91 346.311 1469.37 349.589 1466.34 351.903C1463.3 354.217 1458.61 355.374 1452.34 355.374H1428H1427.96ZM1440.11 328.417H1450.11C1452.42 328.417 1454.15 327.993 1455.34 327.145C1456.49 326.296 1457.07 325.062 1457.07 323.481C1457.07 321.9 1456.49 320.627 1455.34 319.817C1454.19 319.007 1452.45 318.622 1450.11 318.622H1440.11V328.417ZM1440.11 346.35H1451.22C1453.65 346.35 1455.49 345.926 1456.68 345.116C1457.88 344.306 1458.49 343.033 1458.49 341.336C1458.49 339.64 1457.92 338.29 1456.8 337.48C1455.68 336.67 1453.88 336.246 1451.46 336.246H1440.07V346.35H1440.11Z" fill="#313849"/>
<path d="M1494.91 356.069C1491.33 356.069 1488.3 355.451 1485.76 354.256C1483.22 353.06 1481.26 351.364 1479.91 349.281C1478.57 347.199 1477.88 344.846 1477.88 342.224C1477.88 339.601 1478.53 337.133 1479.87 335.089C1481.18 333.045 1483.3 331.426 1486.18 330.269C1489.06 329.112 1492.83 328.533 1497.45 328.533H1509.6V336.285H1498.91C1495.79 336.285 1493.68 336.786 1492.49 337.827C1491.33 338.83 1490.76 340.141 1490.76 341.645C1490.76 343.342 1491.41 344.692 1492.76 345.695C1494.06 346.697 1495.91 347.199 1498.22 347.199C1500.52 347.199 1502.41 346.659 1504.14 345.617C1505.87 344.576 1507.18 343.034 1507.94 340.99L1509.98 347.122C1509.02 350.052 1507.25 352.328 1504.71 353.832C1502.18 355.374 1498.91 356.146 1494.87 356.146L1494.91 356.069ZM1508.83 355.374V346.427L1507.98 344.461V328.456C1507.98 325.602 1507.14 323.404 1505.41 321.823C1503.68 320.242 1501.02 319.432 1497.49 319.432C1495.06 319.432 1492.68 319.818 1490.33 320.589C1487.99 321.36 1485.99 322.401 1484.37 323.674L1479.61 314.419C1482.1 312.645 1485.1 311.295 1488.6 310.331C1492.1 309.367 1495.68 308.865 1499.29 308.865C1506.25 308.865 1511.64 310.524 1515.48 313.802C1519.33 317.08 1521.25 322.209 1521.25 329.189V355.297H1508.87L1508.83 355.374Z" fill="#313849"/>
<path d="M1533.47 355.374V309.598H1546.62V327.453H1566.46V309.598H1579.69V355.374H1566.46V338.29H1546.62V355.374H1533.47Z" fill="#313849"/>
<path d="M1593.12 355.374V309.598H1606.27V336.824L1628.49 309.598H1640.6V355.374H1627.45V328.147L1605.31 355.374H1593.08H1593.12Z" fill="#313849"/>
<path d="M1650.36 355.375L1662.51 337.943H1676.01L1664.47 355.375H1650.4H1650.36ZM1682.85 355.375V340.142L1684.74 342.263H1672.08C1665.51 342.263 1660.4 340.913 1656.63 338.175C1652.86 335.437 1651.01 331.542 1651.01 326.451C1651.01 321.013 1652.97 316.848 1656.9 313.956C1660.82 311.064 1666.12 309.637 1672.82 309.637H1694.62V355.413H1682.81L1682.85 355.375ZM1682.85 336.054V317.003L1684.74 320.396H1673.12C1670.39 320.396 1668.32 320.898 1666.82 321.939C1665.32 322.942 1664.59 324.6 1664.59 326.875C1664.59 331.233 1667.39 333.431 1672.97 333.431H1684.77L1682.89 336.054H1682.85Z" fill="#313849"/>
<path d="M469.809 467.367V446.619H526.487V467.367H514.182V457.494H482.113V467.367H469.809V467.367ZM506.723 451.555V422.632H491.803L491.534 428.493C491.419 430.923 491.265 433.276 491.111 435.474C490.957 437.672 490.611 439.677 490.15 441.49C489.688 443.264 488.996 444.768 488.073 446.002C487.151 447.236 485.959 448.046 484.42 448.509L471.347 446.619C473 446.619 474.308 446.118 475.346 445.115C476.345 444.112 477.153 442.724 477.73 440.95C478.307 439.176 478.729 437.132 478.999 434.818C479.268 432.504 479.46 430.113 479.575 427.529L480.152 411.718H519.95V451.555H506.723V451.555Z" fill="#313849"/>
<path d="M529.761 457.417L530.453 446.542C530.799 446.58 531.145 446.657 531.453 446.657C531.799 446.657 532.107 446.696 532.376 446.696C533.952 446.696 535.221 446.233 536.106 445.346C536.99 444.459 537.682 443.187 538.144 441.644C538.605 440.101 538.913 438.328 539.105 436.322C539.297 434.317 539.451 432.273 539.566 430.113L540.259 411.718H579.287V457.494H566.06V419.392L569.021 422.632H548.987L551.794 419.238L551.217 430.73C551.064 434.818 550.718 438.559 550.256 441.953C549.795 445.346 548.987 448.277 547.911 450.745C546.834 453.213 545.373 455.103 543.565 456.453C541.758 457.764 539.451 458.458 536.606 458.458C535.606 458.458 534.529 458.381 533.376 458.188C532.26 458.034 531.03 457.764 529.723 457.417H529.761Z" fill="#313849"/>
<path d="M589.094 457.494L601.245 440.062H614.741L603.206 457.494H589.132H589.094ZM621.586 457.494V442.261L623.47 444.382H610.819C604.244 444.382 599.13 443.032 595.361 440.294C591.593 437.556 589.747 433.661 589.747 428.57C589.747 423.132 591.708 418.968 595.631 416.075C599.553 413.183 604.859 411.756 611.55 411.756H633.352V457.532H621.547L621.586 457.494ZM621.586 438.173V419.122L623.47 422.515H611.857C609.127 422.515 607.051 423.017 605.551 424.058C604.052 425.061 603.321 426.719 603.321 428.994C603.321 433.352 606.128 435.55 611.704 435.55H623.508L621.624 438.173H621.586Z" fill="#313849"/>
<path d="M666.109 467.367V446.619H722.788V467.367H710.483V457.494H678.414V467.367H666.109V467.367ZM703.023 451.555V422.632H688.104L687.835 428.493C687.719 430.923 687.566 433.276 687.412 435.474C687.258 437.672 686.912 439.677 686.451 441.49C685.989 443.264 685.297 444.768 684.374 446.002C683.451 447.236 682.259 448.046 680.721 448.509L667.647 446.619C669.301 446.619 670.608 446.118 671.646 445.115C672.646 444.112 673.454 442.724 674.031 440.95C674.607 439.176 675.03 437.132 675.299 434.818C675.569 432.504 675.761 430.113 675.876 427.529L676.453 411.718H716.251V451.555H703.023V451.555Z" fill="#313849"/>
<path d="M754.165 458.188C748.974 458.188 744.398 457.186 740.476 455.142C736.554 453.098 733.516 450.321 731.363 446.773C729.209 443.225 728.133 439.176 728.133 434.664C728.133 430.152 729.209 425.987 731.324 422.439C733.439 418.891 736.362 416.114 740.015 414.109C743.706 412.103 747.859 411.101 752.473 411.101C757.087 411.101 760.971 412.065 764.547 413.954C768.123 415.844 770.968 418.582 773.083 422.13C775.198 425.678 776.236 429.92 776.236 434.857C776.236 435.358 776.236 435.936 776.16 436.592C776.121 437.248 776.044 437.865 776.006 438.404H738.938V430.653H769.046L763.97 432.967C763.97 430.576 763.509 428.532 762.509 426.758C761.548 424.984 760.202 423.634 758.51 422.631C756.818 421.629 754.819 421.127 752.588 421.127C750.358 421.127 748.32 421.629 746.628 422.631C744.898 423.634 743.552 425.023 742.591 426.796C741.629 428.57 741.13 430.692 741.13 433.121V435.165C741.13 437.672 741.668 439.87 742.783 441.76C743.898 443.649 745.436 445.115 747.436 446.117C749.435 447.12 751.819 447.621 754.511 447.621C756.933 447.621 759.087 447.236 760.933 446.503C762.778 445.77 764.47 444.652 765.97 443.187L773.006 450.861C770.93 453.252 768.277 455.064 765.124 456.337C761.971 457.61 758.318 458.265 754.165 458.265V458.188Z" fill="#313849"/>
<path d="M795.305 457.494V419.546L798.266 422.593H779.848V411.718H823.875V422.593H805.457L808.418 419.546V457.494H795.267H795.305Z" fill="#313849"/>
<path d="M852.13 458.188C846.939 458.188 842.363 457.186 838.441 455.142C834.519 453.098 831.481 450.321 829.328 446.773C827.174 443.225 826.098 439.176 826.098 434.664C826.098 430.152 827.174 425.987 829.289 422.439C831.404 418.891 834.326 416.114 837.979 414.109C841.671 412.103 845.824 411.101 850.438 411.101C855.052 411.101 858.936 412.065 862.512 413.954C866.088 415.844 868.933 418.582 871.048 422.13C873.163 425.678 874.201 429.92 874.201 434.857C874.201 435.358 874.201 435.936 874.124 436.592C874.086 437.248 874.009 437.865 873.971 438.404H836.903V430.653H867.011L861.935 432.967C861.935 430.576 861.474 428.532 860.474 426.758C859.513 424.984 858.167 423.634 856.475 422.631C854.783 421.629 852.783 421.127 850.553 421.127C848.323 421.127 846.285 421.629 844.593 422.631C842.863 423.634 841.517 425.023 840.556 426.796C839.594 428.57 839.094 430.692 839.094 433.121V435.165C839.094 437.672 839.633 439.87 840.748 441.76C841.863 443.649 843.401 445.115 845.401 446.117C847.4 447.12 849.784 447.621 852.476 447.621C854.898 447.621 857.052 447.236 858.897 446.503C860.743 445.77 862.435 444.652 863.935 443.187L870.971 450.861C868.895 453.252 866.242 455.064 863.089 456.337C859.936 457.61 856.283 458.265 852.13 458.265V458.188Z" fill="#313849"/>
<path d="M885.124 457.494V411.717H898.275V438.944L920.5 411.717H932.613V457.494H919.462V430.267L897.314 457.494H885.086H885.124ZM908.042 406.781C903.081 406.781 899.313 405.701 896.852 403.503C894.353 401.305 893.084 398.027 893.046 393.592H901.697C901.736 395.52 902.274 397.063 903.312 398.181C904.312 399.299 905.889 399.878 907.965 399.878C910.041 399.878 911.579 399.299 912.656 398.181C913.771 397.063 914.31 395.52 914.31 393.592H923.115C923.115 398.027 921.846 401.305 919.308 403.503C916.771 405.701 913.002 406.781 908.042 406.781Z" fill="#313849"/>
<path d="M970.878 457.494V411.718H984.029V438.945L1006.25 411.718H1018.37V457.494H1005.22V430.267L983.068 457.494H970.84H970.878Z" fill="#313849"/>
<path d="M1056.66 457.494V411.718H1080C1085.73 411.718 1090.19 412.759 1093.42 414.842C1096.65 416.924 1098.27 419.816 1098.27 423.557C1098.27 427.298 1096.77 430.229 1093.73 432.35C1090.69 434.471 1086.69 435.551 1081.73 435.551L1083.08 432.504C1088.61 432.504 1092.77 433.507 1095.5 435.551C1098.23 437.595 1099.61 440.564 1099.61 444.498C1099.61 448.431 1098.07 451.709 1095.04 454.023C1092 456.337 1087.31 457.494 1081.04 457.494H1056.7H1056.66ZM1068.81 430.537H1078.81C1081.12 430.537 1082.85 430.113 1084.04 429.265C1085.19 428.416 1085.77 427.182 1085.77 425.601C1085.77 424.02 1085.19 422.747 1084.04 421.937C1082.88 421.128 1081.15 420.742 1078.81 420.742H1068.81V430.537ZM1068.81 448.47H1079.92C1082.35 448.47 1084.19 448.046 1085.38 447.236C1086.58 446.426 1087.19 445.153 1087.19 443.457C1087.19 441.76 1086.61 440.41 1085.5 439.6C1084.38 438.79 1082.58 438.366 1080.15 438.366H1068.77V448.47H1068.81Z" fill="#313849"/>
<path d="M1115.16 457.224C1111.7 456.491 1108.47 455.373 1105.54 453.907L1109.12 444.652C1111.43 445.77 1113.96 446.657 1116.69 447.236C1119.42 447.814 1122.23 448.123 1125.04 448.123C1127.08 448.123 1128.85 447.93 1130.34 447.467C1131.84 447.043 1133 446.426 1133.77 445.654C1134.57 444.845 1134.96 443.88 1134.96 442.762C1134.96 441.297 1134.34 440.178 1133.07 439.407C1131.84 438.636 1130.04 438.25 1127.65 438.25H1118.31V429.997H1126.54C1128.08 429.997 1129.38 429.843 1130.46 429.496C1131.54 429.149 1132.34 428.647 1132.88 427.992C1133.42 427.336 1133.69 426.565 1133.69 425.639C1133.69 424.675 1133.34 423.865 1132.69 423.171C1132.04 422.477 1131.04 421.976 1129.73 421.59C1128.42 421.204 1126.81 421.05 1124.81 421.05C1122.54 421.05 1120.19 421.32 1117.77 421.86C1115.35 422.4 1112.85 423.171 1110.31 424.212L1107.08 415.034C1110.08 413.8 1113.04 412.797 1116 412.064C1118.92 411.332 1121.85 410.946 1124.73 410.869C1128.96 410.753 1132.81 411.216 1136.19 412.219C1139.57 413.221 1142.26 414.725 1144.19 416.654C1146.15 418.582 1147.11 420.934 1147.11 423.711C1147.11 425.909 1146.46 427.915 1145.11 429.65C1143.76 431.385 1141.96 432.774 1139.65 433.776C1137.34 434.779 1134.73 435.28 1131.84 435.28L1132.19 432.658C1137.23 432.658 1141.19 433.661 1144.07 435.666C1146.96 437.671 1148.38 440.41 1148.38 443.88C1148.38 446.85 1147.38 449.395 1145.38 451.593C1143.38 453.792 1140.65 455.45 1137.23 456.607C1133.81 457.764 1129.96 458.342 1125.65 458.342C1122.15 458.342 1118.66 457.957 1115.19 457.224H1115.16Z" fill="#313849"/>
<path d="M1158.52 474V411.718H1171.17V421.089L1170.91 434.703L1171.75 448.239V474H1158.52V474ZM1185.52 458.189C1181.67 458.189 1178.29 457.34 1175.4 455.643C1172.52 453.947 1170.29 451.363 1168.67 447.853C1167.06 444.382 1166.25 439.948 1166.25 434.626C1166.25 429.304 1167.02 424.83 1168.56 421.359C1170.1 417.888 1172.29 415.305 1175.17 413.608C1178.06 411.911 1181.52 411.062 1185.52 411.062C1189.82 411.062 1193.67 412.027 1197.09 413.993C1200.51 415.96 1203.24 418.698 1205.24 422.208C1207.24 425.717 1208.24 429.882 1208.24 434.626C1208.24 439.369 1207.24 443.611 1205.24 447.121C1203.24 450.63 1200.51 453.368 1197.09 455.296C1193.67 457.225 1189.82 458.189 1185.52 458.189V458.189ZM1183.21 447.313C1185.4 447.313 1187.36 446.812 1189.09 445.771C1190.82 444.768 1192.21 443.303 1193.25 441.374C1194.28 439.485 1194.82 437.209 1194.82 434.626C1194.82 432.042 1194.28 429.689 1193.25 427.838C1192.21 425.948 1190.82 424.522 1189.09 423.519C1187.36 422.516 1185.4 421.976 1183.21 421.976C1181.02 421.976 1179.02 422.478 1177.29 423.519C1175.56 424.56 1174.13 425.987 1173.14 427.838C1172.14 429.689 1171.6 431.965 1171.6 434.626C1171.6 437.287 1172.1 439.485 1173.14 441.374C1174.13 443.264 1175.52 444.73 1177.29 445.771C1179.06 446.812 1181.02 447.313 1183.21 447.313Z" fill="#313849"/>
<path d="M1239.62 458.188C1234.77 458.188 1230.43 457.186 1226.7 455.142C1222.93 453.098 1219.97 450.321 1217.78 446.773C1215.58 443.225 1214.51 439.176 1214.51 434.664C1214.51 430.152 1215.58 425.987 1217.78 422.439C1219.97 418.891 1222.93 416.114 1226.7 414.109C1230.47 412.103 1234.77 411.101 1239.62 411.101C1244.46 411.101 1248.73 412.103 1252.5 414.109C1256.31 416.114 1259.27 418.891 1261.42 422.4C1263.57 425.91 1264.65 429.997 1264.65 434.664C1264.65 439.33 1263.57 443.225 1261.42 446.773C1259.27 450.321 1256.31 453.098 1252.5 455.142C1248.69 457.186 1244.42 458.188 1239.62 458.188V458.188ZM1239.62 447.313C1241.81 447.313 1243.81 446.812 1245.54 445.77C1247.31 444.768 1248.69 443.302 1249.69 441.374C1250.69 439.484 1251.23 437.209 1251.23 434.625C1251.23 432.041 1250.73 429.689 1249.69 427.838C1248.65 425.948 1247.27 424.521 1245.54 423.518C1243.77 422.516 1241.81 421.976 1239.62 421.976C1237.43 421.976 1235.43 422.477 1233.7 423.518C1231.93 424.521 1230.54 425.987 1229.5 427.838C1228.47 429.727 1227.93 431.964 1227.93 434.625C1227.93 437.286 1228.47 439.484 1229.5 441.374C1230.54 443.264 1231.97 444.729 1233.7 445.77C1235.46 446.812 1237.43 447.313 1239.62 447.313Z" fill="#313849"/>
<path d="M1296.23 458.189C1291.31 458.189 1286.92 457.186 1283.08 455.181C1279.23 453.175 1276.23 450.36 1274.04 446.812C1271.85 443.226 1270.77 439.176 1270.77 434.626C1270.77 430.075 1271.85 425.949 1274.04 422.401C1276.23 418.853 1279.23 416.076 1283.08 414.071C1286.92 412.065 1291.31 411.062 1296.23 411.062C1301.15 411.062 1305.23 412.065 1308.76 414.071C1312.34 416.076 1314.95 418.968 1316.65 422.709L1306.38 428.224C1305.19 426.064 1303.73 424.483 1301.92 423.442C1300.15 422.439 1298.19 421.899 1296.11 421.899C1293.84 421.899 1291.81 422.401 1290 423.442C1288.19 424.483 1286.77 425.91 1285.73 427.761C1284.69 429.651 1284.15 431.887 1284.15 434.548C1284.15 437.209 1284.69 439.485 1285.73 441.336C1286.77 443.226 1288.19 444.652 1290 445.655C1291.81 446.696 1293.84 447.198 1296.11 447.198C1298.19 447.198 1300.15 446.696 1301.92 445.694C1303.69 444.691 1305.19 443.11 1306.38 440.873L1316.65 446.504C1314.95 450.206 1312.34 453.06 1308.76 455.065C1305.19 457.07 1301 458.073 1296.23 458.073V458.189Z" fill="#313849"/>
<path d="M1319.02 457.417L1319.71 446.542C1320.06 446.58 1320.41 446.657 1320.71 446.657C1321.06 446.657 1321.37 446.696 1321.64 446.696C1323.21 446.696 1324.48 446.233 1325.37 445.346C1326.25 444.459 1326.94 443.187 1327.41 441.644C1327.87 440.101 1328.17 438.328 1328.37 436.322C1328.56 434.317 1328.71 432.273 1328.83 430.113L1329.52 411.718H1368.55V457.494H1355.32V419.392L1358.28 422.632H1338.25L1341.06 419.238L1340.48 430.73C1340.33 434.818 1339.98 438.559 1339.52 441.953C1339.06 445.346 1338.25 448.277 1337.17 450.745C1336.1 453.213 1334.63 455.103 1332.83 456.453C1331.02 457.764 1328.71 458.458 1325.87 458.458C1324.87 458.458 1323.79 458.381 1322.64 458.188C1321.52 458.034 1320.29 457.764 1318.98 457.417H1319.02Z" fill="#313849"/>
<path d="M1406.08 426.333C1412.08 426.372 1416.58 427.722 1419.62 430.383C1422.66 433.005 1424.16 436.746 1424.16 441.566C1424.16 446.387 1422.43 450.552 1418.96 453.329C1415.5 456.144 1410.62 457.532 1404.28 457.532L1382.05 457.455V411.679H1395.2V426.295H1406.04L1406.08 426.333ZM1403.12 448.122C1405.66 448.161 1407.62 447.66 1408.97 446.503C1410.31 445.384 1411.01 443.649 1411.01 441.412C1411.01 439.175 1410.31 437.517 1408.97 436.514C1407.62 435.512 1405.66 435.01 1403.12 434.933L1395.24 434.856V448.122H1403.12ZM1429.08 457.494V411.717H1442.23V457.494H1429.08Z" fill="#313849"/>
<path d="M1449.57 457.494L1470.03 430.615L1469.76 437.942L1450.15 411.756H1464.99L1477.37 428.841L1471.76 428.995L1484.56 411.718H1498.63L1478.95 437.672V430.537L1499.29 457.494H1484.25L1471.26 439.292L1476.75 440.063L1463.87 457.494H1449.45H1449.57Z" fill="#313849"/>
</svg>
