<svg width="815" height="1463" viewBox="0 0 815 1463" fill="none" xmlns="http://www.w3.org/2000/svg">
<path fill-rule="evenodd" clip-rule="evenodd" d="M218.76 954.92C217.809 954.453 216.691 954.453 215.74 954.92V954.92L152.174 986.182C145.333 989.546 141 996.507 141 1004.13V1367C141 1383.57 127.569 1397 111 1397C94.4315 1397 81 1383.57 81 1367V1004.13C81 973.638 98.333 945.798 125.694 932.341L189.26 901.079C198.49 896.54 208.918 897.179 217.25 901.873C225.582 897.179 236.01 896.54 245.24 901.079L308.806 932.341C336.167 945.798 353.5 973.638 353.5 1004.13V1367C353.5 1383.57 340.069 1397 323.5 1397C306.931 1397 293.5 1383.57 293.5 1367V1004.13C293.5 996.507 289.167 989.546 282.326 986.182L218.76 954.92V954.92Z" fill="#9672FF"/>
<path fill-rule="evenodd" clip-rule="evenodd" d="M203.603 930.243C204.842 929.634 205.353 928.135 204.743 926.896C204.134 925.657 202.636 925.147 201.397 925.756L197.424 927.71C196.185 928.319 195.674 929.818 196.284 931.057C196.893 932.296 198.391 932.806 199.63 932.197L203.603 930.243ZM191.685 936.105C192.924 935.495 193.434 933.997 192.825 932.758C192.215 931.519 190.717 931.008 189.478 931.618L181.532 935.526C180.293 936.135 179.783 937.633 180.392 938.872C181.002 940.111 182.5 940.622 183.739 940.012L191.685 936.105ZM175.793 943.92C177.032 943.311 177.543 941.812 176.933 940.573C176.324 939.334 174.826 938.824 173.587 939.433L165.641 943.341C164.402 943.95 163.891 945.449 164.501 946.688C165.11 947.927 166.608 948.437 167.847 947.828L175.793 943.92ZM159.902 951.736C161.141 951.126 161.651 949.628 161.042 948.389C160.432 947.15 158.934 946.639 157.695 947.249L149.749 951.157C148.51 951.766 148 953.264 148.609 954.503C149.219 955.742 150.717 956.253 151.956 955.643L159.902 951.736ZM144.01 959.551C145.249 958.942 145.76 957.443 145.15 956.204C144.541 954.965 143.043 954.455 141.804 955.064L137.831 957.018C136.364 957.74 134.94 958.524 133.564 959.368C132.386 960.089 132.017 961.628 132.738 962.806C133.459 963.983 134.998 964.353 136.176 963.631C137.421 962.868 138.709 962.158 140.037 961.505L144.01 959.551ZM129.128 968.907C130.152 967.98 130.231 966.399 129.305 965.376C128.378 964.352 126.797 964.273 125.773 965.2C123.354 967.39 121.153 969.792 119.195 972.37C118.36 973.47 118.574 975.038 119.674 975.873C120.773 976.708 122.342 976.494 123.177 975.395C124.949 973.061 126.939 970.888 129.128 968.907ZM118.523 982.869C119.141 981.635 118.641 980.133 117.407 979.515C116.172 978.896 114.67 979.396 114.052 980.631C112.602 983.526 111.418 986.561 110.52 989.699C110.141 991.026 110.909 992.41 112.237 992.79C113.564 993.169 114.948 992.401 115.328 991.073C116.139 988.235 117.211 985.489 118.523 982.869ZM113.704 999.725C113.832 998.351 112.821 997.133 111.446 997.005C110.071 996.877 108.853 997.888 108.725 999.263C108.576 1000.87 108.5 1002.49 108.5 1004.13V1009.17C108.5 1010.55 109.619 1011.67 111 1011.67C112.381 1011.67 113.5 1010.55 113.5 1009.17V1004.13C113.5 1002.65 113.569 1001.18 113.704 999.725ZM113.5 1019.25C113.5 1017.87 112.381 1016.75 111 1016.75C109.619 1016.75 108.5 1017.87 108.5 1019.25V1029.33C108.5 1030.71 109.619 1031.83 111 1031.83C112.381 1031.83 113.5 1030.71 113.5 1029.33V1019.25ZM113.5 1039.41C113.5 1038.03 112.381 1036.91 111 1036.91C109.619 1036.91 108.5 1038.03 108.5 1039.41V1049.49C108.5 1050.87 109.619 1051.99 111 1051.99C112.381 1051.99 113.5 1050.87 113.5 1049.49V1039.41ZM113.5 1059.57C113.5 1058.19 112.381 1057.07 111 1057.07C109.619 1057.07 108.5 1058.19 108.5 1059.57V1069.65C108.5 1071.03 109.619 1072.15 111 1072.15C112.381 1072.15 113.5 1071.03 113.5 1069.65V1059.57ZM113.5 1079.73C113.5 1078.35 112.381 1077.23 111 1077.23C109.619 1077.23 108.5 1078.35 108.5 1079.73V1089.81C108.5 1091.19 109.619 1092.31 111 1092.31C112.381 1092.31 113.5 1091.19 113.5 1089.81V1079.73ZM113.5 1099.89C113.5 1098.51 112.381 1097.39 111 1097.39C109.619 1097.39 108.5 1098.51 108.5 1099.89V1109.97C108.5 1111.35 109.619 1112.47 111 1112.47C112.381 1112.47 113.5 1111.35 113.5 1109.97V1099.89ZM113.5 1120.05C113.5 1118.67 112.381 1117.55 111 1117.55C109.619 1117.55 108.5 1118.67 108.5 1120.05V1130.13C108.5 1131.51 109.619 1132.63 111 1132.63C112.381 1132.63 113.5 1131.51 113.5 1130.13V1120.05ZM113.5 1140.21C113.5 1138.82 112.381 1137.71 111 1137.71C109.619 1137.71 108.5 1138.82 108.5 1140.21V1150.29C108.5 1151.67 109.619 1152.79 111 1152.79C112.381 1152.79 113.5 1151.67 113.5 1150.29V1140.21ZM113.5 1160.36C113.5 1158.98 112.381 1157.86 111 1157.86C109.619 1157.86 108.5 1158.98 108.5 1160.36V1170.44C108.5 1171.83 109.619 1172.94 111 1172.94C112.381 1172.94 113.5 1171.83 113.5 1170.44V1160.36ZM113.5 1180.52C113.5 1179.14 112.381 1178.02 111 1178.02C109.619 1178.02 108.5 1179.14 108.5 1180.52V1190.6C108.5 1191.98 109.619 1193.1 111 1193.1C112.381 1193.1 113.5 1191.98 113.5 1190.6V1180.52ZM113.5 1200.68C113.5 1199.3 112.381 1198.18 111 1198.18C109.619 1198.18 108.5 1199.3 108.5 1200.68V1210.76C108.5 1212.14 109.619 1213.26 111 1213.26C112.381 1213.26 113.5 1212.14 113.5 1210.76V1200.68ZM113.5 1220.84C113.5 1219.46 112.381 1218.34 111 1218.34C109.619 1218.34 108.5 1219.46 108.5 1220.84V1230.92C108.5 1232.3 109.619 1233.42 111 1233.42C112.381 1233.42 113.5 1232.3 113.5 1230.92V1220.84ZM113.5 1241C113.5 1239.62 112.381 1238.5 111 1238.5C109.619 1238.5 108.5 1239.62 108.5 1241V1251.08C108.5 1252.46 109.619 1253.58 111 1253.58C112.381 1253.58 113.5 1252.46 113.5 1251.08V1241ZM113.5 1261.16C113.5 1259.78 112.381 1258.66 111 1258.66C109.619 1258.66 108.5 1259.78 108.5 1261.16V1271.24C108.5 1272.62 109.619 1273.74 111 1273.74C112.381 1273.74 113.5 1272.62 113.5 1271.24V1261.16ZM113.5 1281.32C113.5 1279.94 112.381 1278.82 111 1278.82C109.619 1278.82 108.5 1279.94 108.5 1281.32V1291.4C108.5 1292.78 109.619 1293.9 111 1293.9C112.381 1293.9 113.5 1292.78 113.5 1291.4V1281.32ZM113.5 1301.48C113.5 1300.1 112.381 1298.98 111 1298.98C109.619 1298.98 108.5 1300.1 108.5 1301.48V1311.56C108.5 1312.94 109.619 1314.06 111 1314.06C112.381 1314.06 113.5 1312.94 113.5 1311.56V1301.48ZM113.5 1321.64C113.5 1320.26 112.381 1319.14 111 1319.14C109.619 1319.14 108.5 1320.26 108.5 1321.64V1331.72C108.5 1333.1 109.619 1334.22 111 1334.22C112.381 1334.22 113.5 1333.1 113.5 1331.72V1321.64ZM113.5 1341.8C113.5 1340.42 112.381 1339.3 111 1339.3C109.619 1339.3 108.5 1340.42 108.5 1341.8V1351.88C108.5 1353.26 109.619 1354.38 111 1354.38C112.381 1354.38 113.5 1353.26 113.5 1351.88V1341.8ZM113.5 1361.96C113.5 1360.58 112.381 1359.46 111 1359.46C109.619 1359.46 108.5 1360.58 108.5 1361.96V1367C108.5 1368.38 109.619 1369.5 111 1369.5C112.381 1369.5 113.5 1368.38 113.5 1367V1361.96ZM230.897 930.243C229.658 929.634 229.147 928.135 229.757 926.896C230.366 925.657 231.864 925.147 233.103 925.756L237.076 927.71C238.315 928.319 238.826 929.818 238.216 931.057C237.607 932.296 236.109 932.806 234.87 932.197L230.897 930.243ZM242.815 936.105C241.576 935.495 241.066 933.997 241.675 932.758C242.285 931.519 243.783 931.008 245.022 931.618L252.968 935.526C254.207 936.135 254.717 937.633 254.108 938.872C253.498 940.111 252 940.622 250.761 940.012L242.815 936.105ZM258.707 943.92C257.468 943.311 256.957 941.812 257.567 940.573C258.176 939.334 259.674 938.824 260.913 939.433L268.859 943.341C270.098 943.95 270.609 945.449 269.999 946.688C269.39 947.927 267.892 948.437 266.653 947.828L258.707 943.92ZM274.598 951.736C273.359 951.126 272.849 949.628 273.458 948.389C274.068 947.15 275.566 946.639 276.805 947.249L284.751 951.157C285.99 951.766 286.5 953.264 285.891 954.503C285.281 955.742 283.783 956.253 282.544 955.643L274.598 951.736ZM290.49 959.551C289.251 958.942 288.74 957.443 289.35 956.204C289.959 954.965 291.457 954.455 292.696 955.064L296.669 957.018C298.136 957.74 299.56 958.524 300.936 959.368C302.114 960.089 302.483 961.628 301.762 962.806C301.041 963.983 299.502 964.353 298.324 963.631C297.079 962.868 295.791 962.158 294.463 961.505L290.49 959.551ZM305.372 968.907C304.348 967.98 304.269 966.399 305.195 965.376C306.122 964.352 307.703 964.273 308.727 965.2C311.146 967.39 313.347 969.792 315.305 972.37C316.14 973.47 315.926 975.038 314.826 975.873C313.727 976.708 312.158 976.494 311.323 975.395C309.551 973.061 307.561 970.888 305.372 968.907ZM315.977 982.869C315.359 981.635 315.859 980.133 317.093 979.515C318.328 978.896 319.83 979.396 320.448 980.631C321.898 983.526 323.082 986.561 323.98 989.699C324.359 991.026 323.591 992.41 322.263 992.79C320.936 993.169 319.552 992.401 319.172 991.073C318.361 988.235 317.289 985.489 315.977 982.869ZM320.796 999.725C320.668 998.351 321.679 997.133 323.054 997.005C324.429 996.877 325.647 997.888 325.775 999.263C325.924 1000.87 326 1002.49 326 1004.13V1009.17C326 1010.55 324.881 1011.67 323.5 1011.67C322.119 1011.67 321 1010.55 321 1009.17V1004.13C321 1002.65 320.931 1001.18 320.796 999.725ZM321 1019.25C321 1017.87 322.119 1016.75 323.5 1016.75C324.881 1016.75 326 1017.87 326 1019.25V1029.33C326 1030.71 324.881 1031.83 323.5 1031.83C322.119 1031.83 321 1030.71 321 1029.33V1019.25ZM321 1039.41C321 1038.03 322.119 1036.91 323.5 1036.91C324.881 1036.91 326 1038.03 326 1039.41V1049.49C326 1050.87 324.881 1051.99 323.5 1051.99C322.119 1051.99 321 1050.87 321 1049.49V1039.41ZM321 1059.57C321 1058.19 322.119 1057.07 323.5 1057.07C324.881 1057.07 326 1058.19 326 1059.57V1069.65C326 1071.03 324.881 1072.15 323.5 1072.15C322.119 1072.15 321 1071.03 321 1069.65V1059.57ZM321 1079.73C321 1078.35 322.119 1077.23 323.5 1077.23C324.881 1077.23 326 1078.35 326 1079.73V1089.81C326 1091.19 324.881 1092.31 323.5 1092.31C322.119 1092.31 321 1091.19 321 1089.81V1079.73ZM321 1099.89C321 1098.51 322.119 1097.39 323.5 1097.39C324.881 1097.39 326 1098.51 326 1099.89V1109.97C326 1111.35 324.881 1112.47 323.5 1112.47C322.119 1112.47 321 1111.35 321 1109.97V1099.89ZM321 1120.05C321 1118.67 322.119 1117.55 323.5 1117.55C324.881 1117.55 326 1118.67 326 1120.05V1130.13C326 1131.51 324.881 1132.63 323.5 1132.63C322.119 1132.63 321 1131.51 321 1130.13V1120.05ZM321 1140.21C321 1138.82 322.119 1137.71 323.5 1137.71C324.881 1137.71 326 1138.82 326 1140.21V1150.29C326 1151.67 324.881 1152.79 323.5 1152.79C322.119 1152.79 321 1151.67 321 1150.29V1140.21ZM321 1160.36C321 1158.98 322.119 1157.86 323.5 1157.86C324.881 1157.86 326 1158.98 326 1160.36V1170.44C326 1171.83 324.881 1172.94 323.5 1172.94C322.119 1172.94 321 1171.83 321 1170.44V1160.36ZM321 1180.52C321 1179.14 322.119 1178.02 323.5 1178.02C324.881 1178.02 326 1179.14 326 1180.52V1190.6C326 1191.98 324.881 1193.1 323.5 1193.1C322.119 1193.1 321 1191.98 321 1190.6V1180.52ZM321 1200.68C321 1199.3 322.119 1198.18 323.5 1198.18C324.881 1198.18 326 1199.3 326 1200.68V1210.76C326 1212.14 324.881 1213.26 323.5 1213.26C322.119 1213.26 321 1212.14 321 1210.76V1200.68ZM321 1220.84C321 1219.46 322.119 1218.34 323.5 1218.34C324.881 1218.34 326 1219.46 326 1220.84V1230.92C326 1232.3 324.881 1233.42 323.5 1233.42C322.119 1233.42 321 1232.3 321 1230.92V1220.84ZM321 1241C321 1239.62 322.119 1238.5 323.5 1238.5C324.881 1238.5 326 1239.62 326 1241V1251.08C326 1252.46 324.881 1253.58 323.5 1253.58C322.119 1253.58 321 1252.46 321 1251.08V1241ZM321 1261.16C321 1259.78 322.119 1258.66 323.5 1258.66C324.881 1258.66 326 1259.78 326 1261.16V1271.24C326 1272.62 324.881 1273.74 323.5 1273.74C322.119 1273.74 321 1272.62 321 1271.24V1261.16ZM321 1281.32C321 1279.94 322.119 1278.82 323.5 1278.82C324.881 1278.82 326 1279.94 326 1281.32V1291.4C326 1292.78 324.881 1293.9 323.5 1293.9C322.119 1293.9 321 1292.78 321 1291.4V1281.32ZM321 1301.48C321 1300.1 322.119 1298.98 323.5 1298.98C324.881 1298.98 326 1300.1 326 1301.48V1311.56C326 1312.94 324.881 1314.06 323.5 1314.06C322.119 1314.06 321 1312.94 321 1311.56V1301.48ZM321 1321.64C321 1320.26 322.119 1319.14 323.5 1319.14C324.881 1319.14 326 1320.26 326 1321.64V1331.72C326 1333.1 324.881 1334.22 323.5 1334.22C322.119 1334.22 321 1333.1 321 1331.72V1321.64ZM321 1341.8C321 1340.42 322.119 1339.3 323.5 1339.3C324.881 1339.3 326 1340.42 326 1341.8V1351.88C326 1353.26 324.881 1354.38 323.5 1354.38C322.119 1354.38 321 1353.26 321 1351.88V1341.8ZM321 1361.96C321 1360.58 322.119 1359.46 323.5 1359.46C324.881 1359.46 326 1360.58 326 1361.96V1367C326 1368.38 324.881 1369.5 323.5 1369.5C322.119 1369.5 321 1368.38 321 1367V1361.96Z" fill="url(#paint0_linear_1227_4730)"/>
<path fill-rule="evenodd" clip-rule="evenodd" d="M203.603 930.243C204.842 929.634 205.353 928.135 204.743 926.896C204.134 925.657 202.636 925.147 201.397 925.756L197.424 927.71C196.185 928.319 195.674 929.818 196.284 931.057C196.893 932.296 198.391 932.806 199.63 932.197L203.603 930.243ZM191.685 936.105C192.924 935.495 193.434 933.997 192.825 932.758C192.215 931.519 190.717 931.008 189.478 931.618L181.532 935.526C180.293 936.135 179.783 937.633 180.392 938.872C181.002 940.111 182.5 940.622 183.739 940.012L191.685 936.105ZM175.793 943.92C177.032 943.311 177.543 941.812 176.933 940.573C176.324 939.334 174.826 938.824 173.587 939.433L165.641 943.341C164.402 943.95 163.891 945.449 164.501 946.688C165.11 947.927 166.608 948.437 167.847 947.828L175.793 943.92ZM159.902 951.736C161.141 951.126 161.651 949.628 161.042 948.389C160.432 947.15 158.934 946.639 157.695 947.249L149.749 951.157C148.51 951.766 148 953.264 148.609 954.503C149.219 955.742 150.717 956.253 151.956 955.643L159.902 951.736ZM144.01 959.551C145.249 958.942 145.76 957.443 145.15 956.204C144.541 954.965 143.043 954.455 141.804 955.064L137.831 957.018C136.364 957.74 134.94 958.524 133.564 959.368C132.386 960.089 132.017 961.628 132.738 962.806C133.459 963.983 134.998 964.353 136.176 963.631C137.421 962.868 138.709 962.158 140.037 961.505L144.01 959.551ZM129.128 968.907C130.152 967.98 130.231 966.399 129.305 965.376C128.378 964.352 126.797 964.273 125.773 965.2C123.354 967.39 121.153 969.792 119.195 972.37C118.36 973.47 118.574 975.038 119.674 975.873C120.773 976.708 122.342 976.494 123.177 975.395C124.949 973.061 126.939 970.888 129.128 968.907ZM118.523 982.869C119.141 981.635 118.641 980.133 117.407 979.515C116.172 978.896 114.67 979.396 114.052 980.631C112.602 983.526 111.418 986.561 110.52 989.699C110.141 991.026 110.909 992.41 112.237 992.79C113.564 993.169 114.948 992.401 115.328 991.073C116.139 988.235 117.211 985.489 118.523 982.869ZM113.704 999.725C113.832 998.351 112.821 997.133 111.446 997.005C110.071 996.877 108.853 997.888 108.725 999.263C108.576 1000.87 108.5 1002.49 108.5 1004.13V1009.17C108.5 1010.55 109.619 1011.67 111 1011.67C112.381 1011.67 113.5 1010.55 113.5 1009.17V1004.13C113.5 1002.65 113.569 1001.18 113.704 999.725ZM113.5 1019.25C113.5 1017.87 112.381 1016.75 111 1016.75C109.619 1016.75 108.5 1017.87 108.5 1019.25V1029.33C108.5 1030.71 109.619 1031.83 111 1031.83C112.381 1031.83 113.5 1030.71 113.5 1029.33V1019.25ZM113.5 1039.41C113.5 1038.03 112.381 1036.91 111 1036.91C109.619 1036.91 108.5 1038.03 108.5 1039.41V1049.49C108.5 1050.87 109.619 1051.99 111 1051.99C112.381 1051.99 113.5 1050.87 113.5 1049.49V1039.41ZM113.5 1059.57C113.5 1058.19 112.381 1057.07 111 1057.07C109.619 1057.07 108.5 1058.19 108.5 1059.57V1069.65C108.5 1071.03 109.619 1072.15 111 1072.15C112.381 1072.15 113.5 1071.03 113.5 1069.65V1059.57ZM113.5 1079.73C113.5 1078.35 112.381 1077.23 111 1077.23C109.619 1077.23 108.5 1078.35 108.5 1079.73V1089.81C108.5 1091.19 109.619 1092.31 111 1092.31C112.381 1092.31 113.5 1091.19 113.5 1089.81V1079.73ZM113.5 1099.89C113.5 1098.51 112.381 1097.39 111 1097.39C109.619 1097.39 108.5 1098.51 108.5 1099.89V1109.97C108.5 1111.35 109.619 1112.47 111 1112.47C112.381 1112.47 113.5 1111.35 113.5 1109.97V1099.89ZM113.5 1120.05C113.5 1118.67 112.381 1117.55 111 1117.55C109.619 1117.55 108.5 1118.67 108.5 1120.05V1130.13C108.5 1131.51 109.619 1132.63 111 1132.63C112.381 1132.63 113.5 1131.51 113.5 1130.13V1120.05ZM113.5 1140.21C113.5 1138.82 112.381 1137.71 111 1137.71C109.619 1137.71 108.5 1138.82 108.5 1140.21V1150.29C108.5 1151.67 109.619 1152.79 111 1152.79C112.381 1152.79 113.5 1151.67 113.5 1150.29V1140.21ZM113.5 1160.36C113.5 1158.98 112.381 1157.86 111 1157.86C109.619 1157.86 108.5 1158.98 108.5 1160.36V1170.44C108.5 1171.83 109.619 1172.94 111 1172.94C112.381 1172.94 113.5 1171.83 113.5 1170.44V1160.36ZM113.5 1180.52C113.5 1179.14 112.381 1178.02 111 1178.02C109.619 1178.02 108.5 1179.14 108.5 1180.52V1190.6C108.5 1191.98 109.619 1193.1 111 1193.1C112.381 1193.1 113.5 1191.98 113.5 1190.6V1180.52ZM113.5 1200.68C113.5 1199.3 112.381 1198.18 111 1198.18C109.619 1198.18 108.5 1199.3 108.5 1200.68V1210.76C108.5 1212.14 109.619 1213.26 111 1213.26C112.381 1213.26 113.5 1212.14 113.5 1210.76V1200.68ZM113.5 1220.84C113.5 1219.46 112.381 1218.34 111 1218.34C109.619 1218.34 108.5 1219.46 108.5 1220.84V1230.92C108.5 1232.3 109.619 1233.42 111 1233.42C112.381 1233.42 113.5 1232.3 113.5 1230.92V1220.84ZM113.5 1241C113.5 1239.62 112.381 1238.5 111 1238.5C109.619 1238.5 108.5 1239.62 108.5 1241V1251.08C108.5 1252.46 109.619 1253.58 111 1253.58C112.381 1253.58 113.5 1252.46 113.5 1251.08V1241ZM113.5 1261.16C113.5 1259.78 112.381 1258.66 111 1258.66C109.619 1258.66 108.5 1259.78 108.5 1261.16V1271.24C108.5 1272.62 109.619 1273.74 111 1273.74C112.381 1273.74 113.5 1272.62 113.5 1271.24V1261.16ZM113.5 1281.32C113.5 1279.94 112.381 1278.82 111 1278.82C109.619 1278.82 108.5 1279.94 108.5 1281.32V1291.4C108.5 1292.78 109.619 1293.9 111 1293.9C112.381 1293.9 113.5 1292.78 113.5 1291.4V1281.32ZM113.5 1301.48C113.5 1300.1 112.381 1298.98 111 1298.98C109.619 1298.98 108.5 1300.1 108.5 1301.48V1311.56C108.5 1312.94 109.619 1314.06 111 1314.06C112.381 1314.06 113.5 1312.94 113.5 1311.56V1301.48ZM113.5 1321.64C113.5 1320.26 112.381 1319.14 111 1319.14C109.619 1319.14 108.5 1320.26 108.5 1321.64V1331.72C108.5 1333.1 109.619 1334.22 111 1334.22C112.381 1334.22 113.5 1333.1 113.5 1331.72V1321.64ZM113.5 1341.8C113.5 1340.42 112.381 1339.3 111 1339.3C109.619 1339.3 108.5 1340.42 108.5 1341.8V1351.88C108.5 1353.26 109.619 1354.38 111 1354.38C112.381 1354.38 113.5 1353.26 113.5 1351.88V1341.8ZM113.5 1361.96C113.5 1360.58 112.381 1359.46 111 1359.46C109.619 1359.46 108.5 1360.58 108.5 1361.96V1367C108.5 1368.38 109.619 1369.5 111 1369.5C112.381 1369.5 113.5 1368.38 113.5 1367V1361.96ZM230.897 930.243C229.658 929.634 229.147 928.135 229.757 926.896C230.366 925.657 231.864 925.147 233.103 925.756L237.076 927.71C238.315 928.319 238.826 929.818 238.216 931.057C237.607 932.296 236.109 932.806 234.87 932.197L230.897 930.243ZM242.815 936.105C241.576 935.495 241.066 933.997 241.675 932.758C242.285 931.519 243.783 931.008 245.022 931.618L252.968 935.526C254.207 936.135 254.717 937.633 254.108 938.872C253.498 940.111 252 940.622 250.761 940.012L242.815 936.105ZM258.707 943.92C257.468 943.311 256.957 941.812 257.567 940.573C258.176 939.334 259.674 938.824 260.913 939.433L268.859 943.341C270.098 943.95 270.609 945.449 269.999 946.688C269.39 947.927 267.892 948.437 266.653 947.828L258.707 943.92ZM274.598 951.736C273.359 951.126 272.849 949.628 273.458 948.389C274.068 947.15 275.566 946.639 276.805 947.249L284.751 951.157C285.99 951.766 286.5 953.264 285.891 954.503C285.281 955.742 283.783 956.253 282.544 955.643L274.598 951.736ZM290.49 959.551C289.251 958.942 288.74 957.443 289.35 956.204C289.959 954.965 291.457 954.455 292.696 955.064L296.669 957.018C298.136 957.74 299.56 958.524 300.936 959.368C302.114 960.089 302.483 961.628 301.762 962.806C301.041 963.983 299.502 964.353 298.324 963.631C297.079 962.868 295.791 962.158 294.463 961.505L290.49 959.551ZM305.372 968.907C304.348 967.98 304.269 966.399 305.195 965.376C306.122 964.352 307.703 964.273 308.727 965.2C311.146 967.39 313.347 969.792 315.305 972.37C316.14 973.47 315.926 975.038 314.826 975.873C313.727 976.708 312.158 976.494 311.323 975.395C309.551 973.061 307.561 970.888 305.372 968.907ZM315.977 982.869C315.359 981.635 315.859 980.133 317.093 979.515C318.328 978.896 319.83 979.396 320.448 980.631C321.898 983.526 323.082 986.561 323.98 989.699C324.359 991.026 323.591 992.41 322.263 992.79C320.936 993.169 319.552 992.401 319.172 991.073C318.361 988.235 317.289 985.489 315.977 982.869ZM320.796 999.725C320.668 998.351 321.679 997.133 323.054 997.005C324.429 996.877 325.647 997.888 325.775 999.263C325.924 1000.87 326 1002.49 326 1004.13V1009.17C326 1010.55 324.881 1011.67 323.5 1011.67C322.119 1011.67 321 1010.55 321 1009.17V1004.13C321 1002.65 320.931 1001.18 320.796 999.725ZM321 1019.25C321 1017.87 322.119 1016.75 323.5 1016.75C324.881 1016.75 326 1017.87 326 1019.25V1029.33C326 1030.71 324.881 1031.83 323.5 1031.83C322.119 1031.83 321 1030.71 321 1029.33V1019.25ZM321 1039.41C321 1038.03 322.119 1036.91 323.5 1036.91C324.881 1036.91 326 1038.03 326 1039.41V1049.49C326 1050.87 324.881 1051.99 323.5 1051.99C322.119 1051.99 321 1050.87 321 1049.49V1039.41ZM321 1059.57C321 1058.19 322.119 1057.07 323.5 1057.07C324.881 1057.07 326 1058.19 326 1059.57V1069.65C326 1071.03 324.881 1072.15 323.5 1072.15C322.119 1072.15 321 1071.03 321 1069.65V1059.57ZM321 1079.73C321 1078.35 322.119 1077.23 323.5 1077.23C324.881 1077.23 326 1078.35 326 1079.73V1089.81C326 1091.19 324.881 1092.31 323.5 1092.31C322.119 1092.31 321 1091.19 321 1089.81V1079.73ZM321 1099.89C321 1098.51 322.119 1097.39 323.5 1097.39C324.881 1097.39 326 1098.51 326 1099.89V1109.97C326 1111.35 324.881 1112.47 323.5 1112.47C322.119 1112.47 321 1111.35 321 1109.97V1099.89ZM321 1120.05C321 1118.67 322.119 1117.55 323.5 1117.55C324.881 1117.55 326 1118.67 326 1120.05V1130.13C326 1131.51 324.881 1132.63 323.5 1132.63C322.119 1132.63 321 1131.51 321 1130.13V1120.05ZM321 1140.21C321 1138.82 322.119 1137.71 323.5 1137.71C324.881 1137.71 326 1138.82 326 1140.21V1150.29C326 1151.67 324.881 1152.79 323.5 1152.79C322.119 1152.79 321 1151.67 321 1150.29V1140.21ZM321 1160.36C321 1158.98 322.119 1157.86 323.5 1157.86C324.881 1157.86 326 1158.98 326 1160.36V1170.44C326 1171.83 324.881 1172.94 323.5 1172.94C322.119 1172.94 321 1171.83 321 1170.44V1160.36ZM321 1180.52C321 1179.14 322.119 1178.02 323.5 1178.02C324.881 1178.02 326 1179.14 326 1180.52V1190.6C326 1191.98 324.881 1193.1 323.5 1193.1C322.119 1193.1 321 1191.98 321 1190.6V1180.52ZM321 1200.68C321 1199.3 322.119 1198.18 323.5 1198.18C324.881 1198.18 326 1199.3 326 1200.68V1210.76C326 1212.14 324.881 1213.26 323.5 1213.26C322.119 1213.26 321 1212.14 321 1210.76V1200.68ZM321 1220.84C321 1219.46 322.119 1218.34 323.5 1218.34C324.881 1218.34 326 1219.46 326 1220.84V1230.92C326 1232.3 324.881 1233.42 323.5 1233.42C322.119 1233.42 321 1232.3 321 1230.92V1220.84ZM321 1241C321 1239.62 322.119 1238.5 323.5 1238.5C324.881 1238.5 326 1239.62 326 1241V1251.08C326 1252.46 324.881 1253.58 323.5 1253.58C322.119 1253.58 321 1252.46 321 1251.08V1241ZM321 1261.16C321 1259.78 322.119 1258.66 323.5 1258.66C324.881 1258.66 326 1259.78 326 1261.16V1271.24C326 1272.62 324.881 1273.74 323.5 1273.74C322.119 1273.74 321 1272.62 321 1271.24V1261.16ZM321 1281.32C321 1279.94 322.119 1278.82 323.5 1278.82C324.881 1278.82 326 1279.94 326 1281.32V1291.4C326 1292.78 324.881 1293.9 323.5 1293.9C322.119 1293.9 321 1292.78 321 1291.4V1281.32ZM321 1301.48C321 1300.1 322.119 1298.98 323.5 1298.98C324.881 1298.98 326 1300.1 326 1301.48V1311.56C326 1312.94 324.881 1314.06 323.5 1314.06C322.119 1314.06 321 1312.94 321 1311.56V1301.48ZM321 1321.64C321 1320.26 322.119 1319.14 323.5 1319.14C324.881 1319.14 326 1320.26 326 1321.64V1331.72C326 1333.1 324.881 1334.22 323.5 1334.22C322.119 1334.22 321 1333.1 321 1331.72V1321.64ZM321 1341.8C321 1340.42 322.119 1339.3 323.5 1339.3C324.881 1339.3 326 1340.42 326 1341.8V1351.88C326 1353.26 324.881 1354.38 323.5 1354.38C322.119 1354.38 321 1353.26 321 1351.88V1341.8ZM321 1361.96C321 1360.58 322.119 1359.46 323.5 1359.46C324.881 1359.46 326 1360.58 326 1361.96V1367C326 1368.38 324.881 1369.5 323.5 1369.5C322.119 1369.5 321 1368.38 321 1367V1361.96Z" fill="url(#paint1_radial_1227_4730)" style="mix-blend-mode:lighten"/>
<path d="M30 30H674C729.228 30 774 74.7715 774 130V144C774 199.228 729.228 244 674 244H130C74.7715 244 30 288.772 30 344V362C30 417.228 74.7715 462 130 462H674C729.228 462 774 506.772 774 562V589C774 644.228 729.228 689 674 689H130C74.7715 689 30 733.772 30 789V822.5C30 877.728 74.7715 922.5 130 922.5H685C740.228 922.5 785 967.272 785 1022.5V1313" stroke="url(#paint2_linear_1227_4730)" stroke-width="60" stroke-linecap="round"/>
<path d="M30 30H674C729.228 30 774 74.7715 774 130V144C774 199.228 729.228 244 674 244H130C74.7715 244 30 288.772 30 344V362C30 417.228 74.7715 462 130 462H674C729.228 462 774 506.772 774 562V589C774 644.228 729.228 689 674 689H130C74.7715 689 30 733.772 30 789V822.5C30 877.728 74.7715 922.5 130 922.5H684C739.228 922.5 784 967.272 784 1022.5V1322" stroke="url(#paint3_linear_1227_4730)" stroke-width="5" stroke-linecap="round" stroke-dasharray="10 10"/>
<path d="M30 30H674C729.228 30 774 74.7715 774 130V144C774 199.228 729.228 244 674 244H130C74.7715 244 30 288.772 30 344V362C30 417.228 74.7715 462 130 462H674C729.228 462 774 506.772 774 562V589C774 644.228 729.228 689 674 689H130C74.7715 689 30 733.772 30 789V822.5C30 877.728 74.7715 922.5 130 922.5H684C739.228 922.5 784 967.272 784 1022.5V1322" stroke="url(#paint4_radial_1227_4730)" stroke-width="5" stroke-linecap="round" stroke-dasharray="10 10" style="mix-blend-mode:lighten"/>
<path d="M520 923.5V1432.5" stroke="#9672FF" stroke-width="60" stroke-linecap="round"/>
<path d="M521 923.5V1435.5" stroke="url(#paint5_linear_1227_4730)" stroke-width="5" stroke-linecap="round" stroke-dasharray="10 10"/>
<path d="M521 923.5V1435.5" stroke="url(#paint6_radial_1227_4730)" stroke-width="5" stroke-linecap="round" stroke-dasharray="10 10" style="mix-blend-mode:lighten"/>
<defs>
<linearGradient id="paint0_linear_1227_4730" x1="108.5" y1="1060.04" x2="326" y2="1060.04" gradientUnits="userSpaceOnUse">
<stop stop-color="#EBD1FF"/>
<stop offset="0.296875" stop-color="#EFF8D9"/>
<stop offset="0.583333" stop-color="#E9DBEF"/>
<stop offset="0.755208" stop-color="#F5F3E9"/>
<stop offset="1" stop-color="#C9C2A6"/>
</linearGradient>
<radialGradient id="paint1_radial_1227_4730" cx="0" cy="0" r="1" gradientUnits="userSpaceOnUse" gradientTransform="translate(118.447 925.499) rotate(63.1217) scale(442.467 4732.06)">
<stop stop-color="#FDAAFF"/>
<stop offset="0.104167" stop-color="#FDEFD2"/>
<stop offset="0.223958" stop-color="#FEFFB9"/>
<stop offset="0.338542" stop-color="#DCD4AD"/>
<stop offset="0.453125" stop-color="#FFFDC1"/>
<stop offset="0.59375" stop-color="#FFE3CA"/>
<stop offset="0.78125" stop-color="#FDFF96"/>
<stop offset="1" stop-color="#D6C0FF"/>
</radialGradient>
<linearGradient id="paint2_linear_1227_4730" x1="399" y1="30" x2="399" y2="954.5" gradientUnits="userSpaceOnUse">
<stop stop-color="#FFB63D"/>
<stop offset="0.234375" stop-color="#5BBB53"/>
<stop offset="0.463542" stop-color="#41B6EA"/>
<stop offset="0.688063" stop-color="#D8592C"/>
<stop offset="0.94302" stop-color="#9672FF"/>
</linearGradient>
<linearGradient id="paint3_linear_1227_4730" x1="30" y1="421.516" x2="784" y2="421.516" gradientUnits="userSpaceOnUse">
<stop stop-color="#EBD1FF"/>
<stop offset="0.296875" stop-color="#EFF8D9"/>
<stop offset="0.583333" stop-color="#E9DBEF"/>
<stop offset="0.755208" stop-color="#F5F3E9"/>
<stop offset="1" stop-color="#C9C2A6"/>
</linearGradient>
<radialGradient id="paint4_radial_1227_4730" cx="0" cy="0" r="1" gradientUnits="userSpaceOnUse" gradientTransform="translate(64.4817 29.999) rotate(58.8752) scale(1341.57 15743.8)">
<stop stop-color="#FDAAFF"/>
<stop offset="0.104167" stop-color="#FDEFD2"/>
<stop offset="0.223958" stop-color="#FEFFB9"/>
<stop offset="0.338542" stop-color="#DCD4AD"/>
<stop offset="0.453125" stop-color="#FFFDC1"/>
<stop offset="0.59375" stop-color="#FFE3CA"/>
<stop offset="0.78125" stop-color="#FDFF96"/>
<stop offset="1" stop-color="#D6C0FF"/>
</radialGradient>
<linearGradient id="paint5_linear_1227_4730" x1="521" y1="1078.65" x2="522" y2="1078.65" gradientUnits="userSpaceOnUse">
<stop stop-color="#EBD1FF"/>
<stop offset="0.296875" stop-color="#EFF8D9"/>
<stop offset="0.583333" stop-color="#E9DBEF"/>
<stop offset="0.755208" stop-color="#F5F3E9"/>
<stop offset="1" stop-color="#C9C2A6"/>
</linearGradient>
<radialGradient id="paint6_radial_1227_4730" cx="0" cy="0" r="1" gradientUnits="userSpaceOnUse" gradientTransform="translate(521.046 923.5) rotate(89.8842) scale(455.112 24.3916)">
<stop stop-color="#FDAAFF"/>
<stop offset="0.104167" stop-color="#FDEFD2"/>
<stop offset="0.223958" stop-color="#FEFFB9"/>
<stop offset="0.338542" stop-color="#DCD4AD"/>
<stop offset="0.453125" stop-color="#FFFDC1"/>
<stop offset="0.59375" stop-color="#FFE3CA"/>
<stop offset="0.78125" stop-color="#FDFF96"/>
<stop offset="1" stop-color="#D6C0FF"/>
</radialGradient>
</defs>
</svg>
