<svg width="264" height="55" viewBox="0 0 264 55" fill="none" xmlns="http://www.w3.org/2000/svg">
<path d="M35.85 11.95L25.11 15.86L18.67 26.25L12.3 15.98L1.49 12.05L14.19 31.79L0 54.25H8.34L18.48 37.7L28.75 54.25H37.08L22.96 32.2299L35.85 11.95Z" fill="#1D1D1B"/>
<path d="M46.7895 33.35C47.9695 28.75 51.5795 25.39 56.9295 25.39C62.0995 25.39 65.6395 28.69 66.6995 33.35H46.7895ZM56.9395 19.28C46.6095 19.28 39.2695 26.87 39.2695 37.2C39.2695 47.53 46.6695 55 57.0595 55C64.3395 55 70.8695 51.39 73.5495 43.74H66.2695C64.6495 47.1 61.2295 48.84 57.1195 48.84C51.3895 48.84 46.9795 45.36 46.4195 39.07H74.2295C74.9195 27.81 67.9495 19.28 56.9395 19.28Z" fill="#1D1D1B"/>
<path d="M112.251 20.03H103.231L88.4206 34.84V20.03H81.3906V54.25H88.4206V38.45L104.541 54.25H113.621L95.5206 36.27L112.251 20.03Z" fill="#1D1D1B"/>
<path d="M132.54 25.82C136.96 25.82 140.75 28.18 142.06 32.48H149.34C147.78 24.2 140.63 19.29 132.54 19.29C122.34 19.29 114.74 26.94 114.74 37.15C114.74 47.35 122.33 55.01 132.47 55.01C140.5 55.01 147.71 50.22 149.33 41.76H142.05C140.74 45.99 136.95 48.48 132.47 48.48C126.31 48.48 121.83 43.81 121.83 37.15C121.84 30.55 126.2 25.82 132.54 25.82Z" fill="#1D1D1B"/>
<path d="M159.99 40.32C158.93 46.67 157.5 48.47 154.2 48.47C153.52 48.47 152.83 48.34 152.15 48.28V54.63C153.27 54.82 154.51 55 155.63 55C161.48 55 165.28 51.14 166.96 40.94L169.2 26.63H180.53V54.26H187.56V20.03H163.23L159.99 40.32Z" fill="#1D1D1B"/>
<path d="M202.43 33.35C203.61 28.75 207.22 25.39 212.57 25.39C217.73 25.39 221.28 28.69 222.34 33.35H202.43ZM212.57 19.28C202.24 19.28 194.9 26.87 194.9 37.2C194.9 47.53 202.3 55 212.7 55C219.98 55 226.51 51.39 229.19 43.74H221.91C220.29 47.1 216.87 48.84 212.76 48.84C207.04 48.84 202.62 45.36 202.06 39.07H229.87C230.55 27.81 223.58 19.28 212.57 19.28Z" fill="#1D1D1B"/>
<path d="M251.9 20.03H233.67V26.63H244.87V54.25H251.9V26.63H263.03V20.03H251.9Z" fill="#1D1D1B"/>
<path d="M35.9099 6.5L18.5399 0L1.16992 6.5L18.5399 12.83L35.9099 6.5Z" fill="#136EF6"/>
</svg>
