<svg width="80" height="80" viewBox="0 0 80 80" fill="none" xmlns="http://www.w3.org/2000/svg">
<g id="Bots" clip-path="url(#clip0_1_9778)">
<g id="Group">
<g id="Group_2">
<path id="Vector" d="M21.8145 45.514C21.8145 45.514 22.5725 54.826 29.7805 59.33C36.9885 63.832 43.9825 63.516 49.4145 61.868C54.8465 60.22 58.5045 55.314 59.7085 53.048C60.9125 50.784 61.2945 47.744 61.3265 46.042L60.9005 46.162C60.9005 46.162 56.3725 49.144 52.4465 49.978C52.4465 49.978 50.2745 53.602 50.1025 53.602C49.9305 53.602 49.1965 53.602 49.1965 53.602L48.9765 54.032C48.9765 54.032 47.9005 57.494 46.7725 58.71L35.1225 58.548C35.1225 58.548 32.7665 56.466 32.3285 53.272L31.9485 52.72L30.2625 51.872L28.7585 49.07C28.7585 49.07 22.2725 45.282 22.2265 45.266C22.1805 45.252 22.0145 45.264 21.9505 45.266C21.8865 45.268 21.8145 45.514 21.8145 45.514Z" fill="url(#paint0_linear_1_9778)"/>
<g id="Group_3">
<path id="Vector_2" d="M47.8293 22.27C45.5093 21.182 43.6553 20.832 42.0373 20.832C40.5513 20.832 39.2653 21.126 37.9993 21.416C34.7193 22.168 31.8653 24.038 29.9593 26.684C28.3733 28.884 27.5593 31.4 27.5393 34.162C27.5233 36.294 28.2233 38.086 29.6153 39.488C32.7553 42.652 38.8113 43.316 43.3393 43.316C46.2853 43.316 55.9273 42.816 56.3013 36.372C56.6313 30.75 52.9873 24.686 47.8293 22.27Z" fill="#242459"/>
</g>
<path id="Vector_3" d="M43.2423 17.3921C40.0423 17.3921 36.3603 18.8321 32.8763 21.4481C29.4963 23.9861 26.5863 27.3881 24.6803 31.0301C21.0243 38.0201 21.8763 44.2621 21.9563 44.7921C23.5923 46.2921 28.7023 49.0421 28.7543 49.0701C28.7723 49.0801 28.7883 49.0941 28.7983 49.1121L30.4023 51.8981L32.2483 52.8801C32.4103 52.1181 33.0643 49.1821 33.6723 48.7761C34.3703 48.3101 45.0163 48.4061 46.4723 48.8921C47.9403 49.3821 48.9943 52.8921 49.1643 53.4901H50.0663C50.2883 53.2501 51.5723 51.1961 52.3543 49.9201C52.3703 49.8961 52.3943 49.8781 52.4223 49.8701C56.8663 48.7981 60.8543 46.0701 61.3083 45.7541C61.8123 37.5641 58.7303 29.0721 53.0603 23.0321C49.7943 19.5541 46.0323 17.3921 43.2423 17.3921ZM56.5223 36.3861C56.1363 43.0221 46.3343 43.5381 43.3403 43.5381C38.7723 43.5381 32.6543 42.8621 29.4603 39.6461C28.0243 38.2001 27.3043 36.3541 27.3203 34.1641C27.3403 31.3561 28.1683 28.7981 29.7803 26.5601C31.7183 23.8701 34.6183 21.9681 37.9503 21.2061C40.5063 20.6201 43.4043 19.9561 47.9223 22.0741C50.4403 23.2541 52.6983 25.3301 54.2783 27.9221C55.8903 30.5581 56.6863 33.5641 56.5223 36.3861Z" fill="url(#paint1_linear_1_9778)"/>
<g id="Group_4">
<path id="Vector_4" d="M35.1295 58.4641C35.1315 58.4661 35.1315 58.4681 35.1335 58.4701C35.1355 58.4721 35.1375 58.4721 35.1395 58.4741C35.4335 58.8161 46.5755 59.0061 46.5795 58.9981L46.5815 58.9961C46.5815 58.9961 46.5815 58.9941 46.5835 58.9941C46.6015 58.9701 48.2955 56.5601 48.9675 53.6041C48.8735 53.2661 47.8055 49.5701 46.4035 49.1021C45.6375 48.8481 42.5115 48.7121 39.7495 48.6921C36.6195 48.6681 34.0595 48.7841 33.7955 48.9621C33.3035 49.2901 32.6515 52.0161 32.4375 53.0581C32.4875 56.0761 35.1035 58.4401 35.1295 58.4641Z" fill="#F58736"/>
</g>
<g id="Group_5" opacity="0.25">
<path id="Vector_5" d="M29.3453 52.932C29.4013 53.004 32.3773 54.3 32.3773 54.3C32.2893 53.92 32.2333 53.522 32.2213 53.114L30.2733 52.078C30.2553 52.068 30.2393 52.054 30.2293 52.036L28.6253 49.25C28.2913 49.07 24.0533 46.484 22.0273 45.144C22.1033 45.454 21.9913 46.148 22.1953 46.87C22.1953 46.87 27.0433 49.466 27.8093 49.934C28.5753 50.402 29.2873 52.862 29.3453 52.932Z" fill="#454E7A"/>
</g>
<g id="Group_6" opacity="0.25">
<path id="Vector_6" d="M51.1171 54.3139C51.1731 54.2419 52.6251 51.1939 53.4611 50.8619C54.3211 50.5199 60.8331 47.8679 61.2811 47.6879C61.5031 46.9979 61.2431 46.2359 61.3271 45.9419C59.6591 46.9219 55.3771 49.3779 52.5171 50.0739C50.2911 53.7119 50.1771 53.7119 50.1031 53.7119H49.1671C49.0831 54.0779 48.9811 54.4339 48.8711 54.7779C48.8731 54.7759 51.0591 54.3859 51.1171 54.3139Z" fill="#454E7A"/>
</g>
<g id="Group_7" opacity="0.25">
<path id="Vector_7" d="M35.5393 57.9301C36.1633 58.7161 37.1293 58.5061 38.1273 58.6161L40.6733 58.5901L43.9133 58.7021C44.9453 58.6681 45.7293 58.9161 46.2473 58.0221C46.4693 57.6381 46.7013 57.2741 46.8653 56.9361C47.5913 55.4281 47.9413 54.5421 48.1293 53.1621C48.1293 53.1621 47.1373 55.4321 45.2033 56.7661C43.2693 58.1021 40.7033 57.7801 40.7033 57.7801C40.7033 57.7801 38.1213 57.9081 36.1873 56.5721C34.2533 55.2361 33.2773 53.1621 33.2773 53.1621C33.4653 54.5441 34.1393 55.7941 34.8433 56.9361C35.0453 57.2641 35.2773 57.6001 35.5393 57.9301Z" fill="#454E7A"/>
</g>
<g id="Group_8" opacity="0.25">
<path id="Vector_8" d="M51.9369 48.8478L60.2069 44.9898C60.2349 44.3878 60.1469 42.6558 60.1469 42.6558C58.7649 43.7858 54.6629 45.5298 54.6629 45.5298L54.5849 44.5578C54.5449 44.0738 54.0029 43.8158 53.5989 44.0838C48.8229 47.2478 41.6849 47.1358 41.6849 47.1358C41.6849 47.1358 34.5469 47.2478 29.7709 44.0838C29.3669 43.8158 28.8229 44.0738 28.7849 44.5578L28.7069 45.5298C28.7069 45.5298 24.6049 43.7878 23.2229 42.6558C23.2229 42.6558 22.7389 43.6138 22.7689 44.2158L29.5049 48.1438L30.9409 51.1278L32.4829 51.8818C32.7669 50.7178 33.2349 49.0738 33.6789 48.7778C34.3769 48.3118 45.0229 48.4078 46.4789 48.8938C47.6189 49.2738 48.5089 51.4758 48.9289 52.7218L49.8749 52.6018L51.9369 48.8478Z" fill="#242459"/>
</g>
<g id="Group_9" opacity="0.4">
<path id="Vector_9" d="M25.6104 51.3959C25.8224 51.5299 27.1144 51.8619 27.1704 51.9359C27.2264 52.0099 28.3744 53.8599 28.9304 54.4279C28.9304 54.4279 27.6604 51.5759 27.5924 51.4979C27.5264 51.4199 24.9844 50.6059 24.9844 50.6619C24.9844 50.7179 25.3984 51.2619 25.6104 51.3959Z" fill="white"/>
</g>
<g id="Group_10" opacity="0.4">
<path id="Vector_10" d="M55.1448 51.936C55.2008 51.862 56.4928 51.53 56.7048 51.396C56.9168 51.262 57.3288 50.716 57.3288 50.66C57.3288 50.604 54.7888 51.418 54.7208 51.496C54.6548 51.574 53.3828 54.426 53.3828 54.426C53.9428 53.858 55.0908 52.01 55.1448 51.936Z" fill="white"/>
</g>
<g id="Group_11" opacity="0.4">
<path id="Vector_11" d="M48.551 52.334C48.327 51.388 47.197 50.028 46.875 49.372C46.789 49.22 46.701 49.088 46.615 48.984C46.605 48.976 46.595 48.966 46.585 48.96C46.413 48.846 45.271 48.756 43.631 48.714C42.717 48.7 41.733 48.692 40.887 48.688C40.803 48.688 40.717 48.688 40.631 48.69C40.485 48.692 40.337 48.692 40.191 48.694C40.043 48.692 39.897 48.69 39.751 48.69C39.665 48.69 39.581 48.688 39.495 48.688C38.647 48.692 37.663 48.698 36.751 48.714C35.113 48.756 33.969 48.846 33.797 48.96C33.787 48.966 33.777 48.976 33.767 48.984C33.681 49.088 33.593 49.218 33.507 49.372C33.187 50.028 32.849 51.278 32.625 52.224C32.625 52.328 32.635 52.412 32.659 52.472C32.659 52.472 34.193 49.606 34.301 49.552C34.361 49.522 36.677 49.526 38.699 49.534V49.552C38.699 49.552 45.689 49.592 46.173 49.946C46.833 50.43 48.719 53.162 48.719 53.162C48.743 53.102 48.551 52.436 48.551 52.334Z" fill="white"/>
</g>
<g id="Group_12" opacity="0.25">
<path id="Vector_12" d="M36.748 48.7139C37.662 48.6999 38.646 48.6919 39.492 48.6879C38.494 48.6839 37.56 48.6939 36.748 48.7139Z" fill="#454E7A"/>
</g>
<g id="Group_13" opacity="0.4">
<path id="Vector_13" d="M36.748 48.7139C37.662 48.6999 38.646 48.6919 39.492 48.6879C38.494 48.6839 37.56 48.6939 36.748 48.7139Z" fill="white"/>
</g>
<g id="Group_14" opacity="0.4">
<path id="Vector_14" d="M27.0852 33.0781C27.0852 33.0781 25.6632 36.9261 28.9312 40.1481C32.1992 43.3701 36.4752 44.5301 44.1272 44.3461C51.7792 44.1621 54.9612 42.2841 56.4332 39.5101C57.9052 36.7361 56.4332 33.1441 56.4332 33.1441C56.4332 33.1441 57.8312 38.4601 53.1012 41.2381C48.3712 44.0161 39.3832 44.1741 33.2312 41.8761C27.0772 39.5801 27.3152 34.6141 27.0852 33.0781Z" fill="white"/>
</g>
<path id="Vector_15" d="M37.7027 30.1332C37.8994 28.4079 37.3097 26.9239 36.3857 26.8185C35.4616 26.7132 34.5529 28.0263 34.3562 29.7516C34.1595 31.4769 34.7491 32.9609 35.6732 33.0663C36.5973 33.1717 37.5059 31.8585 37.7027 30.1332Z" fill="#F58736"/>
<g id="Group_15">
<path id="Vector_16" d="M50.0601 31.1142C50.2568 29.3889 49.6672 27.9049 48.7431 27.7995C47.819 27.6941 46.9104 29.0073 46.7136 30.7326C46.5169 32.4578 47.1065 33.9419 48.0306 34.0472C48.9547 34.1526 49.8634 32.8394 50.0601 31.1142Z" fill="#F58736"/>
</g>
<g id="Group_16" opacity="0.4">
<path id="Vector_17" d="M32.127 54.542C32.127 54.542 33.807 58.998 34.735 59.274C35.665 59.55 47.0589 59.612 47.0589 59.612C47.0589 59.612 48.3589 57.928 48.719 55.764C48.719 55.764 46.669 58.678 46.531 58.7C46.393 58.722 35.121 58.548 35.121 58.548L32.127 54.542Z" fill="white"/>
</g>
<g id="Group_17" opacity="0.25">
<path id="Vector_18" d="M23.2364 50.4717C23.2364 50.4717 29.4324 61.3637 41.6344 61.3637C53.8364 61.3637 60.1124 51.8697 60.1124 51.8697C60.1124 51.8697 56.7324 62.9417 42.6024 62.9417C28.4724 62.9417 24.2904 53.9457 23.2344 50.6557" fill="#242459"/>
</g>
<g id="Group_18">
<g id="Group_19">
<path id="Vector_19" d="M50.103 53.9497H49.081C48.923 53.9497 48.785 53.8437 48.743 53.6917C48.333 52.1797 47.315 49.6577 46.327 49.3277C44.823 48.8257 34.733 48.8337 33.919 49.1657C33.603 49.4157 33.021 51.3977 32.669 53.1157C32.647 53.2237 32.575 53.3157 32.475 53.3617C32.375 53.4097 32.259 53.4057 32.161 53.3537L30.157 52.2877C30.099 52.2577 30.051 52.2097 30.019 52.1537L28.449 49.4257C27.733 49.0377 23.165 46.5437 21.615 45.1017C21.559 45.0497 21.521 44.9817 21.509 44.9057C21.461 44.6357 20.397 38.2237 24.271 30.8157C26.207 27.1137 29.165 23.6557 32.597 21.0777C36.159 18.4037 39.939 16.9297 43.239 16.9297C46.195 16.9297 49.991 19.0917 53.391 22.7157C56.013 25.5097 58.171 28.9317 59.633 32.6157C61.329 36.8897 62.045 41.3377 61.759 45.8337C61.753 45.9377 61.699 46.0337 61.615 46.0957C61.443 46.2197 57.393 49.1037 52.667 50.2797C52.495 50.5577 52.059 51.2697 51.615 51.9717C50.377 53.9497 50.341 53.9497 50.103 53.9497ZM49.345 53.2517H49.951C50.275 52.8157 51.391 51.0357 52.151 49.7957C52.199 49.7157 52.277 49.6597 52.367 49.6377C56.547 48.6297 60.325 46.1377 61.077 45.6237C61.541 37.5337 58.485 29.1617 52.887 23.1957C49.665 19.7637 45.971 17.6317 43.245 17.6317C40.095 17.6317 36.465 19.0557 33.023 21.6397C29.671 24.1557 26.785 27.5317 24.895 31.1417C21.411 37.7997 22.061 43.7777 22.185 44.6737C23.863 46.1637 28.821 48.8337 28.873 48.8597C28.931 48.8897 28.979 48.9377 29.011 48.9937L30.581 51.7197L32.087 52.5197C32.351 51.3177 32.933 48.9857 33.545 48.5777C34.069 48.2277 38.063 48.2197 39.757 48.2317C42.473 48.2517 45.685 48.3757 46.553 48.6657C48.031 49.1597 49.055 52.2677 49.345 53.2517Z" fill="#242459"/>
</g>
<g id="Group_20">
<path id="Vector_20" d="M45.8585 59.0598C41.2725 59.0598 35.1125 58.8958 35.0465 58.8938C34.9645 58.8918 34.8845 58.8598 34.8245 58.8058C34.7105 58.7038 32.0225 56.2798 31.9785 53.0498C31.9765 52.8558 32.1305 52.6978 32.3225 52.6958C32.3245 52.6958 32.3265 52.6958 32.3265 52.6958C32.5165 52.6958 32.6725 52.8498 32.6765 53.0398C32.7125 55.6418 34.7425 57.7558 35.1985 58.1978C36.1785 58.2238 42.3325 58.3758 46.5945 58.3578C46.9505 57.8598 48.1805 56.0078 48.7405 53.5218C48.7825 53.3338 48.9685 53.2158 49.1585 53.2578C49.3465 53.2998 49.4645 53.4878 49.4225 53.6758C48.7305 56.7438 47.1165 58.8338 47.0485 58.9218C46.9825 59.0058 46.8825 59.0558 46.7745 59.0558C46.4785 59.0598 46.1705 59.0598 45.8585 59.0598Z" fill="#021168"/>
</g>
<g id="Group_21">
<path id="Vector_21" d="M43.3403 43.7757C38.7263 43.7757 32.5423 43.0877 29.2903 39.8117C27.8083 38.3177 27.0643 36.4157 27.0803 34.1577C27.1003 31.2997 27.9443 28.6937 29.5863 26.4157C31.5583 23.6797 34.5103 21.7437 37.8963 20.9677C40.4903 20.3737 43.4303 19.6997 48.0243 21.8517C50.5843 23.0517 52.8783 25.1617 54.4843 27.7917C56.1203 30.4717 56.9283 33.5277 56.7623 36.3977C56.6023 39.1377 54.9023 41.1637 51.7103 42.4217C48.7223 43.5997 45.1823 43.7757 43.3403 43.7757ZM38.0543 21.6497C34.8323 22.3877 32.0263 24.2257 30.1543 26.8257C28.5983 28.9857 27.8003 31.4537 27.7803 34.1657C27.7663 36.2297 28.4403 37.9657 29.7863 39.3217C32.8683 42.4257 38.8583 43.0777 43.3403 43.0777C46.2323 43.0777 55.7003 42.5937 56.0643 36.3597C56.3863 30.8297 52.8023 24.8657 47.7283 22.4877C43.3523 20.4357 40.6583 21.0537 38.0543 21.6497Z" fill="#242459"/>
</g>
<g id="Group_22">
<path id="Vector_22" d="M41.5822 63.3179C35.8822 63.3179 30.9642 61.3979 26.9022 57.5739C24.2782 55.1039 22.9502 51.7779 22.3002 49.4239C21.5962 46.8799 21.5102 44.9439 21.5062 44.8619C21.4982 44.6699 21.6482 44.5059 21.8402 44.4979C22.0302 44.4899 22.1962 44.6399 22.2042 44.8319C22.2082 44.9079 22.5802 52.5459 27.3802 57.0639C32.8862 62.2459 40.0382 63.8099 48.6362 61.7119C56.3062 59.8399 61.0602 52.0019 61.0642 45.8119C61.0642 45.6199 61.2202 45.4619 61.4142 45.4619C61.6082 45.4619 61.7642 45.6179 61.7642 45.8119C61.7622 49.1539 60.4782 52.8219 58.2402 55.8719C55.8122 59.1839 52.4602 61.4999 48.8042 62.3919C46.2742 63.0099 43.8642 63.3179 41.5822 63.3179Z" fill="#242459"/>
</g>
</g>
<g id="Group_23">
<g id="Group_24">
<path id="Vector_23" d="M56.1327 15.8799C56.3447 15.3659 56.3467 14.8599 56.1387 14.3699C55.7607 13.4839 54.8007 12.9039 54.2487 12.7319C53.5387 12.5079 52.8447 12.9019 52.5547 13.1019C53.8267 13.7879 55.0447 14.6939 56.1327 15.8799Z" fill="#F58736"/>
</g>
<g id="Group_25">
<path id="Vector_24" d="M27.5375 25.5497C27.8175 25.2977 28.8555 24.4237 30.5995 23.6657C31.9615 23.0737 33.9535 22.4777 36.4655 22.4777C37.3875 22.4777 38.3815 22.5577 39.4375 22.7497C44.2135 23.6117 49.9275 26.4457 54.2515 29.1437C49.7835 23.2857 44.0215 20.3117 39.9195 18.8417C35.3495 17.2037 31.8015 17.0297 31.7675 17.0277C31.7675 17.0277 31.7675 17.0277 31.7655 17.0277C31.7155 17.0237 26.8035 16.7517 25.7935 19.4017C24.8355 21.9157 26.0535 24.2117 27.5375 25.5497Z" fill="#535580"/>
</g>
<g id="Group_26">
<path id="Vector_25" d="M52.8997 18.5678C53.1777 21.3898 51.0497 24.4098 50.6637 24.9318C52.1017 26.2218 53.4957 27.7238 54.7757 29.4718C56.7957 30.7618 58.4737 31.9998 59.5497 32.9538C59.8957 31.9438 61.6597 26.0018 58.1357 19.1558C57.5437 18.0058 56.8557 17.0198 56.1017 16.1738C56.0877 16.1638 56.0757 16.1518 56.0677 16.1358C54.9377 14.8778 53.6597 13.9338 52.3257 13.2318C52.3017 13.2278 52.2797 13.2178 52.2637 13.1998C50.7877 12.4318 49.2457 11.9558 47.7617 11.6738C49.2317 12.4518 52.4397 14.5878 52.8997 18.5678Z" fill="#535580"/>
</g>
<g id="Group_27">
<path id="Vector_26" d="M50.5098 24.9178C50.9058 24.3738 52.9578 21.4018 52.6938 18.7238C52.1338 13.8838 47.3838 11.8378 46.9858 11.6738C44.5858 11.3198 42.4038 11.4458 40.9918 11.6138C39.7518 11.7618 38.5898 12.0918 37.5378 12.5958C34.5938 14.0058 32.5318 16.3258 32.0078 16.9538C32.8438 17.0178 36.0418 17.3438 40.0018 18.7638C43.0018 19.8378 46.8838 21.7118 50.5098 24.9178Z" fill="#F58736"/>
</g>
<g id="Group_28" opacity="0.25">
<path id="Vector_27" d="M27.8542 19.556C25.9022 21.684 27.7002 24.302 28.2422 24.994C28.7682 24.616 29.5582 24.122 30.6022 23.666C31.9642 23.074 33.9562 22.478 36.4682 22.478C37.3902 22.478 38.3842 22.558 39.4402 22.75C42.9642 23.386 47.0002 25.096 50.6122 27.034C51.3082 27.398 51.6922 27.626 51.6922 27.626C44.1102 19.494 30.1242 17.078 27.8542 19.556Z" fill="#242459"/>
</g>
<g id="Group_29" opacity="0.25">
<path id="Vector_28" d="M48.0579 13.1899C48.0579 15.0939 44.5339 18.3619 40.4139 17.3099C36.2939 16.2579 36.5779 13.9559 36.5779 13.9559C34.4039 15.0659 32.9219 16.9179 32.9219 16.9179C34.3359 17.0939 36.9359 17.5379 39.9899 18.6319C42.7999 19.6379 46.3859 21.3479 49.8099 24.1959C50.5439 23.1679 51.6899 21.2819 51.6899 19.1019C51.3139 14.8099 48.0579 13.1899 48.0579 13.1899Z" fill="#242459"/>
</g>
<g id="Group_30" opacity="0.25">
<path id="Vector_29" d="M59.1701 24.7859C59.1701 24.7859 58.4601 25.2959 56.2941 24.3299C54.1281 23.3639 52.9181 20.3939 52.9181 20.3939C52.8841 20.3639 52.8201 20.4459 52.7421 20.5879C52.2581 22.6899 50.9581 24.5339 50.6621 24.9319C52.1001 26.2219 53.4941 27.7239 54.7741 29.4719C56.4161 30.5199 57.8301 31.5339 58.8801 32.3879C60.1001 28.7959 59.1701 24.7859 59.1701 24.7859Z" fill="#242459"/>
</g>
<g id="Group_31" opacity="0.25">
<path id="Vector_30" d="M55.8755 14.8818C55.7475 14.4718 54.8355 13.8218 54.2975 13.5978C53.8875 13.4278 53.5115 13.5178 53.3555 13.5698C54.2355 14.1218 55.0795 14.7918 55.8635 15.5978C55.9095 15.4678 55.9675 15.1798 55.8755 14.8818Z" fill="#454E7A"/>
</g>
<g id="Group_32" opacity="0.4">
<path id="Vector_31" d="M28.5222 17.9917C31.5902 16.9637 42.7262 19.2077 48.5142 23.4497C45.4782 21.1637 42.3982 19.7277 39.9242 18.8397C35.3542 17.2017 31.8062 17.0277 31.7722 17.0257C31.7722 17.0257 31.7722 17.0257 31.7702 17.0257C31.7202 17.0217 26.8082 16.7497 25.7982 19.3997C25.2622 20.8037 25.4062 22.1377 25.8942 23.2777C25.8322 22.2017 25.8662 18.8817 28.5222 17.9917Z" fill="white"/>
</g>
<g id="Group_33" opacity="0.4">
<path id="Vector_32" d="M56.9257 18.2758C58.6137 20.8378 59.5897 23.4018 60.0077 24.6518C59.7057 22.9518 59.1317 21.0898 58.1357 19.1558C57.5437 18.0058 56.8557 17.0198 56.1017 16.1738C56.0877 16.1638 56.0757 16.1518 56.0677 16.1358C54.9377 14.8778 53.6597 13.9338 52.3257 13.2318C52.3017 13.2278 52.2797 13.2178 52.2637 13.1998C50.7877 12.4318 49.2457 11.9558 47.7617 11.6738C48.2597 11.9378 48.9577 12.3578 49.6797 12.9518C50.3397 13.2018 54.7477 14.9738 56.9257 18.2758Z" fill="white"/>
</g>
<g id="Group_34">
<g id="Group_35">
<path id="Vector_33" d="M59.5955 33.4939C59.5095 33.4939 59.4255 33.4619 59.3615 33.4039C56.6855 30.9819 47.1295 24.6039 39.3575 23.2019C35.5555 22.5159 32.6135 23.2979 30.8155 24.0739C28.8615 24.9179 27.7955 25.9399 27.7855 25.9499C27.6555 26.0759 27.4495 26.0819 27.3115 25.9619C25.6775 24.5319 24.3075 22.0139 25.3675 19.2379C26.3915 16.5539 30.6575 16.5319 31.6135 16.5619C32.1195 15.9459 34.2195 13.5379 37.3275 12.0499C38.4255 11.5239 39.6355 11.1799 40.9255 11.0259C43.3715 10.7339 47.0395 10.6659 50.6375 11.9879C54.1755 13.2899 56.8355 15.6299 58.5435 18.9479C60.6055 22.9519 60.8735 26.6259 60.7335 29.0039C60.5835 31.5879 59.9475 33.2079 59.9215 33.2759C59.8795 33.3819 59.7875 33.4619 59.6755 33.4879C59.6495 33.4919 59.6235 33.4939 59.5955 33.4939ZM36.4655 22.2379C37.4015 22.2379 38.4075 22.3199 39.4795 22.5139C46.5995 23.7979 55.7935 29.4379 59.4295 32.5359C59.6255 31.8859 59.9395 30.6139 60.0355 28.9319C60.1655 26.6479 59.9035 23.1179 57.9195 19.2659C53.7315 11.1339 44.6955 11.2779 41.0055 11.7179C39.7915 11.8619 38.6555 12.1859 37.6255 12.6779C34.2635 14.2879 32.0695 17.1019 32.0475 17.1299C31.9775 17.2219 31.8655 17.2739 31.7495 17.2659C31.7015 17.2619 26.9635 17.0019 26.0155 19.4859C25.1335 21.7999 26.1875 23.9279 27.5395 25.2279C27.9755 24.8619 28.9755 24.1079 30.5015 23.4459C31.8895 22.8439 33.9155 22.2379 36.4655 22.2379Z" fill="#242459"/>
</g>
<g id="Group_36">
<path id="Vector_34" d="M54.7121 29.9217C54.6041 29.9217 54.4981 29.8717 54.4301 29.7777C49.9541 23.6457 44.0341 20.5697 39.8581 19.0717C35.3201 17.4437 31.7941 17.2677 31.7601 17.2657C31.5681 17.2577 31.4181 17.0937 31.4261 16.9017C31.4341 16.7097 31.5981 16.5597 31.7901 16.5677C31.9361 16.5737 35.4361 16.7457 40.0701 18.4057C44.3481 19.9377 50.4081 23.0817 54.9941 29.3657C55.1081 29.5217 55.0741 29.7397 54.9181 29.8537C54.8561 29.8997 54.7841 29.9217 54.7121 29.9217Z" fill="#242459"/>
</g>
<g id="Group_37">
<path id="Vector_35" d="M50.5185 25.2898C50.4445 25.2898 50.3685 25.2658 50.3065 25.2178C50.1545 25.0998 50.1245 24.8798 50.2425 24.7278C50.2665 24.6958 52.7245 21.4658 52.4425 18.6138C51.8785 13.7398 46.9105 11.7718 46.8605 11.7538C46.6805 11.6838 46.5905 11.4818 46.6605 11.3018C46.7305 11.1218 46.9325 11.0318 47.1125 11.0998C47.1685 11.1218 48.4845 11.6318 49.8905 12.7998C51.7625 14.3538 52.8865 16.3398 53.1405 18.5398C53.4505 21.6738 50.9065 25.0138 50.7985 25.1538C50.7265 25.2438 50.6245 25.2898 50.5185 25.2898Z" fill="#242459"/>
</g>
<g id="Group_38">
<path id="Vector_36" d="M56.1642 16.4358C56.1122 16.4358 56.0602 16.4238 56.0102 16.3998C55.8362 16.3138 55.7662 16.1058 55.8522 15.9318C56.1002 15.4298 56.1222 14.9378 55.9202 14.4658C55.5722 13.6538 54.6882 13.1218 54.1802 12.9618C53.3922 12.7138 52.5802 13.3838 52.5722 13.3918C52.4262 13.5178 52.2042 13.4998 52.0802 13.3538C51.9542 13.2078 51.9722 12.9858 52.1182 12.8618C52.1622 12.8238 53.2242 11.9298 54.3902 12.2958C55.1482 12.5338 56.1522 13.2298 56.5642 14.1918C56.8462 14.8498 56.8162 15.5598 56.4802 16.2418C56.4162 16.3638 56.2922 16.4358 56.1642 16.4358Z" fill="#242459"/>
</g>
</g>
</g>
<g id="Group_39">
<path id="Vector_37" d="M40.5195 32.198L42.9075 32.35C43.2695 32.372 43.5035 32.744 43.3655 33.078C43.0975 33.728 42.5515 34.596 41.5655 34.554C40.5695 34.51 40.1455 33.548 39.9715 32.856C39.8835 32.508 40.1615 32.174 40.5195 32.198Z" fill="#F58736"/>
</g>
<g id="Group_40" opacity="0.2">
<path id="Vector_38" d="M42.4895 72.3562C50.8489 72.3562 57.6255 71.7526 57.6255 71.0082C57.6255 70.2637 50.8489 69.6602 42.4895 69.6602C34.1301 69.6602 27.3535 70.2637 27.3535 71.0082C27.3535 71.7526 34.1301 72.3562 42.4895 72.3562Z" fill="#454E7A"/>
</g>
<g id="Group_41">
<g id="Group_42">
<path id="Vector_39" d="M47.7376 36.1299H33.7576C32.2916 36.1299 31.0996 37.3219 31.0996 38.7879V56.0159C31.0996 57.4819 32.2916 58.6739 33.7576 58.6739H47.7376C49.2036 58.6739 50.3956 57.4819 50.3956 56.0159V38.7879C50.3956 37.3219 49.2036 36.1299 47.7376 36.1299Z" fill="#F58736"/>
</g>
<g id="Group_43" opacity="0.25">
<path id="Vector_40" d="M47.582 53.1241C46.86 54.6581 45.036 54.6581 45.036 54.6581H40.746H36.456C36.456 54.6581 34.632 54.6581 33.91 53.1241C33.188 51.5901 32.918 45.7581 32.166 43.7441V56.0121C32.166 56.0121 32.616 57.6661 33.73 57.6661C34.842 57.6661 40.746 57.6661 40.746 57.6661C40.746 57.6661 46.65 57.6661 47.762 57.6661C48.874 57.6661 49.326 56.0121 49.326 56.0121V43.7441C48.574 45.7581 48.304 51.5921 47.582 53.1241Z" fill="#242459"/>
</g>
<g id="Group_44" opacity="0.4">
<path id="Vector_41" d="M47.7376 36.1299H40.7476H33.7576C32.2916 36.1299 31.0996 37.3219 31.0996 38.7879V45.4759L31.3396 45.1139C31.3396 45.1139 32.0756 38.4539 32.0756 38.3499C32.0756 38.2439 32.8876 36.9819 34.1796 36.9819C35.4716 36.9819 40.7456 36.9819 40.7456 36.9819C40.7456 36.9819 46.0176 36.9819 47.3116 36.9819C48.6036 36.9819 49.4156 38.2439 49.4156 38.3499C49.4156 38.4559 50.1516 45.1139 50.1516 45.1139L50.3916 45.4759V38.7879C50.3956 37.3219 49.2036 36.1299 47.7376 36.1299Z" fill="white"/>
</g>
<g id="Group_45">
<path id="Vector_42" d="M40.4211 39.362H42.4851C42.4851 39.362 42.8151 38.774 42.5471 38.556C42.2791 38.34 41.7351 38.294 41.6331 38.246C41.5331 38.198 41.2951 37.48 40.8551 37.444C40.4151 37.408 40.2551 37.502 40.1991 37.568C40.1431 37.634 39.9951 38.082 39.9951 38.082C39.9951 38.082 39.3031 38.282 39.2111 38.34C39.1211 38.398 38.9211 38.878 38.9431 38.918C38.9651 38.958 39.0271 39.126 39.0911 39.184C39.1551 39.242 39.5011 39.364 39.5011 39.364H40.4211V39.362Z" fill="#535580"/>
</g>
<g id="Group_46">
<g id="Group_47">
<path id="Vector_43" d="M47.7368 59.1381H33.7568C32.0348 59.1381 30.6328 57.7361 30.6328 56.0141V38.7861C30.6328 37.0641 32.0348 35.6621 33.7568 35.6621H47.7368C49.4588 35.6621 50.8608 37.0641 50.8608 38.7861V56.0141C50.8608 57.7361 49.4588 59.1381 47.7368 59.1381ZM33.7568 36.3621C32.4208 36.3621 31.3328 37.4501 31.3328 38.7861V56.0141C31.3328 57.3501 32.4208 58.4381 33.7568 58.4381H47.7368C49.0728 58.4381 50.1608 57.3501 50.1608 56.0141V38.7861C50.1608 37.4501 49.0728 36.3621 47.7368 36.3621H33.7568Z" fill="#242459"/>
</g>
<g id="Group_48">
<path id="Vector_44" d="M41.9917 39.7119H39.5037C39.0037 39.7119 38.5957 39.3039 38.5957 38.8039C38.5957 38.3039 39.0037 37.8959 39.5037 37.8959H39.6637C39.7517 37.3779 40.2037 36.9819 40.7477 36.9819C41.2917 36.9819 41.7437 37.3779 41.8317 37.8959H41.9917C42.4917 37.8959 42.8997 38.3039 42.8997 38.8039C42.8997 39.3039 42.4917 39.7119 41.9917 39.7119ZM39.5037 38.5959C39.3897 38.5959 39.2957 38.6899 39.2957 38.8039C39.2957 38.9179 39.3897 39.0119 39.5037 39.0119H41.9917C42.1057 39.0119 42.1997 38.9179 42.1997 38.8039C42.1997 38.6899 42.1057 38.5959 41.9917 38.5959H41.4797C41.3737 38.5959 41.2737 38.5479 41.2077 38.4639C41.1417 38.3799 41.1157 38.2719 41.1397 38.1699C41.1457 38.1399 41.1497 38.1099 41.1497 38.0819C41.1497 37.8619 40.9697 37.6819 40.7497 37.6819C40.5297 37.6819 40.3497 37.8619 40.3497 38.0819C40.3497 38.1099 40.3537 38.1399 40.3597 38.1699C40.3837 38.2739 40.3577 38.3819 40.2917 38.4639C40.2257 38.5459 40.1257 38.5959 40.0197 38.5959H39.5037Z" fill="#242459"/>
</g>
</g>
</g>
<path id="Vector_45" d="M22.085 42.7061C21.693 42.0221 21.561 41.3181 21.519 40.9321C20.591 42.0921 20.177 43.3121 20.041 44.4341C20.421 43.9641 21.179 43.1321 22.085 42.7061Z" fill="url(#paint2_linear_1_9778)"/>
<g id="Group_49">
<path id="Vector_46" d="M29.9335 47.6977C29.6795 48.9137 29.4895 51.0757 30.6255 53.1097C31.5775 53.4817 32.3335 53.3937 32.8695 52.8477C33.7695 51.9297 33.8495 49.8577 33.3215 48.6197C32.6555 47.0537 30.3595 47.5837 29.9335 47.6977Z" fill="#535580"/>
</g>
<path id="Vector_47" d="M29.7149 47.604C29.7149 47.588 29.7189 47.57 29.7249 47.556C29.8089 47.172 29.8969 46.89 29.9449 46.744C28.3629 46.088 27.0789 45.028 26.2229 44.322C25.7289 43.914 25.3389 43.592 25.1329 43.544C24.5709 43.41 23.5749 43.972 23.5109 44.008C23.3969 44.096 20.8489 46.096 20.7069 48.758C20.7069 48.76 20.7049 48.764 20.7049 48.766C20.7049 48.768 20.7049 48.77 20.7049 48.772C20.5009 49.896 21.1649 52.092 21.1729 52.114C21.1769 52.124 22.0169 54.078 25.3149 54.078C25.3629 54.078 25.4109 54.078 25.4589 54.076C28.4349 54.026 29.9929 53.35 30.3829 53.154C29.2409 51.056 29.4529 48.836 29.7149 47.604Z" fill="url(#paint3_linear_1_9778)"/>
<g id="Group_50">
<path id="Vector_48" d="M23.2424 43.9258C22.7904 43.6418 22.4564 43.2818 22.2084 42.9058C21.0924 43.4218 20.1744 44.6298 20.0024 44.8678C19.9104 46.3758 20.2884 47.6558 20.5224 48.2838C20.8624 46.0278 22.7164 44.3578 23.2424 43.9258Z" fill="#F58736"/>
</g>
<g id="Group_51" opacity="0.25">
<path id="Vector_49" d="M33.6333 50.8199C33.6853 50.1659 33.6133 49.4879 33.4353 48.9259L33.3173 48.7539C33.1413 49.5719 30.6073 51.3939 29.8633 50.9579C29.9773 51.5959 30.1833 52.2599 30.5213 52.9159C32.6433 53.0539 33.4193 51.6299 33.6333 50.8199Z" fill="#454E7A"/>
</g>
<g id="Group_52" opacity="0.25">
<path id="Vector_50" d="M20.0005 44.8678C19.9085 46.3758 20.2865 47.6558 20.5205 48.2838C20.6725 47.2778 21.1265 46.3878 21.6285 45.6738C21.2965 45.0158 21.1205 44.3358 21.0345 43.7178C20.4945 44.2098 20.1065 44.7218 20.0005 44.8678Z" fill="#242459"/>
</g>
<g id="Group_53" opacity="0.25">
<path id="Vector_51" d="M21.029 41.6221C20.439 42.5681 20.149 43.5341 20.041 44.4341C20.255 44.1701 20.589 43.7901 21.001 43.4341C20.919 42.6181 20.985 41.9441 21.029 41.6221Z" fill="#242459"/>
</g>
<g id="Group_54" opacity="0.25">
<path id="Vector_52" d="M25.4589 53.5377C27.9189 53.4597 29.6269 52.6237 30.0329 52.4057C29.7269 51.6357 29.5809 50.8677 29.5289 50.1537C29.3949 49.2537 29.6109 48.1797 29.6109 48.1797C29.6109 48.1797 28.2209 50.2797 25.5249 50.7297C23.1189 51.1317 21.0649 49.6577 20.7169 48.6317C20.7129 48.6737 20.7089 48.7157 20.7069 48.7597C20.7069 48.7617 20.7049 48.7657 20.7049 48.7677C20.7049 48.7697 20.7049 48.7717 20.7049 48.7737C20.5009 49.8977 21.1649 52.0937 21.1729 52.1157C21.1749 52.1197 21.3489 52.5217 21.8409 52.9577C22.4269 53.2217 23.5989 53.5957 25.4589 53.5377Z" fill="#242459"/>
</g>
<g id="Group_55" opacity="0.4">
<path id="Vector_53" d="M24.681 44.336C25.019 44.414 27.507 46.504 29.819 47.168C29.869 46.978 29.915 46.834 29.945 46.744C28.363 46.088 27.079 45.028 26.223 44.322C25.729 43.914 25.339 43.592 25.133 43.544C24.571 43.41 23.575 43.972 23.511 44.008C23.471 44.038 23.137 44.302 22.711 44.744L22.041 45.594C22.041 45.596 24.341 44.258 24.681 44.336Z" fill="white"/>
</g>
<g id="Group_56" opacity="0.4">
<path id="Vector_54" d="M22.0845 42.7061C21.6925 42.0221 21.5605 41.3181 21.5185 40.9321C21.4145 41.0601 21.3205 41.1901 21.2285 41.3201C21.2565 41.6581 21.3485 42.3041 21.6405 42.9521C21.7825 42.8621 21.9305 42.7781 22.0845 42.7061Z" fill="white"/>
</g>
<g id="Group_57" opacity="0.4">
<path id="Vector_55" d="M33.0582 48.1901C32.1882 47.1621 30.3122 47.5961 29.9322 47.6981C29.8922 47.8861 29.8562 48.0961 29.8242 48.3261C30.2362 48.2161 32.0722 47.8061 33.0582 48.1901Z" fill="white"/>
</g>
<g id="Group_58" opacity="0.4">
<path id="Vector_56" d="M29.9943 47.442C29.9923 47.44 29.9923 47.438 29.9903 47.436C29.9903 47.438 29.9883 47.44 29.9883 47.442C29.9903 47.444 29.9923 47.442 29.9943 47.442Z" fill="white"/>
</g>
<g id="Group_59" opacity="0.4">
<path id="Vector_57" d="M22.2082 42.9058C22.0482 42.9798 21.8942 43.0678 21.7422 43.1658C21.9722 43.6058 22.2982 44.0318 22.7702 44.3478C22.9682 44.1578 23.1342 44.0158 23.2422 43.9258C22.7882 43.6418 22.4562 43.2818 22.2082 42.9058Z" fill="white"/>
</g>
<g id="Group_60">
<g id="Group_61">
<path id="Vector_58" d="M20.59 49.102C20.46 49.102 20.338 49.0279 20.278 48.9079C20.254 48.8599 19.698 47.7339 19.548 46.1239C19.408 44.6299 19.606 42.424 21.348 40.406C21.444 40.296 21.598 40.256 21.734 40.306C21.87 40.356 21.962 40.4879 21.962 40.6319C21.962 40.6519 21.99 42.6979 23.616 43.6039C23.72 43.6619 23.786 43.768 23.794 43.886C23.802 44.004 23.75 44.118 23.656 44.19C23.63 44.21 21.078 46.1739 20.938 48.7699C20.93 48.9279 20.816 49.0619 20.66 49.0939C20.638 49.0999 20.614 49.102 20.59 49.102ZM21.374 41.516C20.47 42.836 20.088 44.352 20.24 46.036C20.288 46.558 20.382 47.0279 20.486 47.4179C21.014 45.7599 22.236 44.5059 22.86 43.9479C21.92 43.2419 21.534 42.234 21.374 41.516Z" fill="#242459"/>
</g>
<g id="Group_62">
<path id="Vector_59" d="M19.8736 45.1917C19.8056 45.1917 19.7356 45.1717 19.6756 45.1297C19.5176 45.0197 19.4776 44.8017 19.5876 44.6437C19.6336 44.5777 20.7136 43.0317 22.1096 42.4377C22.2876 42.3617 22.4936 42.4457 22.5676 42.6217C22.6436 42.7997 22.5596 43.0037 22.3836 43.0797C21.1716 43.5957 20.1716 45.0257 20.1636 45.0397C20.0936 45.1397 19.9856 45.1917 19.8736 45.1917Z" fill="#242459"/>
</g>
<g id="Group_63">
<path id="Vector_60" d="M25.3106 54.5457C21.6946 54.5457 20.7746 52.3757 20.7366 52.2817C20.7326 52.2717 20.7286 52.2617 20.7266 52.2517C20.6986 52.1577 20.0226 49.9237 20.2466 48.6897C20.2806 48.4997 20.4626 48.3737 20.6526 48.4077C20.8426 48.4417 20.9686 48.6237 20.9346 48.8137C20.7506 49.8297 21.3286 51.8197 21.3906 52.0297C21.4666 52.1977 22.2886 53.8457 25.3126 53.8457C25.3606 53.8457 25.4086 53.8457 25.4566 53.8437C27.9926 53.8017 29.4746 53.2977 30.0646 53.0457C28.7586 50.4437 29.3786 47.7817 29.6586 46.8737C28.1366 46.2017 26.9086 45.1877 26.0766 44.5017C25.6826 44.1757 25.2346 43.8077 25.0806 43.7697C24.7206 43.6837 23.9966 43.9957 23.6246 44.2137C23.4586 44.3117 23.2446 44.2537 23.1466 44.0877C23.0486 43.9217 23.1066 43.7077 23.2726 43.6097C23.3966 43.5377 24.4966 42.9137 25.2426 43.0897C25.5546 43.1637 25.9386 43.4817 26.5206 43.9617C27.4226 44.7057 28.6586 45.7277 30.2226 46.3517C30.4006 46.4237 30.4886 46.6237 30.4186 46.8037C30.4066 46.8357 29.1806 50.0897 30.8486 53.0297C30.9426 53.1937 30.8866 53.4017 30.7266 53.5017C30.6606 53.5417 29.0706 54.4837 25.4706 54.5457C25.4146 54.5457 25.3626 54.5457 25.3106 54.5457Z" fill="#242459"/>
</g>
<g id="Group_64">
<path id="Vector_61" d="M31.6818 53.8021C31.3198 53.8021 30.8978 53.7241 30.4118 53.5281C30.2318 53.4561 30.1458 53.2521 30.2178 53.0741C30.2898 52.8941 30.4938 52.8081 30.6718 52.8801C31.5478 53.2321 32.2298 53.1661 32.7018 52.6841C33.5258 51.8441 33.5958 49.8581 33.1058 48.7101C32.4578 47.1881 29.9558 47.9321 29.9298 47.9401C29.7458 47.9961 29.5498 47.8921 29.4938 47.7081C29.4378 47.5241 29.5398 47.3281 29.7258 47.2721C29.8538 47.2321 32.8558 46.3361 33.7498 48.4361C34.3358 49.8121 34.2558 52.0961 33.2018 53.1721C32.8878 53.4941 32.3978 53.8021 31.6818 53.8021Z" fill="#242459"/>
</g>
</g>
<path id="Vector_62" d="M61.0039 42.7061C61.3959 42.0221 61.5279 41.3181 61.5699 40.9321C62.4979 42.0921 62.9119 43.3121 63.0479 44.4341C62.6679 43.9641 61.9099 43.1321 61.0039 42.7061Z" fill="url(#paint4_linear_1_9778)"/>
<g id="Group_65">
<path id="Vector_63" d="M53.1557 47.6977C53.4097 48.9137 53.5997 51.0757 52.4637 53.1097C51.5117 53.4817 50.7557 53.3937 50.2197 52.8477C49.3197 51.9297 49.2397 49.8577 49.7677 48.6197C50.4337 47.0537 52.7297 47.5837 53.1557 47.6977Z" fill="#535580"/>
</g>
<path id="Vector_64" d="M53.375 47.604C53.375 47.588 53.371 47.57 53.365 47.556C53.281 47.172 53.193 46.89 53.145 46.744C54.727 46.088 56.011 45.028 56.867 44.322C57.361 43.914 57.751 43.592 57.957 43.544C58.519 43.41 59.515 43.972 59.579 44.008C59.693 44.096 62.241 46.096 62.383 48.758C62.383 48.76 62.385 48.764 62.385 48.766C62.385 48.768 62.385 48.77 62.385 48.772C62.589 49.896 61.925 52.092 61.917 52.114C61.913 52.124 61.073 54.078 57.775 54.078C57.727 54.078 57.679 54.078 57.631 54.076C54.655 54.026 53.097 53.35 52.707 53.154C53.849 51.056 53.637 48.836 53.375 47.604Z" fill="url(#paint5_linear_1_9778)"/>
<g id="Group_66">
<path id="Vector_65" d="M59.8457 43.9258C60.2977 43.6418 60.6317 43.2818 60.8797 42.9058C61.9957 43.4218 62.9137 44.6298 63.0857 44.8678C63.1777 46.3758 62.7997 47.6558 62.5657 48.2838C62.2257 46.0278 60.3717 44.3578 59.8457 43.9258Z" fill="#F58736"/>
</g>
<g id="Group_67" opacity="0.25">
<path id="Vector_66" d="M49.456 50.8199C49.404 50.1659 49.476 49.4879 49.654 48.9259L49.772 48.7539C49.948 49.5719 52.482 51.3939 53.226 50.9579C53.112 51.5959 52.906 52.2599 52.568 52.9159C50.446 53.0539 49.67 51.6299 49.456 50.8199Z" fill="#454E7A"/>
</g>
<g id="Group_68" opacity="0.25">
<path id="Vector_67" d="M63.0889 44.8678C63.1809 46.3758 62.8029 47.6558 62.5689 48.2838C62.4169 47.2778 61.9629 46.3878 61.4609 45.6738C61.7929 45.0158 61.9689 44.3358 62.0549 43.7178C62.5949 44.2098 62.9829 44.7218 63.0889 44.8678Z" fill="#242459"/>
</g>
<g id="Group_69" opacity="0.25">
<path id="Vector_68" d="M62.0605 41.6221C62.6505 42.5681 62.9405 43.5341 63.0485 44.4341C62.8345 44.1701 62.5005 43.7901 62.0885 43.4341C62.1705 42.6181 62.1045 41.9441 62.0605 41.6221Z" fill="#242459"/>
</g>
<g id="Group_70" opacity="0.25">
<path id="Vector_69" d="M57.6306 53.5377C55.1706 53.4597 53.4626 52.6237 53.0566 52.4057C53.3626 51.6357 53.5086 50.8677 53.5606 50.1537C53.6946 49.2537 53.4786 48.1797 53.4786 48.1797C53.4786 48.1797 54.8686 50.2797 57.5646 50.7297C59.9706 51.1317 62.0246 49.6577 62.3726 48.6317C62.3766 48.6737 62.3806 48.7157 62.3826 48.7597C62.3826 48.7617 62.3846 48.7657 62.3846 48.7677C62.3846 48.7697 62.3846 48.7717 62.3846 48.7737C62.5886 49.8977 61.9246 52.0937 61.9166 52.1157C61.9146 52.1197 61.7406 52.5217 61.2486 52.9577C60.6626 53.2217 59.4906 53.5957 57.6306 53.5377Z" fill="#242459"/>
</g>
<g id="Group_71" opacity="0.4">
<path id="Vector_70" d="M58.4085 44.336C58.0705 44.414 55.5825 46.504 53.2705 47.168C53.2205 46.978 53.1745 46.834 53.1445 46.744C54.7265 46.088 56.0105 45.028 56.8665 44.322C57.3605 43.914 57.7505 43.592 57.9565 43.544C58.5185 43.41 59.5145 43.972 59.5785 44.008C59.6185 44.038 59.9525 44.302 60.3785 44.744L61.0485 45.594C61.0485 45.596 58.7485 44.258 58.4085 44.336Z" fill="white"/>
</g>
<g id="Group_72" opacity="0.4">
<path id="Vector_71" d="M61.0039 42.7061C61.3959 42.0221 61.5279 41.3181 61.5699 40.9321C61.6739 41.0601 61.7679 41.1901 61.8599 41.3201C61.8319 41.6581 61.7399 42.3041 61.4479 42.9521C61.3059 42.8621 61.1579 42.7781 61.0039 42.7061Z" fill="white"/>
</g>
<g id="Group_73" opacity="0.4">
<path id="Vector_72" d="M50.0312 48.1901C50.9013 47.1621 52.7773 47.5961 53.1573 47.6981C53.1973 47.8861 53.2332 48.0961 53.2652 48.3261C52.8532 48.2161 51.0173 47.8061 50.0312 48.1901Z" fill="white"/>
</g>
<g id="Group_74" opacity="0.4">
<path id="Vector_73" d="M53.0938 47.442C53.0958 47.44 53.0957 47.438 53.0977 47.436C53.0977 47.438 53.0998 47.44 53.0998 47.442C53.0978 47.444 53.0958 47.442 53.0938 47.442Z" fill="white"/>
</g>
<g id="Group_75" opacity="0.4">
<path id="Vector_74" d="M60.8797 42.9058C61.0397 42.9798 61.1937 43.0678 61.3457 43.1658C61.1157 43.6058 60.7897 44.0318 60.3177 44.3478C60.1197 44.1578 59.9537 44.0158 59.8457 43.9258C60.2997 43.6418 60.6317 43.2818 60.8797 42.9058Z" fill="white"/>
</g>
<g id="Group_76">
<g id="Group_77">
<path id="Vector_75" d="M62.4998 49.1018C62.4758 49.1018 62.4518 49.0998 62.4278 49.0938C62.2718 49.0618 62.1578 48.9278 62.1498 48.7698C62.0098 46.1738 59.4578 44.2078 59.4318 44.1898C59.3378 44.1178 59.2858 44.0038 59.2938 43.8858C59.3018 43.7678 59.3698 43.6618 59.4718 43.6058C61.0978 42.6998 61.1258 40.6538 61.1258 40.6338C61.1258 40.4878 61.2178 40.3578 61.3538 40.3078C61.4898 40.2578 61.6438 40.2958 61.7398 40.4078C63.4818 42.4258 63.6798 44.6318 63.5398 46.1258C63.3898 47.7358 62.8318 48.8638 62.8098 48.9098C62.7518 49.0298 62.6298 49.1018 62.4998 49.1018ZM60.2298 43.9478C60.8518 44.5038 62.0758 45.7578 62.6038 47.4178C62.7078 47.0278 62.8018 46.5578 62.8498 46.0358C63.0018 44.3538 62.6218 42.8378 61.7158 41.5158C61.5558 42.2338 61.1698 43.2418 60.2298 43.9478Z" fill="#242459"/>
</g>
<g id="Group_78">
<path id="Vector_76" d="M63.2145 45.192C63.1045 45.192 62.9945 45.14 62.9265 45.042C62.9105 45.02 61.9105 43.596 60.7065 43.082C60.5285 43.006 60.4465 42.802 60.5225 42.624C60.5985 42.446 60.8025 42.364 60.9805 42.44C62.3765 43.034 63.4565 44.58 63.5025 44.646C63.6125 44.804 63.5725 45.022 63.4145 45.132C63.3505 45.172 63.2825 45.192 63.2145 45.192Z" fill="#242459"/>
</g>
<g id="Group_79">
<path id="Vector_77" d="M57.7794 54.5458C57.7274 54.5458 57.6754 54.5458 57.6234 54.5438C54.0214 54.4818 52.4334 53.5418 52.3674 53.4998C52.2054 53.4018 52.1514 53.1938 52.2454 53.0278C53.9134 50.0878 52.6874 46.8358 52.6754 46.8018C52.6054 46.6238 52.6934 46.4218 52.8714 46.3518C54.4334 45.7258 55.6694 44.7058 56.5734 43.9618C57.1554 43.4818 57.5394 43.1638 57.8514 43.0898C58.5974 42.9118 59.6994 43.5378 59.8214 43.6098C59.9874 43.7078 60.0454 43.9218 59.9474 44.0878C59.8494 44.2538 59.6354 44.3098 59.4694 44.2138C59.0974 43.9978 58.3714 43.6858 58.0134 43.7718C57.8594 43.8078 57.4134 44.1778 57.0174 44.5038C56.1874 45.1898 54.9594 46.2038 53.4354 46.8758C53.7154 47.7858 54.3334 50.4458 53.0294 53.0478C53.6194 53.2998 55.0994 53.8038 57.6374 53.8458C60.7714 53.9038 61.6194 52.2118 61.7034 52.0298C61.7654 51.8178 62.3434 49.8298 62.1594 48.8138C62.1254 48.6238 62.2514 48.4418 62.4414 48.4078C62.6314 48.3738 62.8134 48.4998 62.8474 48.6898C63.0694 49.9238 62.3954 52.1578 62.3674 52.2518C62.3634 52.2618 62.3614 52.2718 62.3574 52.2818C62.3154 52.3758 61.3934 54.5458 57.7794 54.5458Z" fill="#242459"/>
</g>
<g id="Group_80">
<path id="Vector_78" d="M51.4073 53.8016C50.6893 53.8016 50.2013 53.4936 49.8873 53.1736C48.8333 52.0976 48.7513 49.8136 49.3393 48.4376C50.2333 46.3376 53.2353 47.2336 53.3633 47.2736C53.5473 47.3296 53.6513 47.5256 53.5953 47.7096C53.5393 47.8936 53.3433 47.9976 53.1593 47.9416C53.1273 47.9316 50.6313 47.1916 49.9833 48.7116C49.4953 49.8596 49.5653 51.8436 50.3873 52.6856C50.8593 53.1676 51.5413 53.2336 52.4173 52.8816C52.5973 52.8096 52.7993 52.8956 52.8713 53.0756C52.9433 53.2556 52.8573 53.4576 52.6773 53.5296C52.1913 53.7216 51.7693 53.8016 51.4073 53.8016Z" fill="#242459"/>
</g>
</g>
<g id="Group_81">
<g id="Group_82">
<path id="Vector_79" d="M20.6411 22.0341C21.1371 21.2221 21.3831 20.2461 21.2771 19.2261C21.0231 16.7481 18.8091 14.9481 16.3311 15.2021C13.8531 15.4561 12.0531 17.6701 12.3071 20.1481C12.5611 22.6261 14.7751 24.4261 17.2531 24.1721C17.9411 24.1021 18.5791 23.8781 19.1331 23.5421L21.2191 24.0101L20.6411 22.0341Z" fill="white"/>
</g>
<g id="Group_83" opacity="0.5">
<g id="Group_84">
<path id="Vector_80" d="M16.4213 16.064C18.7353 15.826 20.8193 17.384 21.2913 19.608C21.2913 19.45 21.2853 19.288 21.2693 19.128C21.0133 16.65 18.7993 14.848 16.3213 15.102C13.8433 15.356 12.0433 17.57 12.2973 20.048C12.3133 20.21 12.3393 20.37 12.3733 20.526C12.3813 18.25 14.1053 16.302 16.4213 16.064Z" fill="white"/>
</g>
</g>
<g id="Group_85">
<path id="Vector_81" d="M16.7886 24.5921C14.3066 24.5921 12.1726 22.7081 11.9126 20.1881C11.6366 17.4981 13.6006 15.0841 16.2906 14.8081C18.9826 14.5321 21.3946 16.4961 21.6706 19.1861C21.7746 20.2041 21.5666 21.2021 21.0686 22.0881L21.5986 23.8981C21.6386 24.0321 21.6026 24.1781 21.5066 24.2801C21.4106 24.3821 21.2686 24.4261 21.1306 24.3961L19.1966 23.9621C18.6086 24.2941 17.9686 24.4961 17.2906 24.5661C17.1226 24.5841 16.9546 24.5921 16.7886 24.5921ZM16.7946 15.5741C16.6546 15.5741 16.5146 15.5821 16.3706 15.5961C14.1166 15.8281 12.4706 17.8501 12.7006 20.1061C12.9326 22.3621 14.9566 24.0081 17.2106 23.7761C17.8246 23.7121 18.4006 23.5201 18.9246 23.2001C19.0126 23.1461 19.1166 23.1301 19.2166 23.1521L20.6466 23.4721L20.2566 22.1441C20.2246 22.0361 20.2406 21.9221 20.2986 21.8261C20.7706 21.0541 20.9726 20.1681 20.8786 19.2641C20.6646 17.1521 18.8746 15.5741 16.7946 15.5741Z" fill="#242459"/>
</g>
<g id="Group_86" opacity="0.3">
<path id="Vector_82" d="M20.6652 21.9922C19.4312 23.0362 17.7292 23.4942 16.0392 23.0742C14.1652 22.6082 12.7852 21.1802 12.2892 19.4502C12.2772 19.6802 12.2832 19.9122 12.3072 20.1482C12.5612 22.6262 14.7752 24.4262 17.2532 24.1722C17.9412 24.1022 18.5792 23.8782 19.1332 23.5422L21.2192 24.0102L20.6412 22.0362C20.6492 22.0202 20.6572 22.0062 20.6652 21.9922Z" fill="#242459"/>
</g>
<g id="Group_87">
<path id="Vector_83" d="M18.2326 18.42C17.8426 18.03 17.2106 18.1 16.8206 18.49L16.7606 18.55L16.7006 18.49C16.3106 18.1 15.6786 18.03 15.2886 18.42C14.8986 18.81 14.8986 19.442 15.2886 19.832L15.3486 19.892L16.5746 21.118C16.6766 21.22 16.8446 21.22 16.9466 21.118L18.1726 19.892L18.2326 19.832C18.6246 19.444 18.6246 18.81 18.2326 18.42Z" fill="#FF0068"/>
</g>
</g>
</g>
</g>
</g>
<defs>
<linearGradient id="paint0_linear_1_9778" x1="41.5713" y1="45.2603" x2="41.5713" y2="62.9818" gradientUnits="userSpaceOnUse">
<stop stop-color="white"/>
<stop offset="1" stop-color="#B5B8DC"/>
</linearGradient>
<linearGradient id="paint1_linear_1_9778" x1="41.5879" y1="17.3919" x2="41.5879" y2="53.4907" gradientUnits="userSpaceOnUse">
<stop stop-color="white"/>
<stop offset="1" stop-color="#B5B8DC"/>
</linearGradient>
<linearGradient id="paint2_linear_1_9778" x1="20.0409" y1="42.6829" x2="22.0848" y2="42.6829" gradientUnits="userSpaceOnUse">
<stop stop-color="white"/>
<stop offset="1" stop-color="#B5B8DC"/>
</linearGradient>
<linearGradient id="paint3_linear_1_9778" x1="20.6672" y1="48.8018" x2="30.3836" y2="48.8018" gradientUnits="userSpaceOnUse">
<stop stop-color="white"/>
<stop offset="1" stop-color="#B5B8DC"/>
</linearGradient>
<linearGradient id="paint4_linear_1_9778" x1="63.048" y1="42.6829" x2="61.0041" y2="42.6829" gradientUnits="userSpaceOnUse">
<stop stop-color="white"/>
<stop offset="1" stop-color="#B5B8DC"/>
</linearGradient>
<linearGradient id="paint5_linear_1_9778" x1="62.4228" y1="48.8018" x2="52.7063" y2="48.8018" gradientUnits="userSpaceOnUse">
<stop stop-color="white"/>
<stop offset="1" stop-color="#B5B8DC"/>
</linearGradient>
<clipPath id="clip0_1_9778">
<rect width="80" height="80" fill="white"/>
</clipPath>
</defs>
</svg>
