<svg width="162" height="162" viewBox="0 0 162 162" fill="none" xmlns="http://www.w3.org/2000/svg">
<g id="Frame 368" filter="url(#filter0_d_1_10006)">
<rect x="35" y="35" width="92" height="92" rx="13.3333" fill="url(#paint0_linear_1_10006)"/>
<g id="Group 76">
<path id="Union" fill-rule="evenodd" clip-rule="evenodd" d="M70 57.5C70 58.8807 68.8807 60 67.5 60C66.9766 60 66.4908 59.8392 66.0893 59.5642L62.3029 61.743C62.7427 62.3854 63 63.1627 63 64C63 66.0381 61.4756 67.7203 59.5048 67.9684L59.5168 72.0674C60.3709 72.2952 61 73.0741 61 74C61 75.1046 60.1046 76 59 76C57.8954 76 57 75.1046 57 74C57 73.6741 57.0779 73.3665 57.2162 73.0946L53.3302 71.2031C52.9819 71.5772 52.5203 71.8444 52 71.95V77.05C53.1411 77.2816 54 78.2905 54 79.5C54 80.8807 52.8807 82 51.5 82C50.1193 82 49 80.8807 49 79.5C49 78.2905 49.8589 77.2816 51 77.05V71.95C49.8589 71.7184 49 70.7095 49 69.5C49 68.1193 50.1193 67 51.5 67C52.8807 67 54 68.1193 54 69.5C54 69.7968 53.9483 70.0815 53.8534 70.3456L57.9124 72.3213C58.0954 72.2025 58.299 72.1128 58.5168 72.0588L58.5048 67.9697C56.5293 67.7257 55 66.0415 55 64C55 61.7909 56.7909 60 59 60C60.0037 60 60.9211 60.3697 61.6234 60.9803L65.3768 58.8205C65.138 58.4373 65 57.9848 65 57.5C65 56.1193 66.1193 55 67.5 55C68.8807 55 70 56.1193 70 57.5Z" fill="url(#paint1_linear_1_10006)"/>
<path id="Union_2" fill-rule="evenodd" clip-rule="evenodd" d="M76.5 58C77.8807 58 79 56.8807 79 55.5H82C82 56.4599 82.541 57.2935 83.3348 57.7124L81.6885 61.005C81.6261 61.0017 81.5632 61 81.5 61C79.567 61 78 62.567 78 64.5C78 66.2632 79.3039 67.7219 81 67.9646V72.0354C79.3039 72.2781 78 73.7368 78 75.5C78 77.433 79.567 79 81.5 79C82.6093 79 83.5981 78.4839 84.2394 77.6787L87.462 79.29C87.1649 79.9664 87 80.7139 87 81.5C87 83.714 88.3082 85.6224 90.1937 86.4946L88.4404 90.0012C87.6396 90.0325 87 90.6915 87 91.5C87 92.3284 87.6716 93 88.5 93C89.3284 93 90 92.3284 90 91.5C90 91.0122 89.7672 90.5788 89.4066 90.3049L91.1433 86.8314C91.5773 86.9415 92.0318 87 92.5 87C95.5376 87 98 84.5376 98 81.5C98 78.4624 95.5376 76 92.5 76C90.6061 76 88.9358 76.9572 87.9465 78.4142L84.7452 76.8136C84.9095 76.408 85 75.9645 85 75.5C85 73.7368 83.6961 72.2781 82 72.0354V67.9646C83.6961 67.7219 85 66.2632 85 64.5C85 62.9897 84.0433 61.7028 82.7029 61.2122L84.3125 57.9931C84.3744 57.9977 84.4369 58 84.5 58C85.8807 58 87 56.8807 87 55.5C87 54.1193 85.8807 53 84.5 53C83.4748 53 82.5938 53.617 82.208 54.5H78.792C78.4062 53.617 77.5252 53 76.5 53C75.1193 53 74 54.1193 74 55.5C74 56.0892 74.2038 56.6308 74.5448 57.0581L71.6135 64.1808C71.2637 64.0635 70.8893 64 70.5 64C68.567 64 67 65.567 67 67.5C67 69.1125 68.0905 70.4703 69.5742 70.8762L69.611 75.0011C69.5741 75.0004 69.5371 75 69.5 75C66.4624 75 64 77.4624 64 80.5C64 83.5376 66.4624 86 69.5 86C71.6088 86 73.4403 84.8132 74.3633 83.0712L78.1364 85.1029C78.0478 85.3862 78 85.6875 78 86C78 87.4871 79.082 88.7215 80.5017 88.9588C80.5006 88.9724 80.5 88.9861 80.5 89V94.063C79.6374 94.285 79 95.0681 79 96C79 96.1564 79.018 96.3086 79.0519 96.4547L75.8483 98.2345C75.5478 97.5098 74.8334 97 74 97C72.8954 97 72 97.8954 72 99C72 100.105 72.8954 101 74 101C75.0001 101 75.8287 100.266 75.9765 99.3072L79.516 97.3409C79.882 97.7457 80.4113 98 81 98C82.1046 98 83 97.1046 83 96C83 95.0681 82.3626 94.285 81.5 94.063V89C81.5 88.9861 81.4994 88.9724 81.4983 88.9588C82.918 88.7215 84 87.4871 84 86C84 84.3431 82.6569 83 81 83C80.0132 83 79.1377 83.4764 78.5909 84.2119L74.7502 82.1438C74.9125 81.6247 75 81.0726 75 80.5C75 77.8434 73.1165 75.6267 70.612 75.1125L70.5753 70.9992C72.4735 70.9591 74 69.4078 74 67.5C74 66.3144 73.4105 65.2665 72.5086 64.6334L75.353 57.7219C75.6965 57.8996 76.0865 58 76.5 58Z" fill="url(#paint2_linear_1_10006)"/>
<path id="Union_3" fill-rule="evenodd" clip-rule="evenodd" d="M95.397 60.4647C94.7673 61.3913 93.7047 62 92.5 62C90.567 62 89 60.433 89 58.5C89 56.567 90.567 55 92.5 55C94.433 55 96 56.567 96 58.5C96 58.8715 95.9421 59.2295 95.8349 59.5654L99.5776 61.2928C100.349 59.9242 101.817 59 103.5 59C105.985 59 108 61.0147 108 63.5C108 65.9853 105.985 68 103.5 68C102.018 68 100.703 67.2834 99.883 66.1777L95.5818 66.8395C95.8486 67.3335 96 67.8991 96 68.5C96 68.9804 95.9032 69.4382 95.7281 69.855L100.308 72.2974C100.733 71.5241 101.555 71 102.5 71C103.881 71 105 72.1193 105 73.5C105 74.7095 104.141 75.7184 103 75.95V80.05C103.704 80.1929 104.3 80.6313 104.654 81.2302L108.049 79.9956C108.017 79.8354 108 79.6697 108 79.5C108 78.2905 108.859 77.2816 110 77.05V70.9146C109.417 70.7087 109 70.1531 109 69.5C109 68.6716 109.672 68 110.5 68C111.328 68 112 68.6716 112 69.5C112 70.1531 111.583 70.7087 111 70.9146V77.05C112.141 77.2816 113 78.2905 113 79.5C113 80.8807 111.881 82 110.5 82C109.646 82 108.891 81.5714 108.44 80.9174L104.979 82.176C104.993 82.282 105 82.3902 105 82.5C105 83.8807 103.881 85 102.5 85C101.119 85 100 83.8807 100 82.5C100 81.2905 100.859 80.2816 102 80.05V75.95C100.859 75.7184 100 74.7095 100 73.5C100 73.4232 100.003 73.3472 100.01 73.2721L95.2118 70.7129C94.5699 71.4985 93.5935 72 92.5 72C90.567 72 89 70.433 89 68.5C89 66.567 90.567 65 92.5 65C93.42 65 94.2571 65.355 94.8818 65.9354L99.352 65.2477C99.1253 64.7103 99 64.1198 99 63.5C99 63.053 99.0652 62.6213 99.1865 62.2137L95.397 60.4647Z" fill="url(#paint3_linear_1_10006)"/>
<path id="Union_4" fill-rule="evenodd" clip-rule="evenodd" d="M62 83C62 84.4865 60.9189 85.7205 59.5 85.9585V90.063C60.3626 90.285 61 91.0681 61 92C61 92.028 60.9994 92.056 60.9983 92.0837C61.2252 92.2204 61.4886 92.3708 61.7672 92.5251C62.0824 92.6996 62.4134 92.8769 62.7273 93.0416C63.2775 92.4038 64.0916 92 65 92C66.0163 92 66.9146 92.5054 67.4573 93.2786L70.2356 92.1673C70.0839 91.8085 70 91.414 70 91C70 89.3431 71.3431 88 73 88C74.6569 88 76 89.3431 76 91C76 92.6569 74.6569 94 73 94C72.1232 94 71.3343 93.6239 70.7858 93.0242L67.8875 94.1835C67.9608 94.4431 68 94.717 68 95C68 96.4865 66.9189 97.7205 65.5 97.9585V103.041C66.9189 103.28 68 104.514 68 106C68 107.657 66.6569 109 65 109C63.3431 109 62 107.657 62 106C62 104.514 63.0811 103.28 64.5 103.041V97.9585C63.0811 97.7205 62 96.4865 62 95C62 94.6112 62.074 94.2396 62.2086 93.8987C61.905 93.7389 61.5871 93.5684 61.2828 93.3999C61.0786 93.2869 60.879 93.1739 60.693 93.0653C60.3389 93.6269 59.713 94 59 94C57.8954 94 57 93.1046 57 92C57 91.0681 57.6374 90.285 58.5 90.063V85.9585C57.7263 85.8287 57.0531 85.4028 56.6007 84.8013L53.2684 86.9218C53.1582 86.992 53.031 87.0135 52.9119 86.9922C52.9689 87.1508 53 87.3218 53 87.5C53 88.3284 52.3284 89 51.5 89C50.6716 89 50 88.3284 50 87.5C50 86.6716 50.6716 86 51.5 86C51.8898 86 52.245 86.1487 52.5117 86.3925C52.5393 86.2672 52.6148 86.1525 52.7316 86.0782L56.1402 83.909C56.0491 83.6223 56 83.3169 56 83C56 81.3431 57.3431 80 59 80C60.6569 80 62 81.3431 62 83Z" fill="url(#paint4_linear_1_10006)"/>
</g>
<rect x="36.5" y="36.5" width="89" height="89" rx="11.8333" stroke="url(#paint5_linear_1_10006)" stroke-width="3"/>
<rect x="36.5" y="36.5" width="89" height="89" rx="11.8333" stroke="url(#paint6_radial_1_10006)" stroke-width="3" style="mix-blend-mode:lighten"/>
</g>
<defs>
<filter id="filter0_d_1_10006" x="0" y="0" width="162" height="162" filterUnits="userSpaceOnUse" color-interpolation-filters="sRGB">
<feFlood flood-opacity="0" result="BackgroundImageFix"/>
<feColorMatrix in="SourceAlpha" type="matrix" values="0 0 0 0 0 0 0 0 0 0 0 0 0 0 0 0 0 0 127 0" result="hardAlpha"/>
<feOffset/>
<feGaussianBlur stdDeviation="17.5"/>
<feComposite in2="hardAlpha" operator="out"/>
<feColorMatrix type="matrix" values="0 0 0 0 0.583333 0 0 0 0 0.325694 0 0 0 0 0.341309 0 0 0 0.55 0"/>
<feBlend mode="normal" in2="BackgroundImageFix" result="effect1_dropShadow_1_10006"/>
<feBlend mode="normal" in="SourceGraphic" in2="effect1_dropShadow_1_10006" result="shape"/>
</filter>
<linearGradient id="paint0_linear_1_10006" x1="81" y1="35" x2="81" y2="127" gradientUnits="userSpaceOnUse">
<stop stop-color="#F8EFFF"/>
<stop offset="1" stop-color="#CEC6FF"/>
</linearGradient>
<linearGradient id="paint1_linear_1_10006" x1="59.5" y1="55" x2="59.5" y2="82" gradientUnits="userSpaceOnUse">
<stop stop-color="#FFBF5F"/>
<stop offset="1" stop-color="#FF5FE5"/>
</linearGradient>
<linearGradient id="paint2_linear_1_10006" x1="67.5" y1="57" x2="94.5" y2="97" gradientUnits="userSpaceOnUse">
<stop stop-color="#FF5E5E"/>
<stop offset="1" stop-color="#F9AD68"/>
</linearGradient>
<linearGradient id="paint3_linear_1_10006" x1="90" y1="72" x2="114" y2="65.5" gradientUnits="userSpaceOnUse">
<stop stop-color="#FA9564"/>
<stop offset="1" stop-color="#EE64FA"/>
</linearGradient>
<linearGradient id="paint4_linear_1_10006" x1="63" y1="80" x2="63" y2="109" gradientUnits="userSpaceOnUse">
<stop stop-color="#975BE3"/>
<stop offset="1" stop-color="#5E5BE3"/>
</linearGradient>
<linearGradient id="paint5_linear_1_10006" x1="35" y1="62.8788" x2="127" y2="62.8788" gradientUnits="userSpaceOnUse">
<stop stop-color="#EBD1FF"/>
<stop offset="0.296875" stop-color="#EFF8D9"/>
<stop offset="0.583333" stop-color="#E9DBEF"/>
<stop offset="0.755208" stop-color="#F5F3E9"/>
<stop offset="1" stop-color="#C9C2A6"/>
</linearGradient>
<radialGradient id="paint6_radial_1_10006" cx="0" cy="0" r="1" gradientUnits="userSpaceOnUse" gradientTransform="translate(39.2073 34.9999) rotate(44.0235) scale(117.674 1559.5)">
<stop stop-color="#FDAAFF"/>
<stop offset="0.104167" stop-color="#FDEFD2"/>
<stop offset="0.223958" stop-color="#FEFFB9"/>
<stop offset="0.338542" stop-color="#DCD4AD"/>
<stop offset="0.453125" stop-color="#FFFDC1"/>
<stop offset="0.59375" stop-color="#FFE3CA"/>
<stop offset="0.78125" stop-color="#FDFF96"/>
<stop offset="1" stop-color="#D6C0FF"/>
</radialGradient>
</defs>
</svg>
