<svg width="70" height="74" viewBox="0 0 70 74" fill="none" xmlns="http://www.w3.org/2000/svg">
<g id="scratch 1" clip-path="url(#clip0_1_10517)">
<path id="Vector" d="M63.089 69.0637C61.7277 69.168 60.8906 69.2723 60.6811 69.3766L60.5764 69.4809C60.2621 69.5852 59.8436 69.7938 59.3203 69.7938C58.6917 69.7938 57.9589 69.5852 57.4356 69.0637C57.2261 68.8551 57.0171 68.6465 56.9124 68.4379H54.5045C54.0858 68.4379 53.667 68.3336 53.3529 68.125C53.2483 68.2293 53.0389 68.2293 52.9342 68.3336C52.0967 68.7508 51.3639 68.7508 50.8404 68.7508H50.317C48.7467 68.7508 47.4905 68.2293 46.653 67.2907C46.1295 67.8121 45.3967 68.125 44.6639 68.125L40.7905 68.2293C39.4296 68.2293 38.1733 67.1864 37.9639 65.9348C37.4405 66.2477 36.9171 66.4563 36.289 66.4563C35.6608 66.4563 35.0327 66.2477 34.5093 65.9348C34.4046 65.8305 34.2999 65.7268 34.1952 65.7268C33.8812 65.9348 33.4624 65.9348 33.0436 65.9348H32.7296C32.3109 67.1864 31.5781 68.0207 30.4265 68.5422C29.903 68.7508 29.2749 68.9594 28.7515 68.9594C28.2281 68.9594 27.5999 68.8551 27.0765 68.6465C26.5531 68.4379 26.1343 68.125 25.8203 67.8121C25.6109 67.9164 25.4015 67.9164 25.1921 68.0207L22.1562 68.4379H21.7374C21.4234 68.4379 21.214 68.4379 20.9 68.3336C20.4812 68.7508 19.9578 68.9594 19.539 69.168C18.7015 69.5852 17.9687 69.5852 17.4453 69.5852H16.9219C15.0375 69.5852 13.5719 68.7508 12.7344 67.6036C11.8969 68.125 10.85 68.4379 9.90785 68.4379H9.2797C9.2797 68.5422 9.17499 68.5422 9.17499 68.6465C8.65161 69.168 7.91876 69.5852 7.18596 69.5852H6.9766C5.51097 69.5852 4.25473 68.4379 4.15004 66.8735V66.7692C4.15004 66.2477 4.04536 65.3096 4.15004 64.2666C4.15004 63.5365 4.25473 62.3893 4.25473 62.3893C4.25473 61.6592 4.56879 61.034 4.98754 60.5125C4.56879 59.6781 4.4641 58.7395 4.67348 57.6965V57.4879C4.77817 56.8627 4.88285 55.924 5.3016 54.9853C6.03444 53.6297 7.39532 52.8997 8.96563 52.8997H9.69843C10.2219 52.4825 10.85 52.1697 11.5828 52.1697C13.1531 52.1697 14.4093 53.5254 14.4093 55.0896V56.2369C14.9328 56.0283 15.5609 55.924 16.1891 55.924C16.5031 55.924 16.7125 55.924 17.0265 56.0283C17.4453 55.5068 18.0734 55.1939 18.7015 55.0896C18.8062 54.881 18.9109 54.7767 19.0156 54.5682C19.4343 53.9425 20.1671 53.5254 20.9 53.4211C21.5281 53.3168 22.7843 53.2126 24.25 53.2126C25.9249 53.2126 27.2859 53.4211 28.3327 53.9425C28.6468 52.7954 29.4843 51.9611 30.7405 51.7526L33.4624 51.3354H33.8812C34.7187 51.3354 35.4515 51.6483 35.9749 52.274C36.1843 52.4825 36.4983 52.8997 36.603 53.2126L36.7077 53.5254C37.2311 53.2126 37.7546 53.004 38.3827 53.004L42.4655 52.8997C44.4545 52.8997 46.2342 52.7954 46.2342 52.6911H46.4436C47.1764 52.6911 48.0139 53.004 48.5373 53.5254C48.9561 53.9425 49.2701 54.464 49.3749 55.0896H49.5842C49.8983 55.0896 50.1076 55.0896 50.4217 55.1939C50.8404 54.6724 51.4686 54.3597 52.0967 54.2554C52.6201 53.5254 53.5623 52.8997 54.6092 52.8997H57.3309C57.8547 52.274 58.5875 51.8569 59.5293 51.8569H62.8795C64.4499 51.8569 65.7059 53.1083 65.8107 54.6724C65.8107 55.8197 65.1827 56.8627 64.2403 57.2798V63.6408C65.0779 64.058 65.7059 64.9967 65.8107 66.0391C65.9155 67.6036 64.6594 68.9594 63.089 69.0637Z" fill="#F9A83A"/>
<path id="Vector_2" d="M34.0883 56.5498L33.3555 60.3039L35.4492 59.991L34.0883 56.5498Z" fill="#F9A83A"/>
<path id="Vector_3" d="M9.06839 60.1996C8.33559 60.0953 7.91681 59.5739 8.12617 58.1142V57.9057C8.33559 56.6541 8.44024 56.3412 9.06839 56.3412C9.27775 56.3412 9.48711 56.4455 9.69648 56.6541C9.9059 56.8627 10.3246 57.1756 10.534 57.8014C10.7433 58.2185 10.7433 58.5314 10.8481 58.8443V59.2615C10.8481 59.4696 11.0574 59.6781 11.3715 59.7824C11.6856 59.8867 11.9996 59.5739 12.1043 59.2615C12.1043 59.2615 12.3137 55.2982 12.3137 55.1939C12.3137 54.8816 11.9996 54.5685 11.6856 54.5685C11.3715 54.5685 11.0574 54.8816 11.0574 55.1939V56.3412C10.534 55.8197 9.9059 55.2982 9.17304 55.2982C7.18401 54.9859 6.97465 56.7584 6.86994 57.8014V58.01C6.66058 59.991 7.28872 61.2426 8.85903 61.5555C10.534 61.8684 11.6856 62.1813 11.6856 63.2242C11.6856 63.6414 11.4762 64.058 11.0574 64.3709C10.6387 64.7881 10.0105 64.8924 9.38246 64.7881C9.17304 64.7881 9.06839 64.6838 8.85903 64.6838C8.64961 64.5795 8.02152 64.2666 7.81216 63.8495C7.70745 63.4328 7.60274 62.9113 7.60274 62.5984V62.3898C7.60274 62.077 7.28872 61.7641 6.97465 61.7641C6.66058 61.7641 6.3465 62.077 6.3465 62.3898C6.3465 62.3898 6.3465 63.6414 6.24185 64.3709C6.13714 65.6225 6.24185 66.5612 6.24185 66.6655C6.24185 66.9783 6.55587 67.2912 6.86994 67.2912C7.18401 67.2912 7.49808 66.9783 7.49808 66.6655V65.5182C7.91681 65.8311 8.54495 66.144 9.27775 66.2483C10.2199 66.4569 11.1621 66.144 11.8949 65.5182C12.5231 64.9967 12.9418 64.1623 12.9418 63.4328C12.9418 60.8254 10.3246 60.4082 9.06839 60.1996ZM26.6558 58.4271C26.5511 58.5314 26.4464 58.6357 26.237 58.74C26.1323 58.8443 25.8183 58.9486 25.7136 58.9486L25.3995 59.0529C24.9808 59.2615 24.3527 59.3658 23.7246 59.4696V56.5498C25.3995 56.5498 26.8652 56.6541 27.1792 57.1756V57.3842C27.1792 57.5928 26.9698 58.0099 26.6558 58.4271ZM30.3198 64.058C30.0058 63.9537 29.587 64.1623 29.4824 64.4752C29.2729 65.2053 29.0636 65.2053 28.9589 65.3096C28.8542 65.4139 28.6449 65.3096 28.3308 65.2053C28.3308 65.2053 28.2261 64.9967 28.1214 64.8924C28.0167 64.6838 27.9121 63.8495 27.9121 63.3285C27.9121 61.4512 27.4933 60.4082 26.9698 59.8867C27.2839 59.6781 27.598 59.3658 27.598 59.3658C28.3308 58.3228 28.5401 57.4885 28.1214 56.7584C27.0745 54.9859 22.573 55.5068 21.1074 55.7154C20.7933 55.7154 20.4793 56.1326 20.584 56.4455C20.584 56.7584 21.0027 57.0713 21.3168 56.967C21.6308 56.967 21.9448 56.8627 22.2589 56.8627V59.7824H21.9448C21.6308 59.7824 21.3168 60.0953 21.3168 60.4082C21.3168 60.7211 21.6308 61.034 21.9448 61.034H22.2589V64.6838L21.4214 64.7881C21.1074 64.7881 20.7933 65.2053 20.898 65.5182C20.898 65.8311 21.3168 66.144 21.6308 66.0397L24.6667 65.6225C24.9808 65.6225 25.2949 65.2053 25.1902 64.8924C25.1902 64.5795 24.7714 64.2666 24.4574 64.3709L23.5152 64.4752V60.8254C24.1433 60.7211 24.6667 60.6168 25.1902 60.4082H25.3995C25.6089 60.4082 25.8183 60.5125 25.923 60.7211C26.1323 61.034 26.3417 61.6598 26.4464 63.2242C26.4464 63.5371 26.5511 64.7881 26.7605 65.3096C26.8652 65.5182 27.1792 66.0397 27.7026 66.2483C28.1214 66.3526 28.6449 66.5612 29.2729 66.2483C29.7964 65.9354 30.2152 65.6225 30.4245 64.6838C30.8432 64.4752 30.6339 64.1623 30.3198 64.058ZM53.1416 62.077C52.8275 62.077 52.5135 62.3899 52.5135 62.7027V63.5371C52.5135 63.8495 52.4088 64.2666 52.3041 64.3709C52.1994 64.5795 52.0947 64.6838 51.8854 64.8924C51.7807 64.9967 51.5713 65.101 51.3619 65.2053C51.1525 65.3096 51.0479 65.3096 50.6291 65.3096H50.2103C48.5354 65.4139 48.326 64.058 48.326 63.7452V61.034C48.4307 59.991 48.64 59.2615 49.0588 58.9486C49.3728 58.74 49.7916 58.8443 50.5244 59.0529C51.3619 59.3658 51.8854 60.3039 51.99 60.3039C52.0947 60.5125 52.4088 60.6168 52.7228 60.6168C53.0369 60.5125 53.1416 60.3039 53.1416 59.991V57.1756C53.1416 56.8627 52.8275 56.5498 52.5135 56.5498C52.1994 56.5498 51.8854 56.8627 51.8854 57.1756V58.3228C51.6759 58.1142 51.3619 58.0099 51.0479 57.8014C50.7338 57.5928 49.4775 57.0713 48.5353 57.6971C47.8025 58.2185 47.2791 59.1572 47.1744 60.7211V63.6414C47.2791 64.5795 48.0119 66.4569 50.3151 66.4569H50.6291C51.0479 66.4569 51.4666 66.4569 51.8854 66.2483C52.1994 66.144 52.5135 65.9354 52.8275 65.6225C53.0369 65.4139 53.1416 65.2053 53.351 64.8924C53.5603 64.4752 53.665 63.7452 53.7697 63.5371V62.4941C53.7697 62.2856 53.4557 62.077 53.1416 62.077ZM63.5057 66.2483C63.5057 65.9354 63.1914 65.6225 62.8777 65.6225C62.6681 65.6225 62.3538 65.6225 62.0401 65.7268C62.0401 64.6838 62.0401 62.4941 61.9353 55.4025H62.8777C63.1914 55.4025 63.5057 55.0902 63.5057 54.7773C63.5057 54.4643 63.1914 54.1514 62.8777 54.1514L59.5274 54.2557C59.2137 54.2557 58.8994 54.5685 58.8994 54.8816C58.8994 55.1939 59.2137 55.5068 59.5274 55.5068H60.5745V59.8867L56.8058 60.5125V56.5498H57.8523C58.1666 56.5498 58.4809 56.2369 58.4809 55.924C58.4809 55.6111 58.1666 55.2982 57.8523 55.2982H54.5025C54.1885 55.2982 53.8744 55.6111 53.8744 55.924C53.8744 56.2369 54.1885 56.5498 54.5025 56.5498H55.5491V64.9967H54.5025C54.1885 64.9967 53.8744 65.3096 53.8744 65.6225C53.8744 65.9354 54.1885 66.2483 54.5025 66.2483L57.9571 66.3526C58.2713 66.3526 58.5851 66.0397 58.5851 65.7268C58.5851 65.4139 58.2713 65.101 57.9571 65.101H56.9105V61.8684L60.6793 61.2426V66.0397C59.8417 66.2483 59.2137 66.2483 58.8994 66.6655C58.6899 66.874 58.6899 67.2912 59.0041 67.4998C59.2137 67.7084 59.5274 67.6041 59.9465 67.4998C60.2602 67.2912 61.5163 67.1869 62.9824 67.0826C63.2962 66.874 63.5057 66.5612 63.5057 66.2483Z" fill="white"/>
<path id="Vector_4" d="M33.3554 60.3038L34.0882 56.5496L35.4492 59.9914L33.3554 60.3038ZM38.9039 61.3467C38.6945 61.451 38.3804 61.5553 37.7523 61.8682L36.9148 59.8871L34.507 54.1513C34.507 54.047 34.4023 53.8385 34.2976 53.8385C34.193 53.7342 33.9836 53.6299 33.7742 53.6299L31.0523 53.9427C30.7383 53.9427 30.4242 54.2556 30.5289 54.6728C30.5289 54.9857 30.843 55.2986 31.2617 55.1943C31.2617 55.1943 32.3086 55.09 33.1461 54.9857C32.9367 56.1325 31.9945 60.8252 31.6804 62.2854L29.7961 62.1811C29.482 62.1811 29.168 62.3897 29.168 62.8069C29.168 63.1198 29.3773 63.4327 29.7961 63.4327L32.9367 63.5369C33.2507 63.5369 33.5648 63.3284 33.5648 62.9112C33.5648 62.5983 33.3555 62.2854 32.9367 62.2854L33.0414 61.3467L35.9726 60.8252L36.6008 62.3897C36.0773 62.7026 35.8679 62.8069 35.5539 63.1198C35.3445 63.4326 35.4492 63.7455 35.6586 63.9541C35.9726 64.1627 36.3914 64.0584 36.6008 63.8498C36.9148 63.4327 38.0664 62.9112 39.2179 62.494C39.532 62.3897 39.7413 61.9725 39.6367 61.6596C39.532 61.451 39.2179 61.2424 38.9039 61.3467Z" fill="white"/>
<path id="Vector_5" d="M46.4428 54.9854C46.4428 54.9854 44.5585 55.0896 42.4647 55.1939L38.3819 55.2982C38.1725 55.2982 38.0679 55.4025 37.8585 55.5068C37.7538 55.6111 37.6491 55.8197 37.7538 56.0283L38.2772 59.1567C38.2772 59.4695 38.696 59.7824 39.01 59.6781C39.3241 59.6781 39.5335 59.3653 39.5335 59.0524C39.5335 59.0524 39.3241 57.3842 39.1147 56.5498H41.8366V64.7881H40.4757C40.1616 64.7881 39.8475 65.101 39.8475 65.4139C39.8475 65.7268 40.1616 66.0397 40.4757 66.0397L44.3491 65.9354C44.6631 65.9354 44.9772 65.6225 44.9772 65.3096C44.9772 64.9967 44.6631 64.6838 44.3491 64.6838H43.0929V56.4455C44.1397 56.4455 45.0819 56.3412 45.71 56.3412V57.5928C45.71 58.2185 45.8147 58.4271 45.8147 58.5314C46.024 58.8438 46.3381 58.9481 46.6522 58.7395C46.8616 58.6357 46.9663 58.3228 46.9663 58.1142C46.9663 58.1142 46.9663 56.6541 47.0709 55.8197C47.0709 55.6111 47.0709 55.5068 46.8616 55.2982C46.8616 55.0896 46.6522 54.9854 46.4428 54.9854ZM19.7476 62.7027C19.4336 62.7027 19.1195 63.0151 19.1195 63.328V64.2666C19.1195 64.4752 19.0148 64.8924 18.9101 65.101C18.8055 65.3096 18.7008 65.4139 18.4914 65.6225C18.3867 65.7268 18.1773 65.8311 17.968 65.9354C17.7586 66.0397 17.6539 66.0397 17.2352 66.0397H16.8164C15.1414 66.0397 14.932 64.7881 14.932 64.4752V61.7641C15.0367 60.7211 15.2461 59.991 15.6649 59.6781C15.9789 59.4695 16.3977 59.5738 17.1305 59.7824C17.968 60.0953 18.5961 61.034 18.5961 61.034C18.7008 61.2426 19.0148 61.3469 19.3289 61.3469C19.6429 61.2426 19.7476 61.034 19.7476 60.7211V57.9056C19.7476 57.5928 19.4336 57.2799 19.1195 57.2799C18.8055 57.2799 18.4914 57.5928 18.4914 57.9056V59.0524C18.282 58.8438 17.968 58.6357 17.6539 58.5314C17.2352 58.3228 16.0836 57.9056 15.0367 58.4271C14.3039 58.9481 13.7805 59.8867 13.6758 61.4512V64.3709C13.7805 65.3096 14.5133 67.1869 16.9211 67.1869H17.2352C17.6539 67.1869 18.0726 67.1869 18.4914 66.9783C18.8055 66.874 19.1195 66.6655 19.4336 66.3526C19.6429 66.144 19.7476 65.9354 19.957 65.6225C20.1664 65.2053 20.2711 64.4752 20.3758 64.2666V63.2237C20.3758 63.0151 20.0617 62.7027 19.7476 62.7027Z" fill="white"/>
<g id="Clip path group">
<mask id="mask0_1_10517" style="mask-type:luminance" maskUnits="userSpaceOnUse" x="11" y="0" width="48" height="50">
<g id="clip0_434_3675">
<path id="Vector_6" d="M58.2529 0.333984H11.3184V49.4085H58.2529V0.333984Z" fill="white"/>
</g>
</mask>
<g mask="url(#mask0_1_10517)">
<g id="Group">
<path id="Vector_7" fill-rule="evenodd" clip-rule="evenodd" d="M21.9625 36.3792C20.7797 36.1209 19.3373 35.7478 18.1546 34.6573C15.443 32.2465 14.6064 28.2862 12.7313 29.3193C10.7986 30.3525 10.8562 36.7809 16.8853 38.7325C18.9623 39.4212 20.8374 39.4212 22.3663 39.3638C22.7702 39.3638 26.1742 39.0194 27.3569 37.3549C28.5397 35.6904 27.7031 35.2599 27.2992 35.059C26.8376 34.8294 23.6356 36.6948 21.9625 36.3792Z" fill="#FFAB19"/>
<path id="Vector_8" d="M21.3286 39.6792C19.9728 39.6792 18.4438 39.5645 16.7995 39.0192C15.9053 38.7322 15.1264 38.3304 14.4341 37.8425C13.7994 37.3834 13.2513 36.8668 12.7898 36.2355C11.9821 35.1736 11.4916 33.8822 11.3763 32.5907C11.3186 31.7872 11.3763 31.041 11.607 30.4096C11.8379 29.7496 12.184 29.2617 12.6456 29.0321C12.9629 28.8599 13.309 28.8025 13.6264 28.8599C13.9148 28.9173 14.1745 29.0608 14.4629 29.3191C14.9533 29.7496 15.3861 30.4383 15.9053 31.2419C16.5688 32.3037 17.3476 33.4803 18.415 34.4274C19.5112 35.4319 20.8959 35.8336 22.0786 36.0633C23.0017 36.2355 24.5306 35.6328 25.6557 35.2023C26.723 34.7718 27.1846 34.6283 27.4731 34.7718C27.675 34.8866 28.1365 35.0875 28.2519 35.6041C28.3673 36.0919 28.1654 36.7233 27.6173 37.4981C27.0692 38.2444 26.0884 38.847 24.6749 39.2488C23.6075 39.5358 22.6555 39.6506 22.3959 39.6506C22.0209 39.6792 21.6748 39.6792 21.3286 39.6792ZM13.3379 29.4625C13.1937 29.4625 13.0494 29.52 12.9052 29.6061C12.5878 29.7783 12.3282 30.1513 12.1551 30.6679C11.9532 31.2132 11.8955 31.9019 11.9532 32.5907C12.0686 33.7674 12.5302 34.944 13.2513 35.9197C14.1456 37.0964 15.4149 37.9573 17.0015 38.4739C19.0208 39.134 20.8382 39.134 22.3671 39.1053C22.4825 39.1053 23.4056 39.0479 24.4729 38.7322C25.3672 38.4739 26.5211 38.0147 27.0981 37.2112C27.6462 36.4363 27.7038 36.0058 27.6462 35.805C27.5884 35.5753 27.3865 35.4606 27.1846 35.3458C27.1557 35.3458 27.0403 35.3458 26.7519 35.4606C26.4922 35.5467 26.1749 35.6614 25.8288 35.805C24.5883 36.2928 23.0017 36.8955 21.9344 36.6946C20.6651 36.4363 19.2227 36.0058 18.0111 34.9153C16.8861 33.9108 16.1072 32.6768 15.3861 31.615C14.8956 30.8401 14.4629 30.2088 14.0591 29.8069C13.7706 29.5486 13.5398 29.4625 13.3379 29.4625Z" fill="#001026"/>
<path id="Vector_9" fill-rule="evenodd" clip-rule="evenodd" d="M13.0189 29.434C12.0381 29.721 11.5477 31.7873 12.0381 33.5092C12.5285 35.2311 13.3074 36.1208 13.9708 36.7521C13.8843 36.4077 13.6824 35.3172 14.5189 34.6858C15.5574 33.8536 17.3748 34.2841 17.3748 34.2841C17.3748 34.2841 15.8459 32.4186 15.067 31.0985C14.2593 29.9506 14.0285 29.2331 13.0189 29.434Z" fill="white"/>
<path id="Vector_10" fill-rule="evenodd" clip-rule="evenodd" d="M29.7501 40.1675C28.8558 40.7702 25.798 42.9225 21.9036 44.1279L21.7017 44.1853C21.4998 44.2427 21.4132 44.4723 21.4998 44.6732C22.3363 45.8498 23.8652 48.2031 21.1536 49.0353C18.5285 49.8676 13.6533 42.9513 15.7303 41.1432C16.6534 40.4545 17.5189 40.7988 17.9516 40.9997C18.2112 41.0858 18.4419 41.0858 18.7016 41.0571C19.3074 40.8563 20.3747 40.4545 21.2113 40.024C23.3171 38.9335 23.8364 38.503 24.8172 37.7568C25.798 37.0107 28.0769 35.2026 29.8943 36.7811C31.4809 38.1012 30.5867 39.5648 29.7501 40.1675ZM37.5966 29.9508C37.8562 30.1517 40.8563 33.6816 41.8371 32.7919C43.0199 31.7588 44.6353 29.7499 46.4238 31.357C48.2124 32.9641 44.8372 35.7192 43.4237 36.4654C40.0197 37.9864 37.2504 35.0879 36.6734 34.313C36.0965 33.5381 35.058 32.218 35.058 30.9266C35.0868 29.5777 36.76 29.2333 37.5966 29.9508Z" fill="#FFAB19"/>
<path id="Vector_11" d="M20.6946 49.4082C20.0022 49.4082 19.2234 49.0639 18.3868 48.3751C17.4637 47.6289 16.5694 46.5384 15.9059 45.3904C15.3867 44.5008 15.0694 43.6398 14.9828 42.8937C14.8674 42.004 15.0694 41.3153 15.5598 40.8848C15.5598 40.8848 15.5598 40.8848 15.5886 40.8561C16.6848 40.0525 17.6656 40.483 18.0983 40.6839C18.2714 40.7413 18.4445 40.77 18.6464 40.7126C19.0215 40.5978 20.2042 40.1673 21.0984 39.7081C22.9447 38.7611 23.5216 38.3306 24.3294 37.7279C24.4448 37.6418 24.5313 37.5557 24.6466 37.4697C24.6755 37.4409 24.7332 37.4123 24.7621 37.3836C25.3101 36.9818 26.1179 36.3791 27.041 36.0347C28.2237 35.6329 29.2334 35.7764 30.07 36.4939C30.9065 37.2114 31.0507 37.9288 31.0507 38.4167C31.0219 39.2776 30.445 39.9951 29.8969 40.3395C29.8392 40.3682 29.7527 40.4256 29.6949 40.483C28.5987 41.2292 25.6563 43.1807 21.9927 44.3573C21.9927 44.3573 21.9927 44.3573 21.9639 44.3573L21.7619 44.4147C21.7619 44.4147 21.7331 44.4434 21.7619 44.4721C22.4831 45.5053 23.262 46.8254 22.887 47.9159C22.6851 48.5473 22.1081 49.0065 21.2427 49.2648C21.0696 49.3795 20.8965 49.4082 20.6946 49.4082ZM15.9348 41.3726C15.5886 41.6596 15.4732 42.1762 15.5886 42.8363C15.6751 43.4964 15.9925 44.2999 16.454 45.1035C17.0887 46.194 17.9253 47.2271 18.7906 47.9159C19.685 48.6334 20.5215 48.9491 21.0984 48.7482C21.7908 48.5473 22.2235 48.2029 22.3677 47.7724C22.6851 46.7967 21.6754 45.3618 21.3004 44.8452L21.2715 44.8165C21.185 44.6443 21.185 44.4147 21.2715 44.2425C21.3581 44.0703 21.5023 43.9555 21.6754 43.8981L21.8773 43.8407C25.4544 42.7215 28.3391 40.77 29.4065 40.0525C29.493 39.9951 29.5507 39.9377 29.6084 39.909C30.0123 39.622 30.4738 39.0768 30.5026 38.4454C30.5315 37.9288 30.2719 37.4409 29.7238 37.0105C29.0314 36.4365 28.2526 36.3217 27.2718 36.6661C26.4352 36.9531 25.6563 37.5557 25.1371 37.9288C25.1082 37.9575 25.0505 37.9862 25.0217 38.0149C24.9063 38.101 24.7909 38.1871 24.7044 38.2732C23.9255 38.8759 23.2908 39.3351 21.3869 40.3108C20.4638 40.7987 19.2811 41.2004 18.8195 41.3726H18.7906C18.4445 41.4301 18.156 41.43 17.8964 41.3153C17.4637 41.0857 16.7425 40.77 15.9348 41.3726ZM41.4358 37.2114C41.2915 37.2114 41.1185 37.2114 40.9742 37.1826C40.2531 37.1253 39.5319 36.8957 38.8395 36.5226C37.3972 35.7477 36.5029 34.6285 36.4164 34.485L36.3587 34.3989C35.7529 33.5953 34.7432 32.2465 34.7432 30.9264C34.7721 30.2376 35.1471 29.6923 35.7529 29.434C36.0702 29.2906 36.4452 29.2331 36.8202 29.2906C37.1952 29.348 37.5414 29.4914 37.8011 29.7211C37.8587 29.7784 37.9453 29.8358 38.1183 30.0367C38.5222 30.4672 39.3011 31.2708 40.0511 31.9021C40.83 32.5335 41.4358 32.7631 41.6377 32.5622C41.782 32.4187 41.955 32.2752 42.1281 32.1317C42.7051 31.5864 43.3686 30.9837 44.1186 30.6681C45.0129 30.295 45.8783 30.4672 46.6283 31.1559C47.0899 31.5864 47.2918 32.103 47.2053 32.7057C47.1475 33.2223 46.8302 34.0545 45.7052 35.1451C44.9263 35.9199 44.0609 36.4939 43.5417 36.7522C43.5417 36.7522 43.5417 36.7522 43.5128 36.7522C42.8493 37.0679 42.1281 37.2114 41.4358 37.2114ZM35.3202 30.9551C35.3202 32.0743 36.2721 33.337 36.8202 34.0832L36.8779 34.1693C36.9645 34.2841 37.7722 35.3173 39.0991 36.0347C40.5127 36.7809 41.8974 36.8383 43.2532 36.2356C43.7147 36.006 44.5224 35.4608 45.2436 34.7433C46.0225 33.9971 46.4841 33.2509 46.5706 32.6483C46.6283 32.2465 46.4841 31.9021 46.1667 31.5864C45.561 31.0412 44.9551 30.9264 44.2628 31.2134C43.6282 31.4717 42.9936 32.0456 42.4455 32.5622C42.2724 32.7344 42.0993 32.8779 41.955 33.0214C41.7531 33.1936 41.4069 33.3658 40.8012 33.1075C40.455 32.964 40.0511 32.7344 39.5896 32.3613C38.7819 31.73 38.0029 30.8977 37.5991 30.4385C37.4837 30.3237 37.3683 30.1802 37.3395 30.1515C36.9645 29.8358 36.3875 29.7497 35.926 29.9506C35.7529 30.0941 35.349 30.3524 35.3202 30.9551Z" fill="#001026"/>
<path id="Vector_12" fill-rule="evenodd" clip-rule="evenodd" d="M33.9348 37.8144C34.5407 37.3839 35.1176 36.6378 35.8965 35.5185C36.5311 34.6001 37.2234 32.7634 37.2234 32.7634C37.6562 31.5294 37.9735 29.1761 36.3292 29.2336C35.233 29.2909 34.2522 29.1475 32.579 28.8892C29.6078 28.2865 29.0885 27.9134 27.8481 29.9223C26.5211 32.2756 23.1171 33.9975 27.3 38.0727C27.3 38.0727 29.7231 39.9381 32.6368 42.7793C34.5983 44.7021 37.7139 47.4284 38.81 48.3755C39.0697 48.5763 39.3581 48.6624 39.6466 48.7199C44.4353 49.1504 47.9835 48.6624 47.9835 46.5675C47.9835 43.0376 40.9448 44.2716 40.9448 44.2716C40.9448 44.2716 38.6658 42.3488 37.6273 41.4304L33.9348 37.8144Z" fill="#FFAB19"/>
<path id="Vector_13" d="M42.5877 49.1501C41.6934 49.1501 40.7126 49.0927 39.6164 49.0066C39.6164 49.0066 39.6164 49.0066 39.5876 49.0066C39.1837 48.9492 38.8664 48.8057 38.6068 48.6048C37.3952 47.5717 34.3374 44.8453 32.4335 43.0086C29.5776 40.1962 27.1544 38.3307 27.1256 38.3307C27.1256 38.3307 27.0967 38.3307 27.0967 38.3021C26.289 37.4985 25.712 36.781 25.3659 36.0635C25.0485 35.4035 24.9332 34.8008 24.9908 34.1695C25.1063 33.0215 25.8563 32.1032 26.5486 31.2135C26.9236 30.7543 27.2986 30.2951 27.5583 29.8073C28.0775 28.9463 28.5391 28.401 29.2602 28.2288C29.8661 28.0854 30.5872 28.2288 31.7411 28.4584C32.0007 28.5159 32.2892 28.5732 32.6066 28.6306H32.6642C34.2797 28.8602 35.2316 29.0037 36.299 28.975C36.7894 28.9463 37.2221 29.1472 37.4817 29.5203C37.7702 29.8934 37.8856 30.4673 37.8279 31.2135C37.799 31.7588 37.6548 32.3901 37.4817 32.9067C37.4529 32.9928 36.7605 34.7721 36.1259 35.7192C35.4913 36.6376 34.9143 37.3837 34.3662 37.8716L37.8279 41.2293C38.7222 42.0329 40.5684 43.5826 41.03 43.9844C41.3761 43.927 42.3281 43.8122 43.4243 43.7835C45.2993 43.7835 46.6552 44.0991 47.4629 44.7879C48.011 45.2471 48.2995 45.8498 48.2995 46.5959C48.2995 47.1699 48.0687 47.6578 47.6648 48.0308C47.059 48.5761 45.9917 48.9492 44.5493 49.0927C43.9435 49.1214 43.3089 49.1501 42.5877 49.1501ZM39.703 48.404C41.5781 48.5761 43.1935 48.6048 44.4628 48.4613C45.7898 48.3179 46.7417 48.0022 47.261 47.543C47.5783 47.256 47.7225 46.9403 47.7225 46.5385C47.7225 45.9646 47.5206 45.5341 47.1167 45.1897C46.4244 44.6157 45.1839 44.3288 43.482 44.3288C42.155 44.3288 41.0588 44.5296 41.03 44.5296C40.9434 44.5583 40.8569 44.5296 40.7992 44.4722C40.7703 44.4435 38.5202 42.5494 37.4817 41.6311L33.7893 38.0438C33.7316 37.9863 33.7027 37.9002 33.7027 37.8142C33.7027 37.7281 33.7604 37.642 33.8181 37.5846C34.4239 37.1541 35.0009 36.3793 35.7221 35.3461C36.3278 34.4565 36.9913 32.7345 37.0202 32.6771C37.3664 31.7301 37.5106 30.4099 37.1067 29.836C36.9625 29.6351 36.7317 29.549 36.4144 29.549C35.3182 29.6064 34.3374 29.4629 32.6931 29.2046H32.6354C32.6354 29.2046 32.6354 29.2046 32.6066 29.2046C32.2892 29.1472 31.9719 29.0898 31.7123 29.0324C30.6449 28.8028 29.9815 28.6593 29.5199 28.8028C29.0583 28.9176 28.7121 29.262 28.1929 30.1229C27.9044 30.6395 27.5006 31.1274 27.1256 31.6153C26.4332 32.4762 25.7698 33.2798 25.6832 34.2555C25.6255 34.7721 25.7409 35.2887 26.0005 35.834C26.3179 36.4654 26.8371 37.1541 27.5871 37.9002C27.7891 38.0438 30.1545 39.9091 32.9238 42.6355C34.7989 44.4722 37.8567 47.1699 39.0683 48.203C39.1837 48.2605 39.4145 48.3465 39.703 48.404Z" fill="#001026"/>
<path id="Vector_14" fill-rule="evenodd" clip-rule="evenodd" d="M36.0977 34.514C36.0977 34.514 37.0208 33.28 34.915 31.9598C32.6937 30.5249 31.8572 32.1033 30.9629 33.28C29.9821 34.801 30.9629 35.5472 31.9437 36.4081C32.7226 37.1543 33.4726 37.7283 33.4726 37.7283C33.4726 37.7283 35.0303 36.7238 36.0977 34.514Z" fill="white"/>
<path id="Vector_15" fill-rule="evenodd" clip-rule="evenodd" d="M26.0587 33.7388C27.1549 35.1163 28.828 36.8382 26.6933 38.2445C23.7797 39.8516 21.3565 34.9441 20.8661 33.2509C20.4334 31.7299 21.7027 30.7541 22.7989 29.9219C24.9048 28.4009 26.6933 27.0233 28.6549 27.7695C31.1069 28.6591 29.3473 30.6106 28.1068 31.5003C27.3568 32.0456 26.6356 32.6195 26.0875 32.9639C25.9433 33.1935 25.9144 33.4805 26.0587 33.7388Z" fill="#FFAB19"/>
<path id="Vector_16" d="M25.5101 38.8757C25.1639 38.8757 24.8177 38.8183 24.5005 38.6748C23.8658 38.4165 22.9138 37.7851 21.9042 36.178C21.2119 35.0875 20.7791 33.9683 20.5772 33.3369C20.3464 32.562 20.4907 31.8445 21.0099 31.1558C21.4426 30.5818 22.0484 30.1227 22.5965 29.6922C22.6831 29.6347 22.7696 29.5486 22.8562 29.4913C23.8658 28.7738 24.8177 28.085 25.7409 27.6833C26.8371 27.1954 27.789 27.138 28.7122 27.5111C29.5776 27.8267 30.0391 28.2859 30.1257 28.8886C30.2987 30.18 28.5968 31.5002 28.2506 31.7584C27.991 31.9306 27.7602 32.1316 27.5294 32.3037C27.0679 32.6481 26.6351 32.9638 26.289 33.1934C26.2313 33.3081 26.1736 33.4517 26.2601 33.5952C26.3466 33.71 26.4332 33.7961 26.5198 33.9108C27.2698 34.8292 28.1063 35.8911 27.9621 36.9529C27.8756 37.5269 27.5006 38.0434 26.8371 38.5026C26.8371 38.5026 26.8371 38.5026 26.8082 38.5026C26.4044 38.7609 25.9717 38.8757 25.5101 38.8757ZM22.9715 30.1513C22.4234 30.5818 21.8753 31.0123 21.5003 31.5002C21.0965 32.0455 20.9811 32.562 21.1541 33.1647C21.3272 33.7673 21.76 34.8005 22.3946 35.8336C22.9138 36.6372 23.7215 37.6991 24.7023 38.1008C25.3082 38.3591 25.9139 38.3304 26.5198 37.9861C27.039 37.6417 27.3275 37.2686 27.3852 36.8381C27.5006 36.0058 26.7505 35.0588 26.087 34.2265C26.0005 34.1117 25.9139 33.9969 25.7985 33.8822L25.7697 33.8534C25.5678 33.5378 25.5967 33.136 25.8274 32.7629C25.8563 32.7342 25.8851 32.6768 25.9139 32.6768C26.2601 32.4472 26.7217 32.1316 27.1832 31.7584C27.414 31.5863 27.6736 31.3853 27.9333 31.2131C28.3948 30.8975 28.8275 30.4957 29.116 30.0939C29.4621 29.6347 29.6353 29.233 29.5776 28.9173C29.5199 28.5442 29.1737 28.2285 28.5391 27.9989C27.7602 27.7119 26.9525 27.7694 26.0005 28.1711C25.1062 28.5442 24.1831 29.233 23.2023 29.9217C23.1446 30.0078 23.058 30.0939 22.9715 30.1513Z" fill="#001026"/>
<path id="Vector_17" fill-rule="evenodd" clip-rule="evenodd" d="M37.3384 4.60984C36.2133 4.40895 35.0306 4.32286 33.6459 4.40895C31.3381 4.49505 29.1169 5.3273 29.1169 5.3273L23.1455 1.453C22.9435 1.3669 22.7128 1.5104 22.7416 1.71129L23.7801 10.493C24.0686 10.0913 18.5588 16.778 22.0493 22.3743C25.5398 27.9705 32.9824 30.4672 42.2712 28.6592C51.5312 26.8512 53.7236 21.542 53.1178 18.7582C52.512 15.9745 49.0215 14.9413 49.0215 14.9413C49.0215 14.9413 48.9638 12.7315 47.4061 10.0339C46.4541 8.36935 43.3098 6.07347 43.3098 6.07347L42.0404 0.821629C41.9828 0.620739 41.752 0.563342 41.6077 0.678136L37.3384 4.60984Z" fill="#FFAB19"/>
<path id="Vector_18" d="M36.5311 29.5203C36.2427 29.5203 35.983 29.5203 35.6946 29.5203C33.6176 29.4628 31.6848 29.1472 29.9251 28.5732C28.1654 28.028 26.5788 27.2244 25.223 26.2199C23.8383 25.1868 22.7133 23.9527 21.819 22.5465C21.0113 21.2551 20.6074 19.8202 20.6074 18.2417C20.6074 17.0077 20.867 15.6875 21.3575 14.31C21.819 13.1047 22.3671 12.0715 22.7709 11.4402C23.0594 10.981 23.319 10.6079 23.4633 10.407L22.4537 1.76875C22.4248 1.59656 22.4825 1.39567 22.6267 1.28087C22.7998 1.13738 23.0594 1.10868 23.2614 1.22347H23.2902L29.1462 5.01169C29.6655 4.8108 31.5983 4.20813 33.6176 4.12203C34.8291 4.03594 35.983 4.09333 37.2523 4.29422L41.4063 0.448614H41.4352C41.6082 0.33382 41.8102 0.33382 41.9833 0.391217C42.1563 0.448614 42.2717 0.592107 42.3294 0.764299L43.5987 5.90133C44.118 6.30314 46.8008 8.34072 47.695 9.86176C48.5316 11.2967 48.9354 12.5881 49.1374 13.3917C49.2816 13.9943 49.3393 14.4248 49.3681 14.6831C49.6855 14.7979 50.349 15.0562 51.0702 15.5154C51.6471 15.8885 52.1375 16.2902 52.5125 16.7494C53.0029 17.3233 53.3202 17.9835 53.4645 18.6435C53.6087 19.3036 53.5799 20.0785 53.4356 20.8533C53.2626 21.7143 52.8875 22.5465 52.3394 23.35C51.5029 24.5841 50.3201 25.6747 48.82 26.593C47.0604 27.6261 44.9257 28.4297 42.3871 28.9176C40.339 29.3194 38.3774 29.5203 36.5311 29.5203ZM23.7806 10.981C23.3768 11.5549 22.5113 12.9038 21.8767 14.597C21.4151 15.8885 21.1844 17.1225 21.1844 18.2704C21.1844 19.7053 21.5594 21.0255 22.3094 22.2021C25.0499 26.5643 30.1559 28.9176 36.5311 28.9176C38.3485 28.9176 40.2524 28.7167 42.2141 28.3436C44.6661 27.8558 46.7431 27.1096 48.4451 26.1052C49.8874 25.2442 51.0125 24.211 51.7913 23.0344C52.2818 22.2882 52.6279 21.5133 52.801 20.7385C52.9452 20.0497 52.9741 19.3897 52.8299 18.787C52.2818 16.2041 48.9643 15.1997 48.9354 15.171L48.7335 15.1136V14.9127C48.7335 14.9127 48.7047 14.3674 48.5028 13.5065C48.3297 12.7316 47.9258 11.4976 47.1469 10.1487C46.2527 8.59902 43.166 6.33182 43.1372 6.30314L43.0506 6.24573L41.7525 0.93649L37.4254 4.92559L37.2812 4.89689C36.0119 4.6673 34.858 4.60991 33.6464 4.696C31.3963 4.7821 29.2328 5.61436 29.2039 5.61436L29.0597 5.67175L28.9443 5.58566L23.0594 1.74005L24.0691 10.3496C24.098 10.4357 24.1268 10.5505 24.0114 10.6653L23.7806 10.981Z" fill="#001026"/>
<path id="Vector_19" fill-rule="evenodd" clip-rule="evenodd" d="M48.8781 15.0846C48.8781 15.0846 52.2821 15.9743 52.859 18.7581C53.4359 21.5418 51.0705 26.5928 41.9259 28.3721C29.9831 30.8114 24.329 23.7516 27.6176 18.5572C30.935 13.334 36.618 17.7823 40.7431 17.4953C44.2913 17.2657 44.6952 14.1663 48.8781 15.0846Z" fill="white"/>
<path id="Vector_20" fill-rule="evenodd" clip-rule="evenodd" d="M33.3584 20.3364C33.3584 20.1355 33.5603 19.992 33.7623 20.0494C34.6854 20.3938 37.3682 21.1686 40.3106 21.3695C42.9646 21.513 44.5512 21.3695 45.3012 21.226C45.5608 21.1686 45.7339 21.4269 45.6474 21.6565C45.2147 22.9766 43.3396 26.65 38.1471 26.3631C33.6469 25.9039 33.2142 22.7471 33.3584 20.3364Z" fill="white"/>
<path id="Vector_21" d="M38.6943 26.679C38.4924 26.679 38.2904 26.679 38.0885 26.6503C38.0885 26.6503 38.0885 26.6503 38.0597 26.6503C35.9538 26.4207 34.5114 25.5885 33.7037 24.2109C33.1268 23.2065 32.9248 21.9437 33.0114 20.3079C33.0114 20.1357 33.0979 19.9635 33.2421 19.8487C33.3864 19.734 33.5883 19.6765 33.7614 19.734H33.7902C34.8864 20.1357 37.4538 20.8532 40.2521 21.0541C43.2233 21.2263 44.6657 20.9966 45.1561 20.9105C45.3869 20.8532 45.5888 20.9393 45.733 21.1115C45.8772 21.2837 45.9061 21.5132 45.8196 21.7429C45.6465 22.2881 45.0695 23.6369 43.7714 24.8136C43.0791 25.4163 42.3002 25.8754 41.4348 26.1911C40.6559 26.5355 39.7328 26.679 38.6943 26.679ZM38.1462 26.0763C43.4541 26.3633 45.0695 22.3742 45.3292 21.5707C45.3292 21.5707 45.3292 21.5707 45.3292 21.5419C45.3292 21.5132 45.3292 21.5132 45.3292 21.5132C44.8099 21.628 43.3098 21.8289 40.2809 21.6568C37.425 21.4558 34.7999 20.7384 33.6749 20.3366H33.646C33.646 20.3366 33.646 20.3366 33.646 20.3653C33.5595 21.8863 33.7614 23.0343 34.2518 23.9239C34.5691 24.4979 35.0307 24.9571 35.6076 25.3015C36.3 25.7032 37.1365 25.9902 38.1462 26.0763Z" fill="#001026"/>
<path id="Vector_22" d="M56.2602 21.4558C53.7506 21.4558 52.2218 20.7383 52.1352 20.7096C51.991 20.6523 51.9333 20.4513 51.991 20.3079C52.0487 20.1644 52.2506 20.107 52.3948 20.1644C52.3948 20.1644 52.8853 20.394 53.693 20.5949C54.4718 20.7671 55.7124 20.9679 57.2702 20.8244C57.4432 20.8244 57.5872 20.9393 57.5872 21.0827C57.5872 21.2549 57.4721 21.3984 57.3275 21.3984C56.9526 21.4558 56.6067 21.4558 56.2602 21.4558ZM52.0775 17.8398C51.9045 17.8398 51.7891 17.725 51.7891 17.5528C51.7891 17.3806 51.9045 17.2658 52.0775 17.2658C52.1064 17.2658 52.9718 17.2371 54.0969 17.0076C55.1351 16.7779 56.6067 16.3474 57.7602 15.4004C57.8759 15.2856 58.0778 15.3143 58.1645 15.4578C58.2796 15.5726 58.2507 15.7735 58.1067 15.8596C57.4143 16.4049 56.174 17.151 54.1834 17.5815C53.0295 17.8398 52.1352 17.8398 52.0775 17.8398Z" fill="#001026"/>
<path id="Vector_23" fill-rule="evenodd" clip-rule="evenodd" d="M40.5392 16.2329C41.5777 16.2329 42.645 16.319 42.7027 16.6634C42.7604 17.3521 42.0104 18.7297 41.2315 18.7584C40.3372 18.8445 38.2602 17.6391 38.2602 16.8356C38.2314 16.2903 39.5584 16.2329 40.5392 16.2329Z" fill="#001026"/>
<path id="Vector_24" d="M41.1482 19.0739C40.427 19.0739 39.2732 18.5 38.6385 17.926C38.2347 17.5529 38.0039 17.2085 38.0039 16.8928C38.0039 16.7206 38.0616 16.5484 38.177 16.405C38.5231 16.0032 39.3885 15.9458 40.5713 15.9458C41.004 15.9458 41.6098 15.9745 42.0713 16.0319C42.4464 16.0893 42.9656 16.2328 43.0233 16.6345C43.0233 16.6345 43.0233 16.6345 43.0233 16.6633C43.0521 17.1798 42.7348 17.9834 42.2733 18.5C41.9559 18.8444 41.6098 19.0452 41.2636 19.0739C41.2348 19.0739 41.1771 19.0739 41.1482 19.0739ZM40.5425 16.5198C40.1674 16.5198 39.7059 16.5198 39.302 16.5772C38.7828 16.6345 38.6097 16.7494 38.5808 16.8067C38.552 16.8355 38.552 16.8355 38.552 16.8355V16.8642C38.552 16.9789 38.6674 17.1798 38.9847 17.4668C39.6193 18.0408 40.6867 18.5287 41.1771 18.4712C41.3502 18.4712 41.5809 18.3278 41.7829 18.0982C42.1579 17.6677 42.3887 17.065 42.3887 16.7494C42.331 16.7206 42.1867 16.6345 41.7829 16.6059C41.4944 16.5484 41.0328 16.5198 40.5425 16.5198Z" fill="#001026"/>
<path id="Vector_25" d="M21.2412 20.8529C19.8854 20.8529 18.7315 20.6807 18.645 20.6807C18.4719 20.652 18.3854 20.5085 18.3854 20.3363C18.4142 20.1641 18.5585 20.078 18.7315 20.078C18.7604 20.078 22.3374 20.5946 24.3567 19.791C24.501 19.7336 24.6741 19.791 24.7317 19.9632C24.7895 20.1067 24.7317 20.2789 24.5587 20.3363C23.6067 20.7668 22.3663 20.8529 21.2412 20.8529ZM24.3279 18.6718C24.2702 18.6718 24.1836 18.6431 24.126 18.5857C22.4528 17.1221 18.2988 15.7732 18.27 15.7445C18.1258 15.6871 18.0392 15.5149 18.068 15.3715C18.1258 15.2279 18.2988 15.1419 18.4431 15.1705C18.6161 15.2279 22.7702 16.5768 24.501 18.1265C24.6164 18.2413 24.6452 18.4135 24.5299 18.5283C24.501 18.6431 24.4145 18.6718 24.3279 18.6718Z" fill="#001026"/>
<path id="Vector_26" fill-rule="evenodd" clip-rule="evenodd" d="M46.367 10.4933C47.8093 12.7031 47.8382 15.1999 46.4535 16.0895C45.0688 16.9792 42.8188 15.9461 41.3187 13.7363C39.8763 11.5265 39.8475 9.02969 41.2322 8.14003C42.6168 7.19299 44.9246 8.28354 46.367 10.4933Z" fill="white"/>
<path id="Vector_27" d="M45.3291 16.6919C43.9156 16.6919 42.2713 15.6588 41.0885 13.8794C40.1366 12.4158 39.7327 10.78 40.0212 9.48857C40.1654 8.7711 40.5405 8.19715 41.0597 7.88149C41.5789 7.53709 42.2713 7.42231 42.9925 7.56577C43.6271 7.68055 44.2906 8.02495 44.9252 8.48412C45.5599 8.97203 46.1368 9.60341 46.5984 10.3208C47.5503 11.7844 47.9542 13.4203 47.6657 14.7117C47.5215 15.4292 47.1465 16.0032 46.5984 16.3188C46.2522 16.5771 45.7906 16.6919 45.3291 16.6919ZM41.5789 13.5638C42.2713 14.5969 43.1367 15.3718 44.0598 15.8022C44.9252 16.2041 45.733 16.2041 46.3099 15.831C46.7137 15.5727 46.9734 15.1422 47.1176 14.5682C47.233 14.023 47.2042 13.3916 47.0599 12.7315C46.8868 12.0427 46.5695 11.2966 46.1368 10.6365C45.3003 9.31638 44.0598 8.36934 42.9059 8.13973C42.329 8.02495 41.8097 8.11105 41.4058 8.36934C41.002 8.62764 40.7424 9.05813 40.5981 9.63209C40.4827 10.1774 40.5116 10.8087 40.6558 11.4688C40.8289 12.1863 41.1462 12.9037 41.5789 13.5638Z" fill="#001026"/>
<path id="Vector_28" fill-rule="evenodd" clip-rule="evenodd" d="M46.1655 13.277C46.1655 13.8223 45.7616 14.2528 45.2712 14.2528C44.7808 14.2528 44.377 13.8223 44.377 13.277C44.377 12.7317 44.7808 12.3013 45.2712 12.3013C45.7616 12.3013 46.1655 12.7317 46.1655 13.277Z" fill="#001026"/>
<path id="Vector_29" fill-rule="evenodd" clip-rule="evenodd" d="M34.1368 11.8702C35.608 14.0226 35.5215 16.6915 34.1946 17.6099C32.5503 18.5282 30.3867 17.8395 28.9155 15.6871C27.3866 13.5347 27.3 10.7222 28.8289 9.66038C30.329 8.51242 32.6656 9.68906 34.1368 11.8702Z" fill="white"/>
<path id="Vector_30" d="M32.6662 18.2993C32.2624 18.2993 31.8297 18.2132 31.397 18.0697C30.3584 17.6967 29.4065 16.9505 28.6565 15.8313C27.8776 14.7407 27.4449 13.4492 27.416 12.2439C27.416 11.6413 27.5026 11.096 27.7045 10.6081C27.9064 10.0916 28.2237 9.68974 28.6565 9.37408C29.2334 8.94359 29.9258 8.80012 30.7046 8.9149C32.0027 9.14447 33.3874 10.1489 34.4259 11.6413C35.1759 12.7031 35.551 13.9658 35.551 15.1425C35.551 16.3191 35.1183 17.2949 34.3971 17.7828C34.3971 17.7828 34.3682 17.7828 34.3682 17.8114C33.8201 18.1558 33.2432 18.2993 32.6662 18.2993ZM30.1565 9.51754C29.7238 9.51754 29.3199 9.63238 28.9738 9.89062C28.3103 10.3498 27.9641 11.1821 27.993 12.2439C28.0218 13.3345 28.4257 14.5111 29.1468 15.5156C29.8392 16.52 30.6757 17.2088 31.57 17.5245C32.4066 17.8114 33.272 17.7541 33.9932 17.3523C34.5413 16.9505 34.8874 16.1756 34.8874 15.1999C34.8874 14.138 34.5413 13.0188 33.849 12.043C33.3874 11.383 32.8393 10.7803 32.2624 10.3498C31.6854 9.91935 31.0796 9.63238 30.5315 9.54628C30.445 9.51754 30.3008 9.51754 30.1565 9.51754Z" fill="#001026"/>
<path id="Vector_31" fill-rule="evenodd" clip-rule="evenodd" d="M33.8491 14.712C33.8491 15.2573 33.4452 15.6878 32.9549 15.6878C32.4644 15.6878 32.0605 15.2573 32.0605 14.712C32.0605 14.1668 32.4644 13.7363 32.9549 13.7363C33.4452 13.765 33.8491 14.1668 33.8491 14.712Z" fill="#001026"/>
</g>
</g>
</g>
</g>
<defs>
<clipPath id="clip0_1_10517">
<rect width="69.2966" height="73.3333" fill="white" transform="translate(0.333984 0.333496)"/>
</clipPath>
</defs>
</svg>
