<svg width="74" height="64" viewBox="0 0 74 64" fill="none" xmlns="http://www.w3.org/2000/svg">
<g clip-path="url(#clip0_806_10986)">
<path fill-rule="evenodd" clip-rule="evenodd" d="M25.3518 30.6747C24.3492 30.4549 23.1264 30.1374 22.1238 29.2094C19.8251 27.1579 19.1159 23.7875 17.5264 24.6668C15.8879 25.546 15.9369 31.0167 21.0478 32.6774C22.8085 33.2635 24.3981 33.2635 25.6941 33.2147C26.0365 33.2147 28.9221 32.9216 29.9247 31.5051C30.9274 30.0886 30.2182 29.7223 29.8758 29.5513C29.4846 29.3559 26.7701 30.9434 25.3518 30.6747Z" fill="#FFAB19"/>
<path d="M24.8138 33.4835C23.6644 33.4835 22.3683 33.3858 20.9744 32.9218C20.2164 32.6775 19.5561 32.3356 18.9692 31.9204C18.4312 31.5297 17.9665 31.0901 17.5753 30.5528C16.8906 29.6491 16.4748 28.5501 16.377 27.4511C16.3281 26.7672 16.377 26.1323 16.5727 25.595C16.7683 25.0332 17.0617 24.618 17.453 24.4227C17.722 24.2761 18.0155 24.2273 18.2845 24.2761C18.529 24.325 18.7491 24.4471 18.9936 24.6669C19.4094 25.0332 19.7762 25.6194 20.2164 26.3032C20.7788 27.2068 21.4391 28.2082 22.3439 29.0141C23.2731 29.8689 24.447 30.2108 25.4496 30.4062C26.2321 30.5528 27.5282 30.0399 28.4819 29.6735C29.3867 29.3072 29.778 29.1851 30.0225 29.3072C30.1937 29.4049 30.585 29.5758 30.6828 30.0155C30.7806 30.4306 30.6095 30.9679 30.1448 31.6274C29.6802 32.2623 28.8487 32.7752 27.6505 33.1171C26.7457 33.3614 25.9387 33.4591 25.7186 33.4591C25.4007 33.4835 25.1072 33.4835 24.8138 33.4835ZM18.0399 24.789C17.9176 24.789 17.7954 24.8379 17.6731 24.9111C17.4041 25.0577 17.184 25.3751 17.0373 25.8148C16.8661 26.2788 16.8172 26.8649 16.8661 27.4511C16.9639 28.4524 17.3552 29.4537 17.9665 30.2841C18.7246 31.2854 19.8006 32.0181 21.1456 32.4577C22.8574 33.0194 24.398 33.0194 25.6941 32.995C25.7919 32.995 26.5745 32.9462 27.4793 32.6775C28.2374 32.4577 29.2156 32.067 29.7046 31.3831C30.1693 30.7237 30.2182 30.3574 30.1693 30.1864C30.1204 29.991 29.9492 29.8933 29.778 29.7957C29.7536 29.7957 29.6557 29.7957 29.4112 29.8933C29.1911 29.9666 28.9221 30.0643 28.6287 30.1864C27.5771 30.6016 26.2321 31.1145 25.3273 30.9435C24.2513 30.7237 23.0286 30.3574 22.0015 29.4293C21.0478 28.5745 20.3875 27.5243 19.7762 26.6207C19.3604 25.9613 18.9936 25.424 18.6513 25.0821C18.4067 24.8623 18.2111 24.789 18.0399 24.789Z" fill="#001026"/>
<path fill-rule="evenodd" clip-rule="evenodd" d="M17.7694 24.7645C16.938 25.0087 16.5223 26.7671 16.938 28.2325C17.3537 29.6978 18.014 30.4549 18.5764 30.9922C18.5031 30.6992 18.3319 29.7711 19.0411 29.2338C19.9214 28.5255 21.462 28.8919 21.462 28.8919C21.462 28.8919 20.166 27.3044 19.5057 26.181C18.821 25.2041 18.6253 24.5935 17.7694 24.7645Z" fill="white"/>
<path fill-rule="evenodd" clip-rule="evenodd" d="M31.9537 33.8984C31.1957 34.4112 28.6035 36.2429 25.3022 37.2687L25.131 37.3175C24.9598 37.3664 24.8864 37.5618 24.9598 37.7327C25.669 38.7341 26.9651 40.7367 24.6663 41.445C22.441 42.1532 18.3082 36.2674 20.0689 34.7287C20.8515 34.1426 21.5851 34.4357 21.9519 34.6066C22.172 34.6799 22.3676 34.6799 22.5877 34.6555C23.1013 34.4845 24.0061 34.1426 24.7153 33.7763C26.5004 32.8482 26.9406 32.4819 27.7721 31.8469C28.6035 31.2119 30.5354 29.6732 32.076 31.0165C33.421 32.1399 32.6629 33.3855 31.9537 33.8984ZM38.6053 25.2039C38.8254 25.3749 41.3687 28.3788 42.2001 27.6217C43.2028 26.7425 44.5722 25.0329 46.0884 26.4006C47.6045 27.7683 44.7434 30.1129 43.5451 30.7478C40.6595 32.0422 38.3119 29.5756 37.8228 28.9161C37.3337 28.2567 36.4534 27.1333 36.4534 26.0343C36.4778 24.8864 37.8962 24.5933 38.6053 25.2039Z" fill="#FFAB19"/>
<path d="M24.2755 41.7625C23.6886 41.7625 23.0284 41.4695 22.3192 40.8833C21.5366 40.2483 20.7786 39.3203 20.2161 38.3434C19.7759 37.5863 19.5069 36.8536 19.4336 36.2186C19.3357 35.4615 19.5069 34.8754 19.9227 34.509C19.9227 34.509 19.9227 34.509 19.9471 34.4846C20.8764 33.8008 21.7078 34.1671 22.0746 34.3381C22.2214 34.3869 22.3681 34.4113 22.5393 34.3625C22.8572 34.2648 23.8598 33.8984 24.6179 33.5077C26.183 32.7017 26.6721 32.3354 27.3568 31.8225C27.4546 31.7493 27.528 31.676 27.6258 31.6027C27.6502 31.5783 27.6991 31.5539 27.7236 31.5294C28.1882 31.1875 28.8729 30.6747 29.6555 30.3816C30.6581 30.0397 31.514 30.1618 32.2232 30.7723C32.9324 31.3829 33.0546 31.9935 33.0546 32.4087C33.0302 33.1413 32.5411 33.7519 32.0765 34.045C32.0276 34.0694 31.9542 34.1182 31.9053 34.1671C30.976 34.8021 28.4817 36.4628 25.376 37.4642C25.376 37.4642 25.376 37.4642 25.3515 37.4642L25.1803 37.513C25.1803 37.513 25.1559 37.5374 25.1803 37.5618C25.7917 38.4411 26.452 39.5645 26.1341 40.4926C25.9629 41.0299 25.4738 41.4206 24.7402 41.6404C24.5934 41.7381 24.4467 41.7625 24.2755 41.7625ZM20.2406 34.9242C19.9471 35.1684 19.8493 35.608 19.9471 36.1698C20.0205 36.7315 20.2895 37.4153 20.6807 38.0991C21.2187 39.0272 21.9279 39.9064 22.6615 40.4926C23.4196 41.1031 24.1288 41.3718 24.6179 41.2008C25.2048 41.0299 25.5716 40.7368 25.6939 40.3705C25.9629 39.5401 25.107 38.319 24.7891 37.8793L24.7646 37.8549C24.6913 37.7084 24.6913 37.513 24.7646 37.3665C24.838 37.2199 24.9602 37.1222 25.107 37.0734L25.2782 37.0245C28.3105 36.0721 30.7559 34.4113 31.6607 33.8008C31.7341 33.7519 31.783 33.7031 31.8319 33.6786C32.1743 33.4344 32.5656 32.9704 32.59 32.4331C32.6145 31.9935 32.3944 31.5783 31.9297 31.212C31.3428 30.7235 30.6826 30.6258 29.8511 30.9189C29.1419 31.1631 28.4817 31.676 28.0415 31.9935C28.017 32.0179 27.9681 32.0423 27.9437 32.0667C27.8459 32.14 27.748 32.2133 27.6747 32.2865C27.0144 32.7994 26.4764 33.1902 24.8624 34.0206C24.0799 34.4357 23.0773 34.7777 22.686 34.9242H22.6615C22.3681 34.973 22.1235 34.973 21.9035 34.8754C21.5366 34.68 20.9253 34.4113 20.2406 34.9242ZM41.8582 31.3829C41.7359 31.3829 41.5892 31.3829 41.4669 31.3585C40.8556 31.3096 40.2442 31.1143 39.6573 30.7968C38.4346 30.1374 37.6765 29.1849 37.6032 29.0628L37.5542 28.9895C37.0407 28.3057 36.1848 27.1578 36.1848 26.0343C36.2093 25.4482 36.5272 24.9842 37.0407 24.7644C37.3097 24.6423 37.6276 24.5934 37.9455 24.6423C38.2634 24.6911 38.5569 24.8132 38.777 25.0086C38.8259 25.0574 38.8992 25.1063 39.046 25.2772C39.3883 25.6436 40.0486 26.3274 40.6844 26.8647C41.3447 27.402 41.8582 27.5974 42.0294 27.4264C42.1517 27.3043 42.2984 27.1822 42.4451 27.0601C42.9342 26.5961 43.4967 26.0832 44.1325 25.8145C44.8906 25.497 45.6242 25.6436 46.26 26.2297C46.6513 26.5961 46.8224 27.0357 46.7491 27.5486C46.7002 27.9882 46.4312 28.6964 45.4775 29.6245C44.8172 30.2839 44.0836 30.7723 43.6434 30.9921C43.6434 30.9921 43.6434 30.9921 43.6189 30.9921C43.0565 31.2608 42.4451 31.3829 41.8582 31.3829ZM36.6739 26.0588C36.6739 27.0113 37.4809 28.0858 37.9455 28.7208L37.9944 28.7941C38.0678 28.8918 38.7525 29.771 39.8774 30.3816C41.0757 31.0166 42.2495 31.0654 43.3988 30.5525C43.7901 30.3572 44.4748 29.8931 45.0862 29.2826C45.7465 28.6476 46.1377 28.0126 46.2111 27.4997C46.26 27.1578 46.1377 26.8647 45.8687 26.5961C45.3552 26.132 44.8416 26.0343 44.2547 26.2786C43.7167 26.4984 43.1787 26.9868 42.7141 27.4264C42.5674 27.573 42.4207 27.6951 42.2984 27.8172C42.1272 27.9637 41.8338 28.1103 41.3202 27.8905C41.0268 27.7684 40.6844 27.573 40.2931 27.2555C39.6084 26.7182 38.9481 26.0099 38.6058 25.6192C38.508 25.5215 38.4101 25.3994 38.3857 25.3749C38.0678 25.1063 37.5787 25.033 37.1874 25.204C37.0407 25.3261 36.6983 25.5459 36.6739 26.0588Z" fill="#001026"/>
<path fill-rule="evenodd" clip-rule="evenodd" d="M35.4989 31.8961C36.0124 31.5298 36.5015 30.8948 37.1618 29.9423C37.6998 29.1608 38.2867 27.5978 38.2867 27.5978C38.6535 26.5476 38.9225 24.5449 37.5286 24.5938C36.5994 24.6426 35.7679 24.5205 34.3495 24.3007C31.8308 23.7878 31.3906 23.4703 30.339 25.1799C29.2141 27.1826 26.3285 28.6479 29.8744 32.1159C29.8744 32.1159 31.9286 33.7034 34.3985 36.1213C36.0614 37.7576 38.7024 40.0777 39.6317 40.8837C39.8518 41.0546 40.0963 41.1279 40.3409 41.1768C44.4003 41.5431 47.4082 41.1279 47.4082 39.3451C47.4082 36.3411 41.4413 37.3912 41.4413 37.3912C41.4413 37.3912 39.5094 35.7549 38.6291 34.9734L35.4989 31.8961Z" fill="#FFAB19"/>
<path d="M42.836 41.543C42.0779 41.543 41.2465 41.4941 40.3172 41.4208C40.3172 41.4208 40.3172 41.4208 40.2928 41.4208C39.9504 41.372 39.6814 41.2499 39.4613 41.0789C38.4342 40.1997 35.8421 37.8796 34.2281 36.3165C31.8071 33.9231 29.7529 32.3356 29.7285 32.3356C29.7285 32.3356 29.704 32.3356 29.704 32.3112C29.0193 31.6274 28.5302 31.0168 28.2368 30.4062C27.9678 29.8445 27.8699 29.3316 27.9189 28.7943C28.0167 27.8174 28.6525 27.0359 29.2394 26.2788C29.5573 25.888 29.8752 25.4973 30.0953 25.0821C30.5355 24.3494 30.9267 23.8854 31.5381 23.7388C32.0516 23.6167 32.663 23.7388 33.6412 23.9342C33.8613 23.9831 34.1058 24.0319 34.3748 24.0808H34.4237C35.7932 24.2761 36.6002 24.3982 37.505 24.3738C37.9207 24.3494 38.2875 24.5204 38.5076 24.8379C38.7521 25.1553 38.85 25.6438 38.801 26.2788C38.7766 26.7428 38.6543 27.2801 38.5076 27.7197C38.4831 27.793 37.8962 29.3072 37.3582 30.1132C36.8202 30.8947 36.3312 31.5297 35.8665 31.9449L38.801 34.8023C39.5591 35.4861 41.1242 36.805 41.5155 37.1469C41.8089 37.098 42.6159 37.0003 43.5452 36.9759C45.1347 36.9759 46.2841 37.2446 46.9688 37.8307C47.4334 38.2215 47.678 38.7344 47.678 39.3693C47.678 39.8578 47.4823 40.273 47.14 40.5905C46.6264 41.0545 45.7216 41.372 44.4989 41.4941C43.9854 41.5185 43.4474 41.543 42.836 41.543ZM40.3906 40.908C41.9801 41.0545 43.3496 41.0789 44.4255 40.9568C45.5504 40.8347 46.3574 40.5661 46.7976 40.1753C47.0666 39.9311 47.1889 39.6624 47.1889 39.3205C47.1889 38.832 47.0177 38.4657 46.6753 38.1726C46.0884 37.6842 45.0369 37.44 43.5941 37.44C42.4692 37.44 41.5399 37.6109 41.5155 37.6109C41.4421 37.6353 41.3688 37.6109 41.3198 37.5621C41.2954 37.5376 39.3879 35.9257 38.5076 35.1442L35.3774 32.0914C35.3285 32.0425 35.3041 31.9693 35.3041 31.896C35.3041 31.8227 35.353 31.7495 35.4019 31.7006C35.9154 31.3343 36.4045 30.6749 37.0159 29.7957C37.5294 29.0386 38.0919 27.5732 38.1163 27.5243C38.4098 26.7184 38.532 25.595 38.1897 25.1065C38.0674 24.9355 37.8718 24.8623 37.6028 24.8623C36.6735 24.9111 35.8421 24.789 34.4482 24.5692H34.3993C34.3993 24.5692 34.3993 24.5692 34.3748 24.5692C34.1058 24.5204 33.8368 24.4715 33.6167 24.4227C32.7119 24.2273 32.1495 24.1052 31.7582 24.2273C31.3669 24.325 31.0735 24.6181 30.6333 25.3507C30.3887 25.7903 30.0464 26.2055 29.7285 26.6207C29.1416 27.3534 28.5791 28.0372 28.5058 28.8676C28.4568 29.3072 28.5547 29.7468 28.7748 30.2108C29.0438 30.7481 29.4839 31.3343 30.1197 31.9693C30.2909 32.0914 32.2962 33.6789 34.6438 35.999C36.2333 37.5621 38.8255 39.8578 39.8526 40.737C39.9504 40.7859 40.146 40.8591 40.3906 40.908Z" fill="#001026"/>
<path fill-rule="evenodd" clip-rule="evenodd" d="M37.334 29.0873C37.334 29.0873 38.1165 28.0372 36.3314 26.9137C34.4484 25.6926 33.7392 27.0358 32.9811 28.0372C32.1497 29.3316 32.9811 29.9666 33.8126 30.6992C34.4728 31.3342 35.1086 31.8227 35.1086 31.8227C35.1086 31.8227 36.4292 30.9679 37.334 29.0873Z" fill="white"/>
<path fill-rule="evenodd" clip-rule="evenodd" d="M28.8235 28.4281C29.7528 29.6004 31.1712 31.0658 29.3615 32.2625C26.8916 33.6302 24.8375 29.4539 24.4218 28.013C24.0549 26.7186 25.1309 25.8882 26.0602 25.1799C27.8454 23.8855 29.3615 22.7132 31.0244 23.3482C33.1031 24.1053 31.6113 25.7661 30.5598 26.5232C29.924 26.9872 29.3126 27.4757 28.848 27.7687C28.7257 27.9641 28.7013 28.2083 28.8235 28.4281Z" fill="#FFAB19"/>
<path d="M28.3584 32.7996C28.065 32.7996 27.7715 32.7508 27.5025 32.6287C26.9645 32.4089 26.1575 31.8716 25.3016 30.5039C24.7147 29.5758 24.3479 28.6233 24.1767 28.086C23.9811 27.4266 24.1034 26.8161 24.5435 26.2299C24.9103 25.7415 25.4239 25.3507 25.8885 24.9844C25.9619 24.9355 26.0353 24.8623 26.1086 24.8134C26.9645 24.2028 27.7715 23.6167 28.554 23.2748C29.4833 22.8596 30.2903 22.8108 31.0728 23.1282C31.8065 23.3969 32.1977 23.7877 32.2711 24.3005C32.4178 25.3996 30.975 26.523 30.6816 26.7428C30.4615 26.8893 30.2659 27.0603 30.0702 27.2068C29.679 27.4999 29.3121 27.7686 29.0187 27.9639C28.9698 28.0616 28.9209 28.1837 28.9942 28.3059C29.0676 28.4035 29.141 28.4768 29.2143 28.5745C29.8501 29.356 30.5593 30.2597 30.437 31.1633C30.3637 31.6518 30.0458 32.0914 29.4833 32.4821C29.4833 32.4821 29.4833 32.4821 29.4589 32.4821C29.1165 32.7019 28.7497 32.7996 28.3584 32.7996ZM26.2064 25.3751C25.7418 25.7415 25.2772 26.1078 24.9593 26.523C24.6169 26.987 24.5191 27.4266 24.6658 27.9395C24.8125 28.4524 25.1793 29.3316 25.7173 30.2108C26.1575 30.8947 26.8422 31.7983 27.6737 32.1402C28.1872 32.36 28.7008 32.3356 29.2143 32.0425C29.6545 31.7494 29.899 31.432 29.9479 31.0656C30.0458 30.3574 29.41 29.5514 28.8475 28.8432C28.7741 28.7455 28.7008 28.6478 28.603 28.5501L28.5785 28.5257C28.4073 28.257 28.4318 27.9151 28.6274 27.5976C28.6519 27.5732 28.6763 27.5243 28.7008 27.5243C28.9942 27.3289 29.3855 27.0603 29.7768 26.7428C29.9724 26.5963 30.1925 26.4253 30.4126 26.2788C30.8039 26.0101 31.1707 25.6682 31.4152 25.3263C31.7087 24.9355 31.8554 24.5936 31.8065 24.325C31.7576 24.0075 31.4641 23.7388 30.9261 23.5434C30.2659 23.2992 29.5811 23.3481 28.7741 23.69C28.0161 24.0075 27.2335 24.5936 26.4021 25.1798C26.3532 25.253 26.2798 25.3263 26.2064 25.3751Z" fill="#001026"/>
<path fill-rule="evenodd" clip-rule="evenodd" d="M38.3838 3.63886C37.4301 3.4679 36.4275 3.39463 35.2537 3.4679C33.2973 3.54117 31.4143 4.24943 31.4143 4.24943L26.3523 0.952366C26.1811 0.879098 25.9855 1.00121 26.0099 1.17217L26.8903 8.64551C27.1348 8.30359 22.464 13.9941 25.423 18.7565C28.382 23.5189 34.6912 25.6437 42.5655 24.1051C50.4154 22.5664 52.2739 18.0482 51.7604 15.6792C51.2468 13.3102 48.2879 12.431 48.2879 12.431C48.2879 12.431 48.2389 10.5505 46.9184 8.25474C46.1114 6.83823 43.4459 4.88442 43.4459 4.88442L42.3699 0.415067C42.321 0.244109 42.1254 0.195263 42.0031 0.292954L38.3838 3.63886Z" fill="#FFAB19"/>
<path d="M37.6995 24.8377C37.4549 24.8377 37.2349 24.8377 36.9903 24.8377C35.2296 24.7889 33.5912 24.5202 32.0994 24.0318C30.6077 23.5677 29.2627 22.8839 28.1134 22.0291C26.9396 21.1499 25.9859 20.0997 25.2278 18.903C24.543 17.804 24.2007 16.5828 24.2007 15.2396C24.2007 14.1894 24.4208 13.066 24.8365 11.8937C25.2278 10.8679 25.6924 9.98871 26.0348 9.45142C26.2793 9.06065 26.4994 8.74316 26.6217 8.5722L25.7658 1.22097C25.7413 1.07444 25.7902 0.903479 25.9125 0.805789C26.0592 0.683675 26.2793 0.659253 26.4505 0.756943H26.4749L31.4392 3.98074C31.8794 3.80978 33.5178 3.2969 35.2296 3.22363C36.2567 3.15037 37.2349 3.19921 38.3108 3.37017L41.8323 0.0975312H41.8567C42.0035 -0.000159509 42.1746 -0.000159509 42.3214 0.0486858C42.4681 0.0975312 42.5659 0.219645 42.6148 0.366181L43.6908 4.73784C44.131 5.07976 46.4052 6.81377 47.1633 8.10817C47.8725 9.3293 48.2149 10.4283 48.386 11.1122C48.5083 11.625 48.5572 11.9914 48.5817 12.2112C48.8507 12.3089 49.4131 12.5287 50.0245 12.9194C50.5136 13.2369 50.9293 13.5788 51.2472 13.9696C51.6629 14.4581 51.9319 15.0198 52.0542 15.5815C52.1765 16.1432 52.152 16.8026 52.0297 17.4621C51.883 18.1947 51.5651 18.903 51.1005 19.5868C50.3913 20.637 49.3887 21.5651 48.117 22.3466C46.6253 23.2258 44.8157 23.9096 42.6637 24.3248C40.9275 24.6667 39.2646 24.8377 37.6995 24.8377ZM26.8907 9.06065C26.5483 9.54911 25.8147 10.697 25.2767 12.1379C24.8854 13.2369 24.6898 14.2871 24.6898 15.264C24.6898 16.4851 25.0077 17.6086 25.6435 18.6099C27.9667 22.3222 32.2951 24.3248 37.6995 24.3248C39.2401 24.3248 40.8541 24.1539 42.517 23.8364C44.5956 23.4212 46.3563 22.7862 47.7991 21.9314C49.0219 21.1987 49.9756 20.3195 50.6358 19.3182C51.0516 18.6832 51.345 18.0238 51.4917 17.3644C51.614 16.7782 51.6385 16.2165 51.5162 15.7036C51.0516 13.5056 48.2393 12.6508 48.2149 12.6264L48.0437 12.5775V12.4066C48.0437 12.4066 48.0192 11.9425 47.848 11.2098C47.7013 10.5504 47.359 9.50026 46.6987 8.3524C45.9406 7.03357 43.324 5.10418 43.2995 5.07976L43.2262 5.03091L42.1257 0.512717L38.4576 3.90747L38.3353 3.88305C37.2593 3.68766 36.2811 3.63882 35.2541 3.71209C33.3466 3.78535 31.5125 4.49361 31.4881 4.49361L31.3658 4.54246L31.268 4.46919L26.2793 1.19655L27.1352 8.52335C27.1597 8.59662 27.1841 8.69431 27.0863 8.792L26.8907 9.06065Z" fill="#001026"/>
<path fill-rule="evenodd" clip-rule="evenodd" d="M48.1672 12.553C48.1672 12.553 51.0528 13.3101 51.5419 15.6791C52.031 18.0481 50.0257 22.3465 42.2737 23.8607C32.1496 25.9367 27.3565 19.9287 30.1443 15.5082C32.9566 11.0632 37.7741 14.8488 41.2711 14.6045C44.2789 14.4092 44.6213 11.7715 48.1672 12.553Z" fill="white"/>
<path fill-rule="evenodd" clip-rule="evenodd" d="M35.0093 17.0227C35.0093 16.8517 35.1805 16.7296 35.3517 16.7784C36.1342 17.0715 38.4085 17.7309 40.9028 17.9019C43.1526 18.024 44.4976 17.9019 45.1334 17.7798C45.3535 17.7309 45.5002 17.9507 45.4269 18.1461C45.0601 19.2695 43.4705 22.3956 39.0687 22.1514C35.2539 21.7607 34.887 19.0742 35.0093 17.0227Z" fill="white"/>
<path d="M39.5335 22.4202C39.3623 22.4202 39.1911 22.4202 39.0199 22.3958C39.0199 22.3958 39.0199 22.3958 38.9955 22.3958C37.2103 22.2004 35.9876 21.4921 35.3029 20.3198C34.8138 19.465 34.6426 18.3904 34.716 16.9983C34.716 16.8518 34.7893 16.7053 34.9116 16.6076C35.0339 16.5099 35.2051 16.461 35.3518 16.5099H35.3762C36.3055 16.8518 38.4819 17.4624 40.854 17.6333C43.3728 17.7799 44.5955 17.5845 45.0113 17.5112C45.2069 17.4624 45.3781 17.5356 45.5003 17.6822C45.6226 17.8287 45.6471 18.0241 45.5737 18.2195C45.427 18.6835 44.9379 19.8314 43.8374 20.8327C43.2505 21.3456 42.5903 21.7363 41.8566 22.005C41.1964 22.2981 40.4138 22.4202 39.5335 22.4202ZM39.0689 21.9073C43.5685 22.1515 44.9379 18.7568 45.158 18.0729C45.158 18.0729 45.158 18.0729 45.158 18.0485C45.158 18.0241 45.158 18.0241 45.158 18.0241C44.7178 18.1218 43.4462 18.2927 40.8785 18.1462C38.4575 17.9752 36.2321 17.3647 35.2784 17.0228H35.254C35.254 17.0228 35.254 17.0228 35.254 17.0472C35.1806 18.3416 35.3518 19.3185 35.7675 20.0756C36.0365 20.564 36.4278 20.9548 36.9169 21.2479C37.5038 21.5898 38.2129 21.834 39.0689 21.9073Z" fill="#001026"/>
<path d="M54.4271 17.9752C52.2996 17.9752 51.0035 17.3646 50.9302 17.3402C50.8079 17.2913 50.759 17.1204 50.8079 16.9983C50.8568 16.8762 51.028 16.8273 51.1503 16.8762C51.1503 16.8762 51.566 17.0715 52.2507 17.2425C52.911 17.389 53.9625 17.56 55.283 17.4379C55.4298 17.4379 55.552 17.5356 55.552 17.6577C55.552 17.8042 55.4542 17.9263 55.332 17.9263C55.014 17.9752 54.7206 17.9752 54.4271 17.9752ZM50.8813 14.8979C50.7345 14.8979 50.6367 14.8002 50.6367 14.6537C50.6367 14.5072 50.7345 14.4095 50.8813 14.4095C50.9057 14.4095 51.6393 14.385 52.5931 14.1897C53.4734 13.9943 54.7206 13.6279 55.6988 12.822C55.7966 12.7243 55.9678 12.7487 56.0411 12.8708C56.1389 12.9685 56.1145 13.1395 55.9922 13.2128C55.4053 13.6768 54.3538 14.3118 52.6664 14.6781C51.6883 14.8979 50.9302 14.8979 50.8813 14.8979Z" fill="#001026"/>
<path fill-rule="evenodd" clip-rule="evenodd" d="M41.0983 13.5298C41.9787 13.5298 42.8835 13.6031 42.9324 13.8961C42.9813 14.4823 42.3455 15.6546 41.6852 15.679C40.9271 15.7522 39.1664 14.7265 39.1664 14.0427C39.142 13.5786 40.2669 13.5298 41.0983 13.5298Z" fill="#001026"/>
<path d="M41.6113 15.9477C41 15.9477 40.0218 15.4593 39.4838 14.9708C39.1414 14.6533 38.9458 14.3602 38.9458 14.0916C38.9458 13.9451 38.9947 13.7985 39.0925 13.6764C39.386 13.3345 40.1196 13.2856 41.1222 13.2856C41.4891 13.2856 42.0026 13.3101 42.3939 13.3589C42.7118 13.4078 43.152 13.5299 43.2009 13.8718C43.2009 13.8718 43.2009 13.8718 43.2009 13.8962C43.2253 14.3358 42.9563 15.0197 42.565 15.4593C42.296 15.7523 42.0026 15.9233 41.7091 15.9477C41.6847 15.9477 41.6358 15.9477 41.6113 15.9477ZM41.0978 13.7741C40.7799 13.7741 40.3886 13.7741 40.0462 13.8229C39.6061 13.8718 39.4593 13.9695 39.4349 14.0183C39.4104 14.0427 39.4104 14.0427 39.4104 14.0427V14.0672C39.4104 14.1649 39.5083 14.3358 39.7772 14.58C40.3152 15.0685 41.2201 15.4837 41.6358 15.4348C41.7825 15.4348 41.9781 15.3127 42.1493 15.1173C42.4672 14.751 42.6629 14.2381 42.6629 13.9695C42.614 13.9451 42.4917 13.8718 42.1493 13.8474C41.9048 13.7985 41.5135 13.7741 41.0978 13.7741Z" fill="#001026"/>
<path d="M24.7381 17.462C23.5888 17.462 22.6106 17.3154 22.5372 17.3154C22.3905 17.291 22.3171 17.1689 22.3171 17.0223C22.3416 16.8758 22.4639 16.8025 22.6106 16.8025C22.635 16.8025 25.6674 17.2421 27.3792 16.5583C27.5015 16.5095 27.6482 16.5583 27.6971 16.7048C27.746 16.827 27.6971 16.9735 27.5504 17.0223C26.7434 17.3887 25.6918 17.462 24.7381 17.462ZM27.3547 15.6058C27.3058 15.6058 27.2325 15.5814 27.1836 15.5326C25.7652 14.287 22.2438 13.1391 22.2193 13.1147C22.0971 13.0659 22.0237 12.9193 22.0481 12.7972C22.0971 12.6751 22.2438 12.6018 22.366 12.6263C22.5128 12.6751 26.0342 13.823 27.5015 15.1418C27.5993 15.2395 27.6237 15.386 27.5259 15.4837C27.5015 15.5814 27.4281 15.6058 27.3547 15.6058Z" fill="#001026"/>
<path fill-rule="evenodd" clip-rule="evenodd" d="M46.0385 8.64535C47.2612 10.5259 47.2857 12.6507 46.1119 13.4078C44.9381 14.1649 43.0306 13.2857 41.759 11.4051C40.5363 9.52457 40.5118 7.3998 41.6856 6.64269C42.8594 5.83674 44.8158 6.76481 46.0385 8.64535Z" fill="white"/>
<path d="M45.1582 13.9209C43.96 13.9209 42.5661 13.0416 41.5634 11.5274C40.7564 10.2819 40.4141 8.88978 40.6586 7.79076C40.7809 7.1802 41.0988 6.69174 41.539 6.42309C41.9792 6.13002 42.5661 6.03233 43.1774 6.15444C43.7154 6.25213 44.2779 6.54521 44.8159 6.93597C45.3539 7.35115 45.8429 7.88845 46.2342 8.49902C47.0412 9.74458 47.3836 11.1367 47.139 12.2357C47.0168 12.8463 46.6988 13.3347 46.2342 13.6034C45.9408 13.8232 45.5495 13.9209 45.1582 13.9209ZM41.9792 11.2588C42.5661 12.138 43.2997 12.7974 44.0822 13.1638C44.8159 13.5057 45.5006 13.5057 45.9897 13.1882C46.332 12.9684 46.5521 12.602 46.6744 12.1136C46.7722 11.6495 46.7478 11.1122 46.6255 10.5505C46.4788 9.96438 46.2098 9.32939 45.8429 8.76767C45.1338 7.64423 44.0822 6.83828 43.1041 6.6429C42.615 6.54521 42.1748 6.61847 41.8324 6.83828C41.4901 7.05808 41.27 7.42442 41.1477 7.91288C41.0499 8.37691 41.0743 8.91421 41.1966 9.47593C41.3433 10.0865 41.6123 10.6971 41.9792 11.2588Z" fill="#001026"/>
<path fill-rule="evenodd" clip-rule="evenodd" d="M45.8682 11.0145C45.8682 11.4785 45.5259 11.8448 45.1101 11.8448C44.6944 11.8448 44.3521 11.4785 44.3521 11.0145C44.3521 10.5504 44.6944 10.1841 45.1101 10.1841C45.5259 10.1841 45.8682 10.5504 45.8682 11.0145Z" fill="#001026"/>
<path fill-rule="evenodd" clip-rule="evenodd" d="M35.6706 9.81799C36.9178 11.6497 36.8444 13.921 35.7195 14.7025C34.3256 15.4841 32.4916 14.8979 31.2444 13.0662C29.9483 11.2345 29.8749 8.84109 31.171 7.93745C32.4426 6.96054 34.4235 7.96187 35.6706 9.81799Z" fill="white"/>
<path d="M34.4238 15.2885C34.0815 15.2885 33.7147 15.2153 33.3478 15.0932C32.4675 14.7757 31.6605 14.1407 31.0247 13.1882C30.3644 12.2601 29.9976 11.1611 29.9731 10.1354C29.9731 9.62247 30.0465 9.15844 30.2177 8.74326C30.3889 8.30365 30.6579 7.96173 31.0247 7.69308C31.5138 7.32674 32.1007 7.20463 32.7609 7.30232C33.8614 7.4977 35.0352 8.3525 35.9156 9.62247C36.5514 10.5261 36.8693 11.6007 36.8693 12.602C36.8693 13.6034 36.5025 14.4337 35.8911 14.8489C35.8911 14.8489 35.8666 14.8489 35.8666 14.8733C35.402 15.1664 34.9129 15.2885 34.4238 15.2885ZM32.2963 7.8152C31.9295 7.8152 31.5871 7.91289 31.2937 8.13269C30.7312 8.52345 30.4378 9.23171 30.4622 10.1354C30.4867 11.0634 30.829 12.0647 31.4404 12.9195C32.0273 13.7743 32.7365 14.3605 33.4946 14.6291C34.2037 14.8733 34.9374 14.8245 35.5487 14.4826C36.0134 14.1407 36.3068 13.4813 36.3068 12.6509C36.3068 11.7472 36.0134 10.7948 35.4265 9.96439C35.0352 9.40267 34.5706 8.88979 34.0815 8.52345C33.5924 8.15711 33.0788 7.91289 32.6142 7.83962C32.5409 7.8152 32.4186 7.8152 32.2963 7.8152Z" fill="#001026"/>
<path fill-rule="evenodd" clip-rule="evenodd" d="M35.4263 12.2356C35.4263 12.6997 35.084 13.066 34.6682 13.066C34.2525 13.066 33.9102 12.6997 33.9102 12.2356C33.9102 11.7716 34.2525 11.4053 34.6682 11.4053C35.084 11.4297 35.4263 11.7716 35.4263 12.2356Z" fill="#001026"/>
</g>
<path d="M57.0208 63.1698C55.7127 63.2701 54.9092 63.3704 54.707 63.4707L54.6068 63.5727C54.3044 63.673 53.9018 63.8752 53.399 63.8752C52.7942 63.8752 52.0909 63.673 51.5881 63.1698C51.3876 62.9692 51.1855 62.767 51.0852 62.5664H48.7715C48.3689 62.5664 47.9663 62.4644 47.6639 62.2638C47.5636 62.3641 47.3615 62.3641 47.2613 62.4644C46.456 62.8672 45.7527 62.8672 45.2499 62.8672H44.7454C43.2368 62.8672 42.029 62.3641 41.2255 61.4581C40.7227 61.9612 40.0177 62.2638 39.3127 62.2638L35.5906 62.3641C34.2826 62.3641 33.0747 61.3578 32.8743 60.1493C32.3714 60.4518 31.8686 60.6524 31.2638 60.6524C30.6608 60.6524 30.0577 60.4518 29.5549 60.1493C29.4529 60.049 29.3527 59.9487 29.2525 59.9487C28.9501 60.1493 28.5475 60.1493 28.1466 60.1493H27.8442C27.4416 61.3578 26.7366 62.1635 25.6307 62.6667C25.1278 62.8672 24.5231 63.0695 24.0202 63.0695C23.5174 63.0695 22.9143 62.9692 22.4098 62.767C21.9086 62.5664 21.5043 62.2638 21.2036 61.9612C21.0032 62.0632 20.801 62.0632 20.5989 62.1635L17.6821 62.5664H17.2795C16.9788 62.5664 16.7766 62.5664 16.4742 62.4644C16.0733 62.8672 15.5688 63.0695 15.1662 63.2701C14.361 63.673 13.6577 63.673 13.1548 63.673H12.652C10.8411 63.673 9.43109 62.8672 8.62756 61.7607C7.82234 62.2638 6.81666 62.5664 5.91121 62.5664H5.30644C5.30644 62.6667 5.20621 62.6667 5.20621 62.767C4.70337 63.2701 3.99838 63.673 3.29508 63.673H3.09293C1.68464 63.673 0.476805 62.5664 0.376577 61.0552V60.955C0.376577 60.4518 0.276349 59.5458 0.376577 58.5378C0.376577 57.8341 0.476805 56.7258 0.476805 56.7258C0.476805 56.0221 0.779188 55.417 1.1818 54.9155C0.779188 54.1098 0.67896 53.2038 0.879416 52.1959V51.9953C0.981344 51.3918 1.08157 50.4841 1.48418 49.5782C2.18748 48.271 3.49554 47.5656 5.00576 47.5656H5.70905C6.21189 47.1627 6.81666 46.8602 7.51996 46.8602C9.03017 46.8602 10.2363 48.169 10.2363 49.6801V50.7867C10.7391 50.5861 11.3439 50.4841 11.947 50.4841C12.2494 50.4841 12.4498 50.4841 12.7522 50.5861C13.1548 50.083 13.7579 49.7804 14.361 49.6801C14.4629 49.4796 14.5631 49.3776 14.6633 49.177C15.0659 48.5736 15.7709 48.169 16.4742 48.0687C17.079 47.9684 18.2851 47.8681 19.6951 47.8681C21.3039 47.8681 22.6119 48.0687 23.6176 48.5736C23.92 47.4653 24.7252 46.6596 25.9331 46.459L28.5475 46.0562H28.9501C29.7553 46.0562 30.4603 46.357 30.9631 46.9621C31.1636 47.1627 31.466 47.5656 31.5662 47.8681L31.6664 48.169C32.1693 47.8681 32.6738 47.6659 33.2769 47.6659L37.2011 47.5656C39.1122 47.5656 40.8229 47.4653 40.8229 47.365H41.0233C41.7283 47.365 42.5336 47.6659 43.0364 48.169C43.439 48.5736 43.7397 49.075 43.8399 49.6801H44.0421C44.3445 49.6801 44.5449 49.6801 44.8473 49.7804C45.2499 49.2773 45.853 48.9747 46.456 48.8744C46.9589 48.169 47.866 47.5656 48.8717 47.5656H51.4878C51.9907 46.9621 52.6957 46.5593 53.6011 46.5593H56.8203C58.3288 46.5593 59.5367 47.7662 59.6369 49.2773C59.6369 50.3839 59.0321 51.3918 58.1284 51.793V57.9344C58.9319 58.3373 59.5367 59.2433 59.6369 60.2495C59.7371 61.7607 58.531 63.0695 57.0208 63.1698Z" fill="#F9A83A"/>
<path d="M57.4235 60.4521C57.4235 60.1495 57.1228 59.847 56.8204 59.847C56.6183 59.847 56.3176 59.847 56.0152 59.9489C56.0152 58.941 56.0152 56.8281 55.915 49.9813H56.8204C57.1228 49.9813 57.4235 49.6804 57.4235 49.3778C57.4235 49.0753 57.1228 48.7744 56.8204 48.7744L53.6012 48.8747C53.2989 48.8747 52.9965 49.1773 52.9965 49.4781C52.9965 49.7807 53.2989 50.0833 53.6012 50.0833H54.6069V54.3107L50.9834 54.9141V51.0896H51.9908C52.2915 51.0896 52.5939 50.787 52.5939 50.4844C52.5939 50.1836 52.2915 49.881 51.9908 49.881H48.7716C48.4692 49.881 48.1668 50.1836 48.1668 50.4844C48.1668 50.787 48.4692 51.0896 48.7716 51.0896H49.7773V59.2435H48.7716C48.4692 59.2435 48.1668 59.5461 48.1668 59.847C48.1668 60.1495 48.4692 60.4521 48.7716 60.4521L52.091 60.5524C52.3934 60.5524 52.6958 60.2498 52.6958 59.9489C52.6958 59.6464 52.3934 59.3438 52.091 59.3438H51.0854V56.223L54.7072 55.6195V60.2498C53.9019 60.4521 53.2989 60.4521 52.9965 60.8549C52.796 61.0555 52.796 61.4584 53.0967 61.6589C53.2989 61.8612 53.6012 61.7609 54.0039 61.6589C54.3045 61.4584 55.5124 61.3581 56.9207 61.2578C57.2231 61.0555 57.4235 60.753 57.4235 60.4521ZM47.4635 56.4252C47.1612 56.4252 46.8588 56.7261 46.8588 57.0287V57.8344C46.8588 58.1369 46.7586 58.5381 46.6583 58.6401C46.5581 58.8407 46.4562 58.941 46.2557 59.1432C46.1555 59.2435 45.9533 59.3438 45.7529 59.4458C45.5507 59.5461 45.4505 59.5461 45.0479 59.5461H44.647C43.0365 59.6464 42.8344 58.3375 42.8344 58.035V55.4173C42.9363 54.411 43.1368 53.7073 43.5394 53.4047C43.8417 53.2041 44.2427 53.3044 44.9477 53.505C45.7529 53.8075 46.2557 54.7135 46.3559 54.7135C46.4562 54.9141 46.7586 55.0161 47.0609 55.0161C47.3616 54.9141 47.4635 54.7135 47.4635 54.411V51.693C47.4635 51.3921 47.1612 51.0896 46.8588 51.0896C46.5581 51.0896 46.2557 51.3921 46.2557 51.693V52.8013C46.0536 52.599 45.7529 52.4987 45.4505 52.2981C45.1481 52.0958 43.942 51.5927 43.0365 52.1961C42.3315 52.6993 41.8287 53.6053 41.7285 55.1164V57.9347C41.8287 58.8407 42.5337 60.6527 44.7472 60.6527H45.0479C45.4505 60.6527 45.8531 60.6527 46.2557 60.4521C46.5581 60.3518 46.8588 60.1495 47.1612 59.847C47.3616 59.6464 47.4635 59.4458 47.664 59.1432C47.8662 58.7404 47.9664 58.035 48.0666 57.8344V56.8281C48.0666 56.6258 47.7659 56.4252 47.4635 56.4252ZM25.5306 58.3375C25.2282 58.2372 24.8256 58.4378 24.7253 58.7404C24.5232 59.4458 24.3227 59.4458 24.2208 59.5461C24.1223 59.6464 23.9201 59.5461 23.6177 59.4458C23.6177 59.4458 23.5175 59.2435 23.4173 59.1432C23.3171 58.941 23.2168 58.137 23.2168 57.6321C23.2168 55.8201 22.8142 54.8138 22.3097 54.3107C22.6121 54.1101 22.9144 53.8075 22.9144 53.8075C23.6177 52.8013 23.8199 51.9955 23.4173 51.2901C22.4099 49.5784 18.0848 50.0833 16.6765 50.2838C16.3741 50.2838 16.0735 50.6867 16.172 50.9893C16.172 51.2901 16.5746 51.5927 16.877 51.4924C17.1794 51.4924 17.48 51.3921 17.7824 51.3921V54.2104H17.48C17.1794 54.2104 16.877 54.5113 16.877 54.8138C16.877 55.1164 17.1794 55.4173 17.48 55.4173H17.7824V58.941L16.9789 59.0429C16.6765 59.0429 16.3741 59.4458 16.4744 59.7467C16.4744 60.0492 16.877 60.3518 17.1794 60.2498L20.0979 59.847C20.3986 59.847 20.7009 59.4458 20.599 59.1432C20.599 58.8407 20.1981 58.5381 19.8957 58.6401L18.9903 58.7404V55.2167C19.5933 55.1164 20.0979 55.0161 20.599 54.8138H20.8012C21.0033 54.8138 21.2038 54.9141 21.304 55.1164C21.5045 55.4173 21.7066 56.0224 21.8068 57.5318C21.8068 57.8344 21.9088 59.0429 22.1092 59.5461C22.2095 59.7467 22.5118 60.2498 23.0147 60.4521C23.4173 60.5524 23.9201 60.753 24.5232 60.4521C25.0277 60.1495 25.4286 59.847 25.6308 58.941C26.0334 58.7404 25.8313 58.4378 25.5306 58.3375ZM22.009 52.9015C21.9088 53.0018 21.8068 53.1021 21.6064 53.2041C21.5045 53.3044 21.2038 53.4047 21.1035 53.4047L20.8012 53.505C20.3986 53.7073 19.7955 53.8075 19.1907 53.9078V51.0896C20.8012 51.0896 22.2095 51.1898 22.5118 51.693V51.8953C22.5118 52.0958 22.3097 52.4987 22.009 52.9015ZM5.10611 54.6133C4.40112 54.5113 3.99851 54.0081 4.20066 52.599V52.3984C4.40112 51.1898 4.50305 50.8873 5.10611 50.8873C5.30657 50.8873 5.50873 50.9893 5.70918 51.1898C5.91134 51.3921 6.31395 51.693 6.5144 52.2981C6.71486 52.6993 6.71486 53.0018 6.81679 53.3044V53.7073C6.81679 53.9078 7.01724 54.1101 7.31963 54.2104C7.62031 54.3107 7.92269 54.0081 8.02292 53.7073C8.02292 53.7073 8.22508 49.881 8.22508 49.7807C8.22508 49.4781 7.92269 49.1773 7.62031 49.1773C7.31963 49.1773 7.01724 49.4781 7.01724 49.7807V50.8873C6.5144 50.3841 5.91134 49.881 5.20634 49.881C3.29521 49.5784 3.09306 51.2901 2.99283 52.2981V52.4987C2.79237 54.411 3.39544 55.6195 4.90396 55.9221C6.5144 56.223 7.62031 56.5255 7.62031 57.5318C7.62031 57.9347 7.41985 58.3375 7.01724 58.6401C6.61463 59.0429 6.01156 59.1432 5.4085 59.0429C5.20634 59.0429 5.10611 58.941 4.90396 58.941C4.7035 58.8407 4.10043 58.5381 3.89828 58.1369C3.79805 57.7341 3.69782 57.231 3.69782 56.9284V56.7261C3.69782 56.4252 3.39544 56.1227 3.09306 56.1227C2.79237 56.1227 2.48999 56.4252 2.48999 56.7261C2.48999 56.7261 2.48999 57.9347 2.38976 58.6401C2.28953 59.847 2.38976 60.753 2.38976 60.8549C2.38976 61.1558 2.69044 61.4584 2.99283 61.4584C3.29521 61.4584 3.59759 61.1558 3.59759 60.8549V59.7467C3.99851 60.0492 4.60327 60.3518 5.30657 60.4521C6.21202 60.6527 7.11747 60.3518 7.82247 59.7467C8.42553 59.2435 8.82815 58.4378 8.82815 57.7341C8.82815 55.2167 6.31395 54.8138 5.10611 54.6133Z" fill="white"/>
<path d="M33.7802 55.7195C33.5798 55.8198 33.2774 55.9218 32.6743 56.2244L31.8691 54.3104L29.5554 48.7741C29.5554 48.6739 29.4534 48.4716 29.3532 48.4716C29.253 48.3713 29.0525 48.271 28.8504 48.271L26.2342 48.5719C25.9336 48.5719 25.6312 48.8744 25.7314 49.2756C25.7314 49.5798 26.0338 49.8807 26.4364 49.7804C26.4364 49.7804 27.4421 49.6801 28.2473 49.5798C28.0451 50.6864 27.1397 55.2164 26.839 56.6255L25.0281 56.5253C24.7257 56.5253 24.4233 56.7258 24.4233 57.1304C24.4233 57.4313 24.6255 57.7338 25.0281 57.7338L28.0451 57.8341C28.3475 57.8341 28.6499 57.6335 28.6499 57.2307C28.6499 56.9281 28.4478 56.6255 28.0451 56.6255L28.1471 55.7195L30.9637 55.2164L31.5667 56.7258C31.0639 57.0284 30.8634 57.1304 30.561 57.4313C30.3606 57.7338 30.4608 58.0347 30.6613 58.237C30.9637 58.4392 31.3663 58.3373 31.5667 58.1367C31.8691 57.7338 32.975 57.2307 34.0826 56.8278C34.385 56.7258 34.5855 56.3247 34.4852 56.0221C34.385 55.8198 34.0826 55.6193 33.7802 55.7195ZM28.4478 54.7133L29.1527 51.0893L30.4608 54.4124" fill="white"/>
<path d="M15.368 57.0284C15.0656 57.0284 14.7633 57.3309 14.7633 57.6335V58.5395C14.7633 58.7401 14.663 59.1429 14.5628 59.3435C14.4626 59.5458 14.3624 59.6461 14.1602 59.8467C14.06 59.9486 13.8578 60.0489 13.6574 60.1492C13.4552 60.2495 13.355 60.2495 12.9541 60.2495H12.5498C10.941 60.2495 10.7389 59.0426 10.7389 58.7401V56.1224C10.8408 55.1161 11.0412 54.4107 11.4438 54.1098C11.7462 53.9075 12.1488 54.0078 12.8521 54.2101C13.6574 54.511 14.2604 55.417 14.2604 55.417C14.3624 55.6192 14.663 55.7195 14.9654 55.7195C15.2678 55.6192 15.368 55.417 15.368 55.1161V52.3981C15.368 52.0955 15.0656 51.7947 14.7633 51.7947C14.4626 51.7947 14.1602 52.0955 14.1602 52.3981V53.5047C13.9597 53.3041 13.6574 53.1018 13.355 53.0015C12.9541 52.801 11.8465 52.3981 10.8408 52.9012C10.1358 53.4044 9.63294 54.3104 9.53271 55.8215V58.6398C9.63294 59.5458 10.3379 61.3578 12.6517 61.3578H12.9541C13.355 61.3578 13.7576 61.3578 14.1602 61.1555C14.4626 61.0552 14.7633 60.8546 15.0656 60.5521C15.2678 60.3498 15.368 60.1492 15.5685 59.8467C15.7706 59.4438 15.8709 58.7401 15.9711 58.5395V57.5315C15.9711 57.3309 15.6687 57.0284 15.368 57.0284ZM41.023 49.5781C41.023 49.5781 39.2121 49.6801 37.2008 49.7804L33.2766 49.8807C33.0761 49.8807 32.9742 49.981 32.7738 50.083C32.6735 50.1833 32.5716 50.3838 32.6735 50.5861L33.1764 53.605C33.1764 53.9075 33.579 54.2101 33.8797 54.1098C34.182 54.1098 34.3842 53.8072 34.3842 53.5047C34.3842 53.5047 34.182 51.895 33.9816 51.0893H36.596V59.0426H35.2897C34.9873 59.0426 34.6849 59.3435 34.6849 59.6461C34.6849 59.9486 34.9873 60.2495 35.2897 60.2495L39.0117 60.1492C39.3141 60.1492 39.6148 59.8467 39.6148 59.5458C39.6148 59.2432 39.3141 58.9407 39.0117 58.9407H37.8038V50.989C38.8095 50.989 39.715 50.887 40.3197 50.887V52.0955C40.3197 52.699 40.42 52.9012 40.42 53.0015C40.6204 53.3041 40.9228 53.4044 41.2252 53.2038C41.4257 53.1018 41.5259 52.801 41.5259 52.5987C41.5259 52.5987 41.5259 51.1895 41.6278 50.3838C41.6278 50.1833 41.6278 50.083 41.4257 49.8807C41.4257 49.6801 41.2252 49.5781 41.023 49.5781Z" fill="white"/>
<path d="M73.667 54.5317C73.667 59.0039 70.0452 62.6279 65.5774 62.6279C61.1079 62.6279 57.4844 59.0039 57.4844 54.5317C57.4844 50.0612 61.1079 46.4355 65.5774 46.4355C70.0452 46.4355 73.667 50.0612 73.667 54.5317Z" fill="#F9A83A"/>
<path d="M61.2118 54.6541C61.1115 54.5844 61.0011 54.5334 60.8805 54.4994C60.7616 54.4671 60.6376 54.445 60.5119 54.4314C60.4371 54.4399 60.3624 54.4484 60.2859 54.4552C60.2078 54.4603 60.133 54.4654 60.06 54.4654V55.776C60.1517 55.776 60.2757 55.7709 60.432 55.7624C60.59 55.7539 60.7446 55.7284 60.8941 55.6876C61.0453 55.6451 61.1761 55.5788 61.2882 55.487C61.3986 55.3952 61.4547 55.266 61.4547 55.1011C61.4547 55.0128 61.436 54.9295 61.3952 54.8513C61.3562 54.7714 61.295 54.7068 61.2118 54.6541ZM60.2656 53.8841C60.3335 53.8858 60.4015 53.8892 60.4728 53.8943C60.5323 53.8892 60.6121 53.8739 60.7089 53.845C60.8041 53.8161 60.8958 53.777 60.9824 53.7277C61.0708 53.6767 61.1455 53.6138 61.2101 53.5407C61.2729 53.4659 61.3035 53.3775 61.3035 53.2773C61.3035 53.1821 61.2797 53.0988 61.2322 53.0291C61.1846 52.9577 61.1234 52.9016 61.0487 52.854C60.9739 52.8081 60.8907 52.7758 60.7973 52.7537C60.7021 52.7316 60.6121 52.7214 60.5255 52.7214C60.359 52.7214 60.2044 52.7486 60.06 52.8047V53.8807C60.1297 53.8807 60.1976 53.8824 60.2656 53.8841ZM59.778 56.2995C59.6812 56.291 59.6098 56.2604 59.5657 56.2043C59.5181 56.1499 59.496 56.0921 59.496 56.0309C59.496 56.0003 59.5045 55.963 59.5215 55.9188V53.0886C59.4824 53.1005 59.4433 53.1073 59.4043 53.1073C59.3295 53.1073 59.2701 53.0835 59.2242 53.0359C59.1783 52.9866 59.1562 52.9305 59.1562 52.8642C59.1562 52.769 59.2072 52.6789 59.3125 52.5956C59.4179 52.514 59.5436 52.441 59.6931 52.3764C59.8409 52.3135 59.9954 52.2642 60.1534 52.2285C60.3131 52.1945 60.449 52.1758 60.5577 52.1758C60.7531 52.1758 60.9315 52.2098 61.0912 52.2744C61.2508 52.3407 61.3851 52.424 61.4972 52.5276C61.6093 52.6296 61.6942 52.7435 61.752 52.8676C61.8114 52.9934 61.8403 53.1141 61.8403 53.2314C61.8403 53.3979 61.7996 53.5594 61.7129 53.7141C61.628 53.8688 61.5091 54.0031 61.3562 54.117C61.5753 54.2257 61.7367 54.3651 61.8403 54.5334C61.9457 54.7017 61.9983 54.8768 61.9983 55.0604C61.9983 55.1827 61.9762 55.3017 61.9338 55.4173C61.8896 55.5329 61.8301 55.6417 61.752 55.742C61.6755 55.844 61.5855 55.9307 61.4819 56.0071C61.3766 56.0853 61.2593 56.1414 61.1336 56.1805C60.9722 56.2332 60.8075 56.2689 60.6393 56.2842C60.4711 56.2978 60.3046 56.3063 60.1381 56.3063H59.9581C59.8986 56.3063 59.8392 56.3046 59.778 56.2995Z" fill="white"/>
<path d="M63.7927 52.8981C63.6704 53.1462 63.5566 53.3995 63.4563 53.6579C63.3527 53.9162 63.2576 54.1763 63.1692 54.4381L64.5996 54.4245C64.5401 54.2936 64.4841 54.1644 64.4246 54.0386C64.3652 53.9111 64.3057 53.7854 64.2446 53.6579C64.1732 53.5321 64.1053 53.4029 64.0339 53.272C63.9643 53.1394 63.8844 53.0153 63.7927 52.8981ZM65.6002 56.0512C65.5951 56.1345 65.573 56.2008 65.5356 56.2535C65.4949 56.3062 65.4473 56.3385 65.3912 56.3487C65.3335 56.3589 65.2774 56.3504 65.2197 56.3198C65.1636 56.2892 65.116 56.2365 65.077 56.1617C65.0515 55.956 65.0124 55.7537 64.9648 55.5549C64.9173 55.356 64.8595 55.1588 64.795 54.9616L63.0588 54.9752C63.0503 54.9752 63.0401 54.9752 63.0299 54.9718C63.018 54.9701 63.0078 54.9684 62.9994 54.9684C62.8906 55.3407 62.7921 55.7248 62.7055 56.1226C62.6698 56.2144 62.6205 56.2756 62.5543 56.3062C62.488 56.3368 62.4269 56.3436 62.3674 56.3249C62.3079 56.3079 62.2604 56.2688 62.2247 56.2076C62.1856 56.1464 62.1754 56.0682 62.1941 55.9713C62.3385 55.339 62.5118 54.7186 62.714 54.1134C62.9178 53.5083 63.1726 52.9168 63.4784 52.3405C63.5039 52.2572 63.565 52.2045 63.6619 52.1824C63.7094 52.1654 63.7553 52.162 63.7978 52.1722C63.8419 52.1841 63.8793 52.2045 63.9099 52.2351C63.915 52.2351 63.9167 52.2368 63.9167 52.2385C63.9167 52.2402 63.9184 52.2419 63.9235 52.2419C64.1511 52.4612 64.3397 52.7077 64.4943 52.983C64.6455 53.2584 64.7865 53.5372 64.9122 53.8211C64.9614 53.923 65.0056 54.0233 65.0464 54.1236C65.0889 54.2239 65.1279 54.3242 65.167 54.4245L65.5152 54.4177C65.5985 54.4449 65.6596 54.484 65.6987 54.5367C65.7378 54.5877 65.7565 54.6421 65.7548 54.6965C65.7514 54.7508 65.7293 54.8035 65.6851 54.8545C65.641 54.9038 65.5781 54.9378 65.4949 54.9565H65.359C65.415 55.135 65.4643 55.3152 65.5051 55.4971C65.5475 55.6772 65.5781 55.8625 65.6002 56.0512Z" fill="white"/>
<path d="M65.9907 55.7688C65.9653 55.7076 65.9517 55.6498 65.9517 55.5971C65.9517 55.524 65.9754 55.4628 66.0213 55.4169C66.0672 55.371 66.1249 55.3489 66.1946 55.3489C66.2642 55.3489 66.3322 55.3727 66.3984 55.4203C66.4715 55.5087 66.5581 55.5818 66.6567 55.6396C66.7552 55.6991 66.8588 55.745 66.9709 55.7773C67.083 55.8113 67.1952 55.8334 67.3107 55.847C67.4279 55.8606 67.54 55.8674 67.6487 55.8674C67.7235 55.8402 67.7745 55.8249 67.8016 55.8181C67.8305 55.8113 67.8543 55.8028 67.8713 55.7943C67.8883 55.7858 67.9087 55.7722 67.9307 55.7552C67.9528 55.7382 67.9936 55.7076 68.0548 55.6634C68.0768 55.6328 68.0972 55.6039 68.1142 55.5784C68.1312 55.5529 68.1516 55.524 68.1737 55.4934L68.2314 55.3149V55.2282C68.2314 55.1993 68.2297 55.167 68.2263 55.133C68.2161 55.1024 68.2059 55.0719 68.1924 55.043C68.1788 55.0158 68.1669 54.9869 68.1533 54.9563C68.1278 54.9257 68.1023 54.8968 68.0785 54.8696C68.0531 54.8441 68.0293 54.8152 68.0021 54.7846C67.963 54.7625 67.9239 54.7387 67.8849 54.7132C67.8458 54.686 67.8016 54.6673 67.7541 54.6537C67.574 54.5925 67.4092 54.55 67.258 54.5262C67.1085 54.5024 66.9658 54.4718 66.8333 54.4344C66.7008 54.397 66.5751 54.3392 66.4562 54.261C66.339 54.1812 66.2218 54.0554 66.1096 53.8803C66.0876 53.8446 66.074 53.8191 66.0706 53.8021C66.0655 53.7851 66.0604 53.7545 66.057 53.7103C66.0519 53.6746 66.0502 53.6406 66.0468 53.6083C66.0451 53.576 66.0434 53.5437 66.0434 53.5131C66.0434 53.4349 66.0519 53.3652 66.0672 53.3041C66.0825 53.2429 66.1046 53.1834 66.1351 53.1273C66.1657 53.0695 66.2048 53.0117 66.254 52.9522C66.3016 52.8944 66.3577 52.8298 66.4239 52.7584C66.497 52.6802 66.5836 52.6173 66.6787 52.5663C66.7756 52.5153 66.8758 52.4762 66.9794 52.4474C67.0847 52.4202 67.1935 52.3998 67.3056 52.3896C67.416 52.3777 67.5247 52.3726 67.6301 52.3726H67.7235C67.7524 52.3726 67.7812 52.3743 67.8118 52.3794C67.9138 52.3879 68.0089 52.4117 68.0972 52.4507C68.1873 52.4915 68.2807 52.5238 68.3758 52.5493C68.4761 52.619 68.527 52.704 68.527 52.806C68.527 52.8706 68.5015 52.9284 68.4506 52.9794C68.4013 53.0287 68.33 53.0542 68.2382 53.0542C68.2297 53.0542 68.2195 53.0542 68.2093 53.0508C68.1975 53.0491 68.189 53.0474 68.1788 53.0474C68.0395 53.0049 67.9172 52.9709 67.8101 52.9471C67.7031 52.9216 67.5978 52.9097 67.4976 52.9097C67.3939 52.9097 67.2869 52.9284 67.1765 52.9624C67.0678 52.9981 66.9421 53.0576 66.7977 53.1392C66.7705 53.1749 66.745 53.2055 66.7195 53.2344C66.6923 53.2633 66.6668 53.2922 66.6397 53.3228C66.6278 53.3499 66.6142 53.3754 66.604 53.4026C66.5938 53.4281 66.5836 53.4536 66.5751 53.4808C66.5751 53.5063 66.5751 53.5335 66.5785 53.559C66.5802 53.5845 66.5836 53.61 66.587 53.6321C66.604 53.6525 66.6193 53.6746 66.6329 53.6967C66.6465 53.7188 66.6618 53.7409 66.6787 53.763L66.9539 53.9194C67.0847 53.95 67.2071 53.9772 67.3209 53.9993C67.4347 54.0197 67.5434 54.0452 67.6487 54.0741C67.7541 54.103 67.8577 54.1353 67.9596 54.1761C68.0632 54.2151 68.1737 54.2678 68.2909 54.3324C68.352 54.3681 68.4047 54.4123 68.4472 54.4667C68.4913 54.5211 68.5338 54.5738 68.5729 54.6214C68.6425 54.7047 68.6935 54.7982 68.7258 54.9036C68.7597 55.0073 68.775 55.1177 68.775 55.2316C68.775 55.388 68.7445 55.541 68.6833 55.6889C68.6221 55.8385 68.5355 55.9609 68.4217 56.056C68.3826 56.0917 68.3418 56.124 68.3011 56.1512C68.2586 56.1801 68.2178 56.2073 68.1788 56.2328C68.087 56.294 67.9851 56.3399 67.8713 56.3722C67.7575 56.4011 67.6386 56.4164 67.5111 56.4164C67.3667 56.4164 67.2223 56.4011 67.0763 56.3688C66.9285 56.3348 66.7875 56.2889 66.6533 56.2311C66.5174 56.1716 66.3933 56.1019 66.2795 56.0237C66.1657 55.9456 66.0706 55.8606 65.9907 55.7688Z" fill="white"/>
<path d="M71.3423 55.5854C71.4255 55.5803 71.4952 55.5973 71.5495 55.6347C71.6039 55.6704 71.6379 55.718 71.6532 55.7724C71.6684 55.8268 71.665 55.8828 71.6413 55.9423C71.6175 56.0018 71.5682 56.0528 71.4935 56.097C71.3355 56.1395 71.1673 56.1752 70.9889 56.2007C70.8089 56.2279 70.6288 56.2432 70.4453 56.25C70.2618 56.2568 70.0801 56.2534 69.9017 56.2398C69.7216 56.2279 69.5518 56.2007 69.3904 56.1616C69.3207 56.1259 69.2698 56.0834 69.2392 56.0341C69.2086 55.9831 69.195 55.9355 69.2001 55.8862V53.0017C69.1424 52.9847 69.0999 52.9541 69.0693 52.9099C69.0387 52.8657 69.0234 52.8181 69.0234 52.7654C69.0234 52.7144 69.0404 52.6617 69.0761 52.6124C69.1118 52.5614 69.1661 52.524 69.2392 52.4968C69.4108 52.4441 69.584 52.4084 69.7607 52.3897C69.9374 52.3693 70.1158 52.3557 70.2941 52.3506C70.4742 52.3438 70.6526 52.3404 70.8309 52.3404C71.011 52.3404 71.1877 52.3353 71.3627 52.3269C71.4578 52.3218 71.5325 52.3455 71.5886 52.3931C71.643 52.4407 71.6752 52.4951 71.6837 52.5563C71.6922 52.6175 71.6752 52.677 71.6345 52.7365C71.592 52.796 71.524 52.8368 71.4272 52.8572C71.1656 52.8708 70.887 52.8759 70.5914 52.8708C70.2975 52.8657 70.0121 52.8861 69.7369 52.9303V54.0845C69.9646 54.0929 70.1922 54.0912 70.4215 54.0794C70.6509 54.0692 70.8819 54.0539 71.1129 54.0318C71.2098 54.0267 71.2845 54.0488 71.3389 54.0963C71.3932 54.1456 71.4255 54.2 71.434 54.2612C71.4425 54.3224 71.4255 54.3819 71.3847 54.4414C71.344 54.4992 71.2743 54.54 71.1792 54.5621C70.938 54.5842 70.6967 54.6012 70.4555 54.6148C70.2126 54.6284 69.9731 54.6301 69.7369 54.6216V55.684C70.0002 55.7231 70.272 55.7316 70.554 55.7129C70.8343 55.6925 71.0977 55.65 71.3423 55.5854Z" fill="white"/>
<defs>
<clipPath id="clip0_806_10986">
<rect width="39.7872" height="41.7628" fill="white" transform="translate(16.3262)"/>
</clipPath>
</defs>
</svg>
