<svg width="163" height="162" viewBox="0 0 163 162" fill="none" xmlns="http://www.w3.org/2000/svg">
<g id="Frame 368" filter="url(#filter0_d_1_10209)">
<rect x="35.5" y="35" width="92" height="92" rx="13.3333" fill="url(#paint0_linear_1_10209)"/>
<g id="Group 13">
<path id="Vector" d="M87.4312 88.8217C87.4312 88.7291 87.4094 88.6569 87.3658 88.6064C87.3236 88.5547 87.2637 88.5288 87.1888 88.5288C87.1153 88.5288 87.0527 88.556 87.0009 88.6092C86.9506 88.6637 86.9193 88.7345 86.907 88.8217H87.4312ZM87.6789 89.0029H86.907C86.9097 89.1078 86.9424 89.1881 87.0037 89.2454C87.0649 89.3012 87.1507 89.3298 87.2583 89.3298C87.3794 89.3298 87.4897 89.2944 87.5904 89.2222V89.4293C87.487 89.4933 87.3508 89.526 87.182 89.526C87.0146 89.526 86.8839 89.4756 86.7886 89.372C86.6946 89.2685 86.647 89.1241 86.647 88.9375C86.647 88.7617 86.7001 88.6173 86.8035 88.507C86.9084 88.3953 87.0377 88.3394 87.1915 88.3394C87.3467 88.3394 87.4679 88.3898 87.5523 88.4893C87.6367 88.5887 87.6789 88.7277 87.6789 88.9048V89.0029ZM86.1773 88.9811V88.8339C86.1773 88.7522 86.1514 88.6841 86.0983 88.6282C86.0466 88.5724 85.9798 88.5451 85.8982 88.5451C85.8029 88.5451 85.7266 88.5806 85.6722 88.6514C85.6177 88.7236 85.5905 88.823 85.5905 88.9497C85.5905 89.0642 85.6163 89.1554 85.6681 89.2236C85.7212 89.2889 85.792 89.3216 85.8818 89.3216C85.969 89.3216 86.0411 89.2903 86.0956 89.2263C86.15 89.1609 86.1773 89.0805 86.1773 88.9811ZM86.4305 89.5001H86.1745V89.3067H86.1691C86.0874 89.4524 85.9594 89.526 85.7879 89.526C85.649 89.526 85.536 89.4756 85.453 89.3748C85.3699 89.2726 85.3277 89.135 85.3277 88.9593C85.3277 88.7726 85.374 88.6214 85.4666 88.5097C85.5592 88.3967 85.6817 88.3394 85.8369 88.3394C85.9894 88.3394 86.0997 88.4007 86.1691 88.5233H86.1745V87.8218H86.4305V89.5001ZM84.6061 88.5451C84.5054 88.5451 84.4264 88.5792 84.3692 88.65C84.3107 88.7195 84.2808 88.8162 84.2808 88.9388C84.2808 89.0587 84.3107 89.1527 84.3692 89.2208C84.4292 89.2889 84.5081 89.3216 84.6061 89.3216C84.7083 89.3216 84.7845 89.2889 84.839 89.2222C84.8934 89.1541 84.9206 89.0587 84.9206 88.9348C84.9206 88.8108 84.8934 88.7141 84.839 88.646C84.7845 88.5778 84.7083 88.5451 84.6061 88.5451ZM84.5953 89.526C84.4196 89.526 84.2808 89.4729 84.1746 89.368C84.0711 89.2617 84.0194 89.1214 84.0194 88.9457C84.0194 88.7563 84.0738 88.6064 84.1814 88.5002C84.2903 88.3939 84.4373 88.3394 84.6211 88.3394C84.7995 88.3394 84.937 88.3912 85.0364 88.4961C85.1344 88.5996 85.1834 88.744 85.1834 88.9279C85.1834 89.1091 85.1303 89.2549 85.0241 89.3639C84.9179 89.4715 84.775 89.526 84.5953 89.526ZM83.8655 89.4333C83.7457 89.4946 83.5973 89.526 83.4203 89.526C83.1889 89.526 83.0051 89.4538 82.8676 89.308C82.7273 89.1623 82.6593 88.9715 82.6593 88.7359C82.6593 88.4825 82.7369 88.2768 82.8921 88.1201C83.0486 87.9635 83.2461 87.8858 83.4843 87.8858C83.6368 87.8858 83.7648 87.9076 83.8655 87.9512V88.2127C83.758 88.1487 83.6409 88.1174 83.5115 88.1174C83.34 88.1174 83.2011 88.1719 83.0936 88.2822C82.9874 88.3926 82.9343 88.5383 82.9343 88.7222C82.9343 88.898 82.9833 89.0369 83.084 89.1405C83.1834 89.244 83.3141 89.2958 83.4761 89.2958C83.6259 89.2958 83.7552 89.2603 83.8655 89.1895V89.4333ZM81.8832 89.5001H81.6273V88.8612C81.6273 88.6487 81.5524 88.5438 81.4026 88.5438C81.3237 88.5438 81.2597 88.5724 81.208 88.6323C81.1576 88.6909 81.1317 88.7645 81.1317 88.853V89.5001H80.8744V88.3667H81.1317V88.5547H81.1358C81.2216 88.4116 81.3441 88.3394 81.5034 88.3394C81.6273 88.3394 81.7212 88.3803 81.7852 88.4607C81.8506 88.5397 81.8832 88.6555 81.8832 88.8067V89.5001ZM80.3584 88.9429L80.1202 88.9756C80.0466 88.9852 79.9908 89.0042 79.9541 89.0301C79.9159 89.056 79.8982 89.1023 79.8982 89.1677C79.8982 89.2154 79.9146 89.2549 79.9486 89.2862C79.984 89.3162 80.0289 89.3312 80.0875 89.3312C80.1651 89.3312 80.2291 89.3039 80.2808 89.2494C80.3325 89.1936 80.3584 89.1255 80.3584 89.041V88.9429ZM80.6062 89.5001H80.357V89.3216H80.3516C80.274 89.4579 80.1596 89.526 80.0085 89.526C79.8969 89.526 79.8097 89.496 79.7458 89.4347C79.6831 89.3748 79.6518 89.2944 79.6518 89.1949C79.6518 88.9811 79.7757 88.8571 80.0221 88.8217L80.3584 88.774C80.3584 88.6119 80.2822 88.5315 80.1283 88.5315C79.9935 88.5315 79.871 88.5778 79.7635 88.6705V88.4457C79.8819 88.3749 80.0208 88.3394 80.1773 88.3394C80.4632 88.3394 80.6062 88.4811 80.6062 88.7631V89.5001ZM79.5089 89.4333C79.3904 89.4946 79.242 89.526 79.0637 89.526C78.8336 89.526 78.6498 89.4538 78.5109 89.308C78.372 89.1623 78.3026 88.9715 78.3026 88.7359C78.3026 88.4825 78.3802 88.2768 78.5368 88.1201C78.692 87.9635 78.8894 87.8858 79.1277 87.8858C79.2815 87.8858 79.4081 87.9076 79.5089 87.9512V88.2127C79.4027 88.1487 79.2856 88.1174 79.1562 88.1174C78.9833 88.1174 78.8445 88.1719 78.7369 88.2822C78.6321 88.3926 78.579 88.5383 78.579 88.7222C78.579 88.898 78.628 89.0369 78.7274 89.1405C78.8268 89.244 78.9575 89.2958 79.1208 89.2958C79.2706 89.2958 79.3999 89.2603 79.5089 89.1895V89.4333ZM77.2529 88.9811V88.8339C77.2529 88.7522 77.2271 88.6841 77.174 88.6282C77.1222 88.5724 77.0555 88.5451 76.9738 88.5451C76.8785 88.5451 76.8037 88.5806 76.7478 88.6514C76.6934 88.7236 76.6661 88.823 76.6661 88.9497C76.6661 89.0642 76.692 89.1554 76.7438 89.2236C76.7968 89.2889 76.869 89.3216 76.9575 89.3216C77.046 89.3216 77.1168 89.2903 77.1712 89.2263C77.2257 89.1609 77.2529 89.0805 77.2529 88.9811ZM77.5062 89.5001H77.2502V89.3067H77.2461C77.1631 89.4524 77.0351 89.526 76.8636 89.526C76.7247 89.526 76.6131 89.4756 76.5286 89.3748C76.4456 89.2726 76.4034 89.135 76.4034 88.9593C76.4034 88.7726 76.4497 88.6214 76.5423 88.5097C76.6348 88.3967 76.7587 88.3394 76.9126 88.3394C77.0651 88.3394 77.1767 88.4007 77.2461 88.5233H77.2502V87.8218H77.5062V89.5001ZM76.1856 89.5001H75.9296V88.3667H76.1856V89.5001ZM76.0589 88.1283C76.0167 88.1283 75.98 88.1147 75.95 88.0874C75.9214 88.0602 75.9065 88.0248 75.9065 87.9839C75.9065 87.9417 75.9214 87.9062 75.95 87.8776C75.98 87.8504 76.0167 87.8368 76.0589 87.8368C76.1025 87.8368 76.1393 87.8504 76.1692 87.8776C76.1992 87.9062 76.2155 87.9417 76.2155 87.9839C76.2155 88.0234 76.1992 88.0575 76.1692 88.0861C76.1393 88.1147 76.1025 88.1283 76.0589 88.1283ZM75.818 89.5001H75.4762L74.9235 88.774C74.9031 88.7468 74.8908 88.7277 74.8867 88.7182H74.8813V89.5001H74.6185V87.913H74.8813V88.6582H74.8867C74.8949 88.6419 74.9085 88.6242 74.9235 88.6037L75.4558 87.913H75.7717L75.1481 88.6746L75.818 89.5001ZM73.8847 88.3667L73.3742 89.6813C73.268 89.9156 73.1196 90.0327 72.9276 90.0327C72.8731 90.0327 72.8282 90.0287 72.7928 90.0191V89.8052C72.8323 89.8189 72.8691 89.8243 72.9031 89.8243C72.9984 89.8243 73.0706 89.778 73.1168 89.6826L73.1944 89.4974L72.7438 88.3667H73.0283L73.2979 89.1895C73.3006 89.2004 73.3074 89.2276 73.317 89.2712H73.3224C73.3265 89.2549 73.3333 89.2276 73.3428 89.1922L73.626 88.3667H73.8847ZM72.6771 88.6105C72.6458 88.586 72.6022 88.5738 72.5437 88.5738C72.4674 88.5738 72.4034 88.6092 72.3531 88.6773C72.3027 88.7454 72.2768 88.8394 72.2768 88.9566V89.5001H72.0195V88.3667H72.2768V88.5996H72.2809C72.3068 88.5206 72.3449 88.458 72.3966 88.4144C72.4484 88.3694 72.5069 88.3463 72.5709 88.3463C72.6172 88.3463 72.6526 88.3531 72.6771 88.368V88.6105ZM71.5743 88.8217C71.573 88.7291 71.5512 88.6569 71.5076 88.6064C71.4654 88.5547 71.4055 88.5288 71.3306 88.5288C71.2571 88.5288 71.1945 88.556 71.1427 88.6092C71.0924 88.6637 71.061 88.7345 71.0488 88.8217H71.5743ZM71.8207 89.0029H71.0488C71.0515 89.1078 71.0842 89.1881 71.1455 89.2454C71.2067 89.3012 71.2925 89.3298 71.4 89.3298C71.5212 89.3298 71.6315 89.2944 71.7322 89.2222V89.4293C71.6288 89.4933 71.4926 89.526 71.3238 89.526C71.1563 89.526 71.0256 89.4756 70.9303 89.372C70.8364 89.2685 70.7888 89.1241 70.7888 88.9375C70.7888 88.7617 70.8419 88.6173 70.9453 88.507C71.0502 88.3953 71.1795 88.3394 71.3333 88.3394C71.4885 88.3394 71.6097 88.3898 71.6941 88.4893C71.7785 88.5887 71.8207 88.7277 71.8207 88.9048V89.0029ZM70.7506 88.3667L70.3122 89.5001H70.0345L69.6179 88.3667H69.8956L70.1475 89.1582C70.1666 89.2167 70.1788 89.2685 70.1829 89.3121H70.1856C70.1924 89.2576 70.2033 89.2072 70.2169 89.1636L70.4811 88.3667H70.7506ZM69.5662 89.5001H68.6758V87.913H69.5321V88.1365H68.9399V88.586H69.4845V88.8081H68.9399V89.2767H69.5662" fill="black"/>
<path id="Vector_2" d="M68.5762 86.4771H118.222" stroke="#FFB900" stroke-width="0.4" stroke-miterlimit="1.333"/>
<path id="Vector_3" d="M115.962 85.1449C115.482 85.1449 115.113 85.0073 114.855 84.7335C114.599 84.4583 114.471 84.0728 114.471 83.5769C114.471 82.7432 114.802 81.8632 115.463 80.9396C116.125 80.0119 116.739 79.5487 117.308 79.5487C117.567 79.5487 117.789 79.689 117.974 79.971C118.163 80.2489 118.257 80.5445 118.257 80.8578C118.257 81.0472 118.216 81.2093 118.132 81.3469C118.053 81.4818 117.971 81.5485 117.888 81.5485C117.703 81.5485 117.572 81.3619 117.495 80.9873C117.409 80.584 117.285 80.3824 117.122 80.3824C116.789 80.3824 116.396 80.7775 115.942 81.5676C115.489 82.3577 115.262 83.0239 115.262 83.5674C115.262 84.111 115.569 84.3834 116.186 84.3834C116.656 84.3834 117.209 84.1627 117.844 83.7213C118.069 83.5647 118.234 83.4857 118.339 83.4857C118.448 83.4857 118.502 83.5483 118.502 83.6737C118.502 83.9162 118.216 84.2227 117.643 84.5932C117.073 84.961 116.51 85.1449 115.962 85.1449ZM113.29 83.8072C113.29 84.051 113.324 84.3235 113.391 84.6273C113.403 84.6845 113.41 84.7335 113.41 84.7717C113.41 84.8289 113.357 84.9024 113.252 84.9924C113.147 85.085 113.034 85.1313 112.917 85.1313C112.607 85.1313 112.452 84.8466 112.452 84.2772C112.452 83.6887 112.573 82.7582 112.817 81.4859C112.9 81.0418 112.94 80.7679 112.94 80.6658C112.94 80.4642 112.977 80.2939 113.051 80.1522C113.124 80.0092 113.228 79.937 113.363 79.937C113.526 79.937 113.653 79.9765 113.746 80.0568C113.842 80.1331 113.889 80.2203 113.889 80.3157C113.889 80.4124 113.868 80.5377 113.823 80.6944C113.583 81.539 113.435 82.1425 113.376 82.5076C113.319 82.8727 113.29 83.3059 113.29 83.8072ZM113.918 78.4507C113.851 78.4507 113.8 78.3785 113.764 78.2341C113.752 78.1892 113.734 78.1401 113.712 78.0856C113.627 77.8786 113.583 77.6974 113.583 77.5434C113.583 77.4154 113.658 77.286 113.808 77.1552C113.962 77.0217 114.13 76.9536 114.316 76.9536C114.41 76.9536 114.513 76.9904 114.627 77.0639C114.743 77.1348 114.8 77.2029 114.8 77.271C114.8 77.3759 114.761 77.5557 114.68 77.8077C114.604 78.0597 114.479 78.2314 114.306 78.3213C114.137 78.4071 114.008 78.4507 113.918 78.4507ZM111.176 83.7745C111.176 83.566 110.92 83.329 110.408 83.0634C109.76 82.731 109.32 82.4667 109.09 82.2678C108.864 82.0662 108.75 81.8428 108.75 81.5962C108.75 80.96 109.069 80.4328 109.704 80.0146C110.343 79.595 110.864 79.3852 111.266 79.3852C111.525 79.3852 111.712 79.4302 111.828 79.5201C111.945 79.61 112.005 79.7639 112.005 79.9846C112.005 80.0841 111.962 80.1685 111.874 80.2394C111.791 80.3089 111.727 80.3443 111.678 80.3443C111.643 80.3443 111.575 80.3211 111.473 80.2734C111.371 80.2285 111.304 80.2053 111.271 80.2053C111.112 80.2053 110.787 80.3225 110.298 80.5554C109.809 80.7897 109.565 81.0527 109.565 81.3469C109.565 81.5267 109.651 81.6888 109.824 81.836C109.997 81.9804 110.306 82.1575 110.754 82.3686C111.115 82.5416 111.402 82.7269 111.616 82.9244C111.834 83.1206 111.943 83.3494 111.943 83.6151C111.943 84.1041 111.605 84.4883 110.931 84.7662C110.257 85.0414 109.613 85.179 108.999 85.179C108.482 85.179 108.223 85.0032 108.223 84.6518C108.223 84.5305 108.28 84.4406 108.396 84.3834C108.514 84.3248 108.633 84.2962 108.75 84.2962C108.798 84.2962 108.889 84.3126 109.024 84.3439C109.154 84.3766 109.241 84.393 109.282 84.393C109.636 84.393 110.017 84.333 110.423 84.2145C110.829 84.0973 111.079 83.9502 111.176 83.7745ZM106.501 80.426C106.079 80.426 105.589 80.8224 105.03 81.6153C104.471 82.4054 104.19 83.0606 104.19 83.5824C104.19 83.9502 104.312 84.1328 104.555 84.1328C104.907 84.1328 105.394 83.7786 106.018 83.0688C106.64 82.3591 106.951 81.7065 106.951 81.1126C106.951 80.6549 106.802 80.426 106.501 80.426ZM106.794 83.126C106.346 83.7268 105.905 84.1777 105.466 84.4788C105.028 84.7798 104.627 84.9297 104.263 84.9297C104.016 84.9297 103.804 84.8262 103.625 84.6177C103.447 84.4093 103.357 84.1423 103.357 83.8167C103.357 82.9762 103.732 82.0716 104.483 81.1031C105.235 80.1304 105.981 79.6441 106.721 79.6441C106.99 79.6441 107.19 79.798 107.32 80.1045C107.363 80.2067 107.428 80.2584 107.516 80.2584C107.772 80.2584 107.9 80.3579 107.9 80.5554C107.9 80.6549 107.884 80.7911 107.853 80.9627C107.68 81.9068 107.594 82.5716 107.594 82.9585C107.594 83.7322 107.741 84.1954 108.035 84.3494C108.175 84.4256 108.246 84.521 108.246 84.6327C108.246 84.7322 108.177 84.8302 108.039 84.9297C107.902 85.0319 107.77 85.0836 107.642 85.0836C107.397 85.0836 107.192 84.9133 107.033 84.5741C106.874 84.2363 106.794 83.7527 106.794 83.126ZM101.506 80.9491C101.506 81.0009 101.537 81.0336 101.602 81.0499C101.947 81.1494 102.252 81.3428 102.517 81.6303C102.783 81.915 102.915 82.2542 102.915 82.6465C102.915 83.2514 102.528 83.8726 101.755 84.5128C100.981 85.1517 100.169 85.4719 99.3151 85.4719C99.0755 85.4719 98.8876 85.4392 98.7501 85.3752C98.6153 85.3152 98.5486 85.243 98.5486 85.1599C98.5486 84.7567 98.8331 84.5551 99.4008 84.5551C99.4812 84.5551 99.6037 84.5591 99.7712 84.5646C99.94 84.5714 100.133 84.5319 100.35 84.4447C100.572 84.3562 100.785 84.2417 100.992 84.1041C101.201 83.9638 101.378 83.8208 101.525 83.6737C101.676 83.5225 101.794 83.3644 101.884 83.1982C101.977 83.032 102.023 82.8645 102.023 82.6942C102.023 82.419 101.903 82.1752 101.664 81.9613C101.428 81.7461 101.111 81.6398 100.715 81.6398C100.651 81.6398 100.5 81.6902 100.26 81.7924C100.02 81.8986 99.8637 81.9518 99.7902 81.9518C99.5411 81.9518 99.3845 81.9191 99.3205 81.855C99.2593 81.791 99.2293 81.6779 99.2293 81.5145C99.2293 81.4164 99.4989 81.2556 100.039 81.0349C100.49 80.8565 100.926 80.5636 101.348 80.1576C101.772 79.7517 101.985 79.4084 101.985 79.1264C101.985 78.9316 101.906 78.7763 101.745 78.6619C101.586 78.5461 101.361 78.4889 101.074 78.4889C100.599 78.4889 100.125 78.5474 99.6554 78.6659C99.1857 78.7817 98.9271 78.8907 98.8794 78.9929C98.8345 79.0951 98.7051 79.8702 98.4914 81.3183C98.2776 82.7637 98.1701 83.6001 98.1701 83.8262C98.1701 84.051 98.1742 84.2594 98.1837 84.4556C98.1932 84.6463 98.1592 84.8112 98.0789 84.9488C98.0026 85.0891 97.8692 85.1599 97.6813 85.1599C97.5084 85.1599 97.375 85.0904 97.2783 84.9542C97.1858 84.8193 97.1395 84.6477 97.1395 84.4406C97.1395 84.3861 97.1531 84.303 97.1817 84.1913C97.3491 83.5034 97.5057 82.6247 97.6527 81.554C97.7998 80.4819 97.8733 79.8634 97.8733 79.6972C97.8733 79.5637 97.8542 79.4642 97.8148 79.4002C97.7794 79.3362 97.6977 79.3035 97.5656 79.3035C97.5152 79.3035 97.4635 79.3062 97.4118 79.3089C97.3641 79.3117 97.3151 79.2817 97.2647 79.2177C97.2157 79.1536 97.1926 79.0774 97.1926 78.9874C97.1926 78.7068 97.6446 78.4303 98.5486 78.1578C99.4526 77.8867 100.372 77.7505 101.304 77.7505C101.783 77.7505 102.175 77.8799 102.479 78.1387C102.785 78.3949 102.939 78.6946 102.939 79.0406C102.939 79.2953 102.809 79.5977 102.546 79.9465C102.287 80.2925 101.94 80.6263 101.506 80.9491ZM92.9721 76.752C93.2021 76.752 93.3165 76.9004 93.3165 77.1933C93.3165 77.4562 93.1776 78.0802 92.8999 79.0651C92.7243 79.6849 92.5881 80.3688 92.4928 81.1167C92.3962 81.8646 92.3485 82.4517 92.3485 82.8767C92.3485 83.4039 92.3826 83.9284 92.4493 84.4502C92.4615 84.5496 92.4683 84.6205 92.4683 84.6654C92.4683 84.8262 92.4139 84.9624 92.305 85.0782C92.1974 85.1926 92.0817 85.2512 91.9605 85.2512C91.7903 85.2512 91.6732 85.1449 91.6052 84.9351C91.5425 84.724 91.5099 84.3834 91.5099 83.9134C91.5099 82.8427 91.6378 81.5145 91.8938 79.9329C92.1525 78.3499 92.3567 77.4249 92.5064 77.1552C92.6603 76.8868 92.8155 76.752 92.9721 76.752ZM90.7229 76.752C90.953 76.752 91.0674 76.9004 91.0674 77.1933C91.0674 77.4562 90.9285 78.0802 90.6508 79.0651C90.4752 79.6849 90.339 80.3688 90.2437 81.1167C90.147 81.8646 90.0994 82.4517 90.0994 82.8767C90.0994 83.4039 90.1334 83.9284 90.2001 84.4502C90.2124 84.5496 90.2192 84.6205 90.2192 84.6654C90.2192 84.8262 90.1647 84.9624 90.0572 85.0782C89.9483 85.1926 89.8326 85.2512 89.7114 85.2512C89.5412 85.2512 89.4241 85.1449 89.356 84.9351C89.2921 84.724 89.2607 84.3834 89.2607 83.9134C89.2607 82.8427 89.3887 81.5145 89.6447 79.9329C89.9033 78.3499 90.1076 77.4249 90.2573 77.1552C90.4112 76.8868 90.5664 76.752 90.7229 76.752ZM86.7815 80.426C86.3595 80.426 85.8694 80.8224 85.3098 81.6153C84.7502 82.4054 84.4712 83.0606 84.4712 83.5824C84.4712 83.9502 84.5923 84.1328 84.836 84.1328C85.1873 84.1328 85.6747 83.7786 86.2982 83.0688C86.9204 82.3591 87.2322 81.7065 87.2322 81.1126C87.2322 80.6549 87.0824 80.426 86.7815 80.426ZM87.0743 83.126C86.6263 83.7268 86.1839 84.1777 85.7468 84.4788C85.3084 84.7798 84.9068 84.9297 84.5433 84.9297C84.2969 84.9297 84.0845 84.8262 83.9061 84.6177C83.7278 84.4093 83.6379 84.1423 83.6379 83.8167C83.6379 82.9762 84.0123 82.0716 84.7639 81.1031C85.5154 80.1304 86.2601 79.6441 87.0021 79.6441C87.2703 79.6441 87.4704 79.798 87.6011 80.1045C87.642 80.2067 87.7087 80.2584 87.7972 80.2584C88.0531 80.2584 88.1811 80.3579 88.1811 80.5554C88.1811 80.6549 88.1648 80.7911 88.1335 80.9627C87.9606 81.9068 87.8748 82.5716 87.8748 82.9585C87.8748 83.7322 88.0218 84.1954 88.3159 84.3494C88.4561 84.4256 88.5256 84.521 88.5256 84.6327C88.5256 84.7322 88.4575 84.8302 88.32 84.9297C88.1825 85.0319 88.0504 85.0836 87.9224 85.0836C87.676 85.0836 87.4732 84.9133 87.3139 84.5741C87.1546 84.2363 87.0743 83.7527 87.0743 83.126ZM77.928 81.0785C77.6299 81.0853 76.9941 81.9654 76.0206 83.7213C75.6911 84.3126 75.4992 84.6354 75.4447 84.6899C75.3916 84.7403 75.2909 84.7866 75.1438 84.8289C74.9995 84.8697 74.8797 84.8915 74.7844 84.8915C74.5693 84.8915 74.4631 84.4747 74.4631 83.6396C74.4631 83.1696 74.5639 82.3196 74.7654 81.0881C74.847 80.5895 74.8892 80.2326 74.8892 80.0187C74.8892 79.8075 74.9832 79.7026 75.1724 79.7026C75.5264 79.7026 75.7034 79.9574 75.7034 80.4696C75.7034 80.7094 75.6449 81.1793 75.5264 81.8796C75.3889 82.6792 75.3195 83.1642 75.3154 83.3372C75.5142 83.1451 75.8041 82.7255 76.1881 82.0757C76.7313 81.1875 77.1302 80.6249 77.3862 80.3879C77.6448 80.1481 77.9117 80.0282 78.1867 80.0282C78.395 80.0282 78.5597 80.1672 78.6795 80.4451C78.8048 80.7243 78.8797 81.3864 78.9055 82.4354C78.9123 82.6983 78.9355 82.8931 78.9777 83.0211C79.0185 83.1492 79.0498 83.2132 79.0689 83.2132C79.2187 83.2132 79.5454 82.701 80.0464 81.6779C80.3146 81.1371 80.5747 80.7271 80.8279 80.4451C81.0839 80.1645 81.3657 80.0241 81.6761 80.0241C81.9348 80.0241 82.1226 80.1576 82.2411 80.426C82.3595 80.6917 82.4439 81.0867 82.4957 81.6112C82.5433 82.1411 82.6169 82.6274 82.7162 83.0688C82.8183 83.5102 83.0035 83.7935 83.2717 83.9175C83.4541 84.0033 83.5454 84.1041 83.5454 84.2199C83.5454 84.3316 83.4678 84.4474 83.3153 84.5646C83.1614 84.6831 83.0212 84.7431 82.8932 84.7431C82.6373 84.7431 82.4086 84.5864 82.2071 84.2731C82.0069 83.9597 81.8544 83.2813 81.7523 82.2392C81.7074 81.8196 81.6652 81.5226 81.623 81.3469C81.5808 81.1712 81.5168 81.0826 81.4269 81.0826C81.2922 81.0826 81.1329 81.2107 80.9477 81.4668C80.7653 81.7229 80.4698 82.2419 80.06 83.0252C79.7415 83.6355 79.4991 84.0442 79.3317 84.2485C79.1697 84.4502 79.0104 84.551 78.8579 84.551C78.7204 84.551 78.5978 84.4965 78.4889 84.3875C78.38 84.2758 78.3119 84.1423 78.2833 83.9897C78.2534 83.8331 78.2234 83.4503 78.1921 82.844C78.1431 81.8332 78.056 81.2447 77.928 81.0785ZM73.3685 79.5201C73.3685 79.0951 73.2582 78.8362 73.0377 78.7436C72.8171 78.6469 72.5421 78.5992 72.214 78.5992C71.536 78.5992 70.9206 78.7341 70.3679 79.0024C69.8178 79.2681 69.5442 79.5868 69.5442 79.9615C69.5442 80.2298 69.6654 80.4642 69.9077 80.6658C70.1541 80.8647 70.6878 81.0826 71.5088 81.3237C72.3038 81.554 72.8702 81.791 73.2051 82.0376C73.5441 82.2801 73.713 82.5743 73.713 82.9203C73.713 83.2691 73.4788 83.6464 73.0091 84.0524C72.5394 84.4556 71.9717 84.7621 71.3073 84.9719C70.6456 85.1844 70.0833 85.2893 69.6204 85.2893C69.2338 85.2893 68.9397 85.243 68.7382 85.1504C68.5408 85.0605 68.4414 84.9474 68.4414 84.8098C68.4414 84.7131 68.47 84.5973 68.5272 84.4597C68.5884 84.3194 68.6483 84.2485 68.7096 84.2485C68.7736 84.2485 68.839 84.2594 68.9057 84.2826C69.2487 84.4093 69.5864 84.4747 69.9227 84.4747C70.5272 84.4747 71.167 84.2976 71.845 83.9461C72.5217 83.5919 72.8607 83.2609 72.8607 82.953C72.8607 82.8222 72.7559 82.6983 72.5489 82.5798C72.3447 82.4585 71.8233 82.2651 70.986 81.9994C69.9485 81.6698 69.3087 81.351 69.069 81.0404C68.8321 80.7271 68.7151 80.3974 68.7151 80.0527C68.7151 79.388 69.0963 78.8512 69.86 78.4453C70.6238 78.0366 71.423 77.8322 72.2562 77.8322C72.8089 77.8322 73.2337 77.9262 73.5319 78.1142C73.8287 78.3009 73.9771 78.5066 73.9771 78.7341C73.9771 78.8417 73.943 78.9997 73.8763 79.2081C73.8096 79.4166 73.6394 79.5201 73.3685 79.5201Z" fill="black"/>
<path id="Vector_4" d="M88.756 75.9682C88.6471 76.0227 88.5042 76.0486 88.3272 76.0486C87.8507 76.0486 87.6124 75.8211 87.6124 75.3634V73.9752H87.2026V73.5393H87.6124V72.9699L88.1692 72.8118V73.5393H88.756V73.9752H88.1692V75.2026C88.1692 75.3484 88.1951 75.4519 88.2482 75.5146C88.3013 75.5773 88.3884 75.6086 88.5123 75.6086C88.6063 75.6086 88.688 75.5813 88.756 75.5269V75.9682ZM87.1645 72.8118C87.0896 72.7696 87.0052 72.7478 86.9085 72.7478C86.639 72.7478 86.5028 72.9004 86.5028 73.2055V73.5393H87.0733V73.9752H86.5055V75.9941H85.9501V73.9752H85.5307V73.5393H85.9501V73.1401C85.9501 72.8813 86.0345 72.6783 86.2033 72.5298C86.3735 72.3786 86.5859 72.3037 86.8391 72.3037C86.9766 72.3037 87.0855 72.3187 87.1645 72.3487V72.8118ZM84.138 73.9248C83.9201 73.9248 83.7486 74.0011 83.6233 74.1523C83.4967 74.3049 83.4341 74.5133 83.4341 74.7803C83.4341 75.0378 83.4967 75.2408 83.6247 75.3906C83.7527 75.5377 83.9242 75.61 84.138 75.61C84.3572 75.61 84.5246 75.5377 84.6417 75.392C84.7602 75.2476 84.8187 75.0405 84.8187 74.7708C84.8187 74.5011 84.7602 74.2926 84.6417 74.1455C84.5246 73.9984 84.3572 73.9248 84.138 73.9248ZM84.1121 76.0513C83.7336 76.0513 83.43 75.9369 83.204 75.7094C82.978 75.4792 82.8664 75.174 82.8664 74.7953C82.8664 74.3825 82.9835 74.061 83.2176 73.8295C83.4545 73.5965 83.7717 73.4807 84.172 73.4807C84.5546 73.4807 84.8541 73.5938 85.0678 73.8199C85.2816 74.0447 85.3891 74.3567 85.3891 74.7572C85.3891 75.1481 85.2734 75.4628 85.042 75.6985C84.8119 75.9342 84.5015 76.0513 84.1121 76.0513ZM80.8501 75.9178V75.4015C81.057 75.5595 81.2871 75.6399 81.5376 75.6399C81.8739 75.6399 82.0413 75.5405 82.0413 75.3416C82.0413 75.2857 82.0264 75.2394 81.9978 75.1999C81.9692 75.1604 81.9297 75.125 81.8807 75.095C81.833 75.065 81.7745 75.0378 81.7078 75.0133C81.6424 74.9888 81.5689 74.9629 81.4872 74.9315C81.3865 74.892 81.2953 74.8498 81.2136 74.8048C81.1346 74.7599 81.0679 74.7095 81.0134 74.6536C80.9603 74.5964 80.9209 74.531 80.8936 74.4602C80.8664 74.388 80.8528 74.3035 80.8528 74.2082C80.8528 74.0897 80.88 73.9861 80.9358 73.8962C80.993 73.8049 81.0679 73.7286 81.1618 73.6687C81.2558 73.606 81.3633 73.5597 81.4831 73.5298C81.6029 73.4971 81.7268 73.4807 81.8535 73.4807C82.0808 73.4807 82.2837 73.5161 82.4634 73.5842V74.0706C82.2905 73.9534 82.0917 73.8935 81.8684 73.8935C81.7976 73.8935 81.735 73.9003 81.6765 73.9153C81.6206 73.9289 81.573 73.9493 81.5335 73.9752C81.4927 74.0011 81.4614 74.0324 81.4396 74.0692C81.4164 74.1033 81.4055 74.1428 81.4055 74.1864C81.4055 74.2381 81.4164 74.2845 81.4396 74.3199C81.4614 74.3567 81.494 74.3907 81.5376 74.4193C81.5825 74.4466 81.6356 74.4711 81.6955 74.4956C81.7582 74.5174 81.829 74.5419 81.9093 74.5692C82.0141 74.6128 82.1094 74.6564 82.1925 74.7013C82.2769 74.7463 82.349 74.798 82.4076 74.8553C82.4661 74.9111 82.5124 74.9765 82.5437 75.0514C82.5764 75.125 82.5927 75.2135 82.5927 75.3157C82.5927 75.4397 82.5628 75.5486 82.5056 75.6413C82.4484 75.7339 82.3722 75.8116 82.2755 75.8715C82.1802 75.9328 82.0686 75.9778 81.9433 76.0064C81.8181 76.0363 81.686 76.0513 81.5471 76.0513C81.2789 76.0513 81.0461 76.0064 80.8501 75.9178ZM79.283 73.9248C79.0652 73.9248 78.8937 74.0011 78.767 74.1523C78.6418 74.3049 78.5778 74.5133 78.5778 74.7803C78.5778 75.0378 78.6418 75.2408 78.7698 75.3906C78.8977 75.5377 79.0679 75.61 79.283 75.61C79.5009 75.61 79.6697 75.5377 79.7854 75.392C79.9039 75.2476 79.9638 75.0405 79.9638 74.7708C79.9638 74.5011 79.9039 74.2926 79.7854 74.1455C79.6697 73.9984 79.5009 73.9248 79.283 73.9248ZM79.2558 76.0513C78.8773 76.0513 78.5751 75.9369 78.3477 75.7094C78.1231 75.4792 78.0101 75.174 78.0101 74.7953C78.0101 74.3825 78.1272 74.061 78.3627 73.8295C78.5982 73.5965 78.9168 73.4807 79.3157 73.4807C79.6996 73.4807 79.9978 73.5938 80.2129 73.8199C80.4267 74.0447 80.5328 74.3567 80.5328 74.7572C80.5328 75.1481 80.4171 75.4628 80.1857 75.6985C79.9556 75.9342 79.6465 76.0513 79.2558 76.0513ZM77.9161 74.0692C77.8494 74.0161 77.7528 73.9888 77.6261 73.9888C77.4614 73.9888 77.3239 74.0638 77.215 74.2123C77.1047 74.3607 77.0489 74.5637 77.0489 74.8185V75.9941H76.4934V73.5393H77.0489V74.0447H77.0584C77.1129 73.8717 77.1959 73.7382 77.3076 73.6415C77.4219 73.5447 77.5472 73.4957 77.686 73.4957C77.7868 73.4957 77.8644 73.5107 77.9161 73.5407V74.0692ZM76.0373 75.881C75.8413 75.9955 75.6085 76.0513 75.3403 76.0513C74.9754 76.0513 74.6813 75.9383 74.458 75.7108C74.2348 75.4819 74.1231 75.1876 74.1231 74.8239C74.1231 74.4193 74.2429 74.0951 74.4826 73.8499C74.7235 73.6047 75.0448 73.4807 75.4478 73.4807C75.6711 73.4807 75.8685 73.5202 76.0401 73.5992V74.1169C75.8685 73.9888 75.6874 73.9248 75.4941 73.9248C75.2586 73.9248 75.0666 74.0052 74.9155 74.1646C74.7657 74.3226 74.6909 74.531 74.6909 74.7885C74.6909 75.0419 74.7616 75.2435 74.9019 75.3906C75.0435 75.5377 75.2341 75.61 75.4723 75.61C75.6711 75.61 75.8603 75.5391 76.0373 75.3974V75.881ZM73.6507 75.9941H73.0952V73.5393H73.6507V75.9941ZM73.3757 73.023C73.2845 73.023 73.2055 72.9944 73.1402 72.9344C73.0762 72.8759 73.0449 72.7996 73.0449 72.7083C73.0449 72.6184 73.0762 72.5421 73.1402 72.4808C73.2055 72.4209 73.2845 72.3895 73.3757 72.3895C73.4696 72.3895 73.5486 72.4209 73.6153 72.4808C73.6807 72.5421 73.7133 72.6184 73.7133 72.7083C73.7133 72.7955 73.6807 72.8691 73.6153 72.9317C73.5486 72.993 73.4696 73.023 73.3757 73.023ZM72.4063 75.9941H71.8413V73.7695C71.8413 73.587 71.8522 73.3636 71.8754 73.0993H71.8645C71.8304 73.2505 71.7991 73.3581 71.7719 73.4235L70.7454 75.9941H70.3533L69.3254 73.4426C69.2968 73.3676 69.2655 73.2532 69.2341 73.0993H69.2246C69.2369 73.2369 69.2437 73.4616 69.2437 73.7736V75.9941H68.7168V72.5557H69.5187L70.4227 74.8457C70.4908 75.0214 70.5357 75.1522 70.5561 75.2394H70.5684C70.6283 75.0582 70.6759 74.9234 70.7127 74.8362L71.633 72.5557H72.4063" fill="black"/>
<path id="Vector_5" d="M60.7878 75.6169L63.7598 72.594C61.3977 70.6433 59.8443 70.0098 56.6816 69.6665V73.9168" fill="#7FBA00"/>
<path id="Vector_6" d="M51.7279 75.6169L48.7559 72.594C51.118 70.6433 52.6714 70.0098 55.8341 69.6665V73.9168" fill="#F35025"/>
<path id="Vector_7" d="M60.7878 85.9102L63.7598 88.933C61.3977 90.8838 59.8443 91.5173 56.6816 91.8606V87.6103" fill="#FFB900"/>
<path id="Vector_8" d="M51.7279 85.9102L48.7559 88.933C51.118 90.8838 52.6714 91.5173 55.8341 91.8606V87.6103" fill="#05A6F0"/>
<path id="Vector_9" d="M51.1148 76.2316L48.0937 73.2563C46.1441 75.6199 45.5111 77.1742 45.168 80.3388H49.4157" fill="#F35025"/>
<path id="Vector_10" d="M61.3066 76.2311L64.3263 73.2559C66.2759 75.6194 66.909 77.1738 67.2521 80.3383H63.0057" fill="#7FBA00"/>
<path id="Vector_11" d="M51.1148 85.2957L48.0937 88.2709C46.1441 85.9074 45.5111 84.353 45.168 81.1885H49.4157" fill="#05A6F0"/>
<path id="Vector_12" d="M61.3066 85.2957L64.3263 88.2709C66.2759 85.9074 66.909 84.353 67.2521 81.1885H63.0057" fill="#FFB900"/>
<path id="Vector_13" d="M52.3419 82.3219H50.832L51.9648 85.06L55.8817 86.6662L55.834 80.8574H54.4181V84.541L53.0498 83.9743" fill="black"/>
<path id="Vector_14" d="M55.8322 74.8608V76.3716L53.048 77.5527L52.0092 80.0552H55.8322V81.472H50.4531L50.1699 80.7636L51.963 76.467" fill="black"/>
<path id="Vector_15" d="M60.5985 76.4196L56.6816 74.8135V76.4196L59.4658 77.553L60.7878 80.7639L59.4182 84.0225L56.6816 85.1559V86.6666L60.5509 85.1559L62.3453 80.7639" fill="black"/>
<path id="Vector_16" d="M54.416 79.2048H55.8319V76.0879H54.416V79.2048Z" fill="black"/>
<path id="Vector_17" d="M57.3438 81.5184H61.6854V80.103H57.3438V81.5184Z" fill="black"/>
<path id="Vector_18" d="M56.6816 85.3435H58.0976V76.1836H56.6816V85.3435Z" fill="black"/>
</g>
<rect x="37" y="36.5" width="89" height="89" rx="11.8333" stroke="url(#paint1_linear_1_10209)" stroke-width="3"/>
<rect x="37" y="36.5" width="89" height="89" rx="11.8333" stroke="url(#paint2_radial_1_10209)" stroke-width="3" style="mix-blend-mode:lighten"/>
</g>
<defs>
<filter id="filter0_d_1_10209" x="0.5" y="0" width="162" height="162" filterUnits="userSpaceOnUse" color-interpolation-filters="sRGB">
<feFlood flood-opacity="0" result="BackgroundImageFix"/>
<feColorMatrix in="SourceAlpha" type="matrix" values="0 0 0 0 0 0 0 0 0 0 0 0 0 0 0 0 0 0 127 0" result="hardAlpha"/>
<feOffset/>
<feGaussianBlur stdDeviation="17.5"/>
<feComposite in2="hardAlpha" operator="out"/>
<feColorMatrix type="matrix" values="0 0 0 0 0.583333 0 0 0 0 0.325694 0 0 0 0 0.341309 0 0 0 0.55 0"/>
<feBlend mode="normal" in2="BackgroundImageFix" result="effect1_dropShadow_1_10209"/>
<feBlend mode="normal" in="SourceGraphic" in2="effect1_dropShadow_1_10209" result="shape"/>
</filter>
<linearGradient id="paint0_linear_1_10209" x1="81.5" y1="35" x2="81.5" y2="127" gradientUnits="userSpaceOnUse">
<stop stop-color="#FFF1FE"/>
<stop offset="1" stop-color="#FFDCDC"/>
</linearGradient>
<linearGradient id="paint1_linear_1_10209" x1="35.5" y1="62.8788" x2="127.5" y2="62.8788" gradientUnits="userSpaceOnUse">
<stop stop-color="#EBD1FF"/>
<stop offset="0.296875" stop-color="#EFF8D9"/>
<stop offset="0.583333" stop-color="#E9DBEF"/>
<stop offset="0.755208" stop-color="#F5F3E9"/>
<stop offset="1" stop-color="#C9C2A6"/>
</linearGradient>
<radialGradient id="paint2_radial_1_10209" cx="0" cy="0" r="1" gradientUnits="userSpaceOnUse" gradientTransform="translate(39.7073 34.9999) rotate(44.0235) scale(117.674 1559.5)">
<stop stop-color="#FDAAFF"/>
<stop offset="0.104167" stop-color="#FDEFD2"/>
<stop offset="0.223958" stop-color="#FEFFB9"/>
<stop offset="0.338542" stop-color="#DCD4AD"/>
<stop offset="0.453125" stop-color="#FFFDC1"/>
<stop offset="0.59375" stop-color="#FFE3CA"/>
<stop offset="0.78125" stop-color="#FDFF96"/>
<stop offset="1" stop-color="#D6C0FF"/>
</radialGradient>
</defs>
</svg>
