<svg width="18" height="18" viewBox="0 0 18 18" fill="none" xmlns="http://www.w3.org/2000/svg">
<g id="emojione-v1:flag-for-rwanda">
<path id="Vector" d="M15.1875 2.8125H2.8125C0.948656 2.8125 0 4.19766 0 5.90625V9H18V5.90625C18 4.19766 17.0513 2.8125 15.1875 2.8125Z" fill="#27AAE1"/>
<path id="Vector_2" d="M0 12.0938C0 13.8023 0.948656 15.1875 2.8125 15.1875H15.1875C17.0513 15.1875 18 13.8023 18 12.0938V11.8125H0V12.0938Z" fill="#128807"/>
<g id="Group">
<path id="Vector_3" fill-rule="evenodd" clip-rule="evenodd" d="M13.9977 4.91626L13.7013 3.46754C13.6988 3.45489 13.6973 3.44251 13.6954 3.43042C13.6993 3.42648 13.703 3.42648 13.7055 3.43098L14.1755 4.85129C14.1785 4.85033 14.1816 4.84985 14.1848 4.84989C14.2143 4.35911 14.2433 3.86833 14.2731 3.3767C14.2756 3.36939 14.2787 3.36939 14.2818 3.3767C14.2967 3.60592 14.3108 3.83429 14.3248 4.06323C14.3406 4.32086 14.3549 4.57792 14.3701 4.83526C14.3752 4.83667 14.3794 4.83808 14.3839 4.83864C14.5349 4.38442 14.6865 3.9302 14.837 3.47542C14.8578 3.47542 14.8508 3.48611 14.8468 3.49679C14.7984 3.7393 14.7492 3.98165 14.6992 4.22383C14.6547 4.44067 14.608 4.65808 14.563 4.87436C14.5523 4.89011 14.5687 4.91261 14.5504 4.92583C14.5273 4.94017 14.5048 4.93258 14.4829 4.92639C14.3478 4.88575 14.2037 4.88575 14.0686 4.92639C14.0506 4.93145 14.0309 4.93764 14.0109 4.92948C14.0053 4.92674 14.0007 4.92231 13.9977 4.91683M13.6748 6.04492C13.262 6.25248 12.8502 6.46061 12.4388 6.66733C12.4241 6.6745 12.4092 6.68116 12.394 6.68729C12.3819 6.6932 12.3814 6.68673 12.3833 6.67717L13.575 5.89192C13.5756 5.87195 13.564 5.87758 13.5528 5.88208C13.2263 5.94901 12.8997 6.01679 12.5721 6.08261C12.4185 6.11467 12.2644 6.14533 12.1105 6.17654C12.1083 6.17401 12.1069 6.17148 12.1088 6.17036L12.1105 6.16726C12.5749 6.0137 13.0398 5.86014 13.503 5.70658C13.5151 5.70264 13.5278 5.70039 13.5396 5.69786C13.5573 5.68914 13.566 5.70236 13.5778 5.71164C13.5969 5.73667 13.5998 5.76761 13.6085 5.79658C13.6262 5.85592 13.6512 5.91048 13.6841 5.96223C13.6954 5.97995 13.7066 5.99879 13.7055 6.02129C13.7033 6.03929 13.6892 6.04295 13.6748 6.04492ZM14.9877 5.31001C15.2307 5.25854 15.4743 5.20736 15.7178 5.15701C15.9192 5.11511 16.1209 5.07404 16.3217 5.03242C16.3394 5.02876 16.3568 5.02679 16.3748 5.02454C16.3875 5.0192 16.3892 5.02567 16.3875 5.03579C15.9507 5.18064 15.5151 5.32576 15.0786 5.47117L15.0423 5.48326C15.0355 5.49508 15.0462 5.49761 15.053 5.50183C15.5159 5.52883 15.978 5.55498 16.4415 5.58142C16.464 5.59773 16.498 5.56567 16.5163 5.59942L15.1441 5.67817C15.1261 5.67873 15.1081 5.67873 15.0901 5.67817C15.0603 5.68689 15.0308 5.68126 15.0007 5.68267C14.9782 5.67001 14.9756 5.64779 14.9762 5.62726C14.979 5.54109 14.9677 5.45504 14.943 5.37245C14.9402 5.36481 14.939 5.35669 14.9395 5.34857C14.9399 5.34045 14.942 5.3325 14.9455 5.3252C14.954 5.30608 14.9739 5.3162 14.9877 5.31001ZM12.4058 4.50283L13.1258 4.86198L13.6431 5.12129C13.6557 5.12748 13.6678 5.13704 13.6836 5.13198C13.6988 5.12467 13.7125 5.11876 13.7227 5.13873C13.6926 5.21101 13.6647 5.28498 13.6014 5.33617C13.5837 5.33814 13.5697 5.33308 13.5609 5.31564C13.5578 5.30636 13.5705 5.29792 13.564 5.28723C13.1931 5.04226 12.8218 4.79786 12.4514 4.55289C12.4317 4.54023 12.4126 4.52645 12.3935 4.51323C12.3918 4.50339 12.3932 4.49636 12.4058 4.50283ZM14.1946 6.40858C14.1907 6.38411 14.187 6.3602 14.1808 6.3242C14.0247 6.79642 13.8709 7.25683 13.7179 7.71751C13.7083 7.71948 13.7018 7.71808 13.7078 7.70542C13.7561 7.46383 13.8051 7.22167 13.8546 6.97979C13.8996 6.76239 13.9446 6.54554 13.9884 6.32814C13.9924 6.31042 14.0078 6.29101 13.991 6.27301C13.9895 6.27015 13.9891 6.26682 13.9899 6.2637C13.9908 6.26058 13.9928 6.25788 13.9955 6.25614C14.059 6.23561 14.1111 6.28032 14.1707 6.28651C14.1909 6.28792 14.2061 6.3017 14.2123 6.32308C14.2199 6.35458 14.2286 6.38608 14.1946 6.40858ZM14.7374 6.19876C14.8744 6.47214 15.0094 6.74439 15.1452 7.01608L15.3685 7.46607C15.3744 7.47901 15.3671 7.47958 15.3578 7.47901L14.5779 6.29579C14.5768 6.29326 14.5763 6.28961 14.5748 6.28595C14.5636 6.28145 14.5571 6.27386 14.5571 6.26092C14.6024 6.20214 14.664 6.16867 14.7349 6.15095C14.7546 6.16558 14.7487 6.18189 14.7374 6.19876Z" fill="#E4BD01"/>
<path id="Vector_4" fill-rule="evenodd" clip-rule="evenodd" d="M14.999 5.6785C15.0288 5.6785 15.0592 5.67906 15.089 5.67962C15.0659 5.68356 15.0434 5.68637 15.0108 5.69284L16.4081 6.15719C16.4106 6.16731 16.4089 6.17294 16.3968 6.16787L15.4656 5.97719C15.3095 5.9454 15.1548 5.9139 14.999 5.88269C14.9796 5.87509 14.965 5.89984 14.9456 5.89C14.941 5.88699 14.9373 5.88269 14.9352 5.87762C14.9425 5.80647 14.9464 5.73419 14.999 5.6785ZM14.7374 4.99815C14.8657 4.89662 14.9819 4.78412 15.1048 4.67697C15.3374 4.47165 15.5697 4.26465 15.8025 4.05934C15.8132 4.05597 15.8163 4.06047 15.8146 4.07059C15.5037 4.42176 15.1924 4.77267 14.8809 5.12331C14.8907 5.13962 14.8882 5.15453 14.875 5.16775C14.8682 5.17169 14.8598 5.17394 14.8544 5.16972C14.7982 5.1219 14.7369 5.07747 14.7012 5.0094C14.7085 4.98915 14.7206 4.98494 14.7374 4.99815ZM13.7165 5.134C13.7058 5.13456 13.6946 5.14328 13.6844 5.13259L12.8877 4.234C12.8297 4.16903 12.774 4.10378 12.7158 4.03937C12.7209 4.03319 12.7265 4.03319 12.7324 4.03656C13.0404 4.3105 13.3486 4.58331 13.6558 4.8564C13.7089 4.90365 13.7624 4.94781 13.8149 4.99365C13.8338 4.98831 13.8408 4.99928 13.845 5.01418C13.8175 5.071 13.7823 5.11881 13.7165 5.134ZM14.5639 6.26293L14.5752 6.28572C14.5532 6.2964 14.5664 6.31412 14.569 6.32706C14.6595 6.76862 14.7509 7.20934 14.8426 7.6509C14.8452 7.66553 14.8471 7.68015 14.8483 7.69422C14.8542 7.70547 14.8471 7.708 14.8373 7.70687L14.4022 6.39737L14.389 6.36137C14.3834 6.34337 14.3614 6.33831 14.3552 6.32003C14.3538 6.3144 14.3552 6.30878 14.3578 6.30372C14.4123 6.26856 14.4762 6.26547 14.5364 6.25028C14.5462 6.24747 14.5577 6.25309 14.5639 6.26293Z" fill="#E4BD01"/>
<path id="Vector_5" fill-rule="evenodd" clip-rule="evenodd" d="M13.8375 5.0161C13.8301 5.00879 13.8231 5.00092 13.8155 4.9936C13.8209 4.97167 13.8062 4.95592 13.7978 4.93848C13.5961 4.53601 13.3939 4.13326 13.192 3.73135C13.1858 3.71814 13.1807 3.70492 13.1743 3.69142C13.1681 3.68017 13.1748 3.68017 13.1836 3.68073C13.4406 4.07054 13.696 4.46007 13.9528 4.84876C13.9674 4.87126 13.9829 4.8932 13.9981 4.91626L14.0107 4.91738C14.0113 4.91935 14.0132 4.92132 14.0124 4.92245C13.9916 4.96295 13.8836 5.0192 13.8375 5.0161ZM13.9899 6.26063L13.9893 6.27301C13.9741 6.29748 13.9604 6.32279 13.9455 6.34642L13.1844 7.5001C13.1751 7.50348 13.1692 7.50207 13.1751 7.49026L13.8119 6.21957C13.8124 6.2162 13.8144 6.21254 13.815 6.20945C13.8231 6.19567 13.8091 6.1802 13.8203 6.16754C13.8233 6.16316 13.8276 6.1599 13.8327 6.15826C13.8968 6.17457 13.9561 6.19848 13.9899 6.26063ZM14.7375 4.9981C14.727 5.0006 14.7164 5.00266 14.7057 5.00429C14.6486 5.00992 14.5696 4.96379 14.5558 4.91738C14.5558 4.90192 14.5535 4.88645 14.5651 4.87379C14.5656 4.88054 14.5656 4.88842 14.5681 4.90642L15.3703 3.69085C15.3796 3.68889 15.3849 3.69029 15.3801 3.7007C15.1759 4.11048 14.9709 4.5197 14.7659 4.92864C14.7543 4.95142 14.7375 4.97167 14.7375 4.9981ZM14.8685 5.16826C14.8716 5.15335 14.8753 5.13845 14.8792 5.12326C14.9051 5.12889 14.9251 5.11567 14.9456 5.10498C15.3405 4.9067 15.7353 4.7087 16.1313 4.51126C16.1437 4.50367 16.1578 4.49973 16.171 4.4941C16.1817 4.48735 16.1808 4.4941 16.1808 4.50142C15.8441 4.7244 15.5071 4.94696 15.1697 5.1691C15.1079 5.20989 15.0463 5.25095 14.9841 5.29117C14.9701 5.29989 14.9639 5.3072 14.9878 5.31001C14.9779 5.31817 14.9667 5.31873 14.9546 5.31929C14.9087 5.30298 14.8635 5.22507 14.8685 5.16826ZM14.7375 6.19876C14.7296 6.18498 14.7355 6.17035 14.7375 6.15545C14.7408 6.10567 14.8069 6.03788 14.8643 6.02523C14.8801 6.03085 14.8902 6.03957 14.8789 6.05842C15.0277 6.22717 15.1773 6.3962 15.3261 6.56579C15.4925 6.75397 15.6587 6.94241 15.8245 7.1311C15.8296 7.13673 15.8284 7.14179 15.8225 7.14629C15.5643 6.91848 15.307 6.69067 15.0488 6.46229C14.9605 6.38298 14.8716 6.30367 14.7825 6.22492C14.7704 6.21338 14.7602 6.1951 14.7375 6.1996" fill="#E4BD01"/>
<path id="Vector_6" fill-rule="evenodd" clip-rule="evenodd" d="M13.8263 6.16283C13.8257 6.16677 13.8252 6.17014 13.8252 6.17408C13.8238 6.1873 13.8136 6.19208 13.8032 6.19799C13.4671 6.49583 13.1319 6.79452 12.7958 7.09292C12.7767 7.11008 12.7575 7.12555 12.7381 7.14186C12.7277 7.14524 12.7246 7.1413 12.7277 7.13117C13.0359 6.78581 13.3431 6.43959 13.6494 6.09252C13.6598 6.08099 13.6913 6.07367 13.6738 6.04527L13.6944 6.02586C13.7453 6.0343 13.8176 6.10995 13.8263 6.16283ZM13.5647 5.72042L13.5408 5.69792C13.5088 5.67599 13.4719 5.68273 13.4373 5.6802C12.9848 5.65208 12.5323 5.62592 12.0806 5.59949C12.0893 5.56742 12.1185 5.59498 12.1343 5.58148C12.5902 5.55561 13.0453 5.52861 13.5012 5.50189C13.5464 5.47742 13.5678 5.49936 13.5788 5.54267C13.5819 5.58599 13.5765 5.6307 13.5844 5.67486C13.5865 5.68356 13.5858 5.69273 13.5822 5.70095C13.5787 5.70918 13.5725 5.71602 13.5647 5.72042ZM14.8793 6.0582C14.8779 6.04499 14.8706 6.03767 14.8573 6.03486C14.8475 5.98649 14.8981 5.9007 14.9454 5.88411C14.9499 5.88327 14.9535 5.88327 14.958 5.8827C14.9738 5.87399 14.9805 5.88327 14.9878 5.89395C15.3805 6.15411 15.7748 6.4137 16.1677 6.67245L16.2141 6.70367C16.1891 6.71239 16.1739 6.6958 16.1584 6.6868C15.75 6.48345 15.3428 6.27927 14.9344 6.07452C14.9175 6.0658 14.9018 6.05145 14.8793 6.0582Z" fill="#E4BD01"/>
<path id="Vector_7" fill-rule="evenodd" clip-rule="evenodd" d="M13.5645 5.31008L13.5988 5.33258C13.6258 5.39333 13.5943 5.44367 13.5693 5.4957C13.547 5.50358 13.5282 5.49683 13.5099 5.48305C13.0754 5.33764 12.6403 5.19364 12.2055 5.0488C12.1917 5.0443 12.1781 5.03942 12.1647 5.03417C12.1638 5.02433 12.1667 5.01899 12.1779 5.02433C12.3348 5.05583 12.4923 5.0862 12.6496 5.11799C12.9466 5.17789 13.2427 5.23836 13.54 5.29939C13.5476 5.30361 13.5594 5.29883 13.5645 5.31008ZM14.3548 6.31639L14.3641 6.31752C14.3793 6.32567 14.3748 6.33833 14.3703 6.35155L14.2907 7.72461C14.2893 7.75161 14.2853 7.77805 14.2825 7.80533C14.2786 7.81264 14.2758 7.81208 14.2732 7.80392C14.2462 7.35224 14.2195 6.89886 14.1931 6.44661C14.1919 6.43395 14.1931 6.42045 14.1931 6.40864C14.1942 6.37742 14.195 6.3462 14.1964 6.31555C14.2203 6.30086 14.2477 6.29316 14.2757 6.29331C14.3037 6.29346 14.3311 6.30145 14.3548 6.31639Z" fill="#E4BD01"/>
<path id="Vector_8" fill-rule="evenodd" clip-rule="evenodd" d="M16.5162 5.59943C16.4912 5.59324 16.4667 5.58677 16.4414 5.58143C16.4873 5.57327 16.5317 5.58593 16.577 5.59943H16.5162Z" fill="#6BAE75"/>
<path id="Vector_9" fill-rule="evenodd" clip-rule="evenodd" d="M12.133 5.58143C12.1145 5.58761 12.0967 5.59324 12.0793 5.59943H12.025C12.0172 5.5969 12.0163 5.59352 12.0233 5.59015C12.0591 5.58199 12.0962 5.5789 12.133 5.58143Z" fill="#B1B632"/>
<path id="Vector_10" fill-rule="evenodd" clip-rule="evenodd" d="M13.5114 5.48299C13.5294 5.47905 13.544 5.50296 13.5643 5.4903C13.5839 5.51167 13.5879 5.53192 13.5567 5.54711C13.5668 5.49649 13.5297 5.50352 13.501 5.50155C13.5046 5.49564 13.508 5.48861 13.5114 5.48299Z" fill="#3CA8A4"/>
<path id="Vector_11" fill-rule="evenodd" clip-rule="evenodd" d="M15.8148 4.07055L15.8027 4.0593C15.8147 4.0393 15.8332 4.02402 15.855 4.01599C15.8491 4.03865 15.8347 4.05817 15.8148 4.07055Z" fill="#A8B63B"/>
<path id="Vector_12" fill-rule="evenodd" clip-rule="evenodd" d="M15.3579 7.47876C15.3618 7.47482 15.3647 7.4706 15.3686 7.46582C15.386 7.4886 15.4001 7.51195 15.3942 7.5426C15.3822 7.52129 15.3701 7.5 15.3579 7.47876Z" fill="#B9B82B"/>
<path id="Vector_13" fill-rule="evenodd" clip-rule="evenodd" d="M16.3881 5.03555C16.3841 5.03159 16.3799 5.02783 16.3755 5.0243C16.3852 5.0181 16.3964 5.01448 16.4079 5.01379C16.4194 5.0131 16.4309 5.01537 16.4413 5.02037C16.4239 5.02543 16.4056 5.02993 16.3881 5.03555Z" fill="#BAB829"/>
<path id="Vector_14" fill-rule="evenodd" clip-rule="evenodd" d="M12.4059 4.50289C12.4017 4.50656 12.3975 4.51012 12.3932 4.51357C12.3698 4.50075 12.3467 4.48753 12.3237 4.47392C12.362 4.46829 12.3831 4.48714 12.4059 4.50289Z" fill="#BCB828"/>
<path id="Vector_15" fill-rule="evenodd" clip-rule="evenodd" d="M12.3836 6.67725C12.3872 6.68118 12.3909 6.68428 12.3943 6.68737C12.3843 6.69646 12.3727 6.70344 12.3599 6.70789C12.3472 6.71234 12.3338 6.71416 12.3203 6.71325C12.342 6.70115 12.3631 6.6899 12.3836 6.67725Z" fill="#ADB636"/>
<path id="Vector_16" fill-rule="evenodd" clip-rule="evenodd" d="M14.8369 7.70687C14.8404 7.70253 14.8441 7.69831 14.8479 7.69421C14.8611 7.71306 14.8617 7.73387 14.8501 7.75778L14.8369 7.70687Z" fill="#B6B82D"/>
<path id="Vector_17" fill-rule="evenodd" clip-rule="evenodd" d="M12.7322 4.03656L12.7156 4.03937C12.6989 4.02776 12.6849 4.01258 12.6748 3.99493C12.6787 3.98987 12.6821 3.98931 12.6875 3.99437C12.7018 4.009 12.7161 4.02278 12.7322 4.03656Z" fill="#ABB639"/>
<path id="Vector_18" fill-rule="evenodd" clip-rule="evenodd" d="M12.1105 6.16724C12.1099 6.17033 12.1091 6.17342 12.1091 6.17652C12.0953 6.19114 12.0798 6.19114 12.0576 6.18102C12.0779 6.17596 12.0945 6.17089 12.1105 6.16724Z" fill="#6DAE74"/>
<path id="Vector_19" fill-rule="evenodd" clip-rule="evenodd" d="M15.3785 3.7007C15.3748 3.69761 15.3717 3.69395 15.3687 3.69086C15.3723 3.67961 15.3754 3.66695 15.3914 3.66357C15.3985 3.68073 15.3883 3.69086 15.3785 3.7007Z" fill="#AAB639"/>
<path id="Vector_20" fill-rule="evenodd" clip-rule="evenodd" d="M16.397 6.1673C16.4009 6.16337 16.4046 6.16055 16.4082 6.15662C16.4228 6.16055 16.4372 6.16393 16.451 6.16787C16.4535 6.17799 16.4521 6.18249 16.4408 6.17799C16.4251 6.17715 16.4096 6.17855 16.397 6.1673Z" fill="#A9B63A"/>
<path id="Vector_21" fill-rule="evenodd" clip-rule="evenodd" d="M15.9104 7.22453C15.8873 7.21385 15.8741 7.20738 15.8716 7.18938C15.893 7.18741 15.898 7.20288 15.9104 7.22453Z" fill="#55AB8A"/>
<path id="Vector_22" fill-rule="evenodd" clip-rule="evenodd" d="M13.7062 7.70544C13.7093 7.70994 13.7129 7.7136 13.7163 7.71754L13.7048 7.76057C13.7011 7.76507 13.698 7.76591 13.6944 7.76141C13.6944 7.74201 13.6932 7.7226 13.7062 7.70544Z" fill="#ACB637"/>
<path id="Vector_23" fill-rule="evenodd" clip-rule="evenodd" d="M14.8472 3.49653C14.8442 3.48978 14.8413 3.48274 14.8374 3.47515C14.8413 3.4639 14.8442 3.45209 14.8467 3.4414C14.8523 3.4369 14.8565 3.43746 14.861 3.4414C14.8582 3.46081 14.861 3.48021 14.8472 3.49653Z" fill="#A8B63B"/>
<path id="Vector_24" fill-rule="evenodd" clip-rule="evenodd" d="M13.1831 3.68155C13.18 3.68549 13.1772 3.68914 13.1738 3.69224C13.1676 3.6868 13.1627 3.68014 13.1592 3.67269C13.1558 3.66523 13.1539 3.65714 13.1538 3.64893C13.1727 3.65455 13.1772 3.66889 13.1831 3.68155Z" fill="#A0B543"/>
<path id="Vector_25" fill-rule="evenodd" clip-rule="evenodd" d="M15.0525 5.5018C15.0399 5.50321 15.0233 5.51052 15.0174 5.4959C15.0148 5.48774 15.0311 5.48183 15.0418 5.48324L15.0525 5.5018Z" fill="#44A99B"/>
<path id="Vector_26" fill-rule="evenodd" clip-rule="evenodd" d="M12.0234 5.59019C12.0245 5.59316 12.025 5.5963 12.025 5.59947H11.9722C11.9913 5.58569 12.0068 5.58766 12.0234 5.59019Z" fill="#6FAF71"/>
<path id="Vector_27" fill-rule="evenodd" clip-rule="evenodd" d="M12.1331 5.02488C12.1182 5.02094 12.1044 5.01757 12.0909 5.01363C12.087 5.01223 12.085 5.00969 12.0855 5.00744C12.0864 5.00624 12.0871 5.00491 12.0875 5.00351C12.1047 5.00351 12.1207 5.00041 12.1331 5.01307C12.1412 5.01673 12.1412 5.02123 12.1331 5.02488Z" fill="#9DB445"/>
<path id="Vector_28" fill-rule="evenodd" clip-rule="evenodd" d="M16.4585 5.01106C16.4652 4.9939 16.4785 4.99278 16.4956 4.99447C16.4863 5.00993 16.4751 5.01359 16.4585 5.01106Z" fill="#5BAC85"/>
<path id="Vector_29" fill-rule="evenodd" clip-rule="evenodd" d="M14.2822 3.37504H14.2734C14.2692 3.35586 14.2705 3.33588 14.2771 3.31738C14.285 3.33554 14.2868 3.35578 14.2822 3.37504Z" fill="#A1B541"/>
<path id="Vector_30" fill-rule="evenodd" clip-rule="evenodd" d="M16.1803 4.50003L16.1704 4.49272C16.1757 4.48697 16.1821 4.48234 16.1892 4.4791C16.1963 4.47586 16.204 4.47409 16.2118 4.47388C16.2067 4.49075 16.1929 4.49441 16.1803 4.50003Z" fill="#DCBC09"/>
<path id="Vector_31" fill-rule="evenodd" clip-rule="evenodd" d="M12.7295 7.13086C12.7334 7.13392 12.7369 7.13752 12.7399 7.14155C12.7329 7.15364 12.7239 7.16489 12.7036 7.16602C12.705 7.14745 12.7168 7.1393 12.7295 7.13086Z" fill="#A3B540"/>
<path id="Vector_32" fill-rule="evenodd" clip-rule="evenodd" d="M15.8232 7.14495C15.8238 7.1396 15.8252 7.13426 15.8252 7.12976C15.8384 7.1396 15.8553 7.14776 15.8545 7.17082C15.8379 7.16745 15.83 7.15732 15.8232 7.14495Z" fill="#C2B922"/>
<path id="Vector_33" fill-rule="evenodd" clip-rule="evenodd" d="M13.1752 7.48999C13.1783 7.49393 13.1814 7.49674 13.1845 7.49983C13.1806 7.51193 13.1778 7.52374 13.1626 7.52712C13.1555 7.50996 13.1651 7.49983 13.1752 7.48999Z" fill="#A2B541"/>
<path id="Vector_34" fill-rule="evenodd" clip-rule="evenodd" d="M13.7056 3.43096L13.6955 3.43039C13.6828 3.42055 13.6842 3.40733 13.6868 3.38989C13.6928 3.39487 13.6976 3.40115 13.7009 3.40826C13.7042 3.41537 13.7058 3.42313 13.7056 3.43096Z" fill="#79B068"/>
<path id="Vector_35" fill-rule="evenodd" clip-rule="evenodd" d="M12.6872 3.99404L12.6746 3.9946C12.6614 3.99095 12.6566 3.98082 12.6504 3.96704C12.6583 3.96818 12.6658 3.97124 12.6722 3.97595C12.6786 3.98066 12.6838 3.98687 12.6872 3.99404Z" fill="#68AE79"/>
<path id="Vector_36" fill-rule="evenodd" clip-rule="evenodd" d="M16.4419 6.17797L16.452 6.16785C16.4633 6.17122 16.4751 6.1746 16.497 6.18163C16.4709 6.19119 16.4565 6.18782 16.4419 6.17797Z" fill="#66AD7A"/>
<path id="Vector_37" fill-rule="evenodd" clip-rule="evenodd" d="M12.0892 5.00343C12.0892 5.00737 12.0898 5.01018 12.0906 5.01355C12.0791 5.00905 12.0673 5.0054 12.0532 5.00033C12.0693 4.98908 12.0805 4.99218 12.0892 5.00343Z" fill="#53AB8C"/>
<path id="Vector_38" fill-rule="evenodd" clip-rule="evenodd" d="M13.5645 5.31002C13.5564 5.30609 13.5482 5.30327 13.54 5.29934L13.5637 5.28809C13.5729 5.29118 13.5842 5.29315 13.5834 5.30609C13.5831 5.30749 13.5713 5.30862 13.5645 5.31002Z" fill="#27A5B7"/>
<path id="Vector_39" fill-rule="evenodd" clip-rule="evenodd" d="M14.861 3.44108H14.8467C14.8506 3.4273 14.8551 3.41323 14.8588 3.39917C14.861 3.39326 14.8647 3.39326 14.8683 3.39692C14.8689 3.41295 14.8714 3.42842 14.861 3.44108Z" fill="#96B34C"/>
<path id="Vector_40" fill-rule="evenodd" clip-rule="evenodd" d="M12.1328 5.02487V5.01306C12.1486 5.01475 12.1646 5.01306 12.1787 5.02431C12.1741 5.02741 12.1697 5.03069 12.1654 5.03416L12.1328 5.02487Z" fill="#D2BB13"/>
<path id="Vector_41" fill-rule="evenodd" clip-rule="evenodd" d="M14.8684 3.39751C14.8654 3.39807 14.8623 3.39863 14.8589 3.39976L14.8715 3.36292C14.8836 3.37951 14.8797 3.38935 14.8684 3.39751Z" fill="#4CAA93"/>
<path id="Vector_42" fill-rule="evenodd" clip-rule="evenodd" d="M14.3719 6.35154L14.3657 6.3175C14.3829 6.32622 14.3896 6.34282 14.3902 6.36138L14.3719 6.35154Z" fill="#3CA8A4"/>
<path id="Vector_43" fill-rule="evenodd" clip-rule="evenodd" d="M14.9878 5.89391C14.9771 5.89081 14.9679 5.88659 14.958 5.88266C14.9718 5.86409 14.9861 5.87394 14.9999 5.88209C14.9962 5.88638 14.9922 5.89034 14.9878 5.89391Z" fill="#44A99B"/>
<path id="Vector_44" fill-rule="evenodd" clip-rule="evenodd" d="M13.5532 5.88216C13.5659 5.874 13.5813 5.86557 13.5926 5.8771C13.5977 5.88216 13.5839 5.88947 13.5754 5.892C13.5681 5.88891 13.5608 5.8861 13.5532 5.88216Z" fill="#5AAC87"/>
<path id="Vector_45" fill-rule="evenodd" clip-rule="evenodd" d="M13.8037 6.19883C13.811 6.19068 13.8181 6.18224 13.8256 6.17493C13.8335 6.19011 13.8256 6.2008 13.8141 6.21008C13.811 6.20586 13.8074 6.20277 13.8037 6.19883Z" fill="#5BAC85"/>
<path id="Vector_46" fill-rule="evenodd" clip-rule="evenodd" d="M13.556 5.54738C13.5684 5.52966 13.5684 5.51054 13.5636 5.49057C13.5647 5.436 13.5889 5.38566 13.5999 5.3325C13.6322 5.26304 13.6705 5.1961 13.7163 5.13394L13.8367 5.0161C13.8949 4.98291 13.9531 4.95029 14.0102 4.91738C14.1914 4.85185 14.3725 4.8586 14.5542 4.91738C14.6042 4.94635 14.6543 4.97504 14.7041 5.00429C14.7637 5.05491 14.8194 5.10863 14.8686 5.16825C14.897 5.21916 14.9257 5.26838 14.9547 5.31929C14.9904 5.43572 15.0092 5.55497 15 5.6776C14.9868 5.74756 14.9686 5.81646 14.9454 5.88375C14.9153 5.9341 14.8863 5.98444 14.8574 6.0345L14.7378 6.15488C14.6802 6.19088 14.6225 6.22716 14.564 6.2626C14.4954 6.28088 14.4245 6.2986 14.355 6.31604C14.3022 6.31604 14.2493 6.31519 14.1967 6.31519C14.1268 6.30119 14.0579 6.28288 13.9903 6.26035C13.936 6.22793 13.8818 6.1953 13.8277 6.16247C13.7838 6.11635 13.7397 6.07107 13.6958 6.02522C13.632 5.93325 13.5872 5.82952 13.5639 5.72007C13.5583 5.66325 13.5507 5.60532 13.556 5.54738Z" fill="#00A0DD"/>
<path id="Vector_47" fill-rule="evenodd" clip-rule="evenodd" d="M14.2799 4.93909C14.3658 4.93905 14.4509 4.95598 14.5302 4.98889C14.6096 5.02181 14.6816 5.07006 14.7423 5.1309C14.8029 5.19173 14.851 5.26394 14.8836 5.34338C14.9163 5.42282 14.933 5.50794 14.9327 5.59384C14.932 5.76755 14.8626 5.93395 14.7397 6.05667C14.6168 6.1794 14.4503 6.2485 14.2765 6.24887C14.103 6.24754 13.937 6.17785 13.8144 6.05492C13.6919 5.93198 13.6228 5.76571 13.6221 5.59215C13.6229 5.41837 13.6926 5.25201 13.8159 5.12958C13.9393 5.00715 14.1061 4.93864 14.2799 4.93909Z" fill="#E4BD01"/>
</g>
<path id="Vector_48" d="M0 8.4375H18V11.8125H0V8.4375Z" fill="#F9CB38"/>
</g>
</svg>
