<svg xmlns="http://www.w3.org/2000/svg" width="18" height="18" viewBox="0 0 992.13 496.05"><path d="M0 0h992.13v496.05H0z" style="fill-rule:evenodd;stroke-width:1pt;fill:#6fdcff"/><rect width="164.94" height="156.27" x="412.63" y="116.63" rx="82.468" ry="78.136" style="fill-rule:evenodd;stroke-width:1pt;fill:#ffe400"/><path d="M491.12 70.028c-.66-.006-4.362 26.005-5.83 31.868-1.28 12.99 17.507 12.541 14.433-.532l-8.603-31.336zM497.78 321.76c.658.05 6.257-25.656 8.152-31.407 2.228-12.875-16.546-13.663-14.437-.42l6.285 31.828zM366.37 194.28c-.056.623 27.048 6.052 33.109 7.875 13.578 2.173 14.5-15.61.512-13.676l-33.621 5.801zM629.7 197.4c.028-.624-27.29-5.08-33.426-6.686-13.661-1.686-13.795 16.12.094 13.686l33.332-7zM394.14 112c-.449.458 17.356 20.566 20.942 25.542 9.276 9.643 21.574-3.82 9.303-10.468L394.14 112zM598.66 277.64c.405-.493-19.175-19.061-23.203-23.723-10.124-8.844-21.143 5.58-8.309 11.194l31.512 12.53zM434.95 83.847c-.6.26 7.745 25.289 9.052 31.185 4.683 12.269 21.478 4.28 12.82-6.306l-21.87-24.883zM554.2 308.99c.617-.22-5.873-25.737-6.745-31.705-3.773-12.548-21.112-5.683-13.25 5.447L554.2 308.99zM583.39 101.27c-.476-.433-21.981 16.113-27.29 19.43-10.325 8.633 3.685 20.5 10.898 8.981l16.392-28.411zM406.19 289.01c.443.463 23.109-14.627 28.648-17.587 10.933-7.933-2.174-20.693-10.213-9.676L406.19 289.01zM372.16 149.32c-.27.57 23.385 14.229 28.461 17.858 12.043 6.327 19.153-10.154 5.283-12.736l-33.744-5.122zM618.18 244.65c.312-.55-22.285-15.734-27.084-19.688-11.55-7.104-19.852 8.869-6.204 12.358l33.287 7.33zM539.99 77.233c-.612-.234-14.089 22.698-17.717 27.646-6.2 11.65 11.46 17.735 13.64 4.502l4.077-32.148zM449.05 313.82c.593.274 15.718-21.716 19.7-26.414 7.039-11.214-10.133-18.446-13.277-5.388l-6.423 31.802zM374 246.64c.24.583 27.103-5.826 33.393-6.712 13.204-3.702 5.783-20.06-5.884-12.498L374 246.64zM618.27 147.29c-.196-.597-27.465 4.03-33.805 4.5-13.444 2.824-7.24 19.63 4.954 12.855l28.85-17.355z" style="fill-rule:evenodd;stroke-width:.25;fill:#ffe400"/><path d="M517.93 71.773c-.645-.132-9.794 24.643-12.477 30.106-4.01 12.481 14.487 15.621 14.25 2.23l-1.774-32.335zM470.96 319.64c.634.174 11.576-23.939 14.653-29.212 4.916-12.187-13.307-16.537-14.053-3.162l-.6 32.374zM461.52 74.174c-.644.134 1.888 26.271 1.84 32.296 1.82 12.932 20.026 8.513 13.943-3.577l-15.78-28.716zM527.46 318.16c.653-.091.042-26.332.53-32.34-.867-13.021-19.351-9.81-14.17 2.651l13.64 29.689zM414.77 95.934c-.54.358 12.392 23.569 14.79 29.149 6.923 11.278 21.939.574 11.422-8.376l-26.21-20.776zM574.57 297.24c.566-.322-10.635-24.328-12.619-30.052-6.08-11.706-21.845-2.016-12.009 7.604l24.627 22.448zM380.71 128.45c-.37.518 20.487 17.793 24.837 22.188 10.73 8.177 20.698-6.917 7.494-11.699L380.71 128.45zM607.61 263.7c.406-.492-19.134-19.098-23.152-23.768-10.105-8.863-21.155 5.538-8.333 11.177L607.61 263.7zM365.82 169.04c-.169.604 25.524 10.419 31.158 13.214 12.972 4.378 17.146-12.982 3.016-13.383l-34.174.17zM624.91 224.98c.213-.592-24.698-12.074-30.113-15.232-12.619-5.222-18.056 11.822-3.99 13.152l34.103 2.08zM364.97 218.93c.091.619 27.791.225 34.128.73 13.749-.73 10.49-18.265-2.698-13.443l-31.43 12.713zM626.81 175.26c-.046-.624-27.707-2.053-33.992-2.974-13.769-.176-11.803 17.532 1.706 13.589l32.285-10.615zM388.7 270.69c.368.519 25.102-11.303 31.035-13.471 12.03-6.349 1.012-20.772-8.627-10.975L388.7 270.691zM604.08 123.11c-.329-.542-25.869 9.624-31.947 11.397-12.466 5.542-2.532 20.656 7.802 11.517l24.145-22.914zM429.04 304.91c.556.337 18.258-19.852 22.786-24.084 8.358-10.369-7.819-19.431-12.532-6.804L429.04 304.91zM564.38 88.197c-.53-.373-19.669 18.603-24.496 22.526-9.098 9.794 6.376 19.898 12.003 7.612l12.49-30.143z" style="fill-rule:evenodd;stroke-width:.25;fill:#ffe400"/><g style="fill:#ffe400"><path d="M387.6 291.56c.23.3.16.81.82.75 1 0 1.03-.81 1.03-1.38 0-.56-1.5-1.35-1.57-2.18s.35-1.06.7-1.06c.34 0 .58.26.58.5 0 .23-.17.29-.41.29s.1-.16-.11-.29c-.2-.14-.34.19-.34.39s.52.27.86.12c.08.45.11.48-.38 1.25.35-.3.38-.37.77-.2-.39-.43-.1-1.31-.09-1.54.02-.22-.07-.49-.22-.62-.28-.33-.89-.35-1.25-.13-.53.31-.56 1.22-.42 1.52l1.47 1.98c.1.24.14.88-.49.92-.65.06-.88-1.12-1-1.51-.15.43-.33 1.61-.99 1.55-.62-.04-.74-.68-.64-.92l1.51-2.02c.14-.3.11-1.21-.42-1.52-.36-.22-.97-.2-1.25.13-.15.13-.24.4-.23.62.02.23.3 1.11-.08 1.54.38-.17.42-.1.76.2-.48-.77-.45-.8-.38-1.25.35.15.87.08.87-.12s-.14-.53-.35-.39c-.21.13.14.29-.1.29-.25 0-.42-.06-.42-.29 0-.24.25-.5.59-.5.35 0 .76.23.7 1.06-.07.83-1.61 1.74-1.61 2.3 0 .57.11 1.26 1.11 1.26.66.06.74-.45.98-.75z" style="fill-rule:evenodd;fill:#ffe400" transform="matrix(14.182 0 0 10.788 -5406.8 -2660.8)"/><path d="M387.52 294.92c.24.3.43 1.2 1.09 1.14 1.01 0 1.39-.73 1.39-1.3 0-.56-2.05-5.18-2.12-6.01s.35-1.06.7-1.06c.34 0 .58.26.58.5 0 .23-.17.29-.41.29s.1-.16-.11-.29c-.2-.14-.34.19-.34.39s.52.27.86.12c.08.45.11.48-.38 1.25.35-.3.38-.37.77-.2-.39-.43-.1-1.31-.09-1.54.02-.22-.07-.49-.22-.62-.28-.33-.89-.35-1.25-.13-.53.31-.56 1.22-.42 1.52l1.98 5.62c.1.23-.18.99-.8 1.03-.66.06-.89-.85-1-1.24l.89.09s.04-.18 0-.3c-.46-.04-.89-.15-.89-.15l-.04-.6h.45l-.04-.27s-.37.04-.41 0c-.03-.03-.07-.6-.07-.6s-.07-.03-.14-.03c-.08 0-.15.03-.15.03s-.03.57-.07.6c-.03.04-.4 0-.4 0l-.04.27h.44l-.03.6s-.43.11-.9.15c-.03.12 0 .3 0 .3l.9-.09c-.12.39-.34 1.3-1 1.24-.63-.04-.9-.8-.8-1.03l1.98-5.62c.14-.3.11-1.21-.42-1.52-.36-.22-.97-.2-1.25.13-.15.13-.24.4-.23.62.02.23.3 1.11-.08 1.54.38-.17.42-.1.76.2-.48-.77-.45-.8-.38-1.25.35.15.87.08.87-.12s-.14-.53-.35-.39c-.21.13.14.29-.1.29-.25 0-.42-.06-.42-.29 0-.24.25-.5.59-.5.35 0 .76.23.7 1.06-.07.83-2.12 5.45-2.12 6.01 0 .57.38 1.3 1.39 1.3.66.06.89-.84 1.13-1.14z" style="fill-rule:evenodd;fill:#ffe400" transform="matrix(14.182 0 0 -10.788 -5406.8 3538.308)"/><path d="M387.52 294.92c.24.3.43 1.2 1.09 1.14 1.01 0 1.39-.73 1.39-1.3 0-.56-2.05-5.18-2.12-6.01s.35-1.06.7-1.06c.34 0 .58.26.58.5 0 .23-.17.29-.41.29s.1-.16-.11-.29c-.2-.14-.34.19-.34.39s.52.27.86.12c.08.45.11.48-.38 1.25.35-.3.38-.37.77-.2-.39-.43-.1-1.31-.09-1.54.02-.22-.07-.49-.22-.62-.28-.33-.89-.35-1.25-.13-.53.31-.56 1.22-.42 1.52l1.98 5.62c.1.23-.18.99-.8 1.03-.66.06-.89-.85-1-1.24l.89.09s.04-.18 0-.3c-.46-.04-.89-.15-.89-.15l-.04-.6h.45l-.04-.27s-.37.04-.41 0c-.03-.03-.07-.6-.07-.6s-.07-.03-.14-.03c-.08 0-.15.03-.15.03s-.03.57-.07.6c-.03.04-.4 0-.4 0l-.04.27h.44l-.03.6s-.43.11-.9.15c-.03.12 0 .3 0 .3l.9-.09c-.12.39-.34 1.3-1 1.24-.63-.04-.9-.8-.8-1.03l1.98-5.62c.14-.3.11-1.21-.42-1.52-.36-.22-.97-.2-1.25.13-.15.13-.24.4-.23.62.02.23.3 1.11-.08 1.54.38-.17.42-.1.76.2-.48-.77-.45-.8-.38-1.25.35.15.87.08.87-.12s-.14-.53-.35-.39c-.21.13.14.29-.1.29-.25 0-.42-.06-.42-.29 0-.24.25-.5.59-.5.35 0 .76.23.7 1.06-.07.83-2.12 5.45-2.12 6.01 0 .57.38 1.3 1.39 1.3.66.06.89-.84 1.13-1.14z" style="fill-rule:evenodd;fill:#ffe400" transform="matrix(14.182 0 0 10.788 -5406.8 -2849.568)"/><path d="M387.52 294.92c.24.3.43 1.2 1.09 1.14 1.01 0 1.39-.73 1.39-1.3 0-.56-2.05-5.18-2.12-6.01s.35-1.06.7-1.06c.34 0 .58.26.58.5 0 .23-.17.29-.41.29s.1-.16-.11-.29c-.2-.14-.34.19-.34.39s.52.27.86.12c.08.45.11.48-.38 1.25.35-.3.38-.37.77-.2-.39-.43-.1-1.31-.09-1.54.02-.22-.07-.49-.22-.62-.28-.33-.89-.35-1.25-.13-.53.31-.56 1.22-.42 1.52l1.98 5.62c.1.23-.18.99-.8 1.03-.66.06-.89-.85-1-1.24l.89.09s.04-.18 0-.3c-.46-.04-.89-.15-.89-.15l-.04-.6h.45l-.04-.27s-.37.04-.41 0c-.03-.03-.07-.6-.07-.6s-.07-.03-.14-.03c-.08 0-.15.03-.15.03s-.03.57-.07.6c-.03.04-.4 0-.4 0l-.04.27h.44l-.03.6s-.43.11-.9.15c-.03.12 0 .3 0 .3l.9-.09c-.12.39-.34 1.3-1 1.24-.63-.04-.9-.8-.8-1.03l1.98-5.62c.14-.3.11-1.21-.42-1.52-.36-.22-.97-.2-1.25.13-.15.13-.24.4-.23.62.02.23.3 1.11-.08 1.54.38-.17.42-.1.76.2-.48-.77-.45-.8-.38-1.25.35.15.87.08.87-.12s-.14-.53-.35-.39c-.21.13.14.29-.1.29-.25 0-.42-.06-.42-.29 0-.24.25-.5.59-.5.35 0 .76.23.7 1.06-.07.83-2.12 5.45-2.12 6.01 0 .57.38 1.3 1.39 1.3.66.06.89-.84 1.13-1.14z" style="fill-rule:evenodd;fill:#ffe400" transform="matrix(14.182 0 0 -10.788 -5406.8 3349.518)"/><path d="M387.52 294.92c.24.3.43 1.2 1.09 1.14 1.01 0 1.39-.73 1.39-1.3 0-.56-2.05-5.18-2.12-6.01s.35-1.06.7-1.06c.34 0 .58.26.58.5 0 .23-.17.29-.41.29s.1-.16-.11-.29c-.2-.14-.34.19-.34.39s.52.27.86.12c.08.45.11.48-.38 1.25.35-.3.38-.37.77-.2-.39-.43-.1-1.31-.09-1.54.02-.22-.07-.49-.22-.62-.28-.33-.89-.35-1.25-.13-.53.31-.56 1.22-.42 1.52l1.98 5.62c.1.23-.18.99-.8 1.03-.66.06-.89-.85-1-1.24l.89.09s.04-.18 0-.3c-.46-.04-.89-.15-.89-.15l-.04-.6h.45l-.04-.27s-.37.04-.41 0c-.03-.03-.07-.6-.07-.6s-.07-.03-.14-.03c-.08 0-.15.03-.15.03s-.03.57-.07.6c-.03.04-.4 0-.4 0l-.04.27h.44l-.03.6s-.43.11-.9.15c-.03.12 0 .3 0 .3l.9-.09c-.12.39-.34 1.3-1 1.24-.63-.04-.9-.8-.8-1.03l1.98-5.62c.14-.3.11-1.21-.42-1.52-.36-.22-.97-.2-1.25.13-.15.13-.24.4-.23.62.02.23.3 1.11-.08 1.54.38-.17.42-.1.76.2-.48-.77-.45-.8-.38-1.25.35.15.87.08.87-.12s-.14-.53-.35-.39c-.21.13.14.29-.1.29-.25 0-.42-.06-.42-.29 0-.24.25-.5.59-.5.35 0 .76.23.7 1.06-.07.83-2.12 5.45-2.12 6.01 0 .57.38 1.3 1.39 1.3.66.06.89-.84 1.13-1.14z" style="fill-rule:evenodd;fill:#ffe400" transform="matrix(14.182 0 0 10.788 -5406.8 -3038.358)"/><path d="M387.6 291.56c.23.3.16.81.82.75 1 0 1.03-.81 1.03-1.38 0-.56-1.5-1.35-1.57-2.18s.35-1.06.7-1.06c.34 0 .58.26.58.5 0 .23-.17.29-.41.29s.1-.16-.11-.29c-.2-.14-.34.19-.34.39s.52.27.86.12c.08.45.11.48-.38 1.25.35-.3.38-.37.77-.2-.39-.43-.1-1.31-.09-1.54.02-.22-.07-.49-.22-.62-.28-.33-.89-.35-1.25-.13-.53.31-.56 1.22-.42 1.52l1.47 1.98c.1.24.14.88-.49.92-.65.06-.88-1.12-1-1.51-.15.43-.33 1.61-.99 1.55-.62-.04-.74-.68-.64-.92l1.51-2.02c.14-.3.11-1.21-.42-1.52-.36-.22-.97-.2-1.25.13-.15.13-.24.4-.23.62.02.23.3 1.11-.08 1.54.38-.17.42-.1.76.2-.48-.77-.45-.8-.38-1.25.35.15.87.08.87-.12s-.14-.53-.35-.39c-.21.13.14.29-.1.29-.25 0-.42-.06-.42-.29 0-.24.25-.5.59-.5.35 0 .76.23.7 1.06-.07.83-1.61 1.74-1.61 2.3 0 .57.11 1.26 1.11 1.26.66.06.74-.45.98-.75z" style="fill-rule:evenodd;fill:#ffe400" transform="matrix(14.182 0 0 -10.788 -5406.8 3160.728)"/></g><g style="fill:#ffe400" transform="matrix(2.1144 0 0 1.9986 -392.39 -248.63)"><path d="M349.53 159.5c.63 2.5.78 16.56 14.85 30 14.06 13.44 37.96 16.41 37.96 16.41s.16 1.87-1.56 2.03c-1.72.15-9.84-1.56-13.9-2.82-4.07-1.24-7.66-3.43-8.13-3.28-.47.16-1.25 1.57-2.5 1.41s-7.03-6.25-9.53-7.81-10.94-10.78-13.75-15.32c-2.81-4.53-3.44-7.5-4.37-7.5-.94 0-4.22 2.19-4.22 2.19s-2.97-4.53-5.63-11.72c-2.65-7.18-2.34-11.4-1.72-11.71.63-.32.63 5.31 2.66 10.46 2.03 5.16 4.84 6.72 4.84 6.72s-1.87-2.65-3.28-9.37-1.87-13.13-.94-15.16c.94-2.03 1.88-2.65 2.03-2.5.16.16-1.71 3.13-.46 10.78 1.25 7.66 4.84 14.22 5.62 13.91s-.47-1.88-1.09-6.41c-.63-4.53.62-7.34 1.72-7.65.47-.47 1.25 5 1.4 7.34z" style="fill-rule:evenodd;fill:#ffe400" transform="translate(10.607 88.389)"/><path d="M339.06 174.81c-2.65-2.5-6.87-11.25-7.81-10.78s6.88 12.97 7.03 14.06c.16 1.1 1.88 4.53.63 4.07-1.25-.47-10.63-10.32-9.53-8.44 1.09 1.87 8.12 10.47 7.65 10.94-.47.46-5.78-4.69-5.93-4.07-.16.63 5.31 5.79 5.15 6.41-.15.62-3.44-3.28-3.44-2.5s3.44 4.69 3.44 5.31c0 .63-2.97-2.81-2.03-.93.94 1.87 3.59 3.59 3.44 4.21-.16.63-2.19-.78-2.19-.47 0 .32 3.91 1.72 4.84 2.82.94 1.09 7.35 8.44 12.19 12.18 4.84 3.76 18.6 10.16 19.53 10.16.94 0 2.35-2.03 2.03-2.81-.31-.78-13.75-5.31-17.5-8.75s-12.96-11.56-13.75-12.03c-.78-.47-2.81-.31-2.81-.78s2.66.31 2.5 0c-.16-.32-3.75-1.88-3.59-2.19.15-.31 2.5.62 2.5.31s-4.22-2.65-4.07-3.12c.16-.47 3.13 1.4 3.13 1.09s-4.06-3.12-3.91-3.59c.16-.47 3.13 2.18 2.97 1.56-.15-.63-2.34-3.91-2.34-4.38s3.59 3.44 3.91 2.66c.31-.78-1.26-7.19-1.1-7.34.16-.16 2.65 1.42 3.12.48.46-.94-1.84-2.24-4.06-4.08z" style="fill-rule:evenodd;fill:#ffe400" transform="translate(11.232 85.889)"/><path d="M385.18 222.67c-2.48.33-3.6-.52-2.19-2.55 1.95-.15 7.13-1.82 8.96-2.59 1.84-.76 3.79-1.86 5.42-3.33 1.62-1.61 2.49 1.03 1.68 2.39-.68.96-3.72 2.7-5.95 3.61-3.25 1.09-6.04 2.6-7.92 2.47z" style="fill-rule:evenodd;fill:#ffe400" transform="matrix(.76398 0 0 .75875 102.13 140.95)"/><path d="M398.28 216.38c-1.25-1.41-.15-2.35 1.72-3.44 2.81-1.56 2.03-3.6 5.63-5.32 1.56-.93 23.9-10 31.25-14.84 7.34-4.84 27.81-20.31 33.28-30.94 5.47-10.62 2.81-11.4 3.59-11.87s1.56 1.56 1.41 3.91c-.16 2.34-1.88 9.37-1.41 10 .47.62 8.28-5.47 11.41-12.97 3.12-7.5 5.62-15.32 7.18-15.32 1.57 0-2.65 12.82-5.31 17.82-2.65 5-5.78 7.5-5 8.59s8.6-5.47 11.25-10.31c2.66-4.85 5.16-9.22 5.63-8.28.47.93-2.5 11.25-6.72 16.09s-9.22 8.28-8.44 9.06 6.41 1.56 12.35-2.5c5.93-4.06 6.56-10 7.34-9.68.78.31-.78 8.43-6.41 13.43-5.62 5-13.28 5.47-12.97 6.57.32 1.09 16.25-4.54 15.94-3.29s-20.62 9.22-20.78 10c0 .63 3.44.79 8.91-.47 5.47-1.24 10.62-5.46 11.4-4.53.16 1.41-3.9 4.85-10.15 6.41s-9.38 3.75-9.54 4.22c-.15.47 11.1-1.41 11.1-.78 0 .62-14.69 3.44-14.84 4.22-.16.78 14.06-2.82 13.74-2.04-.31.79-19.21 6.41-19.06 6.72.16.32 15.78-3.43 15.47-2.81-.31.63-26.41 7.97-26.56 8.44-.16.47 22.97-5.16 22.81-4.69s-12.03 3.44-12.03 3.75 9.53-1.56 9.37-1.09c-.15.47-24.06 6.56-24.53 7.5s12.35-2.5 12.19-.78-27.66 11.09-27.81 9.37c-.16-1.72 16.72-6.09 16.56-6.56-.15-.47-9.69 1.09-9.84.15-.16-.93 6.25-2.96 5.78-3.43s-5.31 1.4-4.85.31c.47-1.09 9.54-5.31 9.38-5.62-.16-.32-3.28 1.09-2.97 0 .31-1.1 19.69-6.72 19.38-7.35-.32-.62-8.91 1.41-9.69 1.56-.31-.62 12.03-5.15 11.72-5.93-.32-.78-6.56 2.65-6.88 1.72-.31-.94 10.78-5.32 10.16-5.94-.63-.63-5.78 1.72-6.41 1.09-.62-.62 10.47-8.44 8.75-8.59-1.72-.16-3.75 2.34-4.06.78.31-2.03 8.75-5.31 6.88-6.88-2.97-.93-13.13.63-17.35 3.13s-18.12 16.41-21.56 18.59c-3.44 2.19-15 7.03-17.19 7.97-3.44 1.25-4.06 3.13-7.5 4.85-6.25 1.71-6.25 3.59-9.22 4.68-1.09.32-12.34 5.78-12.5 5.32z" style="fill-rule:evenodd;fill:#ffe400" transform="translate(10.607 88.389)"/><path d="M380 224.19c-1.87.93-3.59 3.43-2.5 4.37.63 1.25 2.5-2.65 4.06-2.5 1.57.16 3.75.16 7.97.47s6.41-.94 8.75-.78c2.35.16 7.66-1.25 10.16-1.25s2.97.31 3.28-.78c.31-1.1-7.81-.31-11.41-.47-3.59-.16-8.12.78-10.78.78-2.5-.15-6.87-.94-9.53.16z" style="fill-rule:evenodd;fill:#ffe400" transform="translate(13.107 87.607)"/><rect width="3.438" height="2.969" x="401.7" y="309.14" rx="1.719" ry="1.484" style="fill-rule:evenodd;stroke-width:1pt;fill:#ffe400"/><path d="M432.17 225.28c1.56-.31 5.75 1.25 8.63 2.03 5.32 2.19 15.14 1.1 15.14 2.19s-.61 2.5-2.96 2.66c-2.34.15-7.98-.94-7.82-.94.15 0 4.53 2.19 3.28 2.81-1.25.63-5-1.25-5.63-.78-.62.47 3.44 1.41 2.82 1.72-.63.31-3.45-.47-4.39-.31-.94.15.79 1.25-.3 1.72-1.1.46-2.93-.63-3.72-.32-.78.32 1.69 2.03.59 2.19-1.09.16-3.72-.78-5.13-.94-1.41-.15 1.38 1.57.45 1.72-.94.16-3.49-1.25-4.12-1.25-.62 0 .05 1.88-.88 1.88-.94 0-2.05-1.57-2.51-1.57-.47 0 .01 1.88-.93 1.88s-1.27-2.03-2.06-1.88c-.92.16.03 2.66-1.22 2.5-1.25-.15-1.42-2.65-2.36-2.5-.93.16.17 2.5-.77 2.5s-1.09-2.34-2.02-2.5c-.94-.15-.48 2.19-1.1 2.19-.63 0-1.09-2.19-1.4-2.19-.32 0-.01 2.19-1.1 2.03-1.1-.15-1.09-2.5-1.4-2.34-.32.16-.32 1.72-1.1 1.72s-.78-1.56-1.09-1.41c-.31.16-1.41 2.19-2.19 1.88s.18-1.88-.13-1.88-1.28 1.1-1.91.94c-.62-.15.04-1.41-.12-1.41s-1.59.79-2.22.79c-.62 0-2.34 1.09-2.81.15s1.22-.94 1.53-1.87c.32-.94-.91-3.6.34-4.53 1.25-.94 5.16 1.25 10.94-.32 10.62-3.12 18.82-6.71 19.67-6.56z" style="fill-rule:evenodd;fill:#ffe400" transform="matrix(1.0971 0 0 1 -29.114 82.451)"/></g></svg>