<svg width="24" height="24" viewBox="0 0 24 24" fill="none" xmlns="http://www.w3.org/2000/svg">
<g id="speaker-off">
<path id="union-1" fill-rule="evenodd" clip-rule="evenodd" d="M10.1144 5.81597C11.4436 5.15958 13 6.12679 13 7.60924V16.391C13 17.8734 11.4436 18.8407 10.1144 18.1843L6.36654 16.3335H4C2.89543 16.3335 2 15.438 2 14.3335V9.66679C2 8.56222 2.89543 7.66679 4 7.66679H6.36654L10.1144 5.81597ZM11 7.60923L7.2521 9.46005C6.97671 9.59605 6.67369 9.66679 6.36654 9.66679L4 9.66679V14.3335H6.36654C6.67369 14.3335 6.97671 14.4042 7.2521 14.5402L11 16.391V7.60923ZM16.0251 9.02525C16.4156 8.63472 17.0488 8.63472 17.4393 9.02525L18.5 10.0859L19.5606 9.02525C19.9512 8.63472 20.5843 8.63472 20.9748 9.02525C21.3654 9.41577 21.3654 10.0489 20.9748 10.4395L19.9142 11.5001L20.9748 12.5608C21.3654 12.9513 21.3654 13.5845 20.9748 13.975C20.5843 14.3655 19.9512 14.3655 19.5606 13.975L18.5 12.9143L17.4393 13.975C17.0488 14.3655 16.4156 14.3655 16.0251 13.975C15.6346 13.5845 15.6346 12.9513 16.0251 12.5608L17.0858 11.5001L16.0251 10.4395C15.6346 10.0489 15.6346 9.41577 16.0251 9.02525Z" fill="black"/>
</g>
</svg>
