<svg width="24" height="24" viewBox="0 0 24 24" fill="none" xmlns="http://www.w3.org/2000/svg">
<g id="star-outline">
<path id="union-1" fill-rule="evenodd" clip-rule="evenodd" d="M10.2031 4.08956C10.9607 2.63681 13.0396 2.63682 13.7972 4.08956L15.8145 7.95765C15.8185 7.96535 15.826 7.97062 15.8346 7.9718L20.2483 8.57872C21.9454 8.81207 22.6056 10.9149 21.3464 12.0764L18.2268 14.954C18.2201 14.9602 18.217 14.9694 18.2187 14.9784L18.9649 19.0958C19.2623 20.7369 17.561 22.0148 16.0678 21.2719L12.0121 19.2541C12.0046 19.2504 11.9957 19.2504 11.9882 19.2541L7.93245 21.2719C6.43926 22.0148 4.73794 20.7369 5.03537 19.0958L5.78163 14.9784C5.78326 14.9694 5.78017 14.9602 5.77343 14.954L2.65386 12.0764C1.39472 10.9149 2.05493 8.81207 3.75197 8.57872L8.16566 7.9718C8.17425 7.97062 8.18174 7.96535 8.18575 7.95765L10.2031 4.08956ZM11.9836 5.00325C11.9835 5.00331 11.9807 5.00615 11.9764 5.0144L9.95908 8.88249C9.65545 9.46468 9.0886 9.86371 8.43811 9.95316L4.02442 10.5601C4.01882 10.5608 4.01519 10.5618 4.0132 10.5623C4.01205 10.5627 4.01126 10.5629 4.01076 10.5631C4.01068 10.5632 4.01062 10.5632 4.01056 10.5632C4.00937 10.5645 4.00543 10.5693 4.00251 10.5786C3.9996 10.5879 4.00009 10.594 4.00033 10.5958C4.00061 10.5962 4.00113 10.597 4.00199 10.598C4.00329 10.5996 4.00575 10.6025 4.00991 10.6063L7.12948 13.4839C7.63934 13.9542 7.87327 14.6526 7.74957 15.3351L7.00331 19.4525C7.00238 19.4576 7.00213 19.4611 7.00206 19.463C7.00199 19.465 7.00209 19.466 7.00211 19.4663C7.00214 19.4665 7.00215 19.4665 7.00209 19.4663C7.00204 19.466 7.00199 19.4659 7.00202 19.466C7.00223 19.4665 7.00507 19.4723 7.01358 19.4787C7.02208 19.4851 7.02844 19.4862 7.02899 19.4863C7.02907 19.4863 7.02896 19.4863 7.02874 19.4863C7.0285 19.4863 7.02845 19.4863 7.02871 19.4863C7.02889 19.4862 7.02949 19.4861 7.03055 19.4858C7.03092 19.4857 7.03135 19.4856 7.03183 19.4854C7.03369 19.4848 7.03694 19.4836 7.04159 19.4813L11.0974 17.4635C11.666 17.1806 12.3343 17.1806 12.9029 17.4635L16.9587 19.4813C16.9633 19.4836 16.9666 19.4848 16.9684 19.4854C16.9694 19.4857 16.9701 19.4859 16.9706 19.4861C16.9711 19.4862 16.9714 19.4862 16.9716 19.4863C16.9718 19.4863 16.9718 19.4863 16.9715 19.4863C16.9713 19.4863 16.9712 19.4863 16.9713 19.4863C16.9718 19.4862 16.9782 19.4851 16.9867 19.4787C16.9952 19.4723 16.998 19.4665 16.9983 19.466C16.9983 19.4659 16.9982 19.466 16.9982 19.4663C16.9981 19.4665 16.9981 19.4665 16.9982 19.4663C16.9982 19.466 16.9983 19.465 16.9982 19.463C16.9982 19.4611 16.9979 19.4576 16.997 19.4525L16.2507 15.3351C16.127 14.6526 16.3609 13.9542 16.8708 13.4839L19.9904 10.6063C19.9945 10.6025 19.997 10.5996 19.9983 10.598C19.9991 10.5971 19.9996 10.5963 19.9999 10.5959L19.9999 10.5961L19.9999 10.5962L19.9999 10.5963C19.9999 10.5963 19.9999 10.5961 19.9999 10.5958C20.0001 10.5956 20.0002 10.5954 20.0002 10.5954C20.0003 10.5952 20.0002 10.5954 20.0001 10.5957L19.9999 10.5959C19.9999 10.5959 19.9999 10.5958 19.9999 10.5958C20.0002 10.594 20.0007 10.5879 19.9978 10.5786C19.9949 10.5693 19.9909 10.5645 19.9897 10.5632C19.99 10.5633 19.9901 10.5634 19.9902 10.5634C19.9903 10.5635 19.9902 10.5634 19.9899 10.5632L19.9895 10.563C19.9894 10.5629 19.9894 10.5629 19.9894 10.5629C19.9894 10.5629 19.9895 10.563 19.9897 10.5632C19.9892 10.563 19.9884 10.5627 19.9871 10.5623C19.9851 10.5618 19.9815 10.5608 19.9759 10.5601L15.5622 9.95316C14.9117 9.86371 14.3448 9.46468 14.0412 8.88249L12.0239 5.0144C12.0196 5.00615 12.0167 5.00331 12.0167 5.00326C12.0165 5.00303 12.0166 5.00317 12.0166 5.00315C12.0159 5.00276 12.0103 5 12.0001 5C11.99 5 11.9844 5.00276 11.9837 5.00315C11.9837 5.00317 11.9838 5.00303 11.9836 5.00325Z" fill="black"/>
</g>
</svg>
