<svg xmlns="http://www.w3.org/2000/svg" width="18" height="18" viewBox="0 0 992.13 496.06"><path d="M0 0h992.13v496.06H0z" style="fill-rule:evenodd;stroke-width:1pt;fill:#fff"/><path d="M0 0h992.13v171.7H0z" style="fill-rule:evenodd;stroke-width:1pt;fill:#94acd4"/><path d="M0 160.33h992.13v11.374H0z" style="fill-rule:evenodd;stroke-width:1pt;fill:#b73000"/><path d="M0 335.73h992.13v160.33H0z" style="fill-rule:evenodd;stroke-width:1pt;fill:#00a900"/><path d="M0 335.73h992.13v11.374H0z" style="fill-rule:evenodd;stroke-width:1pt;fill:#b73000"/><path d="m205.58 128.74-10.01-6.85-9.91 7.01 3.42-11.64-9.72-7.25 12.12-.35 3.89-11.495 4.08 11.425 12.13.15-9.6 7.41z" style="fill-rule:evenodd;stroke-width:1pt;fill:#feffff" transform="matrix(.92289 0 0 .92799 71.38 -68.428)"/><path d="m205.58 128.74-10.01-6.85-9.91 7.01 3.42-11.64-9.72-7.25 12.12-.35 3.89-11.495 4.08 11.425 12.13.15-9.6 7.41z" style="fill-rule:evenodd;stroke-width:1pt;fill:#feffff" transform="matrix(.92289 0 0 .92799 27.81 17.296)"/><path d="m205.58 128.74-10.01-6.85-9.91 7.01 3.42-11.64-9.72-7.25 12.12-.35 3.89-11.495 4.08 11.425 12.13.15-9.6 7.41z" style="fill-rule:evenodd;stroke-width:1pt;fill:#feffff" transform="matrix(.92289 0 0 .92799 71.798 17.296)"/><path d="m205.58 128.74-10.01-6.85-9.91 7.01 3.42-11.64-9.72-7.25 12.12-.35 3.89-11.495 4.08 11.425 12.13.15-9.6 7.41z" style="fill-rule:evenodd;stroke-width:1pt;fill:#feffff" transform="matrix(.92289 0 0 .92799 112.44 17.296)"/><path d="m205.58 128.74-10.01-6.85-9.91 7.01 3.42-11.64-9.72-7.25 12.12-.35 3.89-11.495 4.08 11.425 12.13.15-9.6 7.41z" style="fill-rule:evenodd;stroke-width:1pt;fill:#feffff" transform="matrix(.92289 0 0 .92799 150.14 17.296)"/><path d="m205.58 128.74-10.01-6.85-9.91 7.01 3.42-11.64-9.72-7.25 12.12-.35 3.89-11.495 4.08 11.425 12.13.15-9.6 7.41z" style="fill-rule:evenodd;stroke-width:1pt;fill:#feffff" transform="matrix(.92289 0 0 .92799 -18.272 17.296)"/><path d="m205.58 128.74-10.01-6.85-9.91 7.01 3.42-11.64-9.72-7.25 12.12-.35 3.89-11.495 4.08 11.425 12.13.15-9.6 7.41z" style="fill-rule:evenodd;stroke-width:1pt;fill:#feffff" transform="matrix(.92289 0 0 .92799 26.972 -25.25)"/><path d="m205.58 128.74-10.01-6.85-9.91 7.01 3.42-11.64-9.72-7.25 12.12-.35 3.89-11.495 4.08 11.425 12.13.15-9.6 7.41z" style="fill-rule:evenodd;stroke-width:1pt;fill:#feffff" transform="matrix(.92289 0 0 .92799 71.38 -25.25)"/><path d="m205.58 128.74-10.01-6.85-9.91 7.01 3.42-11.64-9.72-7.25 12.12-.35 3.89-11.495 4.08 11.425 12.13.15-9.6 7.41z" style="fill-rule:evenodd;stroke-width:1pt;fill:#feffff" transform="matrix(.92289 0 0 .92799 113.27 -25.25)"/><path d="m205.58 128.74-10.01-6.85-9.91 7.01 3.42-11.64-9.72-7.25 12.12-.35 3.89-11.495 4.08 11.425 12.13.15-9.6 7.41z" style="fill-rule:evenodd;stroke-width:1pt;fill:#feffff" transform="matrix(.92289 0 0 .92799 149.72 -25.25)"/><path d="m205.58 128.74-10.01-6.85-9.91 7.01 3.42-11.64-9.72-7.25 12.12-.35 3.89-11.495 4.08 11.425 12.13.15-9.6 7.41z" style="fill-rule:evenodd;stroke-width:1pt;fill:#feffff" transform="matrix(.92289 0 0 .92799 149.3 -68.428)"/><path d="m205.58 128.74-10.01-6.85-9.91 7.01 3.42-11.64-9.72-7.25 12.12-.35 3.89-11.495 4.08 11.425 12.13.15-9.6 7.41z" style="fill-rule:evenodd;stroke-width:1pt;fill:#feffff" transform="matrix(.92289 0 0 .92799 112.85 -68.428)"/><path d="M142.44 25.951C93.004 12.4 61.688 47.399 62.16 78.763c.471 31.367 29.377 64.577 73.99 56.297-70.098 32.85-105.95-18.9-104.52-59.983 2.462-48.559 57.045-88.161 110.81-49.126z" style="fill-rule:evenodd;fill:#fff"/></svg>